<svg id="client_logos" data-name="client logos" xmlns="http://www.w3.org/2000/svg" viewBox="0 0 192.98 95.55"><defs><style>.cls-1{stroke:#000;stroke-miterlimit:10;}</style></defs><path class="cls-1" d="M31.92.6c-3.66.64-8.55,5.5-13,12.88-2.41,4-4.48,11.74-5.84,18h-7l-.76,3.5h7c-.22,1.15-.41,2.18-.56,3C10.78,43.59,0,94.68.52,94.93a1.42,1.42,0,0,0,1.09,0s3.09-1,3.37-1.7C5.16,92.8,13.2,59,18.13,34.93h8.53l1-3.5H18.84c2.83-13.93,4.55-22,6.84-24.14s4.23-1.24,4.46-1.1A15.17,15.17,0,0,0,33.6,7.85c1.5.13,2-1.45,2.33-3.11C36.35,2.6,35.62,0,31.92.6Z"/><path class="cls-1" d="M57.43,39.54c.77,0,3.42.51,3.77.42s1.37.24,2.26-2.27,1.4-5.4.93-6.17-1.8-1.88-2.56-1.54a21,21,0,0,0-7.4,8.36c-2.58,5.12-7,13.39-7,13.39s3.07-12.28,3.63-15.18c.31-1.61.91-3.33-.7-5.54A2.38,2.38,0,0,0,47,30.24c-1.46.77-4.61,3.58-9.21,10.4l-1.33,2L37.33,44s11.1-15.1,7.33,1.54S38.31,73.4,38.31,73.4a3.12,3.12,0,0,0,2.09,1.36,8.63,8.63,0,0,0,2.79-.42s4.73-20.89,8.06-26.57C51.25,47.77,55.34,39.62,57.43,39.54Z"/><path class="cls-1" d="M105,34.08a7.18,7.18,0,0,0-5.17-3.84,12.15,12.15,0,0,0-3.42,0,14.15,14.15,0,0,0-4.88,1.45c-2.17,1.11-2.79,1.53-6.56,5.46s-7.74,12.28-9.08,20c-1.11,6.39-.14,10.4,1,12.45,1,1.86,4,6,8.65,5.21A20,20,0,0,0,98.4,67.6c4.25-4.86,4.18-4.95,4.18-4.95l-.9-1.28S95.33,68.62,90.3,69.9c-3.76,1-7.23.29-8.44-3.92s-.21-10.58.48-10.92,10.19-1.54,14.94-5.12,6-5.41,7.4-8.19A8.72,8.72,0,0,0,105,34.08ZM96.51,45.86c-3,4.44-11,6.56-12,6.8s-1.74-.16-1.88-.67,1.47-5.12,4.26-10.75,4.84-6.75,7.19-7.93a7.22,7.22,0,0,1,2.79-.6c1.91.34,2.81,1.79,2.86,4C99.79,39.62,99.76,41,96.51,45.86Z"/><path class="cls-1" d="M142.68,33.86a3.88,3.88,0,0,0-2.2-2.6c-1.89-.85-5.67-1.86-7.37-.89S125,36,123.45,38.6c-1.33,2.22-2.09,3.67-1.61,7a10.12,10.12,0,0,0,4,6.82c2.25,1.8,9.16,7.68,10.06,10.41a4.48,4.48,0,0,1-.35,4.18,6.24,6.24,0,0,1-4.74,2.47c-1.95.15-6.46-.21-8.87-2.38a8,8,0,0,1-2.72-4.27c-.28-.94-.56-1.28-.9-.94s-2.34,3.81-1.89,6.57c.52,3.2,1.43,3.71,4.26,5.29s6.07,1.28,9.28.43a8.47,8.47,0,0,0,4.61-2.73c.69-.77,5.89-6.61,6-10.67.08-3.26-.94-5.16-3-7.5-1.82-2.07-7.68-6.14-9.42-8.62-1.49-2.1-2.38-3.24-1.4-6a6.65,6.65,0,0,1,3.91-3.76,8.43,8.43,0,0,1,4.33.26c1.18.43,3.21,1.19,3.76,2.22s.32,1.15,1.19,2.13c.49.55.91.78,1.43.21a5.29,5.29,0,0,0,1.26-2.55A6.67,6.67,0,0,0,142.68,33.86Z"/><path class="cls-1" d="M165.46,3a29.5,29.5,0,0,0,5.24-.68c1.6-.51,4.67-1.54,4.67-1.54h1s.3.17.09.86-11,49.06-11,49.06a1.48,1.48,0,0,0,1.33-.7c.51-.8,5.93-9.81,9.07-12.8s7.68-6.91,10.62-7.17c2.59-.23,6.13.69,6,8.2-.14,7.76-1.67,11.34-4.6,18.59-2.58,6.37-5.66,11.43-7.05,12.88s-5.31,4-6.49,3.41c-.88-.47-1.47-1.62-.14-5s1.18-3.32,1.18-3.32,5,.85,5.45-.09,4-10.57,4.67-14.16,2.29-14.32-1-14.75c-1.33-.17-4.75-.17-10.47,6.91-5.33,6.59-8.87,14.24-9.77,17.4s-2.52,11.51-2.86,12a3.24,3.24,0,0,1-3.07.86A8.71,8.71,0,0,1,155.83,72l13-65.08L165,4.14Z"/></svg>