<svg id="client_logos" data-name="client logos" xmlns="http://www.w3.org/2000/svg" viewBox="0 0 447.99 177.83"><defs><style>.cls-1{fill:#002073;}</style></defs><path class="cls-1" d="M448,52.81c-3.25,2.9-6.39,5.94-9.78,8.67-4,3.2-8.21,6.06-12.22,9.21a91.4,91.4,0,0,0-12.64,12.85c-4,4.68-8.2,9.17-11.72,14.24-4.29,6.18-7.85,12.71-9.37,20.14A74.67,74.67,0,0,0,391,128c-.25,4.21-.3,8.45-.18,12.66a80.14,80.14,0,0,0,1.94,15.65c.54,2.33,1.25,4.62,1.69,7a7.63,7.63,0,0,1-1.29,5.69c-.88,1.34-1.67,1.37-2.91.33-5.82-4.85-10.29-10.84-14.69-17-5.43-7.54-9.18-15.85-12.42-24.46-.75-2-1.71-3.89-2.46-5.88a8.24,8.24,0,0,0-4.34-4.42c-17.42-9-34.51-18.53-50.72-29.59-6.41-4.38-12.68-9-19.24-13.16a126.5,126.5,0,0,0-39-16.47c-7-1.64-14-3.19-21-4.73a10.59,10.59,0,0,0-7.37.95,214.76,214.76,0,0,0-31.6,20.65c-3.45,2.67-6.77,5.5-10.25,8.13a36.94,36.94,0,0,1-4.7,2.7,5,5,0,0,1-1.26.28,22.29,22.29,0,0,1,1.5-7.29A108.32,108.32,0,0,1,184.6,56.37c1.29-1.86,2.58-3.73,3.71-5.68a30.24,30.24,0,0,0,1.59-3.85l-.36-.39c-1.64.55-3.33,1-4.89,1.68-7,3.12-13.17,7.54-19.07,12.38-8.53,7-16.37,14.76-24.22,22.5a53.46,53.46,0,0,1-5.73,4.49c-.48.35-1.06.74-1.76.29s-.67-1.07-.65-1.78c.05-3.79,1.47-7.24,2.67-10.74,3.38-9.8,7.3-19.36,12.76-28.24a38.13,38.13,0,0,0,2-4.07,4.38,4.38,0,0,0,.14-.94c-2-.13-4-.34-6-.38a114.16,114.16,0,0,0-19.88,1.58A292.35,292.35,0,0,0,84,52.56c-10.41,3.18-19.83,8.28-28.79,14.33q-7.6,5.13-15,10.51a51.24,51.24,0,0,0-4.82,4.54c1.9,1.52,3.56,3,5.32,4.23,3.71,2.71,7.51,5.31,11.2,8a20.9,20.9,0,0,1,2.85,2.87c.72.79.7,1.3-.21,1.92a32.09,32.09,0,0,1-4,2.4,24.68,24.68,0,0,1-7.23,2.8,5.53,5.53,0,0,1-4.32-1c-4.69-3.54-9.44-7-14-10.72-6.25-5.07-12.49-10.16-18-16-1.69-1.79-3.4-3.57-5-5.43A10.89,10.89,0,0,1,.41,68.53a3.44,3.44,0,0,1,.43-3.88A23.08,23.08,0,0,1,9,58.32a295.18,295.18,0,0,1,69.07-25.2C87.36,31,96.65,29.22,106.05,28c6.65-.9,13.35-1.47,20-2.1,4-.37,8-.63,12-.82,2.67-.13,5.35,0,8-.06,4.39,0,8.79-.22,13.19-.08,5.53.17,11.07.47,16.58.94,6.12.53,12.21,1.43,18.33,2s12.18,2,18.28,2.85a1.61,1.61,0,0,0,1.17-.33c11.68-11.19,25.46-18.79,40.72-23.87A123.58,123.58,0,0,1,271.92,2C278,.92,284.1-.13,290.31,0c4.12.1,8.24.14,12.36.31a10.68,10.68,0,0,1,3.62.79c2.27,1,2.62,2.86.85,4.57s-3.88,3.35-5.77,5.09c-5.36,5-11.1,9.62-15.1,15.79a66.74,66.74,0,0,0-8.73,19.27,12.3,12.3,0,0,0-.35,1.79,3.43,3.43,0,0,0,1.72,3.64q21.64,14.24,43.2,28.6a4.85,4.85,0,0,0,4.48.68c3.14-1,6.29-2,9.5-2.78a25.33,25.33,0,0,1,5-.2c.57,0,.78.26.88.85a9,9,0,0,1-1.09,5.45c-.86,1.8-1.73,3.58-2.62,5.36a1.09,1.09,0,0,0,.43,1.54c4.13,3.32,8.81,5.77,13.43,8.29a17.07,17.07,0,0,0,3.64,1.45,2.22,2.22,0,0,0,1.74-.4c1.46-1.26,2.82-2.62,4.19-4,6.2-6.19,12.19-12.6,18.62-18.53a124.64,124.64,0,0,1,26.9-18.7,88,88,0,0,1,21.95-8.37c4.72-1,9.46-1.66,14.25-.51A10,10,0,0,1,448,52Z"/><path class="cls-1" d="M293.45,177.83c-.6-.23-1.21-.4-1.78-.68a6.15,6.15,0,0,1-3.41-7.24,6.41,6.41,0,0,1,12.47.64,6.27,6.27,0,0,1-4.43,7,8.11,8.11,0,0,0-.82.31Zm6.17-6.25a5.14,5.14,0,0,0-5.2-5.2,5.16,5.16,0,1,0,0,10.31A5.13,5.13,0,0,0,299.62,171.58Z"/><path class="cls-1" d="M112.1,177.83a8,8,0,0,1-3.81-2.17,6.08,6.08,0,0,1-1.13-6.36,5.8,5.8,0,0,1,5.3-4,6,6,0,0,1,5.83,2.77,1.62,1.62,0,0,1,.13.39,1.37,1.37,0,0,1-1.63-.46,4.93,4.93,0,0,0-7.23-.26,5.08,5.08,0,0,0-.14,7.35,5,5,0,0,0,7.25,0,3.49,3.49,0,0,1,1.68-.78,4.87,4.87,0,0,1-3.11,3l-1.11.41Z"/><path class="cls-1" d="M205.51,177.83c-2.56-.79-3.32-2.67-3.24-5.15s0-4.72,0-7.13h1.16v5.55c0,.88,0,1.76,0,2.64a2.84,2.84,0,0,0,2.83,2.95,2.74,2.74,0,0,0,2.92-2.84c.08-2.36,0-4.72.05-7.09v-1.23h1.16V168c0,1.55,0,3.11,0,4.66.08,2.48-.69,4.37-3.28,5.13Z"/><path class="cls-1" d="M170.79,177.83c-1.17-.55-2.33-1.1-2.67-2.52-.07-.32-.11-.65-.18-1H169c.57,1.93,1.23,2.5,2.8,2.42a2.47,2.47,0,0,0,2.23-1.76,2.17,2.17,0,0,0-1.11-2.59,17.45,17.45,0,0,0-2.25-.87c-2-.71-2.64-1.78-2.3-3.7a3.29,3.29,0,0,1,3.38-2.48,3.21,3.21,0,0,1,3.19,3.08c-.68.32-1.05.16-1.31-.61a2.17,2.17,0,0,0-4.11.21,1.75,1.75,0,0,0,1,2.17,19.71,19.71,0,0,0,2,.7c1.77.62,2.66,1.7,2.67,3.27,0,1.77-.75,2.82-2.59,3.53-.09,0-.15.12-.23.19Z"/><path class="cls-1" d="M214.71,92a31.69,31.69,0,0,1-1.5,3.26,20.1,20.1,0,0,0-2.74,7.54,35.86,35.86,0,0,0,0,10.19c.18,1.3.45,2.58.7,4a20.33,20.33,0,0,1-4-5.3c-1.74-3.2-1.91-6.63-1.53-10.13.2-1.88.54-3.74.7-5.62a6.76,6.76,0,0,0-3-6.28,3.13,3.13,0,0,0-4.38.87,9.81,9.81,0,0,0-1.87,6.87c.33,5.45,2.92,9.93,6.17,14.12,2.38,3.07,4.82,6.1,7.06,9.28A37.39,37.39,0,0,1,217,137.29c.78,5.35.06,10.45-3.46,14.83a14.24,14.24,0,0,1-9.64,5.19,15.7,15.7,0,0,1-8.26-.75,13.58,13.58,0,0,1-7.23-7.18c-2.39-5.21-2.9-10.55-.7-16a11.81,11.81,0,0,1,4.37-5.43c-.16,1.57-.37,3.08-.46,4.6-.3,5,.13,10,2.55,14.54,1.57,3,4,4.84,7.46,4.94a5.26,5.26,0,0,0,4.71-2.66,12.76,12.76,0,0,0,1.86-5.91c.58-6.18-1.39-11.74-4.49-16.9-2.95-4.92-6.17-9.67-9.36-14.45a22.73,22.73,0,0,1-4-10.37c-.38-3.88-.28-7.78,2.37-11,2.49-3,5.7-4.7,9.72-3.82a7.32,7.32,0,0,1,3.12,1.9c2.13,2,4.42,3.44,7.44,3.35C213.46,92.22,213.88,92.13,214.71,92Z"/><path class="cls-1" d="M235.86,102.41l13.88.81c-.33.77-.57,1.43-.88,2a24.55,24.55,0,0,0-2.77,11.07c-.05,3.45-.3,6.89-.3,10.33,0,3.85.14,7.7.34,11.55A11.29,11.29,0,0,0,248.3,144l1.26,1.86a2.34,2.34,0,0,1-2.81.6,12.32,12.32,0,0,0-6.57.08,12.26,12.26,0,0,1-3.58,0c-1-.06-1-.74-.69-1.45a14.41,14.41,0,0,1,.75-1.32,14.14,14.14,0,0,0,2-7.32c0-1.89,0-3.78,0-5.68a2.4,2.4,0,0,0-1.06-2.06,7.5,7.5,0,0,0-8.29-.4,2.27,2.27,0,0,0-1,1.6c.06,3.1.19,6.21.48,9.3a11,11,0,0,0,2.38,5.29l1.12,1.6a8,8,0,0,1-1.91.31c-2.84-.32-5.64-.71-8.5.2-1.16.37-2.58-.05-4.05-.12.48-1.05.78-1.87,1.22-2.62a15.48,15.48,0,0,0,2-7.93c0-4,.16-8,.18-12,0-4.33,0-8.66,0-13a14.68,14.68,0,0,0-2.1-7.6,4.48,4.48,0,0,1-.44-.8c-.2-.54,0-.85.6-.82l13,.58c-.2.41-.35.73-.49,1a42,42,0,0,0-3.9,16.48c-.06,2.09.46,2.56,2.56,2.55,1.11,0,2.23,0,3.34-.08,1.68-.12,3.35-.32,5.16-.5C238.61,115.3,239.83,108.64,235.86,102.41Z"/><path class="cls-1" d="M80.47,131.14v25.68l-.23.1c-1-2-2.22-3.81-4.31-4.74s-4.05-1.64-6.17-2.49c2-2.34,2.2-5.11,2.2-8,0-9.13.13-18.25.13-27.38,0-2.41-.06-4.87-1.38-7a34.1,34.1,0,0,0,5.48-.36,36.54,36.54,0,0,0,5.22-2,34.13,34.13,0,0,0-.79,3.53,50.1,50.1,0,0,0-.41,5.34c0,2.66,0,5.34.07,8a2.43,2.43,0,0,0,.55,1.42c2.88,3.19,7,3,9.55-.44a18.46,18.46,0,0,0,3.25-9,16.88,16.88,0,0,0-.51-7.41,11.93,11.93,0,0,0-14.55-8.12A20,20,0,0,0,65,109.29a11.36,11.36,0,0,0,.44,10.86c.31.56.64,1.11,1,1.75a15.75,15.75,0,0,0-7.56,1.64,13.52,13.52,0,0,1-.44-6.81c2-10.73,8.93-17,18.89-20.45,3.75-1.28,7.56-1.81,11.38-.34a15,15,0,0,1,9.88,11.79A24.54,24.54,0,0,1,94,127.23c-3.06,4.18-7.29,5.44-12.29,4.1l-.88-.23A1.33,1.33,0,0,0,80.47,131.14Z"/><path class="cls-1" d="M174,147H162.67a30.65,30.65,0,0,1,.87-3.3,6.63,6.63,0,0,0,.21-4.15,28.5,28.5,0,0,0-4.62-9.59c-1-1.4-2-2.82-3.14-4.48-.32,1.46-.64,2.69-.84,3.94-.6,3.62-1.15,7.25-1.71,10.87a12.14,12.14,0,0,0,.45,6,5.58,5.58,0,0,1,.18.58c0,.06,0,.13,0,.22H143.3a11.15,11.15,0,0,1,.56-1.28c2.57-4.46,3.55-9.4,4.41-14.39,1-5.93,2.17-11.84,3.1-17.78.5-3.22.66-6.49,1-9.74,0-.42,0-.86,0-1.34l14.19-.71c-.21,2.18-.55,4.37-.61,6.57a64.37,64.37,0,0,0,2,16.81c1.47,6.14,3.07,12.25,4.67,18.36A30.62,30.62,0,0,0,174,147Zm-11.35-16.4.32-.14q-1.74-10.17-3.47-20.33h-.29c-.81,3.78-1.59,7.56-2.43,11.33a3.14,3.14,0,0,0,.75,2.8c1.21,1.5,2.36,3,3.55,4.55C161.52,129.42,162.07,130,162.6,130.59Z"/><path class="cls-1" d="M250.22,147a47.83,47.83,0,0,0,2.72-6c1-3.33,1.81-6.74,2.52-10.16,1.2-5.72,2.35-11.46,3.34-17.22.52-3,.63-6.15.93-9.23,0-.13,0-.26,0-.49l14.12,1.45a37.66,37.66,0,0,0-.39,4,81.79,81.79,0,0,0,.29,9.79,158,158,0,0,0,4.41,21.31c.66,2.42,1.56,4.77,2.33,7.1h-11a15.68,15.68,0,0,1,.73-2.72,7.2,7.2,0,0,0,.1-5.49,32.73,32.73,0,0,0-4.66-8.92c-.84-1.2-1.65-2.42-2.47-3.64H263c-.33,1.59-.69,3.18-1,4.77-.51,2.71-1,5.44-1.47,8.15a13.37,13.37,0,0,0,.54,7.63Zm19.37-15,.35-.15q-1.6-9.77-3.22-19.54a1.47,1.47,0,0,0-.48.76c-.76,3.13-1.47,6.27-2.29,9.39a3.32,3.32,0,0,0,.72,3.17c1,1.26,1.94,2.59,2.92,3.88C268.24,130.38,268.93,131.19,269.59,132Z"/><path class="cls-1" d="M104.76,148H94.09a9.72,9.72,0,0,1,.48-1c2.45-3.94,3.52-8.34,4.35-12.83,1.09-5.85,2.31-11.68,3.3-17.54.47-2.71.54-5.49.78-8.24,0-.33,0-.66,0-1l14.19-1.73c-.09.72-.17,1.41-.25,2.1a48.11,48.11,0,0,0,.84,14.9,168.93,168.93,0,0,0,5,20.44c.48,1.47,1.11,2.88,1.74,4.48H113.46a14.13,14.13,0,0,1,.72-2.67,6.31,6.31,0,0,0,0-4.81,28.76,28.76,0,0,0-5.64-9.51c-.59-.73-1.15-1.49-1.92-2.48-.32,1.41-.63,2.58-.84,3.77-.6,3.44-1.2,6.89-1.71,10.35a10.91,10.91,0,0,0,0,2.91A26.8,26.8,0,0,0,104.76,148Zm8.59-15.42.23-.13q-1.74-9.31-3.49-18.62h-.29c-.81,3.6-1.65,7.19-2.37,10.8a2.77,2.77,0,0,0,.52,2c1.3,1.67,2.75,3.24,4.17,4.82A13,13,0,0,0,113.35,132.58Z"/><path class="cls-1" d="M316.88,127.05a3.86,3.86,0,0,0,.38-.44c1.59-2.59,3.19-5.17,4.74-7.78a7.24,7.24,0,0,0,.66-5.93,42.65,42.65,0,0,1,10.7,1.7c-.32.37-.52.62-.74.85a25,25,0,0,0-2.74,2.91c-1.73,2.57-3.29,5.26-4.95,7.89a1.71,1.71,0,0,0-.18,1.67,109,109,0,0,0,10.15,21.2c.05.08.08.18.18.39l-10.32-.44a15.48,15.48,0,0,0-.83-7.8c-1-3-2-5.92-3.07-9.12a7.72,7.72,0,0,0-1.16,1.33c-1,1.88-2,3.76-2.85,5.7a3.47,3.47,0,0,0-.09,2.23c.68,2.27,1.52,4.5,2.35,6.9-3.51.4-7,0-10.7.06,1.92-12.68,2.66-25.23-.54-37.92,1.17.1,2.27.16,3.36.29,1.77.22,3.54.51,5.31.72s2.19.76,1.73,2.57a31.68,31.68,0,0,0-.89,3.92c-.29,2.31-.42,4.64-.6,7-.06.68-.09,1.37-.14,2.06Z"/><path class="cls-1" d="M290,127.32c-.55,2.22-.25,4.51-.22,6.76a47.57,47.57,0,0,0,.58,6.95c.35,2.24,1,4.43,1.56,6.64l-9.93-.41c1.54-3.39,1.72-6.81,1.73-10.26,0-5.95.19-11.9.16-17.85,0-4.45-.27-8.89-2-13.24,1.6.17,3.09.32,4.58.51,2.64.34,5.3.58,7.91,1.08a9.93,9.93,0,0,1,8,8.46,13.51,13.51,0,0,1-3,11.44,3.55,3.55,0,0,0-.58,3.43,87.12,87.12,0,0,0,7.81,20.95c.07.12.2.24.19.35,0,.34-.11.68-.17,1-.29-.08-.69-.07-.87-.26-1.86-2-3.8-3.95-5.48-6.1-2.78-3.56-4.55-7.7-6.32-11.83-1-2.44-2.19-4.84-3.3-7.26a2.19,2.19,0,0,0-.26-.41Zm-.25-2c1.45-1,2.71-2,4-2.85a8.47,8.47,0,0,0,3.64-5.51c.48-2.26.4-4.47-1.46-6.18a4.33,4.33,0,0,0-4.6-1c-1.37.49-1.56,1.82-1.58,3C289.73,117,289.77,121,289.77,125.36Z"/><path class="cls-1" d="M138.19,132.51,134,124.26c-.12.3-.21.4-.21.51.09,3.81.14,7.63.29,11.44.1,2.49.28,5,.53,7.47a23.81,23.81,0,0,0,.76,3.22H126.2c.32-1.4.67-2.79.94-4.2a45.62,45.62,0,0,0,.46-10c-.11-4.79-.13-9.59-.1-14.39,0-4.55-.12-9-2.54-13.35.91-.18,1.68-.37,2.45-.47,3.54-.46,7.07-1.08,10.63-1.29a7.52,7.52,0,0,1,7.92,5.37,16,16,0,0,1-1.48,13.89c-2,3.4-4.83,6.24-6,10.11Zm-4.8-9.71c1.64-1.37,3.06-2.6,4.52-3.77,3.13-2.52,4-5.89,3.61-9.67a4.64,4.64,0,0,0-1-2.35c-1.3-1.54-3-1.36-4.75-.84s-2.28,2.07-2.31,3.66C133.34,114.05,133.39,118.27,133.39,122.8Z"/><path class="cls-1" d="M335.27,165.53h1.12v12a1.27,1.27,0,0,1-1.61-.67c-1.95-3-3.95-5.89-5.94-8.83-.16-.24-.34-.46-.72-.95v10.47l-1.11.06v-12a1.64,1.64,0,0,1,2.08.76c1.94,3,4,5.95,6.18,8.9Z"/><path class="cls-1" d="M69.07,177.58V165.37a30.08,30.08,0,0,1,4.71.45c2.37.61,2.81,3.19.94,5.33a3.11,3.11,0,0,1,1.87,3.06,3.07,3.07,0,0,1-2.66,3.19,8.24,8.24,0,0,1-1.4.17C71.42,177.6,70.31,177.58,69.07,177.58Zm1.12-1.2a27.31,27.31,0,0,0,3.4,0,2,2,0,0,0,1.83-2.08A2,2,0,0,0,73.71,172a16.74,16.74,0,0,0-3-.18.66.66,0,0,0-.49.45C70.17,173.62,70.19,175,70.19,176.38Zm0-5.59a26.52,26.52,0,0,0,2.81-.2,1.84,1.84,0,0,0,1.71-1.92,2,2,0,0,0-1.78-2,22.63,22.63,0,0,0-2.74,0Z"/><path class="cls-1" d="M243.87,167.32v10.2l-1.09.07v-12a1.71,1.71,0,0,1,2.23.89c1.77,2.75,3.64,5.45,5.47,8.16.14.22.32.41.65.83v-9.89l1-.11v12a1.1,1.1,0,0,1-1.48-.56c-1.9-2.87-3.84-5.72-5.77-8.57l-.79-1.13Z"/><path class="cls-1" d="M149.1,173.1l3.29,4.39a1.62,1.62,0,0,1-2-.7c-1-1.52-2.18-3-3.34-4.53.83-.1,1.53-.13,2.21-.27a2.61,2.61,0,0,0,2.27-2.79,2.72,2.72,0,0,0-2.56-2.56c-.67-.07-1.36,0-2-.07-1-.12-1.35.19-1.32,1.26.08,2.84,0,5.68,0,8.52v1.16h-1.09V165.4c1.78.1,3.5.09,5.19.33a3.55,3.55,0,0,1,2.94,3.62,3.63,3.63,0,0,1-2.77,3.57Z"/><path class="cls-1" d="M216.87,166.63v10.88l-1.11.09V165.35a42.89,42.89,0,0,1,5.57.55c1.76.38,2.53,1.85,2.44,3.81a3.51,3.51,0,0,1-2.77,3.22l-.71.2c1.11,1.49,2.17,2.9,3.25,4.36a1.58,1.58,0,0,1-2-.67c-1.05-1.53-2.2-3-3.38-4.56.81-.09,1.5-.13,2.17-.27a2.53,2.53,0,0,0,2.27-2.85,2.63,2.63,0,0,0-2.58-2.5C219,166.56,218,166.63,216.87,166.63Z"/><path class="cls-1" d="M130.79,165.53h1.13v12h-1.09V172h-6.28v5.55H123.4v-12l1.11-.07c0,1.49,0,2.9,0,4.31,0,.79.23,1.06,1,1,1.72,0,3.44,0,5.26,0Z"/><path class="cls-1" d="M275.82,170.75h6.28v-5.21h1.12v12l-1.08.08V172h-6.31v5.56h-1.1v-12h1.09Z"/><path class="cls-1" d="M198.56,177.49c-.91.27-1.37,0-1.64-.8a16.51,16.51,0,0,0-1.13-2.59,1.22,1.22,0,0,0-.88-.59c-1.45-.06-2.91-.06-4.36,0a1.27,1.27,0,0,0-.88.6,20.63,20.63,0,0,0-1.13,2.6c-.26.71-.63,1.07-1.49.79.06-.2.1-.41.18-.61,1.5-3.54,3-7.07,4.52-10.61.19-.44.33-.82,1-.82s.81.29,1,.76C195.32,170,196.94,173.71,198.56,177.49Zm-8.17-5.13h4.68c-.77-1.82-1.48-3.53-2.31-5.53C191.91,168.82,191.18,170.53,190.39,172.36Z"/><path class="cls-1" d="M322.58,177.5a1.1,1.1,0,0,1-1.61-.84c-.22-.7-.64-1.35-.86-2a1.4,1.4,0,0,0-1.68-1.16c-1.24.11-2.5,0-3.75.06a1.35,1.35,0,0,0-.95.63,18.6,18.6,0,0,0-1.15,2.58,1.06,1.06,0,0,1-1.52.78c.16-.41.31-.81.48-1.2,1.42-3.35,2.86-6.7,4.27-10.05.2-.46.37-.79,1-.79s.8.33,1,.79l4.51,10.5C322.4,177,322.49,177.25,322.58,177.5Zm-8.13-5.14h4.68c-.77-1.82-1.48-3.53-2.32-5.52Z"/><path class="cls-1" d="M226.87,177.48l3.3-7.79c.53-1.24,1-2.49,1.62-3.71a1,1,0,0,1,1.68,0c1.66,3.77,3.26,7.55,4.87,11.33,0,.06,0,.14,0,.2-.79.3-1.22,0-1.51-.77-.4-1.07-.67-2.5-1.48-3s-2.29-.1-3.45-.25c-1.6-.22-2.56.3-2.91,1.91-.1.46-.4.86-.54,1.31C228.19,177.45,227.76,177.81,226.87,177.48Zm8.09-5.12c-.78-1.86-1.5-3.58-2.32-5.52-.83,2-1.57,3.68-2.36,5.52Z"/><path class="cls-1" d="M103.28,177.49c-1,.33-1.37-.09-1.67-.87-.4-1-.64-2.43-1.43-2.93s-2.23-.07-3.36-.24c-1.68-.24-2.68.33-3,2-.09.42-.39.8-.5,1.21-.23.81-.67,1.12-1.56.81.22-.52.43-1,.65-1.57q2.06-4.78,4.09-9.58c.21-.49.36-.88,1-.87s.78.36,1,.81C100.05,170,101.65,173.7,103.28,177.49Zm-3.47-5.11-2.22-5.27-.26,0-2.21,5.23Z"/><path class="cls-1" d="M163.69,165.54c.26.81,0,1.07-.76,1.05-1.48,0-3,0-4.5,0v4.36c1.41,0,2.82,0,4.22,0,.32,0,.85.24.89.44.13.72-.5.55-.89.56h-4.22v4.53c1.51,0,3,0,4.46,0,.78,0,1.08.23.79,1.05h-6.42v-12Z"/><path class="cls-1" d="M81.12,165.54h6.4c.28.78,0,1.07-.77,1.05-1.21,0-2.43,0-3.65,0-.63,0-.93.15-.89.84.05.91.05,1.83,0,2.74,0,.63.23.82.83.8,1.44,0,2.89,0,4.38,0v1c-1.38,0-2.76,0-4.13,0-.83,0-1.14.22-1.09,1.08.07,1.1,0,2.21,0,3.46,1.59,0,3.07,0,4.54,0,.91,0,.92,0,.74,1H81.12Z"/><path class="cls-1" d="M182.56,177.54h-1.14v-11c-.72,0-1.35,0-2,0s-1-.25-.76-1h6.49c.27.61.25,1.05-.65,1-.61,0-1.22,0-2,0Z"/><path class="cls-1" d="M259.21,166.55h-2.65v-1h6.54l.07,1-1.13.06c-1.84,0-1.66-.28-1.67,1.67,0,2.7,0,5.4,0,8.11v1.16h-1.16Z"/><path class="cls-1" d="M305.67,165.53h1v12h-1Z"/></svg>