<svg id="client_logos" data-name="client logos" xmlns="http://www.w3.org/2000/svg" viewBox="0 0 281.42 121.01"><defs><style>.cls-1{fill:#d52027;}</style></defs><path d="M20.91,44.5l.17-.54a.36.36,0,0,0,.52-.17,25.25,25.25,0,0,0,1.45-3.12c.25-.75.59-1.48.9-2.21.51-1.22,1.24-2.34,1.69-3.6a11.58,11.58,0,0,1,.61-1.69,30.48,30.48,0,0,0,1.86-4.07,7.08,7.08,0,0,1,.69-1.8,13.55,13.55,0,0,0,1.65-3.43,21.08,21.08,0,0,1,.82-1.95,33.83,33.83,0,0,0,1.5-3.24c.53-1.38,1.16-2.71,1.72-4.07.22-.53.72-1,.76-1.49a9.38,9.38,0,0,1,1.11-2.82c.24-.59.78-1,.89-1.64a6.28,6.28,0,0,1,1-2.77.54.54,0,0,0,.05-.65l0,0a.35.35,0,0,0,.52-.14,3.1,3.1,0,0,1,2.43-1.42A3.51,3.51,0,0,1,44.78,5a13.91,13.91,0,0,1,1,2.36,46,46,0,0,1,2.3,5.24,37.35,37.35,0,0,0,1.62,3.52c.75,1.7,1.29,3.51,2.13,5.16.69,1.34,1.07,2.8,1.78,4.13A25.27,25.27,0,0,1,55,28.46a21.43,21.43,0,0,0,1.7,3.59,15.82,15.82,0,0,1,.83,2.23,26.09,26.09,0,0,0,1.68,3.54c.5.81.57,1.72,1,2.53S61,42,61.39,42.89a5.21,5.21,0,0,1,.75,1.63,8.06,8.06,0,0,0,1,2.62c.46,1.07,1.07,2.09,1.44,3.19a35.5,35.5,0,0,0,1.73,4.07,8.8,8.8,0,0,1,.78,2,12.61,12.61,0,0,0,.93,2.27c.31.72.73,1.38,1,2.12A20.84,20.84,0,0,0,70,63a14.79,14.79,0,0,1,1.33,2.75,53.85,53.85,0,0,0,2.12,5.14,46,46,0,0,0,2.37,5.2c.5.92.55,2,1.18,2.84a16.83,16.83,0,0,1,1.4,2.66c.54,1.13.89,2.34,1.42,3.47.88,1.87,1.82,3.71,2.6,5.62a6.82,6.82,0,0,1,.75,2.55c0,.91-1.44,2.07-2.82,2.06-24.94-.14-49.88.11-74.82.14-.7,0-1.4,0-2.09,0a5.43,5.43,0,0,1-.7,0A2.64,2.64,0,0,1,.6,92.14,23.38,23.38,0,0,1,1.8,89.5c.38-.7.4-1.47.82-2.16a10.89,10.89,0,0,0,1.32-2.67,30.33,30.33,0,0,1,2.13-4.92c.82-1.72,1.24-3.61,2.31-5.2a7.66,7.66,0,0,0,1-2.53c.18-.72.72-1.13.89-1.79.31-1.15,1-2.13,1.39-3.28A24.56,24.56,0,0,1,13.46,63c.37-.68.39-1.44.74-2.1a34.53,34.53,0,0,0,2.37-5.08,7.85,7.85,0,0,1,.78-2.06A8.68,8.68,0,0,0,18.56,51c.45-2,1.73-3.58,2.35-5.47C21,45.22,21.4,44.83,20.91,44.5Zm41,29.26a1.16,1.16,0,0,0-.77-1.43L61.08,72a3.88,3.88,0,0,0-1-2.54s0,0-.08,0l-.24-.63c.11-.32.22-.64-.34-.51l-.23-.69a.82.82,0,0,0,0-.9l-1-2.2c-.19-.43-.12-1-.78-1.17l-.1-.29c.12-.3.2-.58-.29-.57-.14-.29-.46-.34-.68-.52a15.61,15.61,0,0,0-1.64-4.31c-1.06-2.17-1.89-4.44-2.87-6.64-1.18-2.67-2.36-5.36-3.48-8.06-.63-1.52-1.44-3-2-4.52-.93-2.76-2.46-5.27-3.37-8a4.62,4.62,0,0,0-1-2.07c-.23-.21-.35-.29-.5,0-.45,1-.94,1.91-1.36,2.88a33.89,33.89,0,0,1-1.34,3.35C37.64,36.7,37.07,39,36,41.08c-.83,1.59-1.22,3.42-2.06,5-1.17,2.22-1.89,4.62-3,6.86-.59,1.19-1,2.46-1.58,3.65a54.92,54.92,0,0,0-2.12,5.65l-.2.1c-.17-.23-.27-.21-.45,0a17.12,17.12,0,0,0-1.72,3.42c-.68,1.48-1.22,3-1.88,4.52C21.3,74.07,19.87,77.91,18,81.56c-.65,1.29-.19,2,1.24,2,5.58-.08,11.15,0,16.72-.13,9.59-.17,19.18,0,28.77,0,.54,0,1.16-.07,1.12-.63S66,81.24,65.07,81l-.14-.44c.2-.48.12-.81-.46-.87l0-.18a.31.31,0,0,0,.08-.38,15.57,15.57,0,0,0-1-2.62c-.27-.46-.16-1.25-.93-1.38l-.2-.5c.14-.33.2-.61-.32-.54Z"/><path d="M143.15,77q0-10.68,0-21.35a2.21,2.21,0,0,1,.06-.34c.27-.08.3-.2.05-.36l.07-.32c.29.05.44-.17.54-.36.79-1.56,2.18-1.93,3.76-1.93h3.75a3.89,3.89,0,0,1,4.11,4.1V61q0,10.76,0,21.52a3.2,3.2,0,0,1-1.09,2.61c-.93.84-2.08,1.33-3.06,2.06a27.81,27.81,0,0,1-5.19,3c-.41.18-.72.46-1.1.67-1.45.79-3.1,1-4.59,1.71a6.19,6.19,0,0,1-1.48.62c-2.28.47-4.56,1-6.86,1.32a35.14,35.14,0,0,1-3.83.63A61.59,61.59,0,0,1,113.8,94a16.3,16.3,0,0,1-3.09-.81c-1.25-.52-2.53-1.1-3.81-1.49A34.44,34.44,0,0,1,101,88.86a38.49,38.49,0,0,1-6.4-4.26A39.47,39.47,0,0,1,91,81.5a47.7,47.7,0,0,1-4.78-5.63,24.29,24.29,0,0,1-2.53-3.73c-.93-2-2.2-3.89-2.89-6.07-.85-2.69-2.08-5.26-2.5-8.09-.34-2.31-.81-4.6-1-6.92a48.19,48.19,0,0,1,1-12.67A10.77,10.77,0,0,1,78.75,36a33.66,33.66,0,0,0,1.53-4.17,38.13,38.13,0,0,1,3-6.44,44,44,0,0,1,5-7.25,45.4,45.4,0,0,1,7.31-7.09,32.6,32.6,0,0,1,5.15-3.49c.88-.45,1.69-1,2.58-1.48,1.09-.56,2.26-.93,3.34-1.54a11.35,11.35,0,0,1,4-1.46,14.55,14.55,0,0,0,2.79-.76,29.17,29.17,0,0,1,4-1,49.22,49.22,0,0,1,6.32-.45c2.62-.15,5.21.4,7.82.38a1.56,1.56,0,0,1,.67.15,28.35,28.35,0,0,0,3.76,1c1.46.47,3,.74,4.45,1.25a39.51,39.51,0,0,1,5.7,2.49,37,37,0,0,1,5.12,3,22.63,22.63,0,0,1,2.91,2.54,3.62,3.62,0,0,1,.93,3.74,8.06,8.06,0,0,1-3,4.22,4.45,4.45,0,0,1-5,.36,26.65,26.65,0,0,0-2.93-1.46,19.76,19.76,0,0,1-2.17-1.3,24.74,24.74,0,0,0-4.68-2.08c-.82-.29-1.68-.54-2.48-.84a19.63,19.63,0,0,0-4-.88,42.47,42.47,0,0,0-7.65-.2,10.8,10.8,0,0,0-3.36.34c-1.12.39-2.33.2-3.43.78a12.45,12.45,0,0,1-2,.72,22.42,22.42,0,0,0-4.08,1.51,53.45,53.45,0,0,0-5.67,3.36,40.9,40.9,0,0,0-6.3,5.43c-.34.37-1,.72-.74,1.47a.22.22,0,0,1,0,.08c-.37-.24-.51,0-.76.25a31.37,31.37,0,0,0-2,2.85,23.59,23.59,0,0,0-1.82,3.27A25.73,25.73,0,0,0,91.09,37a15.63,15.63,0,0,1-.74,2.73A8.27,8.27,0,0,0,89.5,43a33.77,33.77,0,0,0-.32,7.53c.23,2,.47,4,.88,6,.1.52.57.84.56,1.43a8.3,8.3,0,0,0,1,3.28c.4,1,.94,1.88,1.4,2.82a14.57,14.57,0,0,0,1.1,2.2c.87,1.21,1.64,2.48,2.55,3.68a36.47,36.47,0,0,0,4.25,4.61,31.91,31.91,0,0,0,7.38,5.06,38.24,38.24,0,0,0,4.39,1.94,44.73,44.73,0,0,0,5,1.52,22.65,22.65,0,0,0,4.81.39,32.76,32.76,0,0,0,8.75-.91c1.76-.43,3.4-1.16,5.14-1.62,2.23-.59,4.2-2,6.33-2.87C143.05,77.94,143.48,77.62,143.15,77Z"/><path d="M251.25,95.75h-26a3.45,3.45,0,0,1-3.48-2.1,4.13,4.13,0,0,1-.21-1.8q0-16.65,0-33.29c0-2.88.07-5.75,0-8.63-.38-14.43-.05-28.86-.17-43.29a3.5,3.5,0,0,1,1.14-2.94,3.12,3.12,0,0,1,2.07-.89h6.8c2.1,0,3.24,1.46,3.43,3.38a10.63,10.63,0,0,1,0,1.13c0,15.05-.13,30.1,0,45.14.11,9.53,0,19,.13,28.57,0,1.1.1,1.18,1.3,1.18,13.69,0,27.39,0,41.08,0a3.93,3.93,0,0,1,4,4c0,1.77-.07,3.55,0,5.31a4,4,0,0,1-4.26,4.25C268.53,95.71,259.89,95.75,251.25,95.75Zm0-.81c8.86,0,17.73,0,26.6,0a2.55,2.55,0,0,0,2.64-2.5,61.52,61.52,0,0,0,0-6.79,2.53,2.53,0,0,0-.93-2.1A4.25,4.25,0,0,0,277.3,83q-20.81,0-41.6,0c-1.25,0-1.33-.09-1.34-1.34-.1-9.9.17-19.79-.17-29.69-.09-2.72,0-5.46,0-8.19V6.09a2.62,2.62,0,0,0-2.52-2.55c-2.29,0-4.59,0-6.88,0a2.57,2.57,0,0,0-2.12.93,2.81,2.81,0,0,0-.55,2.12c.1,14.83-.08,29.66.13,44.49.2,13.68.06,27.36,0,41A2.69,2.69,0,0,0,225.12,95C233.84,94.89,242.57,94.94,251.29,94.94Z"/><path d="M97.53,26.84c-.29-.75.4-1.1.74-1.47a40.9,40.9,0,0,1,6.3-5.43,53.45,53.45,0,0,1,5.67-3.36,22.42,22.42,0,0,1,4.08-1.51,12.45,12.45,0,0,0,2-.72c1.1-.58,2.31-.39,3.43-.78a10.8,10.8,0,0,1,3.36-.34,42.47,42.47,0,0,1,7.65.2,19.63,19.63,0,0,1,4,.88c.8.3,1.66.55,2.48.84A24.74,24.74,0,0,1,142,17.23a19.76,19.76,0,0,0,2.17,1.3A26.65,26.65,0,0,1,147.05,20a4.45,4.45,0,0,0,5-.36,8.06,8.06,0,0,0,3-4.22,3.62,3.62,0,0,0-.93-3.74,22.63,22.63,0,0,0-2.91-2.54,37,37,0,0,0-5.12-3,39.51,39.51,0,0,0-5.7-2.49c-1.46-.51-3-.78-4.45-1.25a28.35,28.35,0,0,1-3.76-.95,1.56,1.56,0,0,0-.67-.15c-2.61,0-5.2-.53-7.82-.38a49.22,49.22,0,0,0-6.32.45,29.17,29.17,0,0,0-4,1,14.55,14.55,0,0,1-2.79.76,11.35,11.35,0,0,0-4,1.46c-1.08.61-2.25,1-3.34,1.54-.89.46-1.7,1-2.58,1.48a32.6,32.6,0,0,0-5.15,3.49,45.4,45.4,0,0,0-7.31,7.09,44,44,0,0,0-5,7.25,38.13,38.13,0,0,0-3,6.44A33.66,33.66,0,0,1,78.75,36a10.77,10.77,0,0,0-.42,2.38,48.19,48.19,0,0,0-1,12.67c.16,2.32.63,4.61,1,6.92.42,2.83,1.65,5.4,2.5,8.09.69,2.18,2,4,2.89,6.07a24.29,24.29,0,0,0,2.53,3.73A47.7,47.7,0,0,0,91,81.5a39.47,39.47,0,0,0,3.57,3.1,38.49,38.49,0,0,0,6.4,4.26,34.44,34.44,0,0,0,5.92,2.87c1.28.39,2.56,1,3.81,1.49a16.3,16.3,0,0,0,3.09.81,61.59,61.59,0,0,0,14.47,1.08,35.14,35.14,0,0,0,3.83-.63c2.3-.34,4.58-.85,6.86-1.32a6.19,6.19,0,0,0,1.48-.62c1.49-.7,3.14-.92,4.59-1.71.38-.21.69-.49,1.1-.67a27.81,27.81,0,0,0,5.19-3c1-.73,2.13-1.22,3.06-2.06a3.2,3.2,0,0,0,1.09-2.61q0-10.75,0-21.52V56.48a3.89,3.89,0,0,0-4.11-4.1h-3.75c-1.58,0-3,.37-3.76,1.93-.1.19-.25.41-.54.36A3.07,3.07,0,0,1,146,51.93a26.9,26.9,0,0,1,7.55.16c1.07.19,1.52,1.2,2,2a5.27,5.27,0,0,1,.54,2.69c0,8.27-.06,16.55,0,24.83a5.66,5.66,0,0,1-2.73,5.13,42.69,42.69,0,0,1-5.51,3.36A38,38,0,0,1,141.19,93c-1.45.37-2.87,1-4.31,1.41a22,22,0,0,1-4.78.88c-2.63.19-5.22.65-7.88.63-2.28,0-4.5-.47-6.75-.63a22.19,22.19,0,0,1-3.24-.38,56.67,56.67,0,0,1-5.42-1.69,19.13,19.13,0,0,1-3.45-1.35,42.17,42.17,0,0,1-5-2.61c-1.95-1.39-4-2.58-5.91-4.09A47.77,47.77,0,0,1,84.13,73.72a50.91,50.91,0,0,1-5.26-11.38,46,46,0,0,1-2.12-15.69A39.47,39.47,0,0,1,78.4,35.49a54.86,54.86,0,0,1,5.31-11.93A49.16,49.16,0,0,1,96.12,9.88a52.29,52.29,0,0,1,9.71-5.66,46.43,46.43,0,0,1,8.56-2.75A44.91,44.91,0,0,1,129.62.59a47.23,47.23,0,0,1,20,6.79,17.32,17.32,0,0,1,5.31,4.48,4.28,4.28,0,0,1,.42,4.23,9.36,9.36,0,0,1-3.92,4.63,4.07,4.07,0,0,1-4.58-.15A56.64,56.64,0,0,0,135,14.91a34.12,34.12,0,0,0-7-1.11,33.39,33.39,0,0,0-11.66,1.09,36.32,36.32,0,0,0-11.91,5.76,37.34,37.34,0,0,0-6.42,5.82C97.94,26.62,97.82,26.87,97.53,26.84Z"/><path d="M171,90c0-.9,0-1.8,0-2.71A3.15,3.15,0,0,1,173.82,84a18.3,18.3,0,0,0,6.75-2.51,20.08,20.08,0,0,0,6.53-6.87,17.4,17.4,0,0,0,2.13-4.59c.38-1.88.93-3.79.51-5.75a16.73,16.73,0,0,0-.76-3.72,30.61,30.61,0,0,0-2.36-4.09,62.47,62.47,0,0,0-4.21-5.14c-1.34-1.65-2.94-3.07-4.17-4.82A28.38,28.38,0,0,1,174.51,40a35,35,0,0,1-1.63-5.05c-.23-1.22-.28-2.48-.39-3.72a23.87,23.87,0,0,1,.31-6.91,20.47,20.47,0,0,1,1.43-4.5c.51-1.11.81-2.32,1.44-3.4a34.73,34.73,0,0,1,5.11-7.08,52,52,0,0,1,5.43-4.54,8.73,8.73,0,0,1,2-1.18c1.76-.73,3.46-1.61,5.31-2.18a33.22,33.22,0,0,1,7-1.38,3.26,3.26,0,0,1,3.87,3.29c.05,1.86,0,3.72,0,5.58.09,2.59-1.18,3.37-3.17,3.68a17.7,17.7,0,0,0-8.74,4.07,18.34,18.34,0,0,0-4.91,6.7,24.32,24.32,0,0,0-2.13,5.54,10.56,10.56,0,0,0,.55,5.91A24.71,24.71,0,0,0,189.79,41c1.66,2,3.36,4,5,6a48.37,48.37,0,0,1,5.86,9.51,20.58,20.58,0,0,1,2,9,32.27,32.27,0,0,1-.25,5.65,20.8,20.8,0,0,1-1.5,5.19c-.49,1.06-.77,2.23-1.32,3.29a35.89,35.89,0,0,1-4.1,6.26,27.4,27.4,0,0,1-7.89,6.58,25,25,0,0,1-7.42,2.92c-1.28.25-2.61.42-3.89.79-2.71.8-5.28-.79-5.22-3.79C171,91.66,171,90.82,171,90Zm.81,0h0c0,1.07,0,2.15,0,3.22a2.82,2.82,0,0,0,1.91,2.39,13.22,13.22,0,0,0,5.79-.74c.9-.27,1.85-.54,2.75-.89,1.08-.41,2.17-.81,3.25-1.28a28.24,28.24,0,0,0,6-3.83,21.34,21.34,0,0,0,4.36-4.6A20.34,20.34,0,0,0,199.07,79c.31-1,1-1.79,1.21-2.73.31-1.17.69-2.32.92-3.53a50.33,50.33,0,0,0,.58-6.47c.15-2.49-.56-4.86-.78-7.3a1,1,0,0,0-.1-.33c-.58-1.23-1.13-2.49-1.78-3.69-.32-.59-.33-1.35-.69-1.8-.94-1.23-1.66-2.62-2.61-3.8-1.15-1.42-2.18-2.94-3.47-4.27a45.63,45.63,0,0,1-3.62-4.45,17,17,0,0,1-2.27-3.41c-.19-.44-.37-.91-.56-1.34-.33-.8-1.05-1.49-1-2.35,0-2.26-.64-4.59.57-6.78.66-1.19,1-2.53,1.6-3.77.48-1,1.19-1.88,1.57-2.93a4.35,4.35,0,0,1,1-1.58A26.94,26.94,0,0,1,194,14.83a22.78,22.78,0,0,1,7.74-2.91,2.37,2.37,0,0,0,2.13-2.52c0-2,.05-4,0-5.93s-.89-2.92-3-2.89a15.57,15.57,0,0,0-5.77,1,14.65,14.65,0,0,1-2.09.7,11.4,11.4,0,0,0-2.5.91,37.27,37.27,0,0,0-5.52,3.38,28.62,28.62,0,0,0-8.69,10.27c-1,2.13-2.29,4.17-2.64,6.56a27.88,27.88,0,0,0-.66,7,31.54,31.54,0,0,0,1.78,9,29.51,29.51,0,0,0,1.92,4A30.64,30.64,0,0,0,180,47.63a107.91,107.91,0,0,1,7.3,8.69,26,26,0,0,1,1.86,2.86c.54,1.06.77,2.24,1.21,3.34,1.05,2.62.3,5.17-.21,7.73,0,.14-.15.25-.21.37a12.22,12.22,0,0,0-.79,1.78c-.61,2.22-2.08,3.94-3.45,5.65A22.24,22.24,0,0,1,180,82.73c-1.39.86-3,1-4.41,1.59-.64.27-1.42.2-2.14.54a2.33,2.33,0,0,0-1.59,2.28C171.82,88.1,171.82,89.06,171.82,90Z"/><path d="M20.91,44.5c.49.33.1.72,0,1C20.29,47.41,19,49,18.56,51a8.68,8.68,0,0,1-1.21,2.78,7.85,7.85,0,0,0-.78,2.06,34.53,34.53,0,0,1-2.37,5.08c-.35.66-.37,1.42-.74,2.1A24.56,24.56,0,0,0,11.65,67c-.38,1.15-1.08,2.13-1.39,3.28-.17.66-.71,1.07-.89,1.79a7.66,7.66,0,0,1-1,2.53C7.31,76.14,6.89,78,6.07,79.75a30.33,30.33,0,0,0-2.13,4.92,10.89,10.89,0,0,1-1.32,2.67C2.2,88,2.18,88.8,1.8,89.5A23.38,23.38,0,0,0,.6,92.14a2.64,2.64,0,0,0,2.14,3.31,5.43,5.43,0,0,0,.7,0c.69,0,1.39,0,2.09,0,24.94,0,49.88-.28,74.82-.14,1.38,0,2.8-1.15,2.82-2.06a6.82,6.82,0,0,0-.75-2.55c-.78-1.91-1.72-3.75-2.6-5.62-.53-1.13-.88-2.34-1.42-3.47A16.83,16.83,0,0,0,77,79c-.63-.87-.68-1.92-1.18-2.84a46,46,0,0,1-2.37-5.2,53.85,53.85,0,0,1-2.12-5.14A14.79,14.79,0,0,0,70,63a20.84,20.84,0,0,1-.93-2.27c-.29-.74-.71-1.4-1-2.12a12.61,12.61,0,0,1-.93-2.27,8.8,8.8,0,0,0-.78-2,35.5,35.5,0,0,1-1.73-4.07c-.37-1.1-1-2.12-1.44-3.19a8.06,8.06,0,0,1-1-2.62,5.21,5.21,0,0,0-.75-1.63c-.38-.85-.72-1.73-1.18-2.54s-.51-1.72-1-2.53a26.09,26.09,0,0,1-1.68-3.54,15.82,15.82,0,0,0-.83-2.23A21.43,21.43,0,0,1,55,28.46a25.27,25.27,0,0,0-1.36-3.05c-.71-1.33-1.09-2.79-1.78-4.13-.84-1.65-1.38-3.46-2.13-5.16A37.35,37.35,0,0,1,48.1,12.6a46,46,0,0,0-2.3-5.24,13.91,13.91,0,0,0-1-2.36,3.51,3.51,0,0,0-3.5-1.35,3.1,3.1,0,0,0-2.43,1.42.35.35,0,0,1-.52.14c.27-1.23,1.3-1.62,2.31-1.92a4,4,0,0,1,5.17,2.47c1.47,3.43,2.93,6.86,4.41,10.29,1.64,3.79,3.24,7.61,5,11.36,1.48,3.21,2.78,6.49,4.25,9.69,1.4,3,2.66,6.15,4,9.21,1,2.19,1.94,4.39,2.82,6.63,1.16,3,2.55,5.82,3.82,8.74,1.15,2.62,2.18,5.3,3.41,7.88,1.36,2.87,2.5,5.84,3.92,8.7s2.64,5.51,3.76,8.37c.62,1.61,1.37,3.18,2,4.79,1,2.49-.12,4.35-2.83,4.53-.49,0-1,0-1.48,0-15.9,0-31.8-.13-47.7,0-9.06.1-18.13,0-27.19.12a4.24,4.24,0,0,1-3.21-1,3.84,3.84,0,0,1-.45-4c1.12-2.54,2.34-5,3.31-7.64.47-1.26,1.3-2.31,1.66-3.59.81-2.85,2.36-5.39,3.55-8.08s2.33-5.11,3.43-7.68c1.47-3.43,3.12-6.78,4.39-10.3.95-2.64,2.22-5.15,3.38-7.7C20.31,45.56,20.21,44.81,20.91,44.5Z"/><path d="M143.15,77c.33.59-.1.91-.51,1.08-2.13.92-4.1,2.28-6.33,2.87-1.74.46-3.38,1.19-5.14,1.62a32.76,32.76,0,0,1-8.75.91,22.65,22.65,0,0,1-4.81-.39,44.73,44.73,0,0,1-5-1.52,38.24,38.24,0,0,1-4.39-1.94,31.91,31.91,0,0,1-7.38-5.06A36.47,36.47,0,0,1,96.64,70c-.91-1.2-1.68-2.47-2.55-3.68a14.57,14.57,0,0,1-1.1-2.2c-.46-.94-1-1.85-1.4-2.82a8.3,8.3,0,0,1-1-3.28c0-.59-.46-.91-.56-1.43-.41-2-.65-4-.88-6A33.77,33.77,0,0,1,89.5,43a8.27,8.27,0,0,1,.85-3.27A15.63,15.63,0,0,0,91.09,37a25.73,25.73,0,0,1,1.78-3.75A23.59,23.59,0,0,1,94.69,30a31.37,31.37,0,0,1,2-2.85c.25-.27.39-.49.76-.25a15.74,15.74,0,0,1-2,2.91,36.82,36.82,0,0,0-4,7.77A31.79,31.79,0,0,0,89.7,48.86a34.87,34.87,0,0,0,2.22,11.55,34.38,34.38,0,0,0,5.67,9.89,34.75,34.75,0,0,0,6.07,5.8,38.67,38.67,0,0,0,9.75,5.23,21.41,21.41,0,0,0,7.1,1.51,44.76,44.76,0,0,0,9-.43A59,59,0,0,0,137,80.06c1.76-.58,3.35-1.56,5.09-2.18C142.58,77.71,142.71,77.2,143.15,77Z"/><path d="M147.66,114.77c0-1.48,0-3,0-4.44a1.43,1.43,0,0,1,1.4-1.43c.7,0,1.4,0,2.1,0,1.32,0,1.87.43,1.94,2,.11,2.76,0,5.52,0,8.28,0,1-.5,1.54-1.56,1.54-.88,0-1.75,0-2.62,0a1.13,1.13,0,0,1-1.28-1.29c0-1.54,0-3.08,0-4.62Zm1.42.08h0v3.56c0,1.11,0,1.12,1.21,1.13s1.39-.17,1.39-1.15v-6.52c0-1.72,0-1.69-1.75-1.68-.63,0-.88.18-.86.83C149.11,112.3,149.08,113.57,149.08,114.85Z"/><path d="M189.1,114.89c0-1.39,0-2.78,0-4.17s.48-1.72,1.74-1.74c.67,0,1.34,0,2,0a1.47,1.47,0,0,1,1.54,1.59c0,2.67,0,5.33,0,8,0,1.75-.58,1.91-2,2.06a14,14,0,0,1-1.83,0c-1.16,0-1.47-.3-1.49-1.5C189.08,117.73,189.1,116.31,189.1,114.89Zm3.9,0v-3c0-1.72,0-1.72-1.74-1.62h-.17c-.47,0-.67.26-.67.72q0,3.85,0,7.73a.72.72,0,0,0,.75.78c.31,0,.63,0,1,0,.68,0,.91-.26.89-.93C193,117.32,193,116.1,193,114.89Z"/><path d="M100.89,113.2c-.29-.79.49-1.36.45-2.12a2.75,2.75,0,0,1,.27-1.18.74.74,0,0,1,.81-.53c.41.08.52.44.52.81v9.93c0,.41-.21.69-.62.68a.66.66,0,0,1-.73-.7c0-.81,0-1.62,0-2.44,0-.29,0-.66-.39-.66s-.28.38-.3.61a2.56,2.56,0,0,1-.46,1.47c-.18.23-.28.56-.65.45s-.28-.4-.32-.66c-.19-1.09-.77-2.07-.69-3.36a1,1,0,0,0-.39,1c0,1.13,0,2.26,0,3.39,0,.49,0,.87-.69.86s-.65-.43-.65-.89v-9.5c0-.47.07-.87.66-.92s.64.35.75.77c.44,1.69.91,3.38,1.38,5.11.58-.36.4-1.17,1-1.47.26.38-.07.91.35,1.31.07-.37.15-.67.2-1s0-.53.31-.55.36.32.42.56a6.22,6.22,0,0,1,.14,1.55c0,1.55,0,3.1,0,4.65h.15V109.87a5.46,5.46,0,0,0-.88,2.56C101.5,112.75,101.46,113.23,100.89,113.2Zm-2.09-.09c-.1-1-.69-1.87-.71-2.92a.25.25,0,0,0-.28-.26.27.27,0,0,0-.25.3,26.56,26.56,0,0,0,0,2.68c.06.51.59.86,1,1C98.83,114,98.72,113.46,98.8,113.11Zm1.07,5.37a2.68,2.68,0,0,0,.6-2.33C99.64,116.74,99.72,117.57,99.87,118.48Z"/><path d="M54.65,115.07c0-1.43,0-2.85,0-4.27a1.57,1.57,0,0,1,1.78-1.74c.64,0,1.29,0,1.92,0s1.27.39,1.24,1.26c0,.69,0,1.39,0,2.09,0,.36-.16.68-.6.73s-.69-.3-.78-.66a4.72,4.72,0,0,1,0-1.13c0-.54-.16-.87-.8-.87s-1,.19-1,.88c0,2.46,0,4.93,0,7.4,0,.68.44.7.94.71s.92-.1.88-.76c0-.34,0-.69,0-1,0-.6.34-.75.81-.79s.65.34.64.79c0,.79,0,1.57,0,2.35a.71.71,0,0,1-.8.81c-1,0-2,0-3.05,0-.87,0-1-.72-1.06-1.42C54.63,118,54.65,116.52,54.65,115.07Zm4.55-2.74a14.77,14.77,0,0,1,0-1.63c.07-.71-.28-1-.9-1-.78,0-1.57,0-2.35,0-.42,0-.65.16-.64.61v9.31c0,.52.23.83.78.84.75,0,1.51,0,2.26,0a.76.76,0,0,0,.82-.74c0-.74,0-1.49,0-2.23H59c0,.45,0,.9,0,1.34s-.06,1.1-.62,1.23a4.16,4.16,0,0,1-2.47-.08c-.1,0-.15-.25-.17-.38a4.36,4.36,0,0,1-.14-.94c0-2.44,0-4.87,0-7.31,0-.48-.08-1.12.52-1.25a5.55,5.55,0,0,1,2.33,0c.28.06.38.28.46.56A6.59,6.59,0,0,0,59.2,112.33Z"/><path d="M170.42,113.17c-.14,1.8.3,3.92.19,6.07-.06,1.23-.19,1.4-1.44,1.41-.81,0-1.62,0-2.44,0s-1.25-.35-1.22-1.2c0-.15,0-.29,0-.44.13-2.86-.24-5.72-.18-8.59a4,4,0,0,1,0-.78.74.74,0,0,1,.75-.61c.41,0,.51.33.59.64a1.6,1.6,0,0,1,0,.44c-.13,2.75.29,5.49.16,8.24,0,.89.38,1,1.1,1s1.24.09,1.22-.94c-.05-2.63-.32-5.26-.2-7.9,0-.2,0-.4,0-.61,0-.45.23-.81.71-.84s.67.4.68.83C170.44,110.85,170.42,111.83,170.42,113.17Zm-4,6.38c0,.81,0,.81,2.4.79.91,0,.91,0,.9-.56A3.65,3.65,0,0,1,166.38,119.55Z"/><path d="M140.85,120.64c-2.46,0-2.48,0-2.46-2.54,0-.5-.25-1.17.6-1.31.48-.08.81,0,.81.59s0,.81,0,1.22.22.77.73.7,1.22.31,1.39-.31a2.34,2.34,0,0,0-.19-2.16c-1-1.26-2.06-2.46-3-3.77-.71-1-.42-2.23-.2-3.36a1,1,0,0,1,.64-.54,6,6,0,0,1,3.47,0,1.13,1.13,0,0,1,.76,1.23c0,.55,0,1.1,0,1.65a.78.78,0,0,1-.81.76c-.51,0-.57-.41-.6-.79a9.2,9.2,0,0,1,0-1c0-.54-.21-.83-.78-.73s-1.14-.31-1.31.28a2.14,2.14,0,0,0,.17,2.07c1,1.21,2,2.36,2.91,3.64s.48,2.56.25,3.86c-.07.4-.52.52-.92.52S141.34,120.64,140.85,120.64Zm1.51-8.43h.26a3.79,3.79,0,0,0-.05-2.38c-.26-.58-.94-.2-1.43-.26a11.28,11.28,0,0,0-1.3,0c-.32,0-.6.07-.66.43a5.13,5.13,0,0,0,.18,2.85,3.82,3.82,0,0,0,.08-.95c0-2.18,0-2.16,2.17-2,.52,0,.74.26.75.74S142.36,111.68,142.36,112.21Zm-1.24,2.52c-.35-.2-.31-.66-.85-.78C140.49,114.36,140.39,114.87,141.12,114.73Zm-1-1c0-.12,0-.23-.13-.27a.12.12,0,0,0-.16.13.43.43,0,0,0,.11.21C140,113.83,140.07,113.78,140.11,113.69Zm1.38,1.61a1,1,0,0,0-.17-.13s-.07,0-.1.08a.93.93,0,0,0,.13.15S141.42,115.35,141.49,115.3Z"/><path d="M210.6,120.47c-.38,0-.76,0-1.14,0-.9,0-1.3-.4-1.33-1.32,0-.57,0-1.16,0-1.73a.68.68,0,0,1,.68-.82.77.77,0,0,1,.88.67,5,5,0,0,1,0,.78c0,1,.14,1.11,1.17,1.1.58,0,.67-.27.77-.79.29-1.55-.77-2.43-1.58-3.44-.44-.54-1-1-1.36-1.56a4.71,4.71,0,0,1-.5-3.6,1,1,0,0,1,.82-.83,6.08,6.08,0,0,1,3.48.17.76.76,0,0,1,.52.72c0,.69,0,1.39,0,2.09,0,.4-.21.76-.68.75a.72.72,0,0,1-.73-.8c0-.23,0-.46,0-.69,0-.61,0-1.14-.87-1.11s-1,.38-1.07,1.11a3.19,3.19,0,0,0,1,2.46c.62.72,1.21,1.46,1.79,2.21,1,1.33.5,2.81.37,4.25,0,.35-.44.34-.72.36-.52,0-1,0-1.56,0ZM209.07,117h-.28a11.8,11.8,0,0,0,0,2.45c0,.55.33.73.86.7a13.81,13.81,0,0,1,1.82,0,1,1,0,0,0,1.08-.67,5.79,5.79,0,0,0,.06-2.5.81.81,0,0,0-.23.73c.1,1.57-.47,2.26-2.21,2.13-.76-.06-1.05-.37-1.08-1S209.07,117.62,209.07,117Zm-.24-4.44h.23V111c0-1.23,0-1.23,1.27-1.24H212a12.37,12.37,0,0,0-2.77-.21.38.38,0,0,0-.43.43Z"/><path d="M117.34,115.63V111c0-.41,0-.82,0-1.22s.07-.69.49-.71a.83.83,0,0,1,.79.58,1.5,1.5,0,0,1,.06.6v9.5c0,.41.06.82-.55.88s-.69-.15-.85-.61c-.64-1.8-1.33-3.58-2-5.45a1.14,1.14,0,0,0-.25,1c0,1.36,0,2.73,0,4.09,0,.64-.16,1-.85,1s-.57-.53-.57-1c0-3.14,0-6.27,0-9.41,0-.47,0-1.14.46-1.18s.84.48,1,1.08c.48,1.5,1.09,3,1.64,4.43.13.34.24.68.36,1Zm.62-5.94c-.45.24-.31.57-.31.83,0,1.68,0,3.36,0,5a1.72,1.72,0,0,1-.33,1.31,1,1,0,0,0-.25,1.17,9.47,9.47,0,0,1,.69,2l.21,0ZM114,120.22a4.66,4.66,0,0,0,.27-2.14c0-1.54,0-3.07,0-4.61,0-.32,0-.71.29-.85s.37.36.62.48a2.24,2.24,0,0,0,.42,0c-.6-1.16-.63-2.41-1.61-3.54Z"/><path d="M262.22,114.78c0-1.6,0-3.19,0-4.79,0-1,.18-1.17,1.16-1.18h2a.7.7,0,0,1,.79.74c0,.53-.42.53-.81.55-1.71.07-1.71.07-1.71,1.81v.17c0,1.79,0,1.8,1.73,2,.34,0,.71.1.69.49s-.15.76-.71.81c-1.71.18-1.71.2-1.71,1.92v.18c0,1.62,0,1.65,1.65,1.68a.94.94,0,0,1,1,.86c0,.48-.53.49-.94.5-.76,0-1.51,0-2.27,0s-.93-.2-.91-.91C262.25,118,262.22,116.37,262.22,114.78Zm3.67,5.28c-1.07-.5-2.25.33-2.85-1.06-.1.57-.55,1.07.24,1.14A9.39,9.39,0,0,0,265.89,120.06Zm-2.79-4.75c.33-.35.55-.73,1.07-.69a2.54,2.54,0,0,0,1.29-.11c-.79-.27-1.58.11-2.26-.36-.18-.13-.28.13-.28.31A1.19,1.19,0,0,0,263.1,115.31Z"/><path d="M39.5,118.3a2.11,2.11,0,0,1-.35,0c-1.62,0-1.64,0-1.79,1.64-.06.59-.33.82-.89.81s-.63-.44-.56-.85A57.6,57.6,0,0,1,37,114.12a4,4,0,0,0,.13-1.2,17.52,17.52,0,0,1,.7-3.29c.06-.32.29-.46.64-.48a.61.61,0,0,1,.68.53c.17.78.49,1.52.59,2.33a50.58,50.58,0,0,0,1.08,6.1,14.46,14.46,0,0,1,.23,2c0,.4-.06.72-.53.71s-.86,0-.9-.6,0-1.21,0-1.81c.46,0,.25.57.47.74v-2.69c-.36.64-.48,1.32-1.44,1.34-.81,0-1.23-.43-1.73-1.25v2.54A1.64,1.64,0,0,1,39.5,118.3Zm-.4-1.94c-.05-.66-.11-1.32-.17-2,0-.23-.08-.47-.38-.49s-.46.21-.49.49c-.07.69-.14,1.37-.19,2.06,0,.44.19.63.62.63S39.16,116.82,39.1,116.36Zm-.16-5.46h0a3.09,3.09,0,0,0,0-.43c0-.27.14-.69-.38-.7s-.47.35-.47.67,0,.75,0,1.12c0,.19-.09.52.3.47s.52-.09.54-.44S38.93,111.13,38.94,110.9Zm.51,4.59a5.16,5.16,0,0,0-.17-2.81A8.56,8.56,0,0,0,39.45,115.49Z"/><path d="M201.9,117.73a32,32,0,0,1-1.62-4,1.4,1.4,0,0,0-.27,1.13c0,1.56,0,3.13,0,4.7,0,.49-.07.86-.7.85s-.61-.41-.61-.84V110c0-.38,0-.79.53-.84s.67.25.83.7c.51,1.5,1.1,3,1.65,4.47.15.43.25.88.39,1.39a1.41,1.41,0,0,0,.29-1.08c0-1.51,0-3,0-4.53,0-.48,0-1,.7-1s.6.52.6,1c0,3.19,0,6.39,0,9.58,0,.31.05.72-.42.71s-.86-.07-.71-.7a1.86,1.86,0,0,0,.58-2.37c-.16-.32-.36-.63-.77-.59s-.3.47-.33.75A.3.3,0,0,1,201.9,117.73Zm-1.51-5.6c.18-.72-.71-1-.62-1.74,0-.16,0-.4-.19-.41s-.32.22-.32.42c0,.52,0,1,0,1.56s.52.51.82.64S200.38,112.34,200.39,112.13Z"/><path d="M239.35,112.21a6.3,6.3,0,0,1,.81,2.27c.07.36.12.71.19,1.09.43-.38.37-1,.89-1.33.26.16.55.53.6-.17,0-.29,0-.77.37-.78s.33.53.45.82a2.18,2.18,0,0,1,.05.77c0,1.54,0,3.07,0,4.61,0,.19-.14.47.2.56,0-.06.09-.11.09-.16,0-3.27,0-6.55,0-9.82,0-.44-.24-.54-.57-.6.22-.67.54-.42.84-.08s.12.5.12.76v9.31c0,.43.08,1-.56,1s-.58-.51-.59-1c0-.84,0-1.68-.05-2.52,0-.25,0-.67-.44-.63s-.33.38-.35.63a3.36,3.36,0,0,1-.57,1.79c-.14.18-.23.47-.5.41s-.34-.36-.36-.63c-.06-1.2-.74-2.24-.78-3.61a1.92,1.92,0,0,0-.35,1.29c0,1.16,0,2.32,0,3.48,0,.45-.11.72-.63.72s-.66-.22-.66-.69q0-4.9,0-9.83c0-.38.13-.7.55-.76.27-.05.61-.11.6.36-.23.09-.57,0-.58.4a22.75,22.75,0,0,0,0,2.74,1,1,0,0,0,.85.82c.35,0,.12-.53.19-.82S239.32,112.35,239.35,112.21Zm1.05,6.12c.27-1,1-1.59.66-2.52C240.1,116.36,240.15,117.2,240.4,118.33Z"/><path d="M270.71,114.77c0-1.56,0-3.13,0-4.7,0-.75.28-1.13,1.08-1.1a11.16,11.16,0,0,1,2.16.15,1.64,1.64,0,0,1,1.47,1.58c.11,2.67.12,5.34,0,8a1.79,1.79,0,0,1-1.82,1.73c-.67,0-1.34,0-2,0s-.88-.26-.87-.89C270.72,118,270.71,116.37,270.71,114.77Zm1.17-.23c0,1.27,0,2.55,0,3.82,0,.68.31.94.95.93,1,0,1.47-.44,1.5-1.69.05-2,0-3.93,0-5.9a2,2,0,0,0-.47-1.28c-.46-.53-1.06-.4-1.61-.3s-.38.59-.38.95C271.87,112.22,271.88,113.38,271.88,114.54Z"/><path d="M87.73,119.42c.32-2,.58-4,1.09-6a12,12,0,0,0,.2-1.9,6.09,6.09,0,0,1,.55-1.82c.13-.31.26-.59.68-.52s.69.24.71.63a40.16,40.16,0,0,0,.81,4.51,40.05,40.05,0,0,0,1,5.52c.19.59,0,1-.76,1s-.6-.48-.64-.92c-.11-1.29-.44-1.6-1.57-1.55-.41,0-.66.13-.67.58s-.09.7-.1,1a.8.8,0,0,1-1,.84c-.64-.06-.44-.55-.39-.94C87.72,119.71,87.72,119.56,87.73,119.42Zm1.9-5.1c-.31-.64.11-1.39-.34-2a17.38,17.38,0,0,0-.09,1.9c0,.29,0,.52.39.57.33.51,0,1-.09,1.48s.23,1,.86.89c.29,0,.4-.32.67-.34a.47.47,0,0,1,0,.63c-.34.47-.83.3-1.28.31s-.56-.27-.62-.61-.14-.9-.21-1.36c-.07,1.6-.85,3.08-.88,4.78.53-.24.34-.57.45-.78.32-.59.08-1.65,1-1.71,1.86-.11,2.23-.22,2.21,1.74a2.46,2.46,0,0,0,0,.26c0,.25.14.4.38.37s.24-.33.22-.49c-.22-1.89-.92-3.7-.91-5.63a.24.24,0,0,0-.22-.24c-.21.54.13,1.14-.19,1.67-.39-.84-.37-1.84-.95-2.64C89.73,113.51,90.05,114,89.63,114.32Zm1.05-1.82a5.21,5.21,0,0,0-.11-2.29.52.52,0,0,0-.51-.38c-.27,0-.15.32-.19.5C89.62,111.24,90.35,111.79,90.68,112.5Z"/><path d="M223.38,114.75v-4.09c0-.32.05-.64.05-1a.86.86,0,0,1,.86-.92c.47,0,.53.54.53.94,0,1.33,0,2.67,0,4v3.92c0,1.48,0,1.48,1.47,1.49a1.33,1.33,0,0,1,1,.32c.45.44.42.8-.16.93a8.63,8.63,0,0,1-3.36,0c-.46-.08-.39-.48-.39-.76,0-1.63,0-3.26,0-4.88Zm3.54,5.25-.76,0c-1.7,0-1.74-.06-1.74-1.79,0-2.47,0-4.94,0-7.41a2.12,2.12,0,0,0-.11-1.11c-.23.26-.12.56-.13.83,0,2.5,0,5,0,7.5,0,2.32,0,2.32,2.33,2.18A2.09,2.09,0,0,0,226.92,120Z"/><path d="M14.26,115.27v-4.61c0-.51-.08-1.23.57-1.27s.83.63.83,1.27c0,2.64,0,5.28,0,7.91,0,.83.24,1.2,1.09,1.1a5.29,5.29,0,0,1,.78.08c.5,0,.64.38.65.77s-.37.46-.69.46c-.79,0-1.57,0-2.35,0s-.88-.23-.87-.87C14.28,118.52,14.26,116.89,14.26,115.27Z"/><path d="M22.29,115.11c0-1.53,0-3.07,0-4.6,0-.49,0-1.14.63-1.12s.77.57.76,1.16c0,2.61,0,5.22,0,7.83,0,.8.2,1.22,1.08,1.12a3.65,3.65,0,0,1,.86.09c.46,0,.57.39.58.74s-.34.47-.67.48c-.81,0-1.62,0-2.44,0-.61,0-.8-.26-.79-.85C22.3,118.36,22.29,116.74,22.29,115.11Z"/><path d="M64.27,115.08c0-1.6,0-3.19,0-4.79,0-1,.16-1.14,1.17-1.14.67,0,1.33,0,2,0,.5,0,.69.26.72.69s-.29.56-.68.59c-1.83.16-1.83.17-1.83,2.06v.17c0,1.57,0,1.57,1.54,1.73.37,0,.85,0,.87.53s-.3.73-.78.78l-.25.06c-1.38.21-1.38.21-1.38,1.57v.26c0,1.76,0,1.78,1.73,1.89a.74.74,0,0,1,.79.83c0,.58-.43.51-.8.51-.76,0-1.52,0-2.27,0s-.86-.24-.85-.87C64.29,118.33,64.27,116.71,64.27,115.08Zm3.1-.23a3.14,3.14,0,0,0-1.21-.1c-.75,0-1.19-.3-1.12-1.17s0-1.56,0-2.35c0-.94.22-1.13,1.18-1.18.51,0,1,.13,1.51-.22-.9-.09-1.8-.08-2.69-.09-.41,0-.47.23-.47.57V120c0,.19,0,.5.21.5,1,0,2,0,3,0v-.29c-.52,0-1,0-1.54,0a1.09,1.09,0,0,1-1.19-1.2c0-.92,0-1.85,0-2.78a1,1,0,0,1,1.15-1.13C66.59,115.06,67,115.22,67.37,114.85Z"/><path d="M38.31,5.24a.54.54,0,0,1-.05.65,6.28,6.28,0,0,0-1,2.77c-.11.66-.65,1.05-.89,1.64a9.38,9.38,0,0,0-1.11,2.82c0,.45-.54,1-.76,1.49-.56,1.36-1.19,2.69-1.72,4.07a33.83,33.83,0,0,1-1.5,3.24,21.08,21.08,0,0,0-.82,1.95A13.55,13.55,0,0,1,28.8,27.3a7.08,7.08,0,0,0-.69,1.8,30.48,30.48,0,0,1-1.86,4.07,11.58,11.58,0,0,0-.61,1.69c-.45,1.26-1.18,2.38-1.69,3.6-.31.73-.65,1.46-.9,2.21a25.25,25.25,0,0,1-1.45,3.12.36.36,0,0,1-.52.17c.47-1.16.91-2.34,1.41-3.49,1.13-2.62,2.3-5.24,3.46-7.85,1.64-3.72,3.3-7.44,4.94-11.17,1.44-3.28,2.8-6.6,4.31-9.85.87-1.89,1.63-3.82,2.49-5.72C37.81,5.61,37.93,5.29,38.31,5.24Z"/><path d="M45.94,120.61c-.52.14-.58-.21-.58-.58v-9.82a.7.7,0,0,1,.57-.76c.46-.11.58.25.71.58l2.06,5.54c.38-.28.35-.69.35-1.08q0-2,0-4a1,1,0,0,1,.49-1c.44-.21.74-.13.64.46-.59-.13-.57.25-.57.66,0,1.82,0,3.64,0,5.46,0,.31.1.67-.2.89s-.42-.42-.86-.29a2.4,2.4,0,0,0,.22,1.26,6.89,6.89,0,0,1,.76,2.48c-.44-.06-.48-.45-.58-.75-.7-1.94-1.39-3.88-2.09-5.86-.36.31-.24.67-.24,1,0,1.68,0,3.36,0,5,0,.27.2.66-.27.79,0-2.14,0-4.28,0-6.42a1.66,1.66,0,0,1,.24-1c1-1.26-.24-2.13-.3-3.2l-.29,0Z"/><path d="M157.46,115.4a34.6,34.6,0,0,0-.17-5,1.51,1.51,0,0,1,0-.52c.07-.38,0-.91.6-.87a.84.84,0,0,1,.77.9c.1,1.76.23,3.52.18,5.29,0,1,0,2,0,3s0,1.13,1.18,1.14c.23,0,.47,0,.7,0,.49,0,.59.42.61.82s-.33.48-.66.48c-.81,0-1.63,0-2.44,0-.57,0-.77-.23-.77-.79C157.47,118.48,157.46,117.09,157.46,115.4Zm.41-5.61c-.51.7-.09,1.36-.1,2,0,2.58,0,5.16,0,7.74,0,.28-.16.73.33.75a9.34,9.34,0,0,0,2.41-.07c-.25-.34-.53-.22-.77-.23-1.39,0-1.62-.25-1.62-1.63,0-2.11,0-4.23,0-6.34C158.09,111.29,158,110.54,157.87,109.79Z"/><path d="M231.5,114.78v-4.6a3.06,3.06,0,0,1,0-.61.88.88,0,0,1,.76-.73c.43-.07.49.32.63.59a1.65,1.65,0,0,1,.15.85q0,4.56,0,9.12c0,.59-.08,1.06-.81,1s-.78-.49-.77-1.06C231.51,117.85,231.5,116.32,231.5,114.78Zm.94-5.29h-.2V120.1h.2Z"/><path d="M184.62,114.94c0,1.6,0,3.19,0,4.79,0,.55-.11.88-.75.9s-.69-.44-.69-.92v-9.48a2.14,2.14,0,0,1,0-.44c.08-.36.11-.8.64-.77a.76.76,0,0,1,.76.79c.05.7,0,1.4,0,2.09Zm-1,5.24h.17V109.81h-.17Z"/><path d="M30.33,115.1v-4.61a3.13,3.13,0,0,1,0-.69c.08-.31.2-.61.62-.62a.63.63,0,0,1,.68.54,3.37,3.37,0,0,1,.09.77c0,3.11,0,6.21,0,9.32,0,.54,0,1-.74,1s-.7-.51-.7-1Zm.39,0c0,1.56,0,3.13,0,4.69,0,.2-.14.56.17.58s.31-.35.31-.6V110.5c0-.22.08-.55-.26-.54s-.22.35-.22.55C30.72,112.05,30.72,113.58,30.72,115.12Z"/><path d="M108.94,115v4.78c0,.43,0,.83-.6.83s-.8-.26-.8-.85c0-3.16,0-6.32,0-9.48a1.56,1.56,0,0,1,0-.43.81.81,0,0,1,.81-.67c.4,0,.46.39.53.69a4,4,0,0,1,0,.69Zm-.62,5.17c.38-1.15.28-9.75,0-10.18Z"/><path d="M126.4,115.64l-.24,0V115a2.65,2.65,0,0,1,1.22,0c.06.28.23.29.45.2a27.43,27.43,0,0,1,0,4.44c-.42.11-.7.3-.58.8a11.22,11.22,0,0,1-3.47,0c-.22-3.63,0-7.26-.11-10.89a.51.51,0,0,1,.42-.15,12.18,12.18,0,0,0,3.51.19.12.12,0,0,1,.08.06c-.22.24-.17.39.14.46,0,.61,0,1.23,0,1.85,0,.32,0,.65-.52.55a4.38,4.38,0,0,1-.17-1.49c0-.25.08-.61-.39-.56a.12.12,0,0,1,0-.12c.08-.4-.07-.45-.38-.25h-1.54a.4.4,0,0,0-.65,0c-.16.16-.24.38.06.53v8.53c-.34.33-.07.6.14.77.74.58,2.75,0,2.89-.92a4.44,4.44,0,0,0-.28-3C126.9,115.71,126.8,115.32,126.4,115.64Z"/><path d="M248.05,114.73V110a2.8,2.8,0,0,1,.1-.77c.1-.32.37-.41.69-.43s.46.21.54.47a2.42,2.42,0,0,1,.09.6q0,4.88,0,9.75c0,.55-.16.87-.82.8s-.62-.39-.61-.85C248.06,118,248.05,116.35,248.05,114.73Zm1.09,0c0-1.57,0-3.13,0-4.69,0-.21.13-.54-.19-.58s-.41.24-.41.54v9.47c0,.26,0,.59.36.57s.24-.4.24-.63C249.14,117.89,249.14,116.33,249.14,114.77Z"/><path d="M82.79,120.59a9.37,9.37,0,0,1-3.58,0c0-.68,0-1.36,0-2,0-2.61.16-5.22-.06-7.83,0-.54.18-1,.85-.94s1.34,0,2,0,.86.26.89.81a7.76,7.76,0,0,1-.12,2.15l-.32-.11a6.84,6.84,0,0,0,.07-2c0-.34-.15-.64-.59-.38H80.21a.29.29,0,0,0-.49,0c-.11.12-.2.28.06.35q0,4.36,0,8.71c-.39.62,0,.79.51.88s.7,0,1,0c.9.12,1.19-.36,1.2-1.14s0-1.67,0-2.51c0-.22.1-.56-.33-.55a.75.75,0,0,1-.15-.09c-.27-.21-1,.12-.86-.51s.68-.23,1-.28a2.81,2.81,0,0,1,.5,0,3.71,3.71,0,0,1,.18,1.28A41.08,41.08,0,0,1,82.79,120.59Z"/><path d="M253.82,109.76c-.57-.5-.06-.8.29-.82,1.16-.06,2.32,0,3.48,0a.58.58,0,0,1,.61.62c0,.41-.38.49-.71.46-.74-.06-.86.36-.86,1,0,2.81,0,5.63,0,8.44,0,.45.08,1-.67.84l0-9c0-1.35.13-1.48,1.43-1.62.11,0,.23,0,.16-.3h-3.34C254,109.4,253.89,109.57,253.82,109.76Z"/><path d="M49.53,120.39a6.89,6.89,0,0,0-.76-2.48,2.4,2.4,0,0,1-.22-1.26c.44-.13.47.59.86.29s.2-.58.2-.89c0-1.82,0-3.64,0-5.46,0-.41,0-.79.57-.66,0,3.38,0,6.76,0,10.14C50.22,120.58,50.06,120.93,49.53,120.39Z"/><path d="M82.76,112.7a7.76,7.76,0,0,0,.12-2.15c0-.55-.28-.85-.89-.81s-1.33,0-2,0-.89.4-.85.94c.22,2.61.08,5.22.06,7.83,0,.68,0,1.36,0,2-.62,0-.62-.54-.62-.94,0-3,0-6.09,0-9.14,0-.81.55-1.06,1.18-1.12a19.26,19.26,0,0,1,2.52,0,1.1,1.1,0,0,1,1.16,1.07,14.28,14.28,0,0,1,0,1.73C83.46,112.57,83.28,112.88,82.76,112.7Z"/><path d="M5.79,115.89,5.9,115c.66.09.12.84.57,1v1.22c-.32.33,0,.53.2.62a1.58,1.58,0,0,0,1.39,0c.22-.13.49-.42.17-.75v-.7c.28-.21.29-.39-.06-.53l0-.24c.28-.26.08-.67.32-.94.19,0,.09.4.37.36l.11,1.18a1.3,1.3,0,0,0,.41,1.74c0,.26.07.51.11.77-.18.3-.32.6.1.83l.06.49c-.34.21-.17.49-.1.76-1,.2-.56-.61-.72-1,.16-.53.56-1.15-.46-1.25a4.15,4.15,0,0,0-1.95,0c-.7.1-.78.29-.42,1l0,.32c-.49.2-.28.52-.14.83a.35.35,0,0,1-.55.12.84.84,0,0,0-.1-.85l.21-1.79A2,2,0,0,0,5.79,115.89Z"/><path d="M242.47,109.47c.33.06.57.16.57.6,0,3.27,0,6.55,0,9.82,0,0,0,.1-.09.16-.34-.09-.2-.37-.2-.56,0-1.54,0-3.07,0-4.61a2.18,2.18,0,0,0-.05-.77c-.12-.29,0-.84-.45-.82s-.35.49-.37.78c-.05.7-.34.33-.6.17l.23-1.4c.7-.11.67-.49.36-1l.2-1.27c.67-.14.55-.55.35-1A.19.19,0,0,1,242.47,109.47Z"/><path d="M176.79,120.44c-.61.1-.52-.35-.56-.7-.27-2.72-.16-5.45-.16-8.17,0-.79,0-1.49-1.09-1.38-.13,0-.19-.1-.19-.24,1.6-.2,1.82,0,1.82,1.5C176.61,114.45,176.55,117.45,176.79,120.44Z"/><path d="M123.71,109.53c.07,3.63-.11,7.26.11,10.89-.58-.21-.67-.71-.68-1.23,0-2.85,0-5.71,0-8.57C123.16,110.22,123.06,109.65,123.71,109.53Z"/><path d="M253.82,109.76c.07-.19.16-.36.42-.36h3.34c.07.26-.05.28-.16.3-1.3.14-1.42.27-1.43,1.62l0,9c-.69,0-.48-.54-.48-.89,0-3,0-6,0-9,.06-.64-.1-.73-.83-.46C254.36,109.88,254.06,110,253.82,109.76Z"/><path d="M176.79,120.44c-.24-3-.18-6-.18-9,0-1.52-.22-1.7-1.82-1.5h0c.09-.18.18-.37.42-.36a18.09,18.09,0,0,1,3.75.14l-.07.19c-1.93-.1-1.93-.1-1.93,1.83,0,2.91,0,5.83.14,8.74Z"/><path d="M45.94,120.61V110l.29,0c.06,1.07,1.34,1.94.3,3.2a1.66,1.66,0,0,0-.24,1c0,2.14,0,4.28,0,6.42A.28.28,0,0,1,45.94,120.61Z"/><path d="M100.89,113.2c.57,0,.61-.45.61-.77a5.46,5.46,0,0,1,.88-2.56v10.51h-.15c0-1.55,0-3.1,0-4.65a6.22,6.22,0,0,0-.14-1.55c-.06-.24-.07-.59-.42-.56s-.27.32-.31.55-.13.62-.2,1c-.42-.4-.09-.93-.35-1.31Z"/><path d="M177.09,120.48c-.19-2.91-.13-5.83-.14-8.74,0-1.93,0-1.93,1.93-1.83-.09.5-.5.31-.76.31-.6,0-.8.26-.8.85,0,2.4,0,4.81,0,7.21a11,11,0,0,1,.16,1.63C177.46,120.17,177.57,120.54,177.09,120.48Z"/><path d="M8.3,112.68a1.87,1.87,0,0,0,0,.25c-.26.32-.11.86-.58,1.06a.23.23,0,0,1,0-.16c.22-.26.26-.49-.1-.67l-.1-.48a.46.46,0,0,0-.19-.8c-.3-.11-.34.29-.41.53s-.17.51.07.73l-.11.93c-.68-.14-.16-.86-.55-1.14l.18-1.62c.63-.31.51-.88.49-1.41,0-.05,0-.07.1-.07a.48.48,0,0,0,.48,0,.08.08,0,0,1,.1.07c-.06.49-.09,1,.45,1.23l.1,1C8,112.36,8,112.54,8.3,112.68Z"/><path d="M126.4,115.64c.4-.32.5.07.63.29a4.44,4.44,0,0,1,.28,3c-.14.9-2.15,1.5-2.89.92-.21-.17-.48-.44-.14-.77.57.65,1.32.38,2,.39.27,0,.4-.29.4-.49C126.69,117.89,127,116.73,126.4,115.64Z"/><path d="M239.35,112.21c0,.14-.07.27-.1.41s.16.8-.19.82a1,1,0,0,1-.85-.82,22.75,22.75,0,0,1,0-2.74c0-.37.35-.31.58-.4.05.31.11.62.16.93a.86.86,0,0,0,.45,1.39Z"/><path d="M201.9,117.73a.3.3,0,0,0,.14-.28c0-.28-.18-.7.33-.75s.61.27.77.59a1.86,1.86,0,0,1-.58,2.37l-.08-.44c.09-.5.07-1-.5-1.18Z"/><path d="M82.79,120.59a41.08,41.08,0,0,0,.11-4.15,3.71,3.71,0,0,0-.18-1.28c.55-.18.75.17.76.59,0,1.29,0,2.59,0,3.88C83.44,120,83.35,120.51,82.79,120.59Z"/><path d="M82.19,116c.43,0,.33.33.33.55,0,.84,0,1.67,0,2.51s-.3,1.26-1.2,1.14c-.34,0-.7,0-1,0s-.9-.26-.51-.88c.57.64,1.32.41,2,.38.42,0,.41-.43.41-.74C82.19,118,82.19,117,82.19,116Z"/><path d="M6.34,112.93c.39.28-.13,1,.55,1.14A2.14,2.14,0,0,1,6.47,116c-.45-.2.09-.95-.57-1A2.43,2.43,0,0,1,6.34,112.93Z"/><path d="M179,109.72a18.09,18.09,0,0,0-3.75-.14c-.24,0-.33.18-.42.36-.34-.34-.28-.71.18-.74,1.22-.06,2.46,0,3.69,0A.33.33,0,0,1,179,109.72Z"/><path d="M7.76,114c.47-.2.32-.74.58-1.06A2.36,2.36,0,0,1,8.81,115c-.28,0-.18-.32-.37-.36-.24.27,0,.68-.32.94A1.39,1.39,0,0,1,7.76,114Z"/><path d="M127.64,109.57a12.18,12.18,0,0,1-3.51-.19A4.11,4.11,0,0,1,127.64,109.57Z"/><path d="M81.92,110.24c.44-.26.58,0,.59.38a6.84,6.84,0,0,1-.07,2c-.44-.19-.21-.58-.25-.89C82.14,111.21,82.27,110.68,81.92,110.24Z"/><path d="M126.83,110.44c.47,0,.39.31.39.56a4.38,4.38,0,0,0,.17,1.49c-.42.26-.62,0-.63-.36A4,4,0,0,1,126.83,110.44Z"/><path d="M5.79,115.89a2,2,0,0,1-.47,2.22A4.08,4.08,0,0,1,5.79,115.89Z"/><path d="M9.33,117.91a1.3,1.3,0,0,1-.41-1.74A1.93,1.93,0,0,1,9.33,117.91Z"/><path d="M239.36,111.8a.86.86,0,0,1-.45-1.39A1.4,1.4,0,0,1,239.36,111.8Z"/><path d="M7,109.9c0,.53.14,1.1-.49,1.41C6.37,110.73,6.37,110.2,7,109.9Z"/><path d="M8.32,118.51c1,.1.62.72.46,1.25C8.37,119.44,8.4,119,8.32,118.51Z"/><path d="M8.14,111.14c-.54-.27-.51-.74-.45-1.23C8.38,110.12,8.26,110.63,8.14,111.14Z"/><path d="M6,119.48c-.36-.7-.28-.89.42-1C6.28,118.84,6.35,119.25,6,119.48Z"/><path d="M202,118c.57.22.59.68.5,1.18C202.17,118.88,201.87,118.55,202,118Z"/><path d="M241.83,111.87c.31.48.34.86-.36,1A.71.71,0,0,1,241.83,111.87Z"/><path d="M242.38,109.61c.2.44.32.85-.35,1A.74.74,0,0,1,242.38,109.61Z"/><path d="M127.29,120.43c-.12-.5.16-.69.58-.8C128,120.12,127.9,120.47,127.29,120.43Z"/><path d="M254.64,109.89c.73-.27.89-.18.83.46Z"/><path d="M124.28,110.59c-.3-.15-.22-.37-.06-.53a.4.4,0,0,1,.65,0Z"/><path d="M126.16,115v.57c-.36.22-.57,0-.57-.29S125.81,114.78,126.16,115Z"/><path d="M9.5,120.76c-.07-.27-.24-.55.1-.76C9.93,120.31,10.17,120.6,9.5,120.76Z"/><path d="M9.54,119.51c-.42-.23-.28-.53-.1-.83A.63.63,0,0,1,9.54,119.51Z"/><path d="M5.76,120.63c-.14-.31-.35-.63.14-.83A.57.57,0,0,1,5.76,120.63Z"/><path d="M5.11,119.9a.84.84,0,0,1,.1.85C4.72,120.55,4.71,120.42,5.11,119.9Z"/><path d="M79.78,110.59c-.26-.07-.17-.23-.06-.35a.29.29,0,0,1,.49,0A.51.51,0,0,1,79.78,110.59Z"/><path d="M8.3,112.68c-.34-.14-.33-.32-.06-.53C8.47,112.31,8.56,112.48,8.3,112.68Z"/><path d="M126.41,110.07c.31-.2.46-.15.38.25C126.57,110.38,126.46,110.26,126.41,110.07Z"/><path d="M127.86,110.09c-.31-.07-.36-.22-.14-.46C128,109.71,128,109.87,127.86,110.09Z"/><path d="M7.59,109.84a.48.48,0,0,1-.48,0,.21.21,0,0,1,.2-.3C7.49,109.52,7.64,109.6,7.59,109.84Z"/><path d="M143.24,55c.25.16.22.28-.05.36C143,55.19,143,55.07,143.24,55Z"/><path d="M127.83,115.19c-.22.09-.39.08-.45-.2C127.69,114.71,127.79,114.87,127.83,115.19Z"/><path class="cls-1" d="M56.35,62c-.13.16-.31.13-.48.13-.49,0-1,0-1.48,0l-26.86.19a1.83,1.83,0,0,1-.32-.07,54.92,54.92,0,0,1,2.12-5.65c.57-1.19,1-2.46,1.58-3.65,1.11-2.24,1.83-4.64,3-6.86.84-1.59,1.23-3.42,2.06-5,1.1-2.09,1.67-4.38,2.82-6.45a33.89,33.89,0,0,0,1.34-3.35c.42-1,.91-1.92,1.36-2.88.15-.33.27-.25.5,0a4.62,4.62,0,0,1,1,2.07c.91,2.77,2.44,5.28,3.37,8,.52,1.55,1.33,3,2,4.52,1.12,2.7,2.3,5.39,3.48,8.06,1,2.2,1.81,4.47,2.87,6.64A15.61,15.61,0,0,1,56.35,62Z"/><path d="M27,62.35c-.79,1.82-1.58,3.63-2.35,5.46-.93,2.17-1.77,4.39-2.8,6.52S20.13,78.8,19,80.9s-.94,2.15,1.27,2.15h.43c14.49,0,29-.27,43.46-.17,1.41,0,1.47-.1,1-1.41-.07-.16-.14-.33,0-.49,1,.26.75,1.15.79,1.77s-.58.63-1.12.63c-9.59,0-19.18-.13-28.77,0-5.57.1-11.14,0-16.72.13-1.43,0-1.89-.7-1.24-2,1.86-3.65,3.29-7.49,4.95-11.24.66-1.49,1.2-3,1.88-4.52a17.12,17.12,0,0,1,1.72-3.42C26.74,62.14,26.84,62.12,27,62.35Z"/><path d="M59.19,67.65c-.73-.41-.68-1.25-.94-1.88s-.94-1.46-.83-2.39c.66.13.59.74.78,1.17l1,2.2A.82.82,0,0,1,59.19,67.65Z"/><path d="M64.42,79.49a13,13,0,0,1-1.85-4.38c.77.13.66.92.93,1.38a15.57,15.57,0,0,1,1,2.62A.31.31,0,0,1,64.42,79.49Z"/><path d="M61.08,72A5,5,0,0,1,60,69.48s.07,0,.08,0A3.88,3.88,0,0,1,61.08,72Z"/><path d="M61.93,73.76c-.85-.16-.62-.9-.77-1.43A1.16,1.16,0,0,1,61.93,73.76Z"/><path d="M64.93,80.54a.67.67,0,0,1-.46-.87C65.05,79.73,65.13,80.06,64.93,80.54Z"/><path d="M62.37,74.61c-.36,0-.43-.24-.32-.54C62.57,74,62.51,74.28,62.37,74.61Z"/><path d="M59.76,68.85c-.33,0-.43-.21-.34-.51C60,68.21,59.87,68.53,59.76,68.85Z"/><path d="M57.32,63.09c-.37-.05-.5-.23-.29-.57C57.52,62.51,57.44,62.79,57.32,63.09Z"/><path d="M251.29,94.94c-8.72,0-17.45,0-26.17,0a2.69,2.69,0,0,1-2.86-2.88c0-13.68.18-27.36,0-41-.21-14.83,0-29.66-.13-44.49a2.81,2.81,0,0,1,.55-2.12,2.57,2.57,0,0,1,2.12-.93c2.29.06,4.59,0,6.88,0a2.62,2.62,0,0,1,2.52,2.55V43.81c0,2.73-.08,5.47,0,8.19.34,9.9.07,19.79.17,29.69,0,1.25.09,1.34,1.34,1.34q20.81,0,41.6,0a4.25,4.25,0,0,1,2.31.57,2.53,2.53,0,0,1,.93,2.1,61.52,61.52,0,0,1,0,6.79,2.55,2.55,0,0,1-2.64,2.5C269,94.91,260.15,94.94,251.29,94.94Z"/><path d="M171.82,90c0-1,0-1.92,0-2.88a2.33,2.33,0,0,1,1.59-2.28c.72-.34,1.5-.27,2.14-.54,1.45-.59,3-.73,4.41-1.59a22.24,22.24,0,0,0,5.69-4.68c1.37-1.71,2.84-3.43,3.45-5.65a12.22,12.22,0,0,1,.79-1.78c.06-.12.19-.23.21-.37.51-2.56,1.26-5.11.21-7.73-.44-1.1-.67-2.28-1.21-3.34a26,26,0,0,0-1.86-2.86,107.91,107.91,0,0,0-7.3-8.69,30.64,30.64,0,0,1-3.18-4.26,29.51,29.51,0,0,1-1.92-4,31.54,31.54,0,0,1-1.78-9,27.88,27.88,0,0,1,.66-6.95c.35-2.39,1.61-4.43,2.64-6.56a28.62,28.62,0,0,1,8.69-10.27,37.27,37.27,0,0,1,5.52-3.38,11.4,11.4,0,0,1,2.5-.91,14.65,14.65,0,0,0,2.09-.7,15.57,15.57,0,0,1,5.77-1c2.07,0,2.9,1.07,3,2.89s0,4,0,5.93a2.37,2.37,0,0,1-2.13,2.52A22.78,22.78,0,0,0,194,14.83a26.94,26.94,0,0,0-4.44,3.59,4.35,4.35,0,0,0-1,1.58c-.38,1.05-1.09,1.92-1.57,2.93-.58,1.24-.94,2.58-1.6,3.77-1.21,2.19-.53,4.52-.57,6.78,0,.86.7,1.55,1,2.35.19.43.37.9.56,1.34a17,17,0,0,0,2.27,3.41A45.63,45.63,0,0,0,192.35,45c1.29,1.33,2.32,2.85,3.47,4.27,1,1.18,1.67,2.57,2.61,3.8.36.45.37,1.21.69,1.8.65,1.2,1.2,2.46,1.78,3.69a1,1,0,0,1,.1.33c.22,2.44.93,4.81.78,7.3a50.33,50.33,0,0,1-.58,6.47c-.23,1.21-.61,2.36-.92,3.53-.25.94-.9,1.77-1.21,2.73a20.34,20.34,0,0,1-3.19,5.34,21.34,21.34,0,0,1-4.36,4.6,28.24,28.24,0,0,1-6,3.83c-1.08.47-2.17.87-3.25,1.28-.9.35-1.85.62-2.75.89a13.22,13.22,0,0,1-5.79.74,2.82,2.82,0,0,1-1.91-2.39c0-1.07,0-2.15,0-3.22Z"/><path d="M98.8,113.11c-.08.35,0,.91-.19.82-.43-.16-1-.51-1-1a26.56,26.56,0,0,1,0-2.68.27.27,0,0,1,.25-.3.25.25,0,0,1,.28.26C98.11,111.24,98.7,112.16,98.8,113.11Z"/><path d="M99.87,118.48c-.15-.91-.23-1.74.6-2.33A2.68,2.68,0,0,1,99.87,118.48Z"/><path d="M59.2,112.33a6.59,6.59,0,0,1-.34-1.62c-.08-.28-.18-.5-.46-.56a5.55,5.55,0,0,0-2.33,0c-.6.13-.52.77-.52,1.25,0,2.44,0,4.87,0,7.31a4.36,4.36,0,0,0,.14.94c0,.13.07.34.17.38a4.16,4.16,0,0,0,2.47.08c.56-.13.58-.74.62-1.23s0-.89,0-1.34h.23c0,.74,0,1.49,0,2.23a.76.76,0,0,1-.82.74c-.75,0-1.51,0-2.26,0-.55,0-.78-.32-.78-.84v-9.31c0-.45.22-.62.64-.61.78,0,1.57,0,2.35,0,.62,0,1,.24.9,1A14.77,14.77,0,0,0,59.2,112.33Z"/><path d="M166.38,119.55a3.65,3.65,0,0,0,3.3.23c0,.56,0,.56-.9.56C166.37,120.36,166.37,120.36,166.38,119.55Z"/><path d="M142.36,112.21c0-.53,0-1.06,0-1.6s-.23-.7-.75-.74c-2.18-.13-2.18-.15-2.17,2a3.82,3.82,0,0,1-.08.95,5.13,5.13,0,0,1-.18-2.85c.06-.36.34-.43.66-.43a11.28,11.28,0,0,1,1.3,0c.49.06,1.17-.32,1.43.26a3.79,3.79,0,0,1,.05,2.38Z"/><path d="M141.12,114.73c-.73.14-.63-.37-.85-.78C140.81,114.07,140.77,114.53,141.12,114.73Z"/><path d="M140.11,113.69c0,.09-.1.14-.18.07a.43.43,0,0,1-.11-.21.12.12,0,0,1,.16-.13C140.1,113.46,140.12,113.57,140.11,113.69Z"/><path d="M141.49,115.3c-.07,0-.13.11-.14.1a.93.93,0,0,1-.13-.15s.08-.09.1-.08A1,1,0,0,1,141.49,115.3Z"/><path d="M209.07,117c0,.6,0,1.21,0,1.81s.32,1,1.08,1c1.74.13,2.31-.56,2.21-2.13a.81.81,0,0,1,.23-.73,5.79,5.79,0,0,1-.06,2.5,1,1,0,0,1-1.08.67,13.81,13.81,0,0,0-1.82,0c-.53,0-.81-.15-.86-.7a11.8,11.8,0,0,1,0-2.45Z"/><path d="M208.83,112.58v-2.65a.38.38,0,0,1,.43-.43,12.37,12.37,0,0,1,2.77.21h-1.7c-1.27,0-1.27,0-1.27,1.24v1.62Z"/><path d="M118,109.69V120l-.21,0a9.47,9.47,0,0,0-.69-2,1,1,0,0,1,.25-1.17,1.72,1.72,0,0,0,.33-1.31c0-1.68,0-3.36,0-5C117.65,110.26,117.51,109.93,118,109.69Z"/><path d="M114,120.22V109.59c1,1.13,1,2.38,1.61,3.54a2.24,2.24,0,0,1-.42,0c-.25-.12-.24-.65-.62-.48s-.29.53-.29.85c0,1.54,0,3.07,0,4.61A4.66,4.66,0,0,1,114,120.22Z"/><path d="M265.89,120.06a9.39,9.39,0,0,1-2.61.08c-.79-.07-.34-.57-.24-1.14C263.64,120.39,264.82,119.56,265.89,120.06Z"/><path d="M263.1,115.31a1.19,1.19,0,0,1-.18-.85c0-.18.1-.44.28-.31.68.47,1.47.09,2.26.36a2.54,2.54,0,0,1-1.29.11C263.65,114.58,263.43,115,263.1,115.31Z"/><path d="M39.5,118.3a1.64,1.64,0,0,0-2.61.77v-2.54c.5.82.92,1.26,1.73,1.25,1,0,1.08-.7,1.44-1.34v2.69c-.22-.17,0-.7-.47-.74A.38.38,0,0,1,39.5,118.3Z"/><path d="M38.94,110.9c0,.23,0,.46,0,.69s-.3.41-.54.44-.29-.28-.3-.47c0-.37,0-.75,0-1.12s0-.67.47-.67.34.43.38.7a3.09,3.09,0,0,1,0,.43Z"/><path d="M39.45,115.49a8.56,8.56,0,0,1-.17-2.81A5.16,5.16,0,0,1,39.45,115.49Z"/><path d="M200.39,112.13c0,.21,0,.58-.3.47s-.79-.16-.82-.64,0-1,0-1.56c0-.2.06-.43.32-.42s.21.25.19.41C199.68,111.08,200.57,111.41,200.39,112.13Z"/><path d="M240.4,118.33c-.25-1.13-.3-2,.66-2.52C241.44,116.74,240.67,117.34,240.4,118.33Z"/><path d="M91,115.74c.32-.53,0-1.13.19-1.67a.24.24,0,0,1,.22.24c0,1.93.69,3.74.91,5.63,0,.16.06.45-.22.49s-.38-.12-.38-.37a2.46,2.46,0,0,1,0-.26c0-2-.35-1.85-2.21-1.74-1,.06-.72,1.12-1,1.71-.11.21.08.54-.45.78,0-1.7.81-3.18.88-4.78.07.46.12.91.21,1.36s.21.62.62.61.94.16,1.28-.31a.47.47,0,0,0,0-.63Z"/><path d="M90.68,112.5c-.33-.71-1.06-1.26-.81-2.17,0-.18-.08-.47.19-.5a.52.52,0,0,1,.51.38A5.21,5.21,0,0,1,90.68,112.5Z"/><path d="M89.63,114.32l0,.45c-.35,0-.39-.28-.39-.57a17.38,17.38,0,0,1,.09-1.9C89.74,112.93,89.32,113.68,89.63,114.32Z"/><path d="M226.92,120a2.09,2.09,0,0,1-.41.16c-2.33.14-2.33.14-2.33-2.18,0-2.5,0-5,0-7.5,0-.27-.1-.57.13-.83a2.12,2.12,0,0,1,.11,1.11c0,2.47,0,4.94,0,7.41,0,1.73,0,1.76,1.74,1.79Z"/><path d="M67.37,114.85c-.35.37-.78.21-1.16.23a1,1,0,0,0-1.15,1.13c0,.93,0,1.86,0,2.78a1.09,1.09,0,0,0,1.19,1.2c.51,0,1,0,1.54,0v.29c-1,0-2,0-3,0-.24,0-.21-.31-.21-.5v-9.65c0-.34.06-.57.47-.57.89,0,1.79,0,2.69.09-.47.35-1,.2-1.51.22-1,0-1.17.24-1.18,1.18,0,.79,0,1.57,0,2.35s.37,1.13,1.12,1.17A3.14,3.14,0,0,1,67.37,114.85Z"/><path d="M157.87,109.79c.08.75.22,1.5.23,2.26,0,2.11,0,4.23,0,6.34,0,1.38.23,1.6,1.62,1.63.24,0,.52-.11.77.23a9.34,9.34,0,0,1-2.41.07c-.49,0-.33-.47-.33-.75,0-2.58,0-5.16,0-7.74C157.78,111.15,157.36,110.49,157.87,109.79Z"/><ellipse cx="232.34" cy="114.8" rx="0.14" ry="7.51"/><path d="M183.62,120.18V109.82h.17v10.38Z"/><path d="M30.72,115.12c0-1.54,0-3.07,0-4.61,0-.2-.12-.54.22-.55s.26.32.26.54v9.29c0,.25.06.62-.31.6s-.17-.38-.17-.58C30.72,118.25,30.72,116.68,30.72,115.12Z"/><path d="M108.32,120.19V110C108.6,110.44,108.7,119,108.32,120.19Z"/><path d="M249.14,114.77c0,1.56,0,3.12,0,4.68,0,.23.16.6-.24.63s-.36-.31-.36-.57V110c0-.3.1-.57.41-.54s.19.37.19.58C249.14,111.64,249.14,113.2,249.14,114.77Z"/><path d="M6.47,117.21A2.06,2.06,0,0,0,8.23,117c.32.33,0,.62-.17.75a1.58,1.58,0,0,1-1.39,0C6.45,117.74,6.15,117.54,6.47,117.21Z"/><path d="M8.22,116.34c-.24-.15-.34-.32-.06-.53C8.51,116,8.5,116.13,8.22,116.34Z"/><path d="M7.53,112.68c-.42-.13-.24.43-.53.46-.24-.22-.15-.48-.07-.73s.11-.64.41-.53A.46.46,0,0,1,7.53,112.68Z"/><path d="M7.73,113.83c-.29-.19-.26-.42-.1-.67C8,113.34,8,113.57,7.73,113.83Z"/></svg>