<svg id="client_logos" data-name="client logos" xmlns="http://www.w3.org/2000/svg" viewBox="0 0 289.3 80.58"><defs><style>.cls-1{fill:#1e529d;}</style></defs><g id="Logo"><g id="Cilicon_" data-name="Cilicon+"><path id="C" class="cls-1" d="M46.7,47.45a23.9,23.9,0,1,1-.16-14.82H36a14.32,14.32,0,1,0,.3,14.82Z"/><rect id="I" class="cls-1" x="54.05" y="14.85" width="11.45" height="50.88" rx="5.72"/><rect id="L" class="cls-1" x="76.15" width="11.45" height="80.58" rx="5.72"/><rect id="I-2" data-name="I" class="cls-1" x="98.25" y="14.85" width="11.45" height="50.88" rx="5.72"/><path id="C-2" data-name="C" class="cls-1" d="M163.41,47.45a23.9,23.9,0,1,1-.16-14.82H152.7a14.32,14.32,0,1,0,.3,14.82Z"/><path id="O" class="cls-1" d="M190.21,26.52v-9.8a23.9,23.9,0,0,0,0,47.14V54.05a14.32,14.32,0,0,1,0-27.53Zm7.93-9.8v9.81a14.33,14.33,0,0,1,0,27.52v9.81a23.9,23.9,0,0,0,0-47.14Z"/><polygon id="N" class="cls-1" points="252 17.55 252 46.5 234.67 17.98 224.65 17.98 224.65 63.03 234.67 63.03 234.67 33.27 252 62.65 262.24 62.65 262.24 17.55 252 17.55"/><g id="_" data-name="+"><rect class="cls-1" x="275.86" y="6.12" width="6.52" height="20.37"/><rect class="cls-1" x="275.86" y="6.12" width="6.52" height="20.37" transform="translate(295.42 -262.82) rotate(90)"/></g></g></g></svg>