<svg id="client_logos" data-name="client logos" xmlns="http://www.w3.org/2000/svg" viewBox="0 0 229.37 160.73"><defs><style>.cls-1{fill:#c5a76f;}</style></defs><path class="cls-1" d="M66.05,89.05c11.09,0,19.77,7,19.77,18.48,0,11-8.19,20.15-20.09,20.15-13.5,0-19.44-10.51-19.44-19.35,0-8,6.17-19.28,19.76-19.28m1,36.42c4.44,0,13.12-2.8,13.12-16.56,0-10.64-6.72-17.84-14.5-17.84-8.23,0-13.89,5.47-13.92,15.88,0,10.67,6.43,18.52,15.3,18.52"/><path class="cls-1" d="M98.23,123.38c.26-2.09.26-5.95.26-10.71V104c0-7.69,0-9.07-.1-10.64l0-3.51c.58,0,6.36-.16,9.32-.16,4.89,0,14.3-.45,20.15,5.63a17.54,17.54,0,0,1,4.79,12.5,20.26,20.26,0,0,1-5.3,13.89c-2.12,2.21-7,5.65-15.33,5.65-4.25,0-13.34-.61-13.82-.61Zm5.34-14c0,5.21.06,9.74.09,10.67a8.19,8.19,0,0,0,.74,3.41c.64.93,1.9,2,7.72,2,4.59,0,8.22-1.35,11.12-4.24,2.57-2.51,4-7.23,4-11.77A17.58,17.58,0,0,0,122.47,97c-4.63-4.89-9.68-5.24-15.53-5.24a9.46,9.46,0,0,0-2.73.35c-.45.19-.58.45-.58,1-.06,1.67-.06,6.36-.06,10.15v6.11Z"/><path class="cls-1" d="M145,123.35c.26-2.09.26-6,.26-10.71V104c0-7.68,0-9.06-.1-10.64l-.29-3.63c.67,0,1.93.13,3,.16.74,0,2.12-.19,2.73-.16l-.1,3.63c-.09,1.58-.09,3-.09,10.64v8.68c0,4.73,0,8.62.25,10.71l.32,3.6c-1.06,0-1.67-.17-3.08-.17s-2.09.23-3,.17Z"/><path class="cls-1" d="M29.19,114.38v-5.92c.83,0,1.6.13,2.54.16.77,0,1.8-.16,2.63-.16l0,3.64c-.09,1.57-.09,3.05-.09,5.11v5.52c0,2.22-.07,2.32-.65,2.67-3.15,1.67-8.06,2.22-10.92,2.22-4.7,0-11.93-.8-16.88-5.53A19.54,19.54,0,0,1,0,108.3c0-7.87,3.89-13.47,8.26-16.2S18.19,89,22,89a46.15,46.15,0,0,1,7.77.84,24.35,24.35,0,0,0,4,.48c.48.07.58.26.58.45A27.84,27.84,0,0,0,34,96.06c0,.54-.52.32-1.16-.29,0,0-.64-.49-1.13-.9-1.67-1.51-5-3.8-11.38-3.8-3.08,0-6.42.29-9.93,3-2.86,2.25-5,6.75-5,12.5a20.28,20.28,0,0,0,5.21,13.66A17,17,0,0,0,23,125.34a12.51,12.51,0,0,0,5.15-.84,1.82,1.82,0,0,0,1-1.73v-8.39Z"/><path class="cls-1" d="M192.09,89.72c.32,0,1.54.13,2.15.13.29,0,.36-.06,1.8-.06l-2.34,5.82c-.55,1.38-3.09,7.26-5.76,13.34-3.12,7.13-5.3,12.53-6.43,14.94-1.38,3-1.67,3.73-2.18,3.73s-.94-.67-1.87-3.05L165.22,94.38l-1.9-4.69c.9,0,2.54.16,3.12.16s2.5-.13,3.08-.16c0,0,1.29,4.08,2,6l9,23.76c2.86-6.59,9.13-22.34,10.22-25.88.26-.74,1.32-3.86,1.32-3.86"/><path class="cls-1" d="M223.2,124.86l-4.27-11.22a.44.44,0,0,0-.45-.29H207.87a.5.5,0,0,0-.48.38l-2.89,7.82c-.45,1.22-1.9,5.4-1.9,5.4s-1,0-1.54,0-1.45.1-2,0l2.12-5.4L212.76,91c.57-1.64,1-1.93,1.31-1.93s.74.35,1.35,1.9c.74,1.86,8.55,22,11.51,29.54l2.44,6.46c-.74,0-2,0-5.43-.1Zm-5.46-13.73c.22,0,.22-.16.19-.35L213.37,97.5c-.2-.38-.32-.38-.55,0l-4.4,13.28c-.1.25,0,.35.16.35Z"/><path class="cls-1" d="M68.4,147.9l0,.07a4,4,0,0,1,2.48,3.66c0,2.28-2.09,4.28-5.14,4.28H58.28v-.61c1,0,1.51,0,1.89-1.13l3.76-11.83a5.24,5.24,0,0,0,.26-1.25c0-.61-.67-.71-1.35-.74l.06-.48h4.73c2.86,0,4.85,1.54,4.76,3.76a4.52,4.52,0,0,1-4,4.27m-2.57.36-1.58-.07-2.18,6.91,2.18.16c3.19,0,4.54-1.51,4.54-4.27,0-2.38-2-2.67-3-2.73m2-7.88c-.8,0-1.16.26-1.41,1.13l-1.87,6.14c.42,0,1.06,0,1.32,0,3.66,0,4.47-1.93,4.47-4.54,0-1.76-.68-2.73-2.51-2.73"/><path class="cls-1" d="M77.72,149.83c-1.25.77-2.22,1.22-3.24,1.74a8.65,8.65,0,0,0-.58,2.57c0,.58-.2,1.06.58,1.06,1.31,0,2-.71,3.21-2.44L78,153c-1.12,1.74-2.5,3.12-4,3.12A2.06,2.06,0,0,1,72,153.85c0-2.57,3.41-8.42,6.3-8.42A1.58,1.58,0,0,1,80,146.84c0,1-.81,2.06-2.32,3m.52-3.76c-1,.16-1.93,1.22-3.41,4.66,2.15-1,3.76-2.44,4-3.95.06-.45-.13-.77-.58-.71"/><path class="cls-1" d="M81.93,152.47a5.41,5.41,0,0,0-.58,1.83c0,.29.07.19.26.19.36,0,1.16-.77,2-1.93l.33.29c-1.42,2-3.22,3.22-4,3.22-.35,0-.55-.48-.55-.77a5.55,5.55,0,0,1,.49-1.84l5-11.92c.19-.45.29-.93.19-1s-.38-.29-1.06-.29l.06-.51,3.19-.13Z"/><path class="cls-1" d="M94.31,146.87a1.17,1.17,0,0,1-.68-.29c-.22-.12-.22-.25-.51-.22s-.26.16-.45.32a3.73,3.73,0,0,1,.06,1.09c0,2-1.8,5.11-4.4,5.11a3.83,3.83,0,0,1-.93-.12c-.55.25-.87.38-.87.86s.06.42.9.78c1.09.45,2.41.64,3.57,1.19a2.58,2.58,0,0,1,1.6,2.15c0,1.73-2.5,3-4.91,3-2.64,0-4.57-1.13-4.57-2.41s1.19-1.93,3.09-2.48v0a1.22,1.22,0,0,1-.9-1.35c0-.84.61-1.29,1.67-1.9-.64-.41-.93-1.44-.93-2.83a4.31,4.31,0,0,1,4.4-4.17,2,2,0,0,1,1.83.8,2.94,2.94,0,0,1,1.87-.77.81.81,0,0,1,.87.71.94.94,0,0,1-.71.57m-4.44,10c-.8-.32-2.34-.64-3-.83-1.67.51-2.38,1-2.38,2.22,0,1.54,1.77,1.8,3.25,1.8,2.22,0,3.6-.78,3.7-1.8.09-.78-.55-1-1.58-1.39m.65-11c-2,0-3.22,3.12-3.22,4.66,0,1,.1,1.61.93,1.61,1.87,0,3.19-3.73,3.25-5.08.06-.74-.19-1.19-1-1.19"/><path class="cls-1" d="M96.69,151.37a18.58,18.58,0,0,0-1.39,3c0,.19.1.38.26.35.48-.13.93-.42,2.06-1.87l.29.26c-.81,1.06-2.38,3-3.79,3-.36,0-.62-.25-.62-.77,0-1.35.65-2.09,1.93-4.92a15.47,15.47,0,0,0,1.39-3.34c0-.19-.07-.29-.2-.29-.51,0-1.77,1.51-2.22,2.09l-.28-.32c1.09-1.54,2.63-3,3.82-3a.85.85,0,0,1,.8.71c0,.64-.86,2.47-2,5.07m2-9.45c-.74,0-1.16-.32-1.16-1.28a1.07,1.07,0,0,1,1-1,1.11,1.11,0,0,1,1.19,1.06c0,.55-.55,1.22-1.06,1.22"/><path class="cls-1" d="M106.43,152.63c-.52,1.25-.58,1.41-.58,1.7,0,.13,0,.26.16.26.45,0,1.06-.52,2.22-2.25l.29.32c-1.48,2.28-2.93,3.47-3.54,3.47s-.87-.35-.87-.8,0-.93.9-3.18l.07-.29c-2.09,3.5-3.12,4-4.86,4.34-.61.12-1.06-.71-1.06-1.39s.77-2.15,1.74-4.24a29.37,29.37,0,0,0,1.6-3.6c0-.16,0-.26-.22-.26-.35,0-1.25.68-2.15,1.84l-.26-.2c1.12-1.38,2.6-2.89,3.57-2.89a.93.93,0,0,1,.86.8c0,.55-.64,1.9-1.89,4.6-1.09,2.35-1.42,3-1.42,3.7,0,.22.1.35.33.35,1,0,2.92-2.48,4.56-5.34a25.58,25.58,0,0,0,1.8-3.66l1.64-.06Z"/><path class="cls-1" d="M122.31,151c-1.23,2.51-1.39,2.76-1.39,3.24,0,.2.1.26.23.26.35,0,1-.45,1.83-1.57l.42.32c-1.09,1.54-2.8,3-3.67,3a1.14,1.14,0,0,1-.8-1c0-.61.45-1.48,1.67-4.08s1.67-3.25,1.67-3.92c0-.32,0-.52-.35-.52-1.09,0-2.8,2-4.57,5.18a43.41,43.41,0,0,0-2,3.92h-1.51l1.93-4.63a15.07,15.07,0,0,0,1.42-4.11c0-.23,0-.45-.39-.45-1,0-2.83,2.25-4.44,5.11a39.88,39.88,0,0,0-1.92,4H109c.38-.84,1.22-2.9,2-4.79.93-2.19,1.44-3.38,1.57-3.86.07-.19.1-.58-.16-.58-.45,0-1.25,1-2.28,2.51l-.26-.29c1.29-2,2.51-3.25,3.54-3.25.77,0,1.41.42,0,3.63l0,0c1.39-2.06,2.86-3.64,4.54-3.64a.9.9,0,0,1,1,.9,5,5,0,0,1-.61,2.8l.1,0c1.57-2.28,2.67-3.67,4.56-3.67a1,1,0,0,1,1,1.1c0,1.19-.87,2.6-1.7,4.37"/><path class="cls-1" d="M134.26,154a2.43,2.43,0,0,0-.16.81c0,.38.16.51,1.42.54l.06.45h-5.21v-.45c1.26,0,1.61,0,2-1.25l4-11.89-1.92.54-.39-.38a34.7,34.7,0,0,0,4.76-2.48l.16.39Z"/><path class="cls-1" d="M138.92,156l-.25-.41c2.63-1.61,4.4-2.67,6.3-5.5l0,0a2.65,2.65,0,0,1-2.41.41c-1.67-.29-2.35-1.44-2.35-3.4,0-2.29,2.7-6.82,6.24-6.82,1.89,0,2.6,1.64,2.6,3.83,0,4.85-4.15,10.32-10.16,11.92m7.62-15.23c-1.8,0-4.5,3.69-4.5,6.78,0,1.64.64,2.31,1.58,2.31,2.44,0,4.14-5.14,4.11-7.16,0-1.42-.26-1.93-1.19-1.93"/><path class="cls-1" d="M156.86,146.78c-1.83,1.7-4.08,2.57-6,4.63a7.12,7.12,0,0,0-1.67,2.6h4.57c1.31,0,1.6.1,2.21-1.29l.55.1-1.48,3.05-7.42,0a11.68,11.68,0,0,1,2.73-4.63c1.51-1.7,3.37-3.08,4.95-4.72a4.73,4.73,0,0,0,1.7-3.57c0-1.32-.61-1.83-1.86-1.83a5.18,5.18,0,0,0-4.18,2.76l-.35-.29a6.56,6.56,0,0,1,5.43-3.37c1.64,0,2.89.83,2.89,2.57a5.94,5.94,0,0,1-2.12,4"/><path class="cls-1" d="M163,146.42l0,.13a2.87,2.87,0,0,1,2.16-.7c1.54,0,2.73.9,2.73,3.15,0,1.83-2.22,7-6.08,7-2,0-3-2-3-3.77,0-5.14,4.05-10,10.28-11.89l.42.39a13.39,13.39,0,0,0-6.52,5.65m1.44,0c-2.86,0-4.11,5.14-4.11,7.07,0,1.54.54,2,1.44,1.93,2.25-.2,4.15-4.86,4.15-7,0-1.13-.22-2-1.48-2"/><path class="cls-1" d="M127.58,10.59a2.62,2.62,0,0,0-1.39,1.76c0-.57.2-1.25.29-1.89a.23.23,0,0,1,0-.16,5.59,5.59,0,0,0,.9-2.45c0-1.22.38-3.31-1.87-4.46l-1,.09c2.61.71,2.35,2.54,2.45,4.21a4,4,0,0,1-.9,2.48,6.44,6.44,0,0,1-.81.55,1.31,1.31,0,0,0,.68.06c-.16,1.12-.13,2.09.61,2.7a1.12,1.12,0,0,1-.32-.9A2.63,2.63,0,0,1,128.35,11a2.12,2.12,0,0,1-.77-.41"/><path class="cls-1" d="M118.7,35.27a4.29,4.29,0,0,1-.28-.51,5,5,0,0,1,1.31-6.43l-.83-1c-1.06.9-3.63,4.82-1,8.62a1.23,1.23,0,0,0,.77-.65"/><path class="cls-1" d="M121.86,38.71c.19.2.38.36.57.55,1,.93,2,1.86,3,2.76.58.52,1.67,1.16,1.51,2.09a2.75,2.75,0,0,1-.77,1.16c-.32.39-.58.8-.87,1.22a26.77,26.77,0,0,0-2.53,5.43,37.24,37.24,0,0,0-1.42,4.95c0,.13,0,.29-.13.36s-.58.58-.74.8a9.65,9.65,0,0,0-.93,1.25s0,0,0,0c-.42.74.42,1.15.45,2,0,.48.06,1,.09,1.41.07.65.13,1.32.23,2,0,.33.1.65.13,1a2.32,2.32,0,0,1,.06.45c0,.06,0,.13,0,.22s0,.16,0,.2.09-.23.09-.26,0-.23.07-.32c.06-.29.13-.58.22-.87.2-.74.36-1.45.55-2.19l.19-.9a31.82,31.82,0,0,1,1.16-4.91c.16-.33.32-.65.51-1a72.12,72.12,0,0,1,3.83-6.62c.71-1.09,1.45-2.16,2.22-3.15.61-.81,2-1.87,1.67-3a4.85,4.85,0,0,0-.29-.61,16.19,16.19,0,0,0-.87-1.58c-1-1.7-2-3.37-3.15-5-.42-.58-.93-1.16-1.41-1.74a6.12,6.12,0,0,1,.77-.38c1.19,1.64,2.34,3.31,3.44,5,.61,1,1.22,1.93,1.8,2.89s1.15,2.16.38,3.25c-.41.58-.86,1.12-1.28,1.7-1.16,1.55-2.32,3.09-3.44,4.66a40.85,40.85,0,0,0-4.28,6.72c-.09.23-.51,3.67-.77,4.37-.13.39-.26.74-.38,1.1-.2.57-.42,1.15-.61,1.73-.1.26-.17.52-.26.77l-.1.32s0,.2-.06.2a.11.11,0,0,1-.07,0s0-.09-.06-.12-.1-.2-.13-.29a2.92,2.92,0,0,1-.19-.49c-.07-.54-.45-3-.61-3.56-.2-.81-1.19-1.9-1-2.74.13-.61,2.22-1.63,2.44-2.21a8.72,8.72,0,0,0,.35-1.9c.2-1.22.26-1.61.55-2.83a19.47,19.47,0,0,1,2.93-6.94A16.55,16.55,0,0,1,126.16,44c.58-.61-.32-1-.8-1.31s-1.16-.9-1.74-1.39l-2.41-2Z"/><path class="cls-1" d="M146.67,36.88a11.5,11.5,0,0,1-.26-2.64c-.13.1-.19-.54-.29-.35a5.44,5.44,0,0,0-.25,2.7,14.89,14.89,0,0,0,1.64,4.95c2.7,5.53.7,10.29-1.68,11.25,1.26,3.79,3.44,7.43,3.83,11.57A47,47,0,0,0,151.59,74c-.71-1.45-1.8-3.12-2.48-4.7-1.8-4.27-3-8.45-4-10.15a26.89,26.89,0,0,0-2.44-4,2.79,2.79,0,0,1-.29,2c2.09,2.25,2.95,5.43,4.34,8.2-.07,2.44,4.91,10.67,6,12.5a18.4,18.4,0,0,1,1.45,4.43h4A10.32,10.32,0,0,0,157,80.56c-.52-.58-2.29-2.22-2.64-2.7a20.82,20.82,0,0,1-1.77-3.24,19.65,19.65,0,0,1-1.64-8.2c.13-4-1.73-7.36-2.57-11.15-.13-.55-.42-1.64-.42-1.64,1.32-1.67,4.25-5.79.58-11.29a18.59,18.59,0,0,1-1.83-5.46"/><path class="cls-1" d="M159.27,22c.26-.29,1.7-1.71,1.57-2s-1.31.23-2.53.84c-.39-.48-.78-1-1-1.19a.18.18,0,0,1-.06-.1c1-.61,2-1.22,1.93-1.38-.1-.58-2.09-.64-4.09-.39-10.28-6.55-24.39-.06-27.41,11.22-.1.36.12,1.71.06,2.09a4.92,4.92,0,0,1-1.45,2.61c.1.06.77.12.77.16a5.83,5.83,0,0,0,.1,1c.07.1.74,1,.74,1,0-.39,0-.77,0-1.16.71-12.05,12.86-21.18,23.5-16A11.83,11.83,0,0,1,155.61,22c-.07-.1.19,2.44.12,2.37.29,1,.13.84,0,1.93,0,.42-.64.68-1.06,2.22s-.58,10.7-.45,11.22c.2.8-.25.83-.67,1.38a2.11,2.11,0,0,1-1.26.93c-.8.16-.45-.74-2.73-1-.35,0-1-3.69-1.06-4.37-.32-4.3-4.11-8.8-4.27-9.45,0,0-.2,1.64-.16,1.74.29.48,2.89,4.92,3.21,5.66a15.47,15.47,0,0,1,.93,3c.13.57.42,3.72.74,4a2.75,2.75,0,0,0,1.74.74c.45,0,.9,1.06,1.64,1,1.12-.1,1.25-1,1.57-1.22,1.48-1.13.9-3.6.93-4.37.1-2.54.58-7.33.71-8,.32-2,.55-.9,1-1.7.25-.45-.26-3.41,0-3.63.29-.9,2.12-1.74,2.73-2.44"/><path class="cls-1" d="M108.29,16.28c0-.45.64-.52,1-.68.49-.26.42-.67.42-1.19,0-1.25-.48-2.79.36-3.89A7.42,7.42,0,0,1,113.18,8c1.76-.74,3.53-1.42,5.24-2.22a6.42,6.42,0,0,1,1-.48l1.26-.39a24.31,24.31,0,0,0,2.47-.9,4.4,4.4,0,0,0,1-.58.92.92,0,0,1,.8-.29c.16-.22.19-.74-.1-.87-.57-.29-.9.42-1.22.74A5.2,5.2,0,0,1,122,4c-.61.25-1.15.48-1.76.77s-1.42.45-2.09.74c-2.09.87-4.41,1.44-6.37,2.6a6.22,6.22,0,0,0-2.38,2.06,4.67,4.67,0,0,0-.29,2.86,2.23,2.23,0,0,1-.32,1.77,2.16,2.16,0,0,0-.48,1.48"/><path class="cls-1" d="M129.18,10.43a1.58,1.58,0,0,1-.7-1.42c0,.93,1.76,1.61,2.5,2.06,1.51,1,2.7,2.31,2.67,3.79a3,3,0,0,1-.71,2.16,1.32,1.32,0,0,0-.25,1.12,1.46,1.46,0,0,1-.07,1c.1-.29-.25-.48-.38-.64s-.1-.52.06-.81a5.83,5.83,0,0,0,.77-3,3.61,3.61,0,0,0-1.64-3c-.38-.26-1.86-.93-2.25-1.28"/><path class="cls-1" d="M114.65,30.26c-.06.09-.09.16-.16.26-.48.54-1.22.19-1.83.06a1.5,1.5,0,0,0-1,.1c.41-.29.38-.42.9-.52s.9.07,1.22-.16.38-.8.74-1.09a3,3,0,0,1,1.15-.42c1.26-.29.87-1.19,1.32-2a2.39,2.39,0,0,1,.8-.78c-.38.26-.38,1.23-.45,1.61a1.78,1.78,0,0,1-.8,1.32,3.41,3.41,0,0,0-1.9,1.64"/><path class="cls-1" d="M120.09,3.13a16.13,16.13,0,0,1-2.93,1.67,51.09,51.09,0,0,0-6.36,2.6A7.23,7.23,0,0,0,107,12.55c-.09.9.68,2.22.39,2.89-.36.87-2.06.87-2.61,1-1.6.45-2.82,1.48-2.57,2.66a4.42,4.42,0,0,1,.13,2.29c-.22,1-1.38,1-2.09,1.51-1.09.74-1.06,1.35-1.19,2.57s-.93,1.19-1.6,1.93-.45,1.28-.65,2.18a1.34,1.34,0,0,1-.83,1.1s0,.06,0,.06C97,30.87,97,29.52,97.2,29a2.23,2.23,0,0,1,1.45-1.83c.45-.19,1.15-.25,1.35-.77.45-1.06-.32-1.93.58-2.83.67-.67,1.89-.54,2.57-1.28.83-.9.13-2.09.09-2.54a2.8,2.8,0,0,1,1-2.61,5.49,5.49,0,0,1,2.12-.35,2.61,2.61,0,0,0,1.13-.19,1.33,1.33,0,0,0,.42-.39c.58-.67.19-1.41.13-2.38a6.65,6.65,0,0,1,4.17-6.59C114,6.5,115.78,5.83,117.48,5c1.13-.55,2.12-1.32,3.25-1.9.9-.45,2.35-1.16,3.28-.48-.07-2-3.44.13-3.92.48"/><path class="cls-1" d="M108.23,23.6a1.48,1.48,0,0,0,.8-.25,3.21,3.21,0,0,0,1.41-2.28c.42-2.42,3.48-4.79,6.14-5.92a12.72,12.72,0,0,0,4.89-5c-3.09,1.32-7,3.05-9.42,6.37l-.38.25c.45-.29.93-1.64,1.35-2.12a13.77,13.77,0,0,1,2.7-2.22,29.41,29.41,0,0,1,3.6-2c.9-.42,2.31-.48,2.63-1.64,1.26,2-3.25,6.27-4.85,7-3.25,1.42-5.5,2.45-6.4,5.53A4,4,0,0,1,109,23.83a1.93,1.93,0,0,1-1.16.06c-.55-.22-1.54-.64-1.74-.41a.78.78,0,0,1,.93-.26,5.17,5.17,0,0,0,1.23.38"/><path class="cls-1" d="M105.56,19.81a3,3,0,0,1,.06-.51A1.67,1.67,0,0,1,107.2,18c.77-.06,1.44.52,2.12.45a1.72,1.72,0,0,0,1-.54,3.79,3.79,0,0,0,1-2c.42-2.41,3.34-5.08,6.07-6,3.22-1.06,5-3.7,4.89-4.92-3.09,1.32-7,3.05-9.42,6.36l-.39.26c.45-.29.94-1.64,1.35-2.12a15.36,15.36,0,0,1,2.7-2.25,33.75,33.75,0,0,1,3.6-2c.91-.41,2.35-.48,2.64-1.64,1.25,2-1.19,5.44-4.85,7-3.25,1.38-5.5,2.44-6.4,5.53-.32,1.06-.87,2.38-2.06,2.7-.86.22-1.51-.65-2.38-.26a1.84,1.84,0,0,0-.93,1.61c-.19,1.32-1.44,1-1.93,1.86-.06-.67.65-.74,1-1.12s.36-.71.39-1.13"/><path class="cls-1" d="M107,24.25a1,1,0,0,0-.32,0c0,.19.42.28.58.38s.52.52.81.71a3.82,3.82,0,0,0,1,.45,3,3,0,0,0,2.28-.26,2.2,2.2,0,0,0,.39-.26c5.33-4.17,5.3-8.58,8.45-12.08-.48.22-1,.45-1,.45-1.12,1-2.89,7.78-7.49,11a3.35,3.35,0,0,1-2.18.61,4.51,4.51,0,0,1-.93-.19,5.69,5.69,0,0,1-.78-.49l-.35-.19a1.33,1.33,0,0,1-.39-.06"/><path class="cls-1" d="M101.51,30.32c.42-1.32,1.8-.61,2.79-.61,1.48,0,1.68-1.16,2.06-2.25.45-1.25,3.06-.58,4.24-.54,1.68.06,2.13.25,3.51-.84,1.54-1.22.71-4,1.64-5.46-.48.73-1.16.86-1.38,1.89-.17.74-.33,2.44-.84,3.09-1.06,1.32-1.61,1.06-3.18,1-1,0-3.44-.77-4.12.07s-.51,2.31-2,2.54c-1,.16-2.38-1-3,1.15,0,.1.19.1.26,0"/><path class="cls-1" d="M106,30.29a2.76,2.76,0,0,1-1.61-.13c-.26-.09-.52-.22-.74-.32s-.48-.16-.74-.29c.06-.1.35,0,.45,0a2.14,2.14,0,0,0,.48.13,3.69,3.69,0,0,0,1.58.23c1.51-.36,1-2.22,2.28-2.74.93-.38,2.12.07,3,.36,6.11,2,8.62-3.6,6.24-6.78a3.07,3.07,0,0,1-.23-2.19l.93-1.54c-.83,2-.45,3.31-.19,3.73a5.09,5.09,0,0,1-6.72,7.2c-.9-.45-2.31-.9-3.18-.07s-.13,2-1.57,2.38"/><path class="cls-1" d="M108.19,36.94c.29.74,1.19.13,1.71.23.32.06.51.35.8.39s.74-.45,1.16-.49c.71-.06,1.12.61,1.77.74.8.13,1.09-.74,1.51-1.22,1.06-1.25,2-.32,3.15-1,.83-.51.77-1.86,1-2.73a2.44,2.44,0,0,1,1.84-1.9,21.46,21.46,0,0,1,2.79-.13,3.2,3.2,0,0,0,1.45-.38c.71-.45.8-1.32.87-2.25a2.87,2.87,0,0,1-.23,2.09c-.51.9-1.73,1.09-2.73,1.19-1.45.16-2.64-.23-3.5,1.25-.52.84-.1,2.09-.74,2.86s-1.8.39-2.7.87a2.83,2.83,0,0,0-1.1,1.29,1.3,1.3,0,0,1-1.86.61,3.26,3.26,0,0,0-1.61-.68c-.48,0-1,.39-1.44.26-.2-.07-.39-.23-.58-.29-.39-.1-.71.13-1.1,0s-.35-.32-.45-.65"/><path class="cls-1" d="M125,3.32c-.07.07-.13.16-.2.23-.22-.2-.06-.52.07-.68.77-1,2.09-.48,3.11-.38s.58-.65.9-1a.65.65,0,0,1,1,.16c.26.38-.26,1.28.07,1.32.06.35-.36.41-.55.19s.16-.42.22-.68,0-.7-.29-.7-.32.45-.48.67a1.27,1.27,0,0,1-.93.39c-.51,0-1-.29-1.48-.29a1.7,1.7,0,0,0-1.44.8"/><path class="cls-1" d="M124.68,2.1a2,2,0,0,1,.87-1,2.12,2.12,0,0,1,2,.07c.23.13,1.13.86,1,1.22-.55.09-.55-.58-.9-.81a1.74,1.74,0,0,0-1.61.13,2.84,2.84,0,0,0-.74.65,5.58,5.58,0,0,0-.42.86h-.09a1.09,1.09,0,0,1,0-1.09"/><path class="cls-1" d="M118.42,2.81a2.54,2.54,0,0,0,1.51-1.26,2.6,2.6,0,0,1,.9-.77.74.74,0,0,1,.74-.09c.19.09.32.35.51.38.61.1,1-.74,1.67-.45s.55,1.06.77,1.58c.07.19.23.35.32.54a2.44,2.44,0,0,0-.32-2.18A1.25,1.25,0,0,0,122.79.2c-.68.39-1.45-.12-2.09.23a5.92,5.92,0,0,0-1.13,1.22,1.28,1.28,0,0,1-1.51.52,1.2,1.2,0,0,0-1.41,1.06c-.1.51-.1,1.41-.68,1.67.61.29.84-.39,1-.84a1.75,1.75,0,0,1,1.45-1.25"/><path class="cls-1" d="M100.9,27.75c1.09,0,1.15-1.22,2.38-1.45s.51-2.15,3.27-2.12a2.5,2.5,0,0,1,.68.16,1,1,0,0,1,.48.29,1.11,1.11,0,0,1,.19.23c.07.09,0,.13,0,.26a2.66,2.66,0,0,0-2.32-.29,2.12,2.12,0,0,0-1.15,1.41c-.33,1.16-.87.74-1.48,1-.77.35-1.19,1.06-2.09.51"/><path class="cls-1" d="M92.25,32.8a8.43,8.43,0,0,1-.87,0c-4.79-.29-6.3-1.84-9.93-.13a1,1,0,0,0-.29.16c-3.53,1.89-2.31,5.08-4.63,7-2.09,1.77-5.91,2.76-7.71,4.18a5.43,5.43,0,0,0-1.7,2.82,7,7,0,0,0,1,5.18c.87,1.41-.58,2.25-.26,3.66.29-1.06,1-1.64,1.23-2.6a3.14,3.14,0,0,0-.61-2.28,6.52,6.52,0,0,1-.68-3.67c.23-1.31,1.74-2.18,3-2.7,3.51-1.38,7-3.6,7.88-7.07C80,32,85.24,32.15,88.81,32.8a12.51,12.51,0,0,0-6.52,1.77c-2.09,1.35-2.8,4.43-3.6,5.33-4.18,4.6-9.42,4.92-9.13,13.47a17.12,17.12,0,0,1-.84,2.41,5.08,5.08,0,0,0-.38,1.83,1.78,1.78,0,0,0,.8,1.45,2.9,2.9,0,0,1-.45-1.29,3.59,3.59,0,0,1,.39-1.41c.25-.68.51-1.35.74-2.06a21,21,0,0,0,.61-3.44c.45-5.08,3.85-6.39,8.35-9.19A4.49,4.49,0,0,0,80.68,39a9.58,9.58,0,0,0,.39-1.6,3,3,0,0,1,.67-1.84c.1-.12.9-.7,1-.8a11.62,11.62,0,0,1,4.56-1.48,13.7,13.7,0,0,1,3.6-.09c.1,0,.2,0,.29.06a18.6,18.6,0,0,0-5.78,1.22c-.29.13-.68.26-1,.42s-.51.29-.77.45a4.11,4.11,0,0,0-2,3.18c-.22,1.54-.58,3-2.09,3.7C69.53,47,72.19,50.8,70.78,54c-.8,1.83-1.48,3.34-1,5.27.32,1.19,2.6,4.15,7.77,4.79-2.44-1.19-8.19-2.35-7.29-7.23.32-1.67,1.7-4.37,1.89-6.46a4.69,4.69,0,0,1,1-2c1.83-2.38,5.4-3,7.43-5.17a7.22,7.22,0,0,0,2.21-4.18,4.79,4.79,0,0,1,2-3.6,10.54,10.54,0,0,1,3-1.1c.9-.19,1.87-.28,2.89-.41L90,34a9.19,9.19,0,0,0-1.09.32,21.34,21.34,0,0,0-2.12.87c-1.45.64-2.7,1.64-2.89,2.73-1,6.2-6.08,7.49-9.61,11.51a5,5,0,0,0-.9,1.57,6.85,6.85,0,0,1-.74,1.83C70.39,56.55,70.75,63,77.5,62.24c-3-.42-6-2.6-5.76-5.4.39-1.86,1.64-3.6,2.32-5.08s.9-2.28,2-3c4.27-2.92,8-5.27,8.07-9.45a4.37,4.37,0,0,1,2.44-3.53,18.63,18.63,0,0,1,3.66-1.39,35,35,0,0,0-4.14,2.51,6.84,6.84,0,0,0-1.8,4.21c-.26,4.66-3.12,6.17-7.46,8.9a9.17,9.17,0,0,0-3.66,6.4,3.74,3.74,0,0,0,1.15,3.41,4.67,4.67,0,0,0,2,.9,3.24,3.24,0,0,1,2.38,1.44,4.11,4.11,0,0,0,2.38,1.52c-1.07-1-1-2.32-2-3.25-.8-.77-2.15-.61-3.08-1.16a3.09,3.09,0,0,1-1.45-2.44,7.31,7.31,0,0,1,3.06-6.43,4.17,4.17,0,0,1,.93-.42,12,12,0,0,0,4.59-3,7.65,7.65,0,0,0,1.74-3.11,7.81,7.81,0,0,0,.29-2.09,10.25,10.25,0,0,1,.29-2.45,6.29,6.29,0,0,1,2.83-3.44,9.51,9.51,0,0,1,2-.93c.32-.09,1.55-.51,1.55-.51s1.15-1.32,1.25-1.51-.68-.16-.87-.13"/><path class="cls-1" d="M121.34,56.62s.16-1.26.13-1.26a55.31,55.31,0,0,1-10.64-2c-.1,0-.13-2.86-2.35-4.37-.29-.19.2.8.36,1.9a22.79,22.79,0,0,1,.09,3.4c0,3.86-1.83,11-1.8,11.22a4.43,4.43,0,0,0,2.35,3.63c3,2.06,8.68,7.75,8.77,8.23-6.2-4.75-10.67-7.45-13.66-8.23-.9-.22-1.86-11.21-6.91-15.07-2.5-1.9-5.27-3.54-6.36-5.69-3.15-6.17-1.22-13.73,6.88-16.91,6.39-2.51,15.65.36,18.9,1.48.09,0,.09-.67-.07-.74-2.57-1.09-12.53-4.24-20.25-1.48-8.68,3.12-11,11.51-6.46,19,3,4.89,10,5.53,10.83,14.27.2,1.87.33,3.12.36,4a2.19,2.19,0,0,0,2.06,2.22c2.57.41,15.58,7.2,16.52,11a1.79,1.79,0,0,1-.2,1.06l4.54,0A12.12,12.12,0,0,0,123,79.79c-1.06-1.67-8.74-7.36-9.45-8-4.56-4.31-5-7.56-4.92-8.1,0-.26,1.26-8.3,1.38-9.07v-.06c.13,0-.12-2.12,0-2.06s.58,2.28.68,2.31a53.24,53.24,0,0,0,10.67,1.84"/><path class="cls-1" d="M123.24,56.78l.83-1.26s4.47.13,6.59-.58c0,0,4.41,5.05,6.11,6.56,1.16,1,4.34,4,4.85,4.37a2.53,2.53,0,0,1,1.19,1.67c.07.62-.38,1.1-.67,1.61s-1.58,3.28-1.93,4c.42,0,4.66-5.3,3.92-6.59-1-1.77-2-3.53-3-5.27-.71-1.16-1.45-2.28-2.25-3.34-.2-.26.83-.9,1.54-1.93s1.22-2.48,1.29-2.35a5.47,5.47,0,0,1,.12,2.9c-.19.45-1,1.41-1,1.51,1.41,2.31,3,5.78,3.5,6.78.39.71,1.16,1.41,1.22,2.38.07,1.28-3.11,5-3.95,5.82-1.16,1.22-1.86,2.63-2.92,3.66-.55.51-4.15,2.57-4.15,2.57.1-.35-.16-3.92-.06-4.43,0-.07,3.47-.45,3.72-.68,1.1-1,1.84-2.83,2.54-4.11a6.73,6.73,0,0,0,1.1-2.25c.09-.9-.9-1.55-1.55-2-1.7-1.07-5-4.18-5.94-4.95a26.17,26.17,0,0,1-4.09-4.25,64.72,64.72,0,0,1-7,.07"/><path class="cls-1" d="M86.47,57.74c.09,0-.07,0,0,0"/><path class="cls-1" d="M89.71,59.48c-1.28-.1-1.67,1.41-1.8,1.64s-.19,3.31-.38,5.62a17.93,17.93,0,0,1-.74,3.38,27.1,27.1,0,0,0-.9-9.78,2,2,0,0,1,.74-2.25c.8.07,4.3-2.79,6.46-5.43,0,0,3,1,4,2.12s2.44,2.8,2.44,2.8c-2.66,2.64-4.88,2.25-9.77,1.9M99.8,58.09C98.36,56.49,92,51.44,92,51.44a12.38,12.38,0,0,1-.8,1.58c-1.93,2.57-4.63,4.17-4.92,4.11a2.54,2.54,0,0,0-1.51.9,2.24,2.24,0,0,0-.19,2.15,25,25,0,0,1,1.19,7.88c-.07,1.8.13,3.37-.55,5-.8,2-4.47,1.92-4.76,2l1.93,4.08A10.7,10.7,0,0,0,84.83,77c.74-1.64.77-1.64,1.25-2.89.29-.8,1.77-4.4,2-5.59a25.85,25.85,0,0,0,.49-4.09,12.82,12.82,0,0,1,.25-1.89,1.7,1.7,0,0,1,.78-.74,11.52,11.52,0,0,1,2.63-.29c.32,0,4.57.35,6.85-1.64,0,0,1.22-1.16.7-1.74"/><path class="cls-1" d="M121.08,22.51l-.16.58v-1.8a2,2,0,0,1,.16,1.22m5.76-4.5a7.5,7.5,0,0,0-1.48,1.13,3.77,3.77,0,0,0-.35,1.09c-.17.93-.13,1.25-.65,1.74a30.88,30.88,0,0,1-3.15,2c.1-.26.19-.55.26-.77l.16-.61a2.51,2.51,0,0,0-.35-2,2.74,2.74,0,0,1-.23-.81c0-.29.07-.58.1-.83,0-.49-.23-1-.23-1.42,0,.29-.29.61-.29,1,0,.7-.64,4.82,0,6.52.13.35,3.12-2.09,3.89-2.73,1-.8.77-1.61,1.13-2.7A6.18,6.18,0,0,1,127,18.2a12.46,12.46,0,0,1,1.38-.61,4.19,4.19,0,0,0-1.54.42"/><path class="cls-1" d="M126.61,5.22c-.32.13-.9.61-.93.8a1.75,1.75,0,0,0,.16.84,4.8,4.8,0,0,0,.42.67c.06-.16-.16-.48-.19-.58-.07-.25-.1-.25-.1-.41,0-.58.61-.36.55-1.06"/><path class="cls-1" d="M126.68,20.52c-.29.67-.13,1.12-.61,1.73-1.26,1.64-6,5.73-6.21,5.47-1.12-1.16-1.54-4.76-1.54-7.33a18,18,0,0,1,.51-5,3,3,0,0,1,2-2.22,1.63,1.63,0,0,1,.71-.06c.77,0,2.51.54,2.83,1.41A3,3,0,0,0,123,13.09,17.51,17.51,0,0,0,122.63,9s0,.1-.32.07-.42-.48-.42-.48a34.83,34.83,0,0,1,.74,4.27,3.09,3.09,0,0,0-2-.19,3.54,3.54,0,0,0-2.34,2.57,21.53,21.53,0,0,0-.58,5.82c0,2.31.38,6.27,1.77,7.65.67.67,6.49-5.53,7-6.69a19.78,19.78,0,0,1,.77-2c.39-.71.68-1.83,1.06-2.51a16.06,16.06,0,0,0-1.6,2.93"/><path class="cls-1" d="M128.06,31.48c-.64,2.22-.55,1.86-1.9,2.7-1.57,1-1.48,1.64-1.25,3s-.52,1.54-1.61,1.35c-1.28-.26-1.7,1.38-2.86,1.26a2.5,2.5,0,0,0-1.51.48c-.29.16-.87.58-1.16.19.71.1.87-.55,1.32-.87s1.19-.22,1.77-.51c.42-.23.58-.74,1-.93s1.09.22,1.6,0c.78-.26.62-1.42.45-2-.41-1.54,1.52-2.15,2-2.57a4.16,4.16,0,0,0,1.38-2c.55-1.87,0-3,0-4.28a2.5,2.5,0,0,1,.36-1.41c.32-.52,1-.81,1.41-1.22a6.77,6.77,0,0,1,1.42-1c-.52.61-1.51,1.25-2,1.73a2.57,2.57,0,0,0-.8,2.19c.22,1.25.64,2.7.29,3.89"/><path class="cls-1" d="M136.16,14.73c-.55-.45-1.19-.58-.87-1.54a2.71,2.71,0,0,0,.32-1.54,1.6,1.6,0,0,0-.67-1,2.66,2.66,0,0,0-1.32-.35l-1.51-.1a3.4,3.4,0,0,1-.77-.16,1,1,0,0,1-.55-.45c-.22-.45.39-.61.68-.81a1.56,1.56,0,0,0,.51-.61,1.23,1.23,0,0,0-.51-1.73.33.33,0,0,1-.1-.58,1.29,1.29,0,0,0-1.09-2.12c-.77,0-1,.51-1.84.42-.48-.07-.77-.23-1-.9a.88.88,0,0,0-1.35-.58,1.41,1.41,0,0,0-.55.74c0,.09-.22.35,0,.38s.16-.22.23-.32a.6.6,0,0,1,.22-.16c.32-.16.74-.1.81.29a6.31,6.31,0,0,0,1,2.64c.19.32.48.77.19,1.06s-.57.22-.61.64a.62.62,0,0,0,.68.71c.51-.07.48-.87-.07-.78a.22.22,0,0,1,.13.39c-.29.19-.54-.16-.35-.42a4.28,4.28,0,0,1,.58-.45c.61-.48.22-1.09-.16-1.6a4.18,4.18,0,0,1-1-2.06c.68,1.38,2.25.42,3.15.26s1.22,1,.45,1.54-.35.93.48,1.19a.61.61,0,0,1,.36.22.79.79,0,0,1,0,.87,1.83,1.83,0,0,1-.39.45,3.21,3.21,0,0,0-.48.42,2.33,2.33,0,0,0-.23.35.53.53,0,0,0,0,.39.64.64,0,0,0,.25.35,3.43,3.43,0,0,0,.74.42,10.22,10.22,0,0,0,1.35.42,3.4,3.4,0,0,1,1.19.38,1.54,1.54,0,0,1,.9,1.93c-.09.64-.71.93-.29,1.54.26.42,1.13.49,1.38,1,.45,1-.25,1.26-.83,1.67-.42.29-.77.49-.87,1-.16.71.55,1.22.1,2a2.32,2.32,0,0,1-1.32.84c-.64.22-.71.58-1.25,1s-1.19,1.12-1.74,1.6c-.9.81-2.83.84-3.41,2-.7,1.41.29,3.28,0,4.69-.29,1.58-2.18,1.74-3.44,1.83-1.57.13-2.63.77-2.15,2.41.35,1.16.64,1.23.48,2-.22,1-1.41,1-2.15,1.32-1,.39-1.45,1.38-3.18,1.42a5.87,5.87,0,0,0-2,.09c-.78.29-1.45.81-2.29.16-.25-.19-.25-.64-.61-.77s-.93.29-1.22-.25c-.1,1,.77.45,1.22.64s.65.77,1.13,1c.7.33,1.48,0,2.18-.19a4.7,4.7,0,0,1,1.87,0c1.15.1,1.6-.61,2.44-1.19s2.38-.51,3.09-1.31,0-2.12-.13-2.54c-.42-1.45.09-2.41,2.86-2.64a3.16,3.16,0,0,0,2-.87c1.1-1.31-.06-3.28,0-4.66s1.42-1.44,2.32-2.09a12.35,12.35,0,0,0,2.06-2.09l.22-.22a12.89,12.89,0,0,1,2.31-1.42A2,2,0,0,0,135,19.49c.07-.67-.19-1.32.45-1.8s1.29-.71,1.48-1.45-.19-1.06-.77-1.51"/><path class="cls-1" d="M127.19,4.42a1.74,1.74,0,0,0,2.64.8c1.41-1,1.54-.29,1.15.1l.36-.07c.16-.74-.2-1.09-1.38-.51-.84.41-2.06.16-2.83-1.35Z"/><path class="cls-1" d="M127.29,8a2.64,2.64,0,0,0,.29,3.31c.54.52,1.6.68,1.83,1.45.32,1.09-.52,2.15-.87,3.15a4,4,0,0,0-.19,1.25c-.07.64.26,1,.38,1.58a2.55,2.55,0,0,1,0,.74c0,.57.36,1,.32,1.64-.06,1.28-1.06,2.05-1.38,3.21a3.39,3.39,0,0,1,1-1.22,2.1,2.1,0,0,0,.77-1.71c0-.61-.52-1.25-.42-1.86A3.85,3.85,0,0,0,129,18a4.4,4.4,0,0,1,.23-2.73c.42-1,1.22-2.86-.1-3.54a3.3,3.3,0,0,1,.52.13,6.55,6.55,0,0,1,1.09.77c.55.52.51,1.13.26,2s-1,1.22-1.23,2a2.12,2.12,0,0,0,0,1.09,4,4,0,0,1,.32,1,1.66,1.66,0,0,0,.06,1c.13.22.32.42.45.67a6.59,6.59,0,0,1,.26,1.77c-.06-.32.16-.67.22-1a2,2,0,0,0-.06-.64,2.54,2.54,0,0,0-.48-.94c-.26-.41,0-.7,0-1.12s-.29-1-.26-1.58.55-.93.87-1.44a2.89,2.89,0,0,0,.1-2.8c-.71-1.16-2.54-1.29-3.47-2.09a2.07,2.07,0,0,1-.39-2.57l.06-.29Z"/></svg>