<svg id="client_logos" data-name="client logos" xmlns="http://www.w3.org/2000/svg" viewBox="0 0 269.05 181.69"><defs><style>.cls-1{fill:#425cc7;}.cls-2{fill:#231f20;}</style></defs><path class="cls-1" d="M215.25,30.18c-5.31-.62-6.25,5-11.51,4-8.49-1.47-9.54-5.19-16.9-3.58S174.16,34,170.3,37.9s-7.54,12.15-7.89,15.69S167.53,56.12,171,59s5.67,11,9.52,9.42,7.77-9.46,12-14.61,2.57-9.38,7.83-12.28S210.53,32,215.08,31.37s6.35,2.15,13.71,2.15,12.33,6.45,15.83,9.67,5.9,11.43,9.4,12.39,7.85-1.47,9.25-3.08,2.8-8,1.75-10-1.69-6-5.19-8-8.45-7.84-15.81-8.81-14.35,4.95-18.56,6.88S220.44,30.79,215.25,30.18Z"/><path class="cls-1" d="M212.66,33.81c-1,2.58-3.18,8.39-6.4,11.61s-6.77,7.61-6.12,11.47,4.22,6.33,5.19,8.91,2,5.59,6.8,5.59,6.34,2,10.85-1.54,6.2-6.57,6.85-10.76,3.07-8.44,1.78-11.66S224,40.62,223.69,39s2.61-4.26,1-5.31C220,30.54,217.82,32.52,212.66,33.81Z"/><path class="cls-1" d="M221.16,37.15c0-2.57,5.67-8.38,8.57-10.31s2.36-4.93,5.57-5.89,7.24.74,7.24-.87.88-5.82-.73-6.46-4.63.93-6.56,2.86-7,1.39-9.55,4.6-4.88,4.67-7.14,7.24-1.29,1.59-3.22.3-8.16-3.45-10.41-4.09-4.14-6.68-5.75-7.32-3.79-.34-5.07-.34-1.57.31-1.57,1.92,2.4,2.19,6.26,3.8,8.47,3,11.69,5.57,5.17,4.45,6.78,8.31S219.42,40.05,221.16,37.15Z"/><path class="cls-1" d="M218.56,33.78c-.64-3.21-.21-10.22,1.4-12.48s3.27-3.69,2-7.23,1.41-7.4-3.48-9.55c-3.76-1.65-4.4,3.65-4.08,8.16s-.37,5.67,0,12.81c.16,3.68-.61-2.47-2-6.74-2.73-8.65,2.39-9.46-1.66-17-3-5.66-3.49,3.76-3.49,10.84s7,18.29,10.59,20.55S219.24,35.52,218.56,33.78Z"/><path class="cls-1" d="M220.76,76.51c-.37-2.22-5.65-3.2-6.11-1l-.09.42c-1.22.25-.91,2.13-1.07,3-2.21,11.87.57,10.83.57,22.9s-.32,10-.32,22.12-.55,14.64-.55,26.71,1,12.07,1,24.14c0,2.87.06,5.06.16,6.89a40.33,40.33,0,0,0,.54-6.89,91.61,91.61,0,0,1,.66-11.81,89.83,89.83,0,0,1,.26,10.09,40.3,40.3,0,0,0,.39,6.9c.13-1.82.24-4,.3-6.88.26-12.07,1.25-12,1.51-24.11s.4-14.64.65-26.71.24-10,.49-22.12S222.72,88.42,220.76,76.51Z"/><path class="cls-2" d="M114.23,110.38H99l-2.68,6.23a9.92,9.92,0,0,0-1,3.43,2,2,0,0,0,.86,1.59,7.38,7.38,0,0,0,3.71.89v1.08H87.42v-1.08a6.6,6.6,0,0,0,3.2-1.14q1.48-1.39,3.29-5.67L107.8,83.22h1l13.74,32.83c1.1,2.65,2.11,4.36,3,5.15a6.19,6.19,0,0,0,3.77,1.32v1.08H113.76v-1.08a5.91,5.91,0,0,0,3.19-.78,2,2,0,0,0,.83-1.64,12.27,12.27,0,0,0-1.16-4Zm-.82-2.16-6.69-16-6.87,16Z"/><path class="cls-2" d="M165.34,123.6v-1.08h1.5a3.93,3.93,0,0,0,3.55-1.6c.42-.64.63-2.08.63-4.31V91.11c0-2.47-.27-4-.82-4.63a4.21,4.21,0,0,0-3.36-1.28h-1.5V84.12h16.08q8.85,0,13.46,2a16,16,0,0,1,7.42,6.7,20.56,20.56,0,0,1,2.81,10.82,19.76,19.76,0,0,1-5,13.78q-5.62,6.16-17.12,6.17Zm11.27-2.85a30,30,0,0,0,6.2.81A14.7,14.7,0,0,0,194,116.81q4.46-4.74,4.46-12.86T194,91.05a15.05,15.05,0,0,0-11.44-4.72,24.38,24.38,0,0,0-6,.85Z"/><path class="cls-2" d="M226.05,84.12h10.72l24.13,29.61V91c0-2.43-.27-4-.81-4.55a4.35,4.35,0,0,0-3.41-1.22h-1.37V84.12h13.74V85.2h-1.4a4,4,0,0,0-3.55,1.51c-.42.62-.64,2-.64,4.26v33.27h-1l-26-31.79v24.3c0,2.43.26,4,.78,4.55a4.39,4.39,0,0,0,3.41,1.22H242v1.08H228.24v-1.08h1.37a4.05,4.05,0,0,0,3.58-1.51q.63-.93.63-4.26V89.3a17.29,17.29,0,0,0-2.6-2.64,8.3,8.3,0,0,0-5.17-1.46Z"/><path class="cls-2" d="M160.93,88.9a11.9,11.9,0,0,0-5.64-3.76,37.36,37.36,0,0,0-8.6-1c-.66,0-1.36,0-2.09,0H130.22V85.2h1.48a4.26,4.26,0,0,1,3.38,1.28c.54.6.82,2.15.82,4.63v25.5c0,2.25-.21,3.68-.61,4.28a4,4,0,0,1-3.59,1.63h-1.48v1.08h16.91v-1.08h-1.54a4.14,4.14,0,0,1-3.32-1.28c-.54-.6-.81-2.15-.81-4.63v-9.08c.34,0,.68,0,1,0l.91,0c.57,0,1.32,0,2.18-.06a49.33,49.33,0,0,0,7.32-1c3.45-.83,6-2.19,7.74-4.09a10.32,10.32,0,0,0,2.64-7A9.76,9.76,0,0,0,160.93,88.9Zm-7.36,14q-3.44,2.78-10.16,2.78l-.8,0-1.15,0v-19a29.27,29.27,0,0,1,4.8-.57h0a10.89,10.89,0,0,1,8,2.88A9,9,0,0,1,157,95.85,8.75,8.75,0,0,1,153.57,102.94Z"/><path class="cls-2" d="M14.88,119.85a45.21,45.21,0,0,1-5.17,3.68,8,8,0,0,1-3.35.73,6,6,0,0,1-4.57-1.9,7,7,0,0,1-1.79-5A6.28,6.28,0,0,1,.88,114,11.4,11.4,0,0,1,5,110.26,63.55,63.55,0,0,1,14.88,106v-1q0-4-1.28-5.49A4.57,4.57,0,0,0,9.91,98,4.1,4.1,0,0,0,7,99a3,3,0,0,0-1.11,2.27L6,102.93A2.88,2.88,0,0,1,5.26,105a2.32,2.32,0,0,1-1.79.73A2.26,2.26,0,0,1,1.71,105,3,3,0,0,1,1,102.91a6,6,0,0,1,2.57-4.62q2.56-2.08,7.2-2.09a12.51,12.51,0,0,1,5.84,1.19,5.54,5.54,0,0,1,2.53,2.83,15.91,15.91,0,0,1,.53,5.13v9.07a44.36,44.36,0,0,0,.14,4.69,2,2,0,0,0,.49,1.15,1.15,1.15,0,0,0,.77.29,1.62,1.62,0,0,0,.81-.2,19.43,19.43,0,0,0,2.37-2.13v1.63Q21,124.23,18,124.23a2.86,2.86,0,0,1-2.28-1A5.3,5.3,0,0,1,14.88,119.85Zm0-1.9V107.77a55.7,55.7,0,0,0-5.69,2.49,9.65,9.65,0,0,0-3.3,2.68,5.17,5.17,0,0,0-1,3.06,5,5,0,0,0,1.25,3.49A3.82,3.82,0,0,0,9,120.87C10.52,120.87,12.46,119.9,14.88,118Z"/><path class="cls-2" d="M52.39,97v16.19a42.27,42.27,0,0,0,.21,5.67,2.59,2.59,0,0,0,.7,1.45,1.7,1.7,0,0,0,1.13.4,5.19,5.19,0,0,0,2-.49l.41,1-8,3.3H47.57v-5.66a24,24,0,0,1-5.25,4.69,8,8,0,0,1-3.82,1,6.12,6.12,0,0,1-3.89-1.3,6.68,6.68,0,0,1-2.29-3.34,20.14,20.14,0,0,1-.64-5.78V102.17a5.9,5.9,0,0,0-.41-2.62,2.66,2.66,0,0,0-1.22-1.12,7.06,7.06,0,0,0-2.9-.37V97h9.37v17.88q0,3.73,1.3,4.9A4.5,4.5,0,0,0,41,120.93a6.41,6.41,0,0,0,2.84-.79,15.46,15.46,0,0,0,3.78-3V102a4.32,4.32,0,0,0-.83-3.08c-.55-.53-1.71-.82-3.45-.86V97Z"/><path class="cls-2" d="M66,70.65v1.24h2.23a10.84,10.84,0,0,1,4.13.79,3.65,3.65,0,0,1,1.9,1.44,11.12,11.12,0,0,1,.6,4.55V99.3h8.71V78.67c0-2.72.37-4.43,1.09-5.15q1.72-1.63,5.5-1.63h2.22V70.65Z"/><path class="cls-2" d="M80.78,92.17l-4.49,2.25L74.9,99.3s1.36,34.08,0,38.91C73,144.75,60,146.33,60,146.33v1.35s14.06.63,18.56-6.11,5.66-23.91,5.07-42.27S80.78,92.17,80.78,92.17Z"/><path class="cls-2" d="M150.69,105.72a15,15,0,0,1,4.29,4.06c2.71,4.06,1.35,9.47,2.71,10.83a7.72,7.72,0,0,0,6.53,1.91v1.08s-7.89-.29-9.24-.29c-2.94,0-4.29-8.12-4.29-9.47,0-2.71-3.83-6.77-5.19-6.77S150.69,105.72,150.69,105.72Z"/></svg>