<svg id="client_logos" data-name="client logos" xmlns="http://www.w3.org/2000/svg" viewBox="0 0 562.78 97.71"><defs><style>.cls-1{fill:#94bd0b;}.cls-2{fill:#bd738e;}.cls-3{fill:#efcc0a;}.cls-4{fill:#f28b06;}.cls-5{fill:#8e4660;}.cls-6{fill:#998be4;}.cls-7{fill:#0abe9f;}.cls-8{fill:#d75556;}.cls-9{fill:#94bd10;}.cls-10{fill:#bd748e;}</style></defs><path class="cls-1" d="M443.19,97.71c-1.52-2.06-3.07-4.1-4.55-6.19a2,2,0,0,0-1.95-.8c-9.14,0-17.63-2.08-24.88-7.94A36,36,0,0,1,399.42,62.7c-3.28-13.59-3.2-27.17,2-40.31C405.92,11,415,5.16,426.87,3.18a51,51,0,0,1,14.69-.47c12.9,1.58,22.16,8.51,28.28,19.75,5,9.18,6.64,19.06,5.81,29.46-.64,8-2.47,15.68-6.88,22.52A34.51,34.51,0,0,1,448.68,89.1a2.19,2.19,0,0,0-1.75,1.61c-.81,2.36-1.78,4.67-2.69,7ZM430.25,42.88c7,0,14.06-.05,21.09,0,1.53,0,1.89-.46,1.74-1.86-.29-2.61-.37-5.24-.74-7.84-.75-5.28-2-10.42-4.85-15-2.51-4-6-6.67-10.81-7.24a25.07,25.07,0,0,0-6.3.26c-6.32.86-11.72,3.44-15.73,8.56-4.94,6.31-6.39,13.74-7,21.46-.11,1.29.19,1.69,1.56,1.68C416.2,42.84,423.22,42.88,430.25,42.88ZM450.15,68c-.58,0-1-.08-1.47-.08H413.74c-1.8,0-1.83,0-.88,1.65A27.52,27.52,0,0,0,430,82.79c4.69,1.24,9.16,1,13-2.51C446.56,76.93,448.6,72.66,450.15,68ZM430.44,51c-7.09,0-14.18,0-21.26,0-1.45,0-1.7.52-1.49,1.71.31,1.78.73,3.55.89,5.35.12,1.38.68,1.71,2,1.7,7.79-.06,15.58,0,23.37,0,5.56,0,11.12,0,16.69,0,1.29,0,1.73-.35,1.78-1.65a49.06,49.06,0,0,1,.59-5.39c.19-1.24-.05-1.73-1.49-1.71C444.49,51,437.46,51,430.44,51Z"/><path class="cls-2" d="M530.07,97.71c-1.57-2.17-3.15-4.34-4.71-6.52-.48-.67-1.14-.45-1.76-.45-7.89,0-15.34-1.62-22-6a34.59,34.59,0,0,1-14.38-19.52,66,66,0,0,1,.42-40.86c3.63-11,11.5-17.85,22.78-20.48,9.88-2.31,19.74-2.49,29.21,1.86,9,4.14,15,11.22,18.94,20.11a48.07,48.07,0,0,1,3.94,14.65,1.73,1.73,0,0,0,.31.58v12.3c-.73,1.74-.68,3.62-1,5.43-2.92,15.08-11,25.66-26.08,30.24a2.29,2.29,0,0,0-1.75,1.65,47.18,47.18,0,0,1-2.8,7ZM517.2,42.88c7.15,0,14.3,0,21.44,0,1.06,0,1.43-.11,1.4-1.41a61.75,61.75,0,0,0-2.24-15.55c-1.32-4.68-3.29-9.06-7.2-12.19-3.63-2.91-7.86-3.11-12.32-2.63-9.59,1-16.3,5.89-20.22,14.65-2.28,5.08-3,10.5-3.52,16-.11,1.24.61,1.14,1.4,1.14ZM537.13,68H499c4.18,7.8,10.2,13,18.69,15,4.71,1.13,9.07.5,12.68-3.09C533.69,76.56,535.66,72.51,537.13,68Zm-19.8-17c-7.09,0-14.17,0-21.26,0-1.16,0-1.59.3-1.39,1.48.35,1.95.65,3.91.93,5.87.15,1.05.65,1.41,1.76,1.41q20.19-.06,40.4,0c1,0,1.49-.23,1.59-1.29.17-2,.54-3.92.63-5.91,0-1.28-.39-1.56-1.58-1.55C531.38,51,524.35,51,517.33,51Z"/><path class="cls-3" d="M0,25c.54-1.56,1-3.17,1.63-4.66,2.54-5.49,7.14-8.2,12.93-8.55,8.22-.5,15.35,2,20.49,8.86a5.48,5.48,0,0,0,.55.51c0-1.85-.09-3.46,0-5.06.44-7,3.12-9.45,9.78-10.74a13.6,13.6,0,0,1,8.53,1.2,2.81,2.81,0,0,0,2.45,0,23.79,23.79,0,0,1,17.16,0c7,2.72,10.53,8.36,11.44,15.56.71,5.63,0,11.11-3.68,15.79a13.5,13.5,0,0,1-3,2.9c-.75.5-.76.87.11,1.3,6.92,3.38,9.49,9.44,10.27,16.62.8,7.35-.28,14.24-5,20.23-4.9,6.26-11.59,9.45-19.19,11-5.15,1.06-10.38.67-15.58.69-2.27,0-4.56.31-6.82-.29-2.66-.7-4.93-2.13-4.78-5.89a101.28,101.28,0,0,0-.38-13,58.75,58.75,0,0,1-5.78,9.16c-2.91,3.59-6.15,6.81-10.86,7.9-5.88,1.36-13-2.14-16-8C.5,73.37,1.66,66.24,5,59.32c3.08-6.4,7.86-10.82,15.23-12a69.48,69.48,0,0,1-8.95-3.7C5.92,40.76,1.63,37,.28,30.73c0-.07-.18-.1-.28-.15ZM28.81,50.28c-1.75.1-3.57.13-5.37.34-4.05.48-8.06,1.31-11,4.43C7.41,60.49,4.88,66.91,6,74.43c.76,5.16,3.93,8.51,8.76,10.2,4.31,1.52,7.74-.43,10.75-3.33,5.26-5.07,8.29-11.51,11.06-18.1a2.6,2.6,0,0,0,.14-1c0-3.27-.07-6.55-.1-9.82a1.3,1.3,0,0,0-1.25-1.52C33.18,50.42,31,50.62,28.81,50.28ZM54.16,73.73h0c0,2.22,0,4.45,0,6.67,0,1,.15,1.45,1.32,1.45a42.56,42.56,0,0,0,10.26-1.1c4.59-1.14,8.75-3.12,11.53-7.13,3.49-5,3.69-10.59,2.37-16.31s-4.91-9.59-10.88-10.77C64.37,45.68,60,46.2,55.57,46c-1.07-.05-.81.79-.82,1.37Q54.44,60.57,54.16,73.73ZM36.19,38a21.51,21.51,0,0,0-2-9.48c-3.78-8.72-10-12.49-19.31-12a9.88,9.88,0,0,0-7.86,4A11.77,11.77,0,0,0,9.15,36.6c6.52,5.26,14.42,6.9,22.43,8,3.14.44,4.72-1.26,4.61-4.38C36.17,39.5,36.19,38.73,36.19,38Zm24-.42c1.35,0,2.7.05,4,0,6.84-.31,12-2.94,12.64-11.18.31-4-.51-7.7-3.92-10.33-3.89-3-13.06-3.29-17.07-.62-.7.46-.67,1-.68,1.64-.11,5.56-.24,11.11-.32,16.66,0,3.84,0,3.84,3.91,3.84Z"/><path class="cls-4" d="M138.23,0c1.51.82,3.07,1.55,4,3.14,1.29,2.21,1.79,4.51.4,6.8a6.27,6.27,0,0,1-6.14,3.34c-3.66-.34-7.29-.93-10.93-1.46-2.49-.36-5-.76-7.43-1.22-1.13-.21-1.39.13-1.4,1.24-.09,9.12-.25,18.25-.37,27.38,0,2.68,0,2.68,2.7,2.68h11.6c2.58,0,3.67,1,3.68,3.35,0,2.51-1.07,3.61-3.6,3.61-4.4,0-8.79,0-13.19,0-1.08,0-1.49.2-1.51,1.41-.09,9.6-.25,19.2-.43,28.8,0,1.29.31,1.5,1.6,1.3q9.35-1.48,18.72-2.71a6.64,6.64,0,0,1,7.1,4,7,7,0,0,1-2.56,7.94,4.77,4.77,0,0,1-2.91,1.07c-10.78,0-21.55,0-32.33,0a8,8,0,0,1-3.69-1,4.6,4.6,0,0,1-2.73-4.3Q98.32,63.65,97.7,42c-.29-10.7-.47-21.4-1-32.09-.3-6.19,4.2-9.36,9.13-9.49,5.27-.13,10.54,0,15.81-.07.84,0,1.75.28,2.51-.34Z"/><path class="cls-5" d="M190.29,0c2.3.91,4.15,2.27,5,4.75a6.34,6.34,0,0,1-6.18,8.56c-3.78-.18-7.53-.9-11.28-1.43-2.54-.36-5.08-.78-7.6-1.24-1.1-.21-1.27.23-1.26,1.19,0,4,0,8-.13,11.94-.22,5.44-.25,10.88-.34,16.32,0,1.32.25,1.82,1.71,1.79,4.27-.11,8.55,0,12.83,0,2.46,0,3.58,1.12,3.55,3.49s-1.14,3.57-3.48,3.57c-4.39,0-8.79,0-13.18,0-1.11,0-1.49.24-1.51,1.43-.12,8.08-.32,16.15-.5,24.22,0,1.58,0,3.16-.09,4.74,0,1,.28,1.24,1.32,1.08,6.28-1,12.57-1.92,18.87-2.75a6.68,6.68,0,0,1,7.31,4.2,7.15,7.15,0,0,1-3,8.11,4.88,4.88,0,0,1-2.8.82c-10.66,0-21.33,0-32-.06a8.32,8.32,0,0,1-4.31-1.28,4.5,4.5,0,0,1-2.32-4q-.36-16.23-.78-32.46-.49-19.38-1.06-38.77c0-1.34-.2-2.68-.24-4C148.63,4.28,152,.54,157.89.37c5-.14,10.08,0,15.12-.07.6,0,1.29.3,1.8-.3Z"/><path class="cls-6" d="M377.51,41.54c5.19,2.27,8.65,5.84,10.07,11,2.87,10.26,2.42,20.1-5.27,28.39-4.38,4.72-10,7.32-16.28,8.78-5.84,1.37-11.75.91-17.65,1a21.9,21.9,0,0,1-5.93-.29c-3.68-1-4.78-2.85-4.84-5.82q-.32-15.44-.73-30.87c-.23-7.94-.45-15.89-.71-23.84-.15-4.56-.28-9.12-.22-13.68.08-7,3.47-9.8,9.95-10.87a13.87,13.87,0,0,1,8.5,1.34,2.38,2.38,0,0,0,2.13,0,23.8,23.8,0,0,1,17.3,0c6.67,2.58,10.07,7.85,11.31,14.71a24.09,24.09,0,0,1-.16,9.23A16.93,16.93,0,0,1,377.51,41.54Zm-22.6,30.59h-.42c0,2.75.05,5.5,0,8.25,0,1.19.4,1.48,1.52,1.49a41.39,41.39,0,0,0,8-.71c4.24-.78,8.31-2.14,11.47-5.24,5.15-5,5.9-11.26,4.51-18s-5.33-10.51-12.1-11.57c-3.66-.57-7.36-.08-11-.37-1.57-.12-2,.43-2,1.94C354.94,56,354.91,64.07,354.91,72.13ZM355.55,30h-.34c0,2.11,0,4.21,0,6.32,0,.89.26,1.28,1.2,1.24,3.39-.15,6.78.15,10.17-.25,6-.72,9.42-3.6,10.34-9.41.67-4.19.27-8.24-3.16-11.48-3.78-3.58-13.61-3.57-17.49-1.07a1.7,1.7,0,0,0-.7,1.67Z"/><path class="cls-7" d="M202,23.48c0-4.68,0-9.37,0-14,0-4.49,2-7.25,6.3-8.54a12.12,12.12,0,0,1,9.2.86,7.48,7.48,0,0,1,4.47,7.32q-.24,14.74-.4,29.5c0,2.51,0,2.51,2.46,1.6,9.78-3.63,16.37-10.55,20.53-19.94a30.25,30.25,0,0,0,2.65-12.07,9.77,9.77,0,0,1,.55-3.44,4.13,4.13,0,0,1,3.38-3A4,4,0,0,1,255,3.69,7.16,7.16,0,0,1,256.14,8c.33,14.81-6.18,25.8-18.68,33.47-2,1.25-4.09,2.5-6.09,3.82-.75.5-1.74,1-1.64,2.1s1.15,1.51,2.08,1.88C242.59,53.5,250,61.57,256.28,70.84A9.66,9.66,0,0,1,257.85,79c-.94,3.49-4.06,5-7.39,3.46-2.47-1.15-4.14-3.2-5.72-5.33-3.88-5.21-7.5-10.62-12.41-15-2.36-2.1-4.67-4.27-7.64-5.54-2.4-1-3.36-.41-3.41,2.17-.17,8.14-.45,16.28-.42,24.41,0,4.23-1.12,6.28-6.28,7.27a12.19,12.19,0,0,1-7.71-.81,4.55,4.55,0,0,1-2.86-4.4q-.49-22.31-1.13-44.59c-.15-5.73-.37-11.46-.56-17.19Z"/><path class="cls-8" d="M291.61,53.09c-4.22,0-8.44,0-12.66,0-1,0-1.39.21-1.45,1.33a253.87,253.87,0,0,0,.08,27,48.18,48.18,0,0,1,.34,5.24,4.55,4.55,0,0,1-4.17,4.26,3.76,3.76,0,0,1-3.94-3.64,269.27,269.27,0,0,1-1-34.9c.52-10.5,1.59-21,5.15-31,2.24-6.3,5.19-12.16,10.61-16.41,8.68-6.8,22.54-6.95,30.35,4.85,4,6,6.1,12.68,7.58,19.62,2,9.41,2.63,19,2.95,28.54.28,8.32-.23,16.61-.5,24.9a6.86,6.86,0,0,1-3.39,5.81c-4.19,2.69-10.34,2.57-13.85-.33a7.23,7.23,0,0,1-2.83-5.94c.11-9.13.9-18.24.83-27.38,0-1.6-.37-2.08-2-2C299.7,53.17,295.66,53.09,291.61,53.09Zm.25-7c4,0,8-.06,12,0,1.42,0,1.9-.3,1.88-1.81a137.13,137.13,0,0,0-1.88-22c-.69-4-1.63-7.9-4-11.32a5.39,5.39,0,0,0-6.07-2.45A9.8,9.8,0,0,0,289,11.12a22.89,22.89,0,0,0-5.19,8c-3.39,8.18-4.58,16.85-5.61,25.55-.12,1,.19,1.44,1.32,1.42C283.66,46.07,287.76,46.11,291.86,46.11Z"/><path class="cls-9" d="M426,37.58a3.93,3.93,0,0,1-3.41-2.3c-.16-.36-.38-.84.08-1.09s.79-.16,1.18.32c1.84,2.27,2.48,2.25,4.52-.08a.86.86,0,0,1,1.06-.29c.6.22.31.64.15,1A3.76,3.76,0,0,1,426,37.58Z"/><path class="cls-9" d="M415.5,32.17a3.44,3.44,0,0,1-2.83-2.79c0-.31,0-.59.34-.67s.69-.2.93.18c.12.2.19.42.31.62.93,1.56,1.75,1.59,2.57.06.29-.53.45-1.15,1.22-.87,1,.36.16,1,.06,1.4A2.67,2.67,0,0,1,415.5,32.17Z"/><path class="cls-9" d="M434.46,32.18c-.77,0-2.3-1.41-2.45-2.77,0-.3-.08-.6.29-.69s.7-.21.95.14a3.56,3.56,0,0,1,.39.78,1.42,1.42,0,0,0,1.28,1,1.26,1.26,0,0,0,1.22-1.07c.19-.77.57-1.23,1.32-.86s.12,1.05,0,1.49A2.92,2.92,0,0,1,434.46,32.18Z"/><path class="cls-10" d="M512.68,37.57a3.7,3.7,0,0,1-3-2.27c-.18-.38-.62-.84.1-1.14.5-.21.81,0,1.15.45,1.71,2.12,2.6,2.1,4.42-.12a1,1,0,0,1,1.22-.33c.63.24.2.7.08,1A3.83,3.83,0,0,1,512.68,37.57Z"/><path class="cls-10" d="M505.4,29.19c-.1,1.64-1.69,3.12-2.95,3a3.83,3.83,0,0,1-2.86-3c0-.35.12-.56.46-.61a.9.9,0,0,1,1.12.51c1.13,2.07,1.62,2.08,2.73.1.27-.48.52-.74,1.08-.6A.48.48,0,0,1,505.4,29.19Z"/><path class="cls-10" d="M521.88,32.2c-1.24,0-3-1.85-3-3.05,0-.28.1-.44.36-.5a1,1,0,0,1,1.07.35c1.63,2,1.67,2,3,.06a.8.8,0,0,1,1-.4c.58.17.41.6.31,1A3.14,3.14,0,0,1,521.88,32.2Z"/></svg>