<svg id="client_logos" data-name="client logos" xmlns="http://www.w3.org/2000/svg" viewBox="0 0 262.38 278.45"><defs><style>.cls-1{fill:#c5a76f;}</style></defs><path class="cls-1" d="M126.82,186.2c-49.57.4-93.08-40.22-92.93-93.65A92.92,92.92,0,0,1,128.34,0c51.78.53,92.1,43.1,91.85,93.37C219.94,146.19,176.86,186.72,126.82,186.2Zm16.34-93.29c-.21-1.84-.37-3.28-.54-4.71A88.3,88.3,0,0,0,121,39.26,90,90,0,0,0,92.72,17.61a3.23,3.23,0,0,0-2.38-.37,74.49,74.49,0,0,0-14.84,9.2C91.65,31.75,104.64,41,114.41,54.6s14.34,28.78,14.1,46.17c-2.89-1.46-5.25-2.7-7.66-3.84a3.89,3.89,0,0,1-2.56-4,30.81,30.81,0,0,0-.64-5.29c-3.72-25.15-24.58-47.38-49.52-52.89a2.53,2.53,0,0,0-2.91,1c-2.76,3.54-5.55,7-8.31,10.57a12.34,12.34,0,0,0-.83,1.56,50.34,50.34,0,0,1,29.6,11.75,49.64,49.64,0,0,1,16.69,26.87c-3-.53-5.79-1.19-8.57-1.44a3.36,3.36,0,0,1-3.24-2.47,40.83,40.83,0,0,0-38.31-24.8,2.86,2.86,0,0,0-2.15.92,63.22,63.22,0,0,0-5.21,15.14,26.06,26.06,0,0,1,18.61.92A25.72,25.72,0,0,1,76.82,87.82c-2.31,1.27-4.56,2.36-6.64,3.71-1.54,1-2.21.82-3.14-.84a16,16,0,0,0-22.24-6,3.48,3.48,0,0,0-2,3.34q.39,8.77.8,17.57a2.92,2.92,0,0,0,2,2.61c6.13,3,11.88,2,17.51-1.31,5-2.92,10-5.91,15.07-8.7,8.43-4.64,17-4.81,25.46-.1q7.7,4.27,15.22,8.84c6.77,4.09,13.39,4,20.13-.11,4.94-3,10-5.89,15-8.76a25.33,25.33,0,0,1,13.62-3.44c5.32.18,10,2.31,14.43,4.93s8.83,5.27,13.33,7.76c3.69,2,7.59,3.32,11.95,2.47,1.71-.34,2.74-1,2.88-2.85.34-4.27,1-8.53,1-12.8.07-21.88-18.34-40.21-40.22-40.31a43.83,43.83,0,0,0-14.54,2.5c-.58.2-1.74.18-1.89-.11-1.35-2.67-2.54-5.43-3.89-8.41,18.17-6.87,34.92-4.58,50.64,6.27,0-.18.13-.32.09-.42a5.1,5.1,0,0,0-.39-.9,83.86,83.86,0,0,0-16.71-21.44,4.39,4.39,0,0,0-2.05-1.06,64.84,64.84,0,0,0-18.71-.73,66.9,66.9,0,0,0-19,5c-.61.25-1.79.31-2.09-.05-1.94-2.29-3.7-4.73-5.64-7.28a59.54,59.54,0,0,1,14.73-5.51c5-1.11,10.14-1.87,15.35-2.81-.6-.35-1.19-.73-1.8-1a79.06,79.06,0,0,0-22.4-7.54,10.28,10.28,0,0,0-5.13.5c-3.49,1.36-6.85,3.07-10.21,4.74a2,2,0,0,1-2.61-.22c-2.17-1.91-4.46-3.71-6.71-5.53a1.54,1.54,0,0,0-1-.39c-4.3.73-8.59,1.51-13,2.31.31.59.34.75.43.81.48.34,1,.67,1.48,1a99.54,99.54,0,0,1,38.34,43.66,97.69,97.69,0,0,1,8.09,28.41c.11.84.11,2.24-.36,2.53C149.22,89.79,146.29,91.24,143.16,92.91ZM207.74,119c-9.74-.43-11.65-1-19.64-5.58-4.51-2.59-9-5.29-13.53-7.8a15.59,15.59,0,0,0-15.87,0c-5.71,3.15-11.3,6.52-17,9.71a25.58,25.58,0,0,1-15.19,3.47c-4.76-.47-9-2.46-13.08-4.8-4.8-2.75-9.54-5.63-14.39-8.29-5.59-3.08-11.25-2.89-16.78.26-5.27,3-10.46,6.13-15.75,9.1-4.8,2.69-9.92,4.28-15.52,3.74-1.41-.14-2.81-.43-4.37-.68a7,7,0,0,0,.25,1.29c2,4.77,4.15,9.53,6.17,14.31a2.1,2.1,0,0,0,3,1.24,73.34,73.34,0,0,0,8.14-3.5c4.58-2.48,9-5.25,13.51-7.84,9.05-5.19,18.07-4.93,27,.29,5.18,3,10.38,6,15.57,9A15.25,15.25,0,0,0,134,134.3a51,51,0,0,0,6.75-3.25c4.83-2.7,9.5-5.69,14.4-8.26,7.8-4.09,15.75-4,23.5.18,4.76,2.55,9.34,5.43,14.05,8.09a64.66,64.66,0,0,0,6.19,3.06c.51.23,1.7.08,1.86-.25C203.09,129.05,205.32,124.16,207.74,119ZM59.07,143.48c3.18,3.5,6,6.69,9,9.78a2.15,2.15,0,0,0,2,.14c2.85-1.51,5.59-3.24,8.44-4.76,8.52-4.53,17-4.52,25.46.25,5.28,3,10.46,6.14,15.79,9.05,2.63,1.43,5.32,2.8,8.54,2.78a21.5,21.5,0,0,0,10.65-3.23c4.58-2.61,9.09-5.34,13.63-8,9.5-5.6,19-5.61,28.45.08,1.47.88,2.92,1.8,4.45,2.57.48.24,1.45.32,1.72,0,2.83-3.09,5.56-6.27,8.32-9.42-6.35-3.65-12.44-6.94-18.3-10.59-7.08-4.39-13.93-4.42-21,0-4.92,3.07-10,5.93-15.06,8.71-8.68,4.74-17.32,4.26-25.81-.59-4.87-2.78-9.8-5.45-14.55-8.42-6.5-4.05-12.83-3.92-19.41-.2C74.2,135.68,67.51,140.58,59.07,143.48ZM179.3,159.05a18.08,18.08,0,0,0-21.26-2.5c-5.27,2.87-10.38,6-15.59,9a26.88,26.88,0,0,1-14.68,4,28.32,28.32,0,0,1-12.88-4.07c-5-2.86-10-5.91-15.07-8.7-7.83-4.31-16.95-2.86-23.41,3.55C104.48,183.08,149.75,183.72,179.3,159.05Z"/><path class="cls-1" d="M162.77,80.57l-2.1-10c8.84-3.9,17.29-3.24,25.39,1.91,7.82,5,12.82,15.41,11.3,23.74-3.29-1.95-6.5-3.84-9.67-5.79a2.76,2.76,0,0,1-.79-1.33c-4-10-13.68-13.73-23.25-8.92C163.41,80.29,163.17,80.38,162.77,80.57Z"/><path class="cls-1" d="M214.47,254.44a20.18,20.18,0,0,0,7.94-6.59A51,51,0,0,0,230,234.29a25.86,25.86,0,0,1,8.9-12.34,11.49,11.49,0,0,1,7.79-2.33c5.87.34,9.5,5.24,7.48,10.78-3,8.15-8.45,13.71-17.41,15.11-.31.05-.62.16-.9.23-.26,4.53,3.73,7.75,8,6.15a15,15,0,0,0,6.27-4.23c3.21-4,5.87-8.4,8.73-12.65.36-.55.48-1.29.92-1.74a7.2,7.2,0,0,1,1.77-1c.27.7,1,1.61.74,2.07-2.81,5.88-5.47,11.89-9.94,16.78A15,15,0,0,1,238,256a11.25,11.25,0,0,1-9.22-8c-.27-.8-.49-1.61-.83-2.73-.66.93-1.14,1.6-1.61,2.28-3.33,4.9-7.82,8.51-12.79,11.63a5.31,5.31,0,0,0-1.8,2.17c-1.78,3.75-3.31,7.61-5.18,11.31a9.88,9.88,0,0,1-7.57,5.48c-2.83.45-5.26-.23-6.91-2.74a5.29,5.29,0,0,1,.67-6.94,42.24,42.24,0,0,1,8-6.57c2.35-1.45,4-3,4.62-5.72.3-1.26.81-2.47,1.08-3.93-2,3.52-4.6,4.62-8.45,3.12s-6.64-3.75-6.48-8.57c-.55.77-1.06,1.58-1.67,2.3a53.57,53.57,0,0,1-4.05,4.59c-3.15,3-6.19,3.11-9.86.81a3.64,3.64,0,0,1-2-3.74,6.11,6.11,0,0,0-.17-2.41c-.94,1.53-1.82,3.1-2.83,4.57-2.41,3.48-3.47,3.8-7.49,2.48-5-1.66-6.61-3.65-6.25-8.88a41,41,0,0,1,8.41-22.86c4.53-5.79,11.28-5.52,15.52.47a6.5,6.5,0,0,0,.48.56c.24-.37.48-.65.65-1,1.32-2.59,1.95-2.84,4.42-1.73,3,1.33,3.7,2.73,2.65,5.11a129.33,129.33,0,0,0-7.89,23.37c-.11.5-.13,1-.28,2.14a21.49,21.49,0,0,0,3.18-2.31c4.18-4.69,8-9.6,10.15-15.65a35.28,35.28,0,0,1,6.36-11.54c4.56-5.28,11-4.94,15,.83a6.75,6.75,0,0,0,.54.58c.5-1.17.93-2.24,1.4-3.3a2.28,2.28,0,0,1,3.24-1.33,13.58,13.58,0,0,1,2.6,1.4c1.43,1,1.7,2.15,1.05,3.91-3.42,9.34-6.69,18.74-10,28.11C214.65,253.51,214.62,253.77,214.47,254.44Zm-49.25-7.12a3.85,3.85,0,0,0,.16,1.14c.37.93.84,1.83,1.28,2.74.81-.57,1.89-1,2.4-1.72a71.3,71.3,0,0,0,3.86-6.67c2.13-4.09,4.15-8.24,6.24-12.35a3.65,3.65,0,0,0-.71-4.54c-1.3-1.26-2.74-.32-4,.4a7.15,7.15,0,0,0-1.91,1.69C168.06,233.57,165.83,240,165.22,247.32Zm34.94-.63a14.15,14.15,0,0,0,.22,2.82,2.64,2.64,0,0,0,1.21,1.61c.37.16,1.23-.34,1.61-.77a14.54,14.54,0,0,0,2-2.9q4.35-8.41,8.59-16.88a2.61,2.61,0,0,0,.44-1.48c-.3-1.15-.53-2.53-1.31-3.28-.48-.48-2-.24-2.88.13a7.25,7.25,0,0,0-2.78,2.12A33.84,33.84,0,0,0,200.16,246.69Zm35.94-4.62.5.44a36.27,36.27,0,0,0,4.46-3,30.26,30.26,0,0,0,7.82-10.83c.57-1.36,2.05-3.19.53-4.31-1.76-1.3-3.49.32-4.82,1.57-3.66,3.41-5.86,7.75-7.47,12.41C236.7,239.56,236.44,240.82,236.1,242.07Zm-34,23c-2.85,1.59-5.46,2.76-6.87,5.33-.39.71.07,1.88.14,2.84.89-.2,2-.12,2.63-.66C200.09,270.69,201.11,268.14,202.11,265.06Z"/><path class="cls-1" d="M92.66,238.91c-.64,2-1.3,3.93-1.9,5.91-1.13,3.72-2.25,7.44-3.33,11.17a1.91,1.91,0,0,1-2.69,1.49c-3.48-.91-5.18-3.4-4.17-7.05,1.87-6.72,3.88-13.41,6.15-20,2.11-6.1,4.61-12.06,7-18.05a5.18,5.18,0,0,1,8.1-2,2.58,2.58,0,0,1,.22,2.24c-2.35,6.36-4.81,12.68-7.23,19a4.67,4.67,0,0,0-.26,2.41c1.56-.48,3.3-.66,4.64-1.49A21.84,21.84,0,0,0,110,216.37c.91-6.68-4.74-11.59-12-10.79-6.84.75-13.56,7.28-14.84,14.57A23.48,23.48,0,0,0,83,225c.08,1.88-.63,2.48-2.35,1.78a9.57,9.57,0,0,1-5.31-12.3,17.53,17.53,0,0,1,3.51-5.44c5.81-5.84,17.14-10.38,28-5.74,9.4,4,14.36,17,6.57,26.06-4,4.68-8.78,7.69-15,8.18,0,.3-.14.51-.08.66,2.13,4.95,4.21,9.93,6.44,14.84.79,1.74,2.11,2.83,4.31,2.07a1.84,1.84,0,0,1,1.57.73c.2.27-.12,1.13-.45,1.5-4.26,4.75-10.68,4-12.92-1.88-1.8-4.76-2.58-9.91-3.81-14.88-.14-.56-.26-1.12-.39-1.69Z"/><path class="cls-1" d="M131.81,244c-1,1.47-1.84,3-2.94,4.38a58,58,0,0,1-5.08,5.75,7,7,0,0,1-6.83,1.58c-3.6-.89-5.31-3-4.3-6.45,2.12-7.33,4.62-14.55,7.06-21.78.72-2.11,1.8-4.1,2.7-6.15.68-1.56,1.78-2.05,3.35-1.36a13.1,13.1,0,0,1,2.26,1.18c2,1.42,2,2,1.11,4.35-2.91,7.62-5.75,15.27-8.58,22.93a27.74,27.74,0,0,0-.81,3.41l.41.38a19.31,19.31,0,0,0,2.39-1.68,53.49,53.49,0,0,0,10.71-15.33c1-2.08,1.11-4.59,1.75-6.87s1.47-4.78,2.22-7.16a2,2,0,0,1,3-1.35,14,14,0,0,1,3.07,1.72,2.53,2.53,0,0,1,.87,3.29c-3,8.47-3.72,17.37-4.73,26.21a4.06,4.06,0,0,0,.25.91,8.45,8.45,0,0,0,1.61-1.34,70.94,70.94,0,0,0,12.2-29.1,14,14,0,0,0-.19-3.34c-.11-1.48.46-1.94,1.88-1.48a5.28,5.28,0,0,1,3.55,4.77c.18,4.2-1.15,8.05-2.7,11.86a62.69,62.69,0,0,1-12.77,20.29c-3,3.09-6.48,3.33-9.64.46a6.7,6.7,0,0,1-1.62-4,37.69,37.69,0,0,1,.21-5.9Z"/><path class="cls-1" d="M14.92,247.14c2.86.38,5.5.57,8.06,1.11,5.2,1.11,8.23,4.18,8.81,8.65a5,5,0,0,1-.07,2c-.13.51-.56,1.32-.87,1.32-.52,0-1.08-.48-1.59-.81-1.28-.84-2.43-2.12-3.83-2.51a40.5,40.5,0,0,0-20-.13c-1.82.41-2.6-.12-3-1.75-.17-.77-.39-1.54-.49-2.32-.45-3.32-.29-3.43,2.86-4.35A3.42,3.42,0,0,0,7,246.66c4-11.71,7.92-23.45,11.85-35.19.17-.5.34-1,.5-1.5.71-2.28-.11-3.25-2.37-2.58a8.4,8.4,0,0,0-3.61,1.92C9.45,213.42,5.9,217.75,6.2,224c.07,1.52-.79,1.95-2.18,1.24a6.89,6.89,0,0,1-3.7-8.46c2.39-8.65,13-14.79,21.7-12.56,4.46,1.15,6.07,4.17,4.58,8.48Q21,229,15.37,245.37C15.18,245.91,15.08,246.49,14.92,247.14Z"/><path class="cls-1" d="M44.77,256.22c-8.65-.17-13.18-6-12.58-14.77.55-7.9,4.42-14.25,10.47-19.28A10.7,10.7,0,0,1,52.87,220c4.54,1.27,7,5.62,5.41,10.06-3,8.26-8.45,13.87-17.43,15.37-1.15.2-1.39.64-1.15,1.74a6.41,6.41,0,0,0,9,4.57,18.39,18.39,0,0,0,8-6.92c2.52-3.7,4.65-7.65,7-11.43.35-.54,1.24-.73,1.88-1.09.21.72.82,1.67.56,2.14-3,5.39-5.88,10.9-9.38,16C54.06,254.44,49.67,256.13,44.77,256.22ZM40,241.92l.49.54a32.77,32.77,0,0,0,3.6-2.22,29.78,29.78,0,0,0,9.09-12.48c.42-1,.19-2.32.26-3.49-1.28.23-2.56.46-3.83.71-.12,0-.22.14-.32.22C44.18,229.66,41.62,235.52,40,241.92Z"/><path class="cls-1" d="M125.63,210.59a2.82,2.82,0,0,1,0-.43c.22-2.76,1.46-4.54,3.31-4.78s4.94,1.89,5.65,3.72c0,.12.17.29.13.36a42.9,42.9,0,0,1-3.64,5.65c-.44.51-2.13.32-3,0C126.28,214.4,125.58,212.83,125.63,210.59Z"/><path class="cls-1" d="M178.61,278c-1.48.56-2.19.16-2.55-1.15a2.53,2.53,0,0,0-3.05-1.88,9.31,9.31,0,0,1-2.17.07c-1.82-.27-3,.25-3.56,2.15-.16.56-1.11.88-1.7,1.31l-.49-.43a14.11,14.11,0,0,1,.49-1.56c1.47-3.31,2.91-6.63,4.49-9.89a2.75,2.75,0,0,1,1.76-1.44c.47-.06,1.3.76,1.58,1.36C175.18,270.24,176.85,274,178.61,278Zm-4.19-4.73c-.89-2-1.7-3.84-2.69-6.07-1,2.23-1.73,4-2.61,6.07Z"/><path class="cls-1" d="M108.64,265.33c1.47-.67,2.13-.06,2.62,1.08,1.23,2.89,2.52,5.76,3.89,8.88,2.51-3.38,2.64-8,5.91-10.51l.8.43c-.41,1-.83,2-1.25,2.93-1.29,3-2.55,5.93-3.9,8.85-.24.51-.92,1.16-1.36,1.13a2.28,2.28,0,0,1-1.58-1.12C112,273.18,110.37,269.31,108.64,265.33Z"/><path class="cls-1" d="M137.06,278.18c0-4.17,0-8,.05-11.81,0-.45.61-.9.93-1.35.34.44,1,.87,1,1.32.09,2.77.11,5.54,0,8.31,0,1.38.46,1.91,1.83,1.84a35.1,35.1,0,0,1,4.35.05c.33,0,.63.59.94.91-.31.25-.63.69-.95.7C142.57,278.21,140,278.18,137.06,278.18Z"/><path class="cls-1" d="M152.18,265.19c1.38-.37,1.88,0,1.84,1.31-.08,2.76,0,5.52-.07,8.28,0,1.31.45,1.77,1.71,1.71a39.25,39.25,0,0,1,4.34,0c.37,0,.7.55,1.05.85-.37.27-.73.76-1.1.77-2.55.07-5.1,0-7.77,0Z"/><path class="cls-1" d="M129.35,278c-1.38.49-1.83,0-1.81-1.35.06-3.36,0-6.73.06-10.09,0-.52.63-1,1-1.53.31.52.88,1,.89,1.56.09,3.62.06,7.25.06,10.88A2.27,2.27,0,0,1,129.35,278Z"/></svg>