<svg id="client_logos" data-name="client logos" xmlns="http://www.w3.org/2000/svg" viewBox="0 0 267.84 45"><defs><style>.cls-1{fill:#1e529d;}.cls-2{fill:#459e8b;}</style></defs><g id="Layer_1_copy_2" data-name="Layer 1 copy 2"><path class="cls-1" d="M120.33.71H95.69V36.26h14V25.6h11l1.09,0s13.73.36,13.73-11.6C135.52.21,120.33.71,120.33.71Zm-3,17h-7.63V9.06h7.93s4.36.16,4.36,4.5S117.34,17.71,117.34,17.71Z"/><rect class="cls-1" x="139.74" y="0.71" width="36.67" height="8.02"/><rect class="cls-1" x="139.74" y="14.38" width="36.67" height="8.02"/><rect class="cls-1" x="139.74" y="28.28" width="36.67" height="8.01"/><path class="cls-1" d="M224.09,36.26a2.87,2.87,0,0,1-1.23-1,5.13,5.13,0,0,1-.83-2.8v-4a9.13,9.13,0,0,0-.85-4.13,9.2,9.2,0,0,0-5.69-3.88s6.62-.13,6.62-8.49C222.11.24,208.37.71,208.37.71h-27V36.26H195.8V24.46h7.53A5.33,5.33,0,0,1,207,26a6.82,6.82,0,0,1,1.41,4.75c0,.22,0,5.47,0,5.47ZM203.7,17.17h-7.9V8.6h7.67s4.44.43,4.44,4.42S203.7,17.17,203.7,17.17Z"/><path class="cls-1" d="M259.8,16.3c-5.64-1.91-17-2.72-17-6.44,0-2.76,3.77-2.9,5.78-2.73a4.5,4.5,0,0,1,4.32,4.74h13.61s.76-6.33-6.6-9.8C256.89.63,252.37,0,246,0c-14.42,0-17.91,7.16-17.91,10.9,0,7.83,7,10,17.51,12,3.3.6,5.57,1.29,6.72,2.2a2.4,2.4,0,0,1-.44,4.08c-3.05,1.34-6.72,1.12-8.48-.5C241.8,27.2,242,24.56,242,24.56H227.56A11.24,11.24,0,0,0,231,33c2.94,2.6,8.62,3.7,15.72,3.7,20.25,0,21.08-7.34,21.08-11.42C267.84,21.91,265.44,18.23,259.8,16.3Z"/><polygon class="cls-2" points="73.83 0.68 73.83 19.39 58.37 0.71 45.97 0.71 45.97 36.26 58.37 36.26 58.37 15.71 73.83 36.26 86.45 36.26 86.45 0.68 73.83 0.68"/><path class="cls-1" d="M26.4,31.55a4.71,4.71,0,1,1-4.71-4.71,4.71,4.71,0,0,1,4.71,4.71"/><polygon class="cls-2" points="43.38 36.26 29.14 0.71 14.25 0.71 0 36.26 12.11 36.26 21.69 12.34 31.28 36.26 43.38 36.26"/><path class="cls-2" d="M5.09,43.19a1.82,1.82,0,1,1-1.82-1.82A1.81,1.81,0,0,1,5.09,43.19Z"/><path class="cls-2" d="M22.55,43.19a1.82,1.82,0,1,1-1.82-1.82A1.82,1.82,0,0,1,22.55,43.19Z"/><path class="cls-2" d="M40,43.19a1.82,1.82,0,1,1-1.82-1.82A1.82,1.82,0,0,1,40,43.19Z"/><path class="cls-2" d="M57.45,43.19a1.82,1.82,0,1,1-1.82-1.82A1.81,1.81,0,0,1,57.45,43.19Z"/><path class="cls-2" d="M74.89,43.19a1.82,1.82,0,1,1-1.81-1.82A1.8,1.8,0,0,1,74.89,43.19Z"/><path class="cls-2" d="M92.35,43.19a1.82,1.82,0,1,1-1.82-1.82A1.81,1.81,0,0,1,92.35,43.19Z"/><path class="cls-2" d="M109.8,43.19A1.82,1.82,0,1,1,108,41.37,1.81,1.81,0,0,1,109.8,43.19Z"/><path class="cls-2" d="M127.25,43.19a1.82,1.82,0,1,1-1.81-1.82A1.82,1.82,0,0,1,127.25,43.19Z"/><path class="cls-2" d="M144.7,43.19a1.82,1.82,0,1,1-1.82-1.82A1.81,1.81,0,0,1,144.7,43.19Z"/><path class="cls-2" d="M162.15,43.19a1.82,1.82,0,1,1-1.81-1.82A1.81,1.81,0,0,1,162.15,43.19Z"/><path class="cls-2" d="M179.61,43.19a1.82,1.82,0,1,1-1.82-1.82A1.82,1.82,0,0,1,179.61,43.19Z"/><path class="cls-2" d="M197.05,43.19a1.82,1.82,0,1,1-1.81-1.82A1.81,1.81,0,0,1,197.05,43.19Z"/><path class="cls-2" d="M214.51,43.19a1.82,1.82,0,1,1-1.82-1.82A1.82,1.82,0,0,1,214.51,43.19Z"/><path class="cls-2" d="M232,43.19a1.82,1.82,0,1,1-1.82-1.82A1.82,1.82,0,0,1,232,43.19Z"/><path class="cls-2" d="M249.41,43.19a1.82,1.82,0,1,1-1.82-1.82A1.82,1.82,0,0,1,249.41,43.19Z"/><path class="cls-2" d="M266.87,43.19A1.82,1.82,0,1,1,265,41.37,1.82,1.82,0,0,1,266.87,43.19Z"/></g></svg>