<svg id="client_logos" data-name="client logos" xmlns="http://www.w3.org/2000/svg" viewBox="0 0 277.47 72.61"><path d="M34.13,43c2.69,4.68,7.22,6.8,12.58,7.16,7.66.52,14.25-1.6,19.29-8,1.09-1.36,3.74-1.48,6.14-2.34v31.4c-7.66-8.31-17.76-12.16-27-17.43a61.27,61.27,0,0,1-9.43-6.51,11.73,11.73,0,0,1-4.19-12.16c.6,1,1,1.57,1.32,2.16,2.37,4,7.48,5.49,13.82,4.07,5.4-1.22,8.19-4,8.6-8.75.51-5.7-3.64-10.8-10.06-12.11a24.21,24.21,0,0,0-14,1.22c-7.56,3-10.53,8.93-8.93,17.35C24.5,50.68,31.6,59.32,39.13,67.7c1.39,1.55,3,2.86,4.59,4.28l-.39.63H0V.1c4.53.17,8.8,1,12.16,4.28,3.17,3.07,2.53,6.71,1.12,10.41C11.71,18.92,9.77,23,8.85,27.28c-2.34,10.92.64,21,6,30.47,2.33,4.1,5.38,7.79,8.21,11.59a3.71,3.71,0,0,0,2.4,1.46c4.21.15,8.42.07,13.35.07-1-1.33-1.66-2.18-2.34-3-5.71-6.58-11-13.46-14.32-21.6A42.37,42.37,0,0,1,19.33,35c-.61-5.73,2.06-10.28,7-13.14,7.49-4.33,15.43-5.19,23.52-1.77,6.18,2.62,9,7.63,8,13.7-.83,5.33-5.43,9.38-11.86,9.77C42.09,43.76,38.11,43.23,34.13,43Z"/><path d="M18.61,53.44a32.25,32.25,0,0,1-6.39-24.58C13.63,18.05,20.36,11.34,29.73,7,43,.76,57.26-.38,71.71.1c.17,0,.35.16.73.35v31l-3.74.21c-.31-1.14-.61-2.17-.85-3.2C65.5,18.6,59,12.31,48.93,11,38.26,9.68,28.45,12,21.49,20.84,15.63,28.33,15,37.12,16.88,46.19,17.33,48.34,17.9,50.47,18.61,53.44Z"/><path d="M87.82,52.1V22.64c5.11.3,10,.3,14.87,1,3.94.53,6.18,3.7,6.54,8,.41,4.81-1.21,7.38-5.58,9.35l6.85,11.43a56.93,56.93,0,0,1-6.69-.08,3.35,3.35,0,0,1-2.06-1.7c-1.18-2.21-2.2-4.52-3.18-6.84-.71-1.71-1.79-2.27-3.71-1.45v9.8ZM95,37.4c2.07-.55,4.53-.51,5.65-1.72,1-1,1-3.76.33-5.26-1.09-2.49-3.69-1.56-6-1.56Z"/><path d="M253.34,52.39a49.82,49.82,0,0,1-6.51-.08,4.15,4.15,0,0,1-2.66-1.75c-1.72-3-3.17-6.16-4.89-9.58-3.09,3.62-.95,7.64-2.16,11.23h-6.76V23.1h7.21l-.66,12.83a86.71,86.71,0,0,0,5.21-8c2.14-4.22,5-6.35,10.36-4.54l-8.64,12Z"/><path d="M166.3,52.23h-6.87V22.64c4.95.31,9.89.2,14.66,1.05s7,5,6.67,10.72c-.29,5.13-3.11,8.57-7.77,9.39-2,.35-4.91-.11-5.93,1.07s-.42,4-.53,6.11A11.91,11.91,0,0,1,166.3,52.23ZM166.59,28c0,3.47-.1,5.76,0,8,.06.95.27,2.6.52,2.57,1.6-.18,4.48.17,5-1.17.84-2.19,1.43-5.34,0-7.18C171.13,28.86,169.08,28.92,166.59,28Z"/><path d="M113.88,52.16c0-9.3,0-18.27.08-27.23A2.71,2.71,0,0,1,115.74,23c5.13-.16,10.26-.09,15.66-.09V29h-9.76v5.81h8c.08,1.11.11,2,.23,2.84.32,2.33-.5,3.36-3,3.08a48.82,48.82,0,0,0-5.3,0v5.75h10.54v5.72Z"/><path d="M204.8,52.38a39.24,39.24,0,0,1-5.69-.08,3.05,3.05,0,0,1-2.17-1.73c-.43-2-1.52-2.37-3.25-2.26-1.51.1-3-.08-4.53.08-.67.08-1.79.63-1.84,1.07-.41,3.39-2.82,3-5.13,2.92-.49,0-1-.07-1.71-.12a14,14,0,0,1,.3-2c2.62-8.34,5.42-16.63,7.83-25,.86-3,2.86-2.08,4.7-2.31s2.82.52,3.37,2.43c2.36,8.1,4.89,16.15,7.35,24.23C204.29,50.36,204.49,51.21,204.8,52.38Zm-10-9L192,32.22l-2.95,11.16Z"/><path d="M135.63,51l2-4.79a31.05,31.05,0,0,0,4.44,1.12,9.75,9.75,0,0,0,4.13-.28,3,3,0,0,0,1.63-2.14,3.28,3.28,0,0,0-1.22-2.47,8,8,0,0,0-3.12-1c-5.81-1.1-8.11-4-7.81-9.88.28-5.64,3.27-8.66,8.92-9a26.26,26.26,0,0,1,3.32,0c5.89.43,6,.6,4.72,6.51a46,46,0,0,0-7.11-.39,1.44,1.44,0,0,0-.52.14,2.78,2.78,0,0,0-.58,4.57,3,3,0,0,0,.49.39c1.05.66,2.51.64,3.77,1,4.68,1.27,6.27,3.6,6.17,9-.1,5.1-2.07,8.16-6.41,8.92S139.85,53.44,135.63,51Z"/><path d="M226.1,30.19c-2.89-.63-4.54-1.08-6.21-1.33-3.59-.53-5.68.93-6,4.59a38.13,38.13,0,0,0,.15,8.74c.63,4.48,3.24,5.86,7.62,4.42,1-.35,2.07-.8,3.16-1.22a2.78,2.78,0,0,1,.49.68c1.65,5,.79,6.3-4.56,6.86-8.55.89-13.25-2.57-14.37-11.2a31.53,31.53,0,0,1,.41-10.48c1.59-7.59,11.25-11.69,17.85-7.51C225.8,24.48,225.55,27.48,226.1,30.19Z"/><path d="M257,21.91a10.12,10.12,0,0,1,10.23-10.38,10.26,10.26,0,0,1,10.26,10.41,10.25,10.25,0,0,1-20.49,0Zm10.25-8.24A8.32,8.32,0,0,0,259,22a8.55,8.55,0,0,0,8.17,8.14A8.38,8.38,0,0,0,275.33,22,8.13,8.13,0,0,0,267.23,13.67Z"/><path d="M267.81,21.79c1-.29,1.8-.84,1.69-1.9-.24-2.44-4.39-1.88-5-1.78h-.09v7.51h.08v0l1.21,0V22.56l1.09-.08L269,25.59l1-.07Zm-2.13-3h.16c2.06.12,2.39.51,2.39,1.58s-2.55.84-2.55.84Z"/></svg>