<svg width="28" height="28" viewBox="0 0 28 28" fill="none" xmlns="http://www.w3.org/2000/svg">
<path d="M14 24.5C19.799 24.5 24.5 19.799 24.5 14C24.5 8.20101 19.799 3.5 14 3.5C8.20101 3.5 3.5 8.20101 3.5 14C3.5 19.799 8.20101 24.5 14 24.5Z" stroke="#087468" stroke-width="2" stroke-linecap="round" stroke-linejoin="round"/>
<path d="M23.4285 18.6375L17.4895 14.9844C17.3873 14.9187 17.2712 14.8775 17.1504 14.8641L14.6457 14.525C14.4589 14.4982 14.2684 14.5341 14.1041 14.6271C13.9398 14.7201 13.811 14.865 13.7379 15.0391L12.2395 18.3969C12.169 18.5531 12.146 18.7265 12.1732 18.8957C12.2004 19.0648 12.2767 19.2223 12.3926 19.3485L14.4489 21.5688C14.5418 21.6709 14.6099 21.7932 14.6479 21.926C14.6858 22.0588 14.6926 22.1986 14.6676 22.3344L14.241 24.5" stroke="#087468" stroke-width="2" stroke-linecap="round" stroke-linejoin="round"/>
<path d="M7.10926 6.08105L6.12488 8.39981C6.03914 8.60566 6.03523 8.83648 6.11395 9.04512L7.37176 12.392C7.42092 12.5315 7.50506 12.656 7.61613 12.7537C7.72721 12.8514 7.86149 12.9189 8.00613 12.9498L10.3468 13.4529C10.4767 13.4792 10.5987 13.5354 10.7031 13.617C10.8075 13.6987 10.8915 13.8035 10.9483 13.9232L11.3639 14.7873C11.4378 14.9334 11.5502 15.0565 11.689 15.1433C11.8278 15.23 11.9878 15.2771 12.1514 15.2795H13.628" stroke="#087468" stroke-width="2" stroke-linecap="round" stroke-linejoin="round"/>
<path d="M16.6795 3.83887L17.6967 5.67637C17.7906 5.84912 17.8244 6.04821 17.7927 6.24227C17.761 6.43633 17.6657 6.61433 17.5217 6.74824L14.5795 9.40605C14.5302 9.45308 14.4751 9.49353 14.4154 9.52637L13.0701 10.2701C12.9419 10.3382 12.7996 10.3756 12.6545 10.3795H10.3139C10.1414 10.3804 9.97301 10.4315 9.82924 10.5267C9.68547 10.6219 9.57261 10.757 9.50449 10.9154L8.59668 13.0701" stroke="#087468" stroke-width="2" stroke-linecap="round" stroke-linejoin="round"/>
</svg>
