<svg width="35" height="35" viewBox="0 0 35 35" fill="none" xmlns="http://www.w3.org/2000/svg">
<path d="M2.1875 29.5312H32.8125" stroke="#ffffff" stroke-width="2" stroke-linecap="round" stroke-linejoin="round"/>
<path d="M19.6875 29.5312V5.46875C19.6875 5.17867 19.5723 4.90047 19.3671 4.69535C19.162 4.49023 18.8838 4.375 18.5938 4.375H5.46875C5.17867 4.375 4.90047 4.49023 4.69535 4.69535C4.49023 4.90047 4.375 5.17867 4.375 5.46875V29.5312" stroke="#ffffff" stroke-width="2" stroke-linecap="round" stroke-linejoin="round"/>
<path d="M30.625 29.5312V14.2188C30.625 13.9287 30.5098 13.6505 30.3046 13.4454C30.0995 13.2402 29.8213 13.125 29.5312 13.125H19.6875" stroke="#ffffff" stroke-width="2" stroke-linecap="round" stroke-linejoin="round"/>
<path d="M8.75 9.84375H13.125" stroke="#ffffff" stroke-width="2" stroke-linecap="round" stroke-linejoin="round"/>
<path d="M10.9375 18.5938H15.3125" stroke="#ffffff" stroke-width="2" stroke-linecap="round" stroke-linejoin="round"/>
<path d="M8.75 24.0625H13.125" stroke="#ffffff" stroke-width="2" stroke-linecap="round" stroke-linejoin="round"/>
<path d="M24.0625 24.0625H26.25" stroke="#ffffff" stroke-width="2" stroke-linecap="round" stroke-linejoin="round"/>
<path d="M24.0625 18.5938H26.25" stroke="#ffffff" stroke-width="2" stroke-linecap="round" stroke-linejoin="round"/>
</svg>
