<?xml version="1.0" encoding="UTF-8" standalone="no"?>
<!-- Created with Inkscape (http://www.inkscape.org/) -->

<svg
   width="64"
   height="64"
   viewBox="0 0 16.933333 16.933333"
   version="1.1"
   id="svg5"
   inkscape:version="1.1.2 (b8e25be8, 2022-02-05)"
   sodipodi:docname="favicon.svg"
   xmlns:inkscape="http://www.inkscape.org/namespaces/inkscape"
   xmlns:sodipodi="http://sodipodi.sourceforge.net/DTD/sodipodi-0.dtd"
   xmlns="http://www.w3.org/2000/svg"
   xmlns:svg="http://www.w3.org/2000/svg">
  <sodipodi:namedview
     id="namedview7"
     pagecolor="#ffffff"
     bordercolor="#666666"
     borderopacity="1.0"
     inkscape:pageshadow="2"
     inkscape:pageopacity="0.0"
     inkscape:pagecheckerboard="0"
     inkscape:document-units="px"
     showgrid="false"
     inkscape:lockguides="false"
     width="209mm"
     units="px"
     inkscape:zoom="2.9150176"
     inkscape:cx="25.900358"
     inkscape:cy="75.814294"
     inkscape:window-width="1311"
     inkscape:window-height="786"
     inkscape:window-x="0"
     inkscape:window-y="25"
     inkscape:window-maximized="0"
     inkscape:current-layer="layer1" />
  <defs
     id="defs2">
    <clipPath
       clipPathUnits="userSpaceOnUse"
       id="clipPath29">
      <path
         d="M 0,112.889 H 311.5 V 0 H 0 Z"
         id="path27" />
    </clipPath>
    <radialGradient
       fx="0"
       fy="0"
       cx="0"
       cy="0"
       r="1"
       gradientUnits="userSpaceOnUse"
       gradientTransform="matrix(-12.666521,-17.034286,-17.034286,12.666521,74.356605,67.38697)"
       spreadMethod="pad"
       id="radialGradient127">
      <stop
         style="stop-opacity:1;stop-color:#e4a9ad"
         offset="0"
         id="stop121" />
      <stop
         style="stop-opacity:1;stop-color:#ce717b"
         offset="0.505376"
         id="stop123" />
      <stop
         style="stop-opacity:1;stop-color:#a8133e"
         offset="1"
         id="stop125" />
    </radialGradient>
    <clipPath
       clipPathUnits="userSpaceOnUse"
       id="clipPath137">
      <path
         d="M 0,112.889 H 311.5 V 0 H 0 Z"
         id="path135" />
    </clipPath>
    <clipPath
       clipPathUnits="userSpaceOnUse"
       id="clipPath45">
      <path
         d="M 0,112.889 H 311.5 V 0 H 0 Z"
         id="path43" />
    </clipPath>
    <radialGradient
       fx="0"
       fy="0"
       cx="0"
       cy="0"
       r="1"
       gradientUnits="userSpaceOnUse"
       gradientTransform="matrix(-12.666521,-17.034286,-17.034286,12.666521,74.356605,67.38697)"
       spreadMethod="pad"
       id="radialGradient143">
      <stop
         style="stop-opacity:1;stop-color:#e4a9ad"
         offset="0"
         id="stop137" />
      <stop
         style="stop-opacity:1;stop-color:#ce717b"
         offset="0.505376"
         id="stop139" />
      <stop
         style="stop-opacity:1;stop-color:#a8133e"
         offset="1"
         id="stop141" />
    </radialGradient>
    <clipPath
       clipPathUnits="userSpaceOnUse"
       id="clipPath153">
      <path
         d="M 0,112.889 H 311.5 V 0 H 0 Z"
         id="path151" />
    </clipPath>
  </defs>
  <g
     inkscape:label="Lapis 1"
     inkscape:groupmode="layer"
     id="layer1">
    <g
       id="g15"
       inkscape:label="E-Globe Logo (1)"
       transform="matrix(0.20089496,0,0,-0.19484047,-5.5236048,19.351894)">
      <g
         id="g109">
        <g
           id="g111">
          <g
             id="g117">
            <g
               id="g119">
              <path
                 d="M 68.991,87.315 C 51.399,87.117 37.298,72.696 37.496,55.103 v 0 C 37.694,37.511 52.115,23.411 69.708,23.608 v 0 c 17.592,0.198 31.693,14.62 31.495,32.212 v 0 C 101.007,73.291 86.784,87.319 69.357,87.317 v 0 c -0.121,0 -0.244,0 -0.366,-0.002"
                 style="fill:url(#radialGradient127);stroke:none"
                 id="path129" />
            </g>
          </g>
        </g>
      </g>
    </g>
    <g
       id="g131"
       transform="matrix(0.20089496,0,0,-0.19484047,-5.5236048,19.351894)">
      <g
         id="g133"
         clip-path="url(#clipPath137)">
        <g
           id="g139"
           transform="translate(65.3745,56.093)">
          <path
             d="M 0,0 C 0.094,-0.008 0.267,0.089 0.287,0.167 0.322,0.308 0.269,0.469 0.252,0.621 0.189,0.63 0.126,0.64 0.063,0.649 -0.05,0.503 -0.177,0.363 -0.261,0.203 -0.274,0.178 -0.098,0.009 0,0"
             style="fill:#ffffff;fill-opacity:1;fill-rule:nonzero;stroke:none"
             id="path141" />
        </g>
        <g
           id="g143"
           transform="translate(51.584,79.8318)">
          <path
             d="M 0,0 C 0.153,0.129 0.278,0.29 0.398,0.449 0.425,0.485 0.384,0.567 0.378,0.604 0.167,0.474 -0.026,0.379 -0.185,0.248 -0.258,0.186 -0.267,0.053 -0.306,-0.047 -0.202,-0.034 -0.065,-0.055 0,0"
             style="fill:#ffffff;fill-opacity:1;fill-rule:nonzero;stroke:none"
             id="path145" />
        </g>
        <g
           id="g147"
           transform="translate(45.3418,77.1174)">
          <path
             d="m 0,0 c -0.459,-0.525 -0.898,-1.067 -1.323,-1.622 0.443,0.525 0.892,1.057 1.345,1.594 C 0.015,-0.019 0.007,-0.009 0,0"
             style="fill:#ffffff;fill-opacity:1;fill-rule:nonzero;stroke:none"
             id="path149" />
        </g>
        <g
           id="g151"
           transform="translate(47.9707,77.0388)">
          <path
             d="m 0,0 c 0.352,0.485 0.676,0.988 1.015,1.481 0.249,0.364 0.504,0.723 0.754,1.085 0.25,0.36 0.528,0.664 0.992,0.809 0.22,0.069 0.387,0.296 0.57,0.461 C 3.358,3.86 3.358,3.959 3.333,3.979 3.29,4.012 3.196,4.042 3.158,4.02 2.628,3.709 2.037,3.457 1.594,3.057 0.797,2.339 0.426,1.282 -0.444,0.604 -0.506,0.557 -0.538,0.476 -0.596,0.423 -0.85,0.195 -0.796,-0.088 -0.785,-0.394 -0.272,-0.345 -0.257,-0.355 0,0"
             style="fill:#ffffff;fill-opacity:1;fill-rule:nonzero;stroke:none"
             id="path153" />
        </g>
        <g
           id="g155"
           transform="translate(49.2051,80.7634)">
          <path
             d="M 0,0 C 0.245,0.163 0.475,0.346 0.781,0.577 0.7,0.564 0.628,0.542 0.551,0.525 0.339,0.36 0.131,0.19 -0.077,0.02 -0.045,0.006 -0.013,-0.009 0,0"
             style="fill:#ffffff;fill-opacity:1;fill-rule:nonzero;stroke:none"
             id="path157" />
        </g>
        <g
           id="g159"
           transform="translate(47.2202,78.8542)">
          <path
             d="M 0,0 C 0.273,0.114 0.519,0.145 0.631,0.277 0.993,0.703 1.31,1.164 1.631,1.62 1.644,1.637 1.634,1.669 1.625,1.702 1.091,1.253 0.576,0.783 0.073,0.301 0.052,0.215 0.03,0.123 0,0"
             style="fill:#ffffff;fill-opacity:1;fill-rule:nonzero;stroke:none"
             id="path161" />
        </g>
        <g
           id="g163"
           transform="translate(47.375,77.4621)">
          <path
             d="m 0,0 c 0.058,0.053 0.09,0.133 0.151,0.181 0.87,0.677 1.242,1.735 2.038,2.453 0.443,0.4 1.035,0.652 1.565,0.962 C 3.792,3.618 3.885,3.589 3.929,3.555 3.954,3.536 3.954,3.437 3.927,3.413 3.744,3.248 3.577,3.021 3.356,2.952 2.893,2.807 2.614,2.502 2.365,2.143 2.114,1.781 1.859,1.421 1.61,1.058 1.271,0.565 0.947,0.062 0.596,-0.423 0.339,-0.778 0.324,-0.769 -0.189,-0.817 -0.201,-0.512 -0.254,-0.229 0,0 M 4.587,2.974 C 4.593,2.937 4.634,2.854 4.607,2.819 4.487,2.66 4.362,2.499 4.209,2.37 4.144,2.314 4.007,2.336 3.903,2.322 3.942,2.423 3.951,2.556 4.024,2.617 4.183,2.749 4.375,2.844 4.587,2.974 m -9.629,-7.483 c -1.411,-2.793 -1.887,-5.81 -2.457,-8.805 0.284,0.131 0.518,0.27 0.743,0.422 0.318,0.214 0.634,0.431 0.937,0.663 0.109,0.084 0.177,0.217 0.261,0.33 0.085,0.114 0.144,0.261 0.256,0.341 0.27,0.194 0.572,0.308 0.823,0.574 0.347,0.37 0.741,0.685 0.912,1.174 0.025,0.073 0.056,0.149 0.106,0.208 0.236,0.28 0.488,0.548 0.719,0.832 0.258,0.318 0.2,0.733 0.04,0.997 -0.219,0.364 -0.121,0.649 -0.017,0.972 0.037,0.115 0.094,0.226 0.141,0.339 -0.266,-0.219 -0.49,-0.459 -0.701,-0.708 -0.175,-0.206 -0.442,-0.197 -0.588,-0.083 -0.119,0.094 -0.164,0.369 -0.122,0.536 0.114,0.453 0.293,0.892 0.446,1.337 0.123,0.357 0.22,0.724 0.377,1.066 0.08,0.171 0.267,0.298 0.405,0.445 0.049,-0.022 0.097,-0.043 0.146,-0.065 -0.031,-0.157 -0.039,-0.323 -0.097,-0.471 -0.161,-0.407 -0.269,-0.817 -0.167,-1.251 0.025,-0.108 0.087,-0.281 0.155,-0.291 0.11,-0.018 0.241,0.072 0.36,0.12 0.055,0.023 0.106,0.055 0.255,0.134 -0.066,-0.24 -0.089,-0.398 -0.153,-0.54 -0.11,-0.245 -0.023,-0.416 0.2,-0.526 0.304,-0.149 0.593,-0.324 0.978,-0.26 0.287,0.049 0.591,0.01 0.871,0.01 0.073,-0.453 0.143,-0.855 0.201,-1.258 0.034,-0.237 0.126,-0.402 0.444,-0.349 0.003,-0.03 0.006,-0.06 0.009,-0.09 -0.155,-0.086 -0.311,-0.172 -0.509,-0.282 0.065,-0.276 0.137,-0.587 0.205,-0.874 0.55,0.032 0.607,0.457 0.832,0.734 -0.017,-0.32 -0.031,-0.632 -0.137,-0.912 -0.366,-0.964 -0.401,-1.967 -0.422,-2.97 -0.01,-0.506 0.024,-1.015 0.073,-1.519 0.056,-0.572 0.151,-1.139 0.229,-1.709 0.058,-0.414 0.104,-0.83 0.184,-1.241 0.018,-0.094 0.152,-0.168 0.232,-0.251 0.08,0.085 0.173,0.163 0.234,0.259 0.195,0.304 0.325,0.665 0.58,0.91 0.202,0.195 0.228,0.38 0.245,0.606 0.01,0.132 0.002,0.28 0.063,0.39 0.309,0.56 0.324,1.173 0.353,1.775 0.023,0.52 0.44,0.686 0.783,0.935 0.109,0.079 0.203,0.177 0.293,0.276 0.06,0.064 0.09,0.154 0.151,0.217 0.416,0.428 0.837,0.853 1.258,1.277 0.059,0.059 0.126,0.143 0.2,0.154 0.42,0.062 0.597,0.329 0.672,0.688 0.053,0.247 0.352,0.451 0.612,0.42 0.486,-0.057 0.954,-0.064 1.247,0.416 0.022,0.036 0.098,0.042 0.201,0.083 0.036,-0.194 0.066,-0.363 0.098,-0.531 0.059,-0.31 0.073,-0.636 0.193,-0.921 0.104,-0.25 0.41,-0.428 0.255,-0.761 -0.009,-0.02 0.019,-0.063 0.039,-0.088 0.328,-0.412 0.263,-0.845 0.089,-1.29 -0.196,-0.502 -0.145,-0.579 0.416,-0.669 0.265,0.254 0.528,0.508 0.831,0.8 0.054,-0.405 0.103,-0.796 0.159,-1.185 0.055,-0.391 0.151,-0.781 0.167,-1.173 0.014,-0.369 -0.195,-0.803 -0.053,-1.098 0.206,-0.423 -0.14,-0.721 -0.074,-1.105 0.062,-0.366 -0.105,-0.768 -0.171,-1.154 0.027,-0.005 0.054,-0.01 0.081,-0.015 0.039,0.047 0.078,0.094 0.115,0.137 0.559,-0.692 0.759,-1.486 0.87,-2.322 0.087,-0.662 0.322,-1.289 0.929,-1.695 0.288,-0.192 0.34,-0.442 0.374,-0.771 -0.152,0.166 -0.264,0.311 -0.4,0.432 -0.194,0.171 -0.382,0.387 -0.616,0.467 -0.308,0.106 -0.467,0.292 -0.619,0.538 -0.116,0.188 -0.3,0.337 -0.439,0.514 -0.142,0.18 -0.283,0.364 -0.393,0.562 -0.122,0.219 -0.214,0.428 -0.536,0.454 -0.189,0.015 -0.368,0.13 -0.554,0.197 -0.061,0.022 -0.154,0.066 -0.183,0.043 -0.054,-0.041 -0.11,-0.136 -0.095,-0.19 0.041,-0.147 0.098,-0.298 0.187,-0.422 0.196,-0.269 0.435,-0.51 0.62,-0.785 0.22,-0.329 0.309,-0.73 0.664,-0.988 0.11,-0.08 0.137,-0.27 0.193,-0.413 0.088,-0.226 0.147,-0.464 0.254,-0.68 0.222,-0.447 0.472,-0.88 0.699,-1.325 0.116,-0.226 0.166,-0.494 0.321,-0.689 0.469,-0.588 0.974,-1.15 1.468,-1.72 0.022,-0.025 0.072,-0.039 0.11,-0.04 0.191,-0.004 0.383,-0.002 0.634,-0.002 v 1.772 c -0.018,0.032 -0.036,0.065 -0.054,0.097 -0.059,0.067 -0.107,0.172 -0.18,0.193 -0.34,0.095 -0.397,0.361 -0.486,0.629 -0.035,0.104 -0.152,0.21 -0.26,0.259 -0.161,0.074 -0.258,0.15 -0.186,0.326 0.099,0.242 0.144,0.478 -0.018,0.62 0.185,0.086 0.458,0.13 0.518,0.262 0.071,0.156 0.033,0.465 -0.089,0.572 -0.436,0.383 -0.542,0.875 -0.461,1.359 0.141,0.854 -0.544,1.261 -0.949,1.825 -0.463,0.062 -0.422,0.421 -0.488,0.73 -0.058,0.267 -0.077,0.662 -0.257,0.759 -0.363,0.197 -0.263,0.452 -0.214,0.675 0.137,0.623 0.32,1.238 0.502,1.851 0.02,0.065 0.152,0.136 0.232,0.137 0.051,0 0.128,-0.118 0.15,-0.194 0.026,-0.089 0.006,-0.191 0.006,-0.283 0.584,-0.112 0.884,-0.428 0.967,-0.971 0.011,-0.078 0.113,-0.145 0.174,-0.218 0.028,0.016 0.057,0.03 0.086,0.045 -0.006,-0.071 -0.011,-0.142 -0.017,-0.211 0.503,-0.161 0.584,-0.285 0.541,-0.778 -0.014,-0.167 -0.002,-0.336 -0.002,-0.504 0.045,-0.016 0.09,-0.031 0.135,-0.047 0.203,0.454 0.897,0.517 0.861,1.113 0.551,0.177 1.1,0.376 1.218,0.92 0.243,1.115 0.145,2.182 -0.737,3.087 -0.257,0.265 -0.402,0.638 -0.554,0.98 -0.088,0.197 -0.162,0.451 -0.106,0.643 0.069,0.238 0.258,0.457 0.434,0.651 0.412,0.456 0.83,0.902 1.473,0.509 -0.085,-0.257 -0.088,-0.5 0.221,-0.7 0.033,0.091 0.07,0.142 0.063,0.186 -0.058,0.35 0.121,0.507 0.462,0.574 0.224,0.045 0.456,0.104 0.65,0.213 0.156,0.089 0.26,0.261 0.389,0.394 0.013,0.013 0.04,0.015 0.059,0.023 0.06,-0.061 0.119,-0.121 0.129,-0.131 0.264,0.078 0.479,0.128 0.683,0.206 0.187,0.072 0.391,0.142 0.536,0.268 0.261,0.227 0.478,0.5 0.726,0.743 0.29,0.283 0.65,0.519 0.627,0.986 -0.004,0.07 0.061,0.141 0.084,0.214 0.165,0.525 0.596,0.925 0.746,1.462 0.127,0.455 0.059,0.61 -0.489,0.702 0.1,0.073 0.157,0.131 0.227,0.161 0.406,0.171 0.271,0.509 0.16,0.725 -0.287,0.558 -0.65,1.08 -1.018,1.672 0.236,0.435 0.662,0.828 1.204,1.129 -0.396,0.044 -0.783,0.411 -1.118,-0.048 -0.002,-10e-4 -0.22,0.097 -0.218,0.143 0.01,0.212 -0.067,0.29 -0.29,0.32 -0.1,0.013 -0.178,0.164 -0.267,0.252 0.093,0.074 0.181,0.153 0.278,0.22 0.099,0.068 0.221,0.109 0.307,0.188 0.208,0.188 0.394,0.401 0.607,0.583 0.057,0.047 0.198,0.046 0.277,0.015 0.063,-0.024 0.141,-0.139 0.128,-0.196 -0.056,-0.235 -0.145,-0.465 -0.248,-0.776 0.265,0.187 0.438,0.383 0.652,0.439 0.22,0.059 0.488,0.007 0.716,-0.058 0.05,-0.014 0.048,-0.29 0.02,-0.437 -0.049,-0.255 0.007,-0.365 0.307,-0.371 0.308,-0.006 0.405,-0.194 0.293,-0.457 -0.023,-0.054 -0.017,-0.123 -0.01,-0.183 0.032,-0.266 0.07,-0.533 0.105,-0.799 0.015,-0.112 0.026,-0.223 0.044,-0.374 0.339,0.16 0.635,0.276 0.901,0.436 0.104,0.064 0.213,0.236 0.198,0.343 -0.084,0.603 -0.338,1.142 -0.799,1.573 -0.276,0.258 -0.27,0.295 0.022,0.561 0.158,0.143 0.313,0.329 0.368,0.523 0.056,0.195 0.312,0.763 0.498,0.838 0.047,0.019 0.119,0.017 0.167,-0.003 0.191,-0.081 0.384,-0.207 0.572,-0.01 0.144,0.151 0.324,0.3 0.393,0.483 0.19,0.494 0.29,1.021 0.501,1.505 0.156,0.355 0.062,0.63 -0.076,0.943 -0.09,0.204 -0.108,0.437 -0.158,0.656 0.046,0.014 0.093,0.026 0.14,0.039 0.582,-0.625 0.753,-1.457 1.138,-2.162 0.098,0.055 0.196,0.108 0.291,0.161 -0.589,0.602 -0.649,0.778 -0.39,1.128 -0.373,0.475 -0.742,0.945 -1.112,1.415 -0.031,-0.01 -0.061,-0.021 -0.091,-0.032 0.024,-0.146 0.047,-0.292 0.081,-0.499 -0.64,0.739 -0.9,0.816 -1.2,0.481 -0.233,0.136 -0.469,0.274 -0.68,0.396 0.208,0.379 0.409,0.779 0.649,1.158 0.063,0.099 0.237,0.164 0.371,0.184 0.337,0.052 0.679,0.076 1.02,0.095 0.111,0.006 0.224,-0.039 0.337,-0.059 0.155,-0.029 0.31,-0.056 0.413,-0.074 -0.038,0.248 -0.068,0.44 -0.097,0.633 h 0.774 c -0.011,0.043 -0.04,0.156 -0.089,0.348 0.283,-0.207 0.478,-0.338 0.498,-0.655 0.027,-0.414 -0.089,-0.872 0.257,-1.224 0.342,-0.347 0.7,-0.679 1.054,-1.016 0.175,-0.165 0.354,-0.325 0.532,-0.488 0.035,0.02 0.071,0.039 0.106,0.059 -0.114,0.384 -0.228,0.769 -0.342,1.153 0.033,0.009 0.066,0.017 0.099,0.025 -0.102,0.105 -0.299,0.218 -0.29,0.314 0.031,0.355 -0.312,0.471 -0.483,0.529 -0.329,0.114 -0.42,0.341 -0.619,0.625 0.312,0.083 0.572,0.152 0.806,0.215 0.05,0.171 0.103,0.356 0.162,0.559 -0.185,0.072 -0.414,0.149 -0.629,0.253 -0.065,0.032 -0.091,0.137 -0.135,0.208 0.079,0.028 0.161,0.087 0.237,0.079 0.141,-0.014 0.278,-0.067 0.417,-0.103 0.011,0.029 0.022,0.058 0.033,0.086 C 28.595,8.64 28.416,8.737 28.224,8.786 27.957,8.854 27.679,8.881 27.408,8.936 26.543,9.111 25.676,9.208 24.793,9.072 24.7,9.057 24.596,9.109 24.496,9.125 23.927,9.218 23.362,9.344 22.79,9.389 22.348,9.424 21.896,9.363 21.451,9.333 21.312,9.324 21.161,9.226 21.04,9.257 20.447,9.41 19.88,9.681 19.192,9.524 19.341,9.862 19.141,9.867 18.921,9.85 18.807,9.841 18.689,9.807 18.579,9.823 18.035,9.903 17.559,9.436 16.996,9.648 16.945,9.667 16.855,9.589 16.784,9.557 16.714,9.526 16.646,9.48 16.573,9.47 16.042,9.4 15.508,9.348 14.979,9.264 14.807,9.237 14.647,9.131 14.47,9.057 14.459,9.124 14.46,9.168 14.445,9.207 14.425,9.255 14.392,9.3 14.379,9.321 13.667,8.96 12.876,9.163 12.174,8.892 12.163,8.927 12.152,8.961 12.141,8.997 12.158,9.006 12.175,9.015 12.192,9.024 8.599,7.87 5.289,6.093 2.381,3.826 2.458,3.843 2.53,3.866 2.611,3.878 2.305,3.647 2.075,3.464 1.83,3.301 1.817,3.292 1.785,3.308 1.753,3.321 1.66,3.245 1.563,3.172 1.471,3.094 1.479,3.062 1.489,3.029 1.476,3.012 1.155,2.556 0.838,2.095 0.476,1.669 0.364,1.537 0.119,1.506 -0.155,1.392 c 0.03,0.123 0.052,0.215 0.073,0.301 -0.679,-0.651 -1.332,-1.329 -1.951,-2.038 0.007,-0.009 0.015,-0.018 0.022,-0.028 -0.453,-0.537 -0.902,-1.069 -1.345,-1.594 -0.619,-0.808 -1.2,-1.647 -1.74,-2.514 z"
             style="fill:#ffffff;fill-opacity:1;fill-rule:nonzero;stroke:none"
             id="path165" />
        </g>
        <g
           id="g167"
           transform="translate(41.6357,43.6316)">
          <path
             d="m 0,0 c -0.07,0.147 -0.109,0.236 -0.154,0.323 -0.321,0.614 -0.685,1.211 -0.95,1.846 -0.202,0.485 -0.288,1.016 -0.406,1.53 -0.081,0.354 -0.102,0.722 -0.199,1.072 -0.312,1.133 -0.661,2.255 -0.967,3.389 -0.406,1.506 -0.576,3.03 -0.153,4.557 0.179,0.648 0.475,1.265 0.693,1.904 0.402,1.175 0.793,2.354 1.171,3.537 0.149,0.466 0.248,0.946 0.365,1.4 -0.474,-0.154 -0.915,-0.297 -1.478,-0.48 0.06,0.439 0.105,0.776 0.151,1.113 0.012,0.087 0.049,0.175 0.039,0.26 -0.185,1.715 0.157,3.358 0.739,4.968 0.106,0.292 0.21,0.585 0.326,0.873 0.259,0.639 0.522,1.276 0.784,1.913 -2.419,-4.268 -3.888,-9.144 -4.103,-14.339 0.033,-1.129 0.12,-2.26 0.275,-3.396 C -3.459,7.476 -1.256,1.264 0,0"
             style="fill:#ffffff;fill-opacity:1;fill-rule:nonzero;stroke:none"
             id="path169" />
        </g>
        <g
           id="g171"
           transform="translate(81.6221,39.4094)">
          <path
             d="m 0,0 c 0.102,0.479 0.119,0.871 -0.118,1.294 -0.109,0.196 -0.16,0.422 -0.237,0.635 0.035,0.021 0.069,0.043 0.103,0.064 -0.13,0.048 -0.261,0.095 -0.384,0.141 -0.01,0.16 -0.011,0.326 -0.031,0.489 -0.02,0.166 -0.004,0.369 -0.1,0.485 -0.143,0.175 -0.379,0.277 -0.555,0.432 -0.087,0.076 -0.17,0.197 -0.18,0.305 -0.029,0.282 -0.003,0.568 -0.026,0.85 -0.021,0.272 -0.099,0.54 -0.111,0.811 -0.02,0.454 -0.135,0.597 -0.56,0.649 -0.093,0.659 -0.186,1.31 -0.278,1.961 C -2.52,8.118 -2.562,8.12 -2.604,8.122 -2.658,8.058 -2.733,8.001 -2.763,7.927 -3.028,7.271 -3.236,6.605 -3.347,5.903 -3.429,5.389 -3.632,4.885 -3.836,4.397 c -0.115,-0.273 -0.36,-0.269 -0.6,-0.085 -0.345,0.266 -0.712,0.504 -1.053,0.773 -0.202,0.159 -0.518,0.349 -0.525,0.534 -0.009,0.273 0.189,0.564 0.341,0.825 0.125,0.216 0.311,0.399 0.47,0.596 -0.02,0.041 -0.041,0.082 -0.062,0.123 C -5.497,7.176 -5.728,7.194 -5.96,7.2 -6.047,7.202 -6.145,7.143 -6.22,7.165 -6.586,7.271 -6.983,7.307 -7.268,7.612 -7.327,7.675 -7.523,7.622 -7.641,7.622 -7.545,7.415 -7.483,7.28 -7.421,7.146 -7.588,7.116 -7.761,7.1 -7.923,7.054 -8.062,7.015 -8.234,6.975 -8.314,6.878 -8.51,6.643 -8.678,6.382 -8.823,6.115 -8.92,5.936 -8.96,5.729 -9.04,5.494 -9.267,5.554 -9.597,5.45 -9.781,5.819 -9.852,5.96 -10.022,6.193 -10.305,5.972 -10.459,5.852 -10.708,5.839 -10.854,5.714 -11.083,5.519 -11.388,5.289 -11.43,5.038 -11.48,4.742 -11.572,4.651 -11.867,4.663 V 4.225 c -0.022,-0.003 -0.043,-0.007 -0.065,-0.01 -0.064,0.108 -0.128,0.216 -0.226,0.383 -0.16,-0.204 -0.399,-0.372 -0.405,-0.548 -0.011,-0.292 -0.147,-0.494 -0.262,-0.737 -0.171,-0.363 -0.46,-0.515 -0.814,-0.605 -0.519,-0.134 -1.043,-0.247 -1.565,-0.371 -0.054,-0.013 -0.11,-0.039 -0.155,-0.072 -0.306,-0.225 -0.609,-0.454 -0.911,-0.681 -0.039,0.041 -0.077,0.082 -0.167,0.176 -0.174,-0.759 -0.278,-1.434 0.238,-2.078 l -0.102,-0.01 c -0.067,0.066 -0.134,0.133 -0.276,0.274 0,-0.21 -0.04,-0.351 0.008,-0.455 0.16,-0.349 0.358,-0.683 0.529,-1.028 0.079,-0.158 0.132,-0.328 0.191,-0.495 0.07,-0.193 0.123,-0.391 0.203,-0.58 0.145,-0.346 0.248,-0.678 -0.069,-0.998 -0.04,-0.04 -0.019,-0.199 0.032,-0.246 0.36,-0.339 0.841,-0.414 1.311,-0.182 0.542,0.267 1.094,0.389 1.705,0.293 0.127,-0.02 0.305,0.07 0.414,0.16 0.358,0.296 0.739,0.519 1.231,0.539 0.182,0.007 0.381,0.031 0.537,0.11 0.711,0.36 1.408,0.159 2.11,-0.009 0.041,-0.01 0.091,-0.046 0.104,-0.082 0.097,-0.249 0.184,-0.501 0.276,-0.752 0.022,-0.057 0.043,-0.139 0.088,-0.157 0.045,-0.017 0.128,0.02 0.178,0.055 0.271,0.193 0.536,0.394 0.803,0.591 0.019,-0.016 0.038,-0.031 0.057,-0.047 -0.172,-0.23 -0.345,-0.46 -0.517,-0.69 0.008,-0.016 0.015,-0.032 0.023,-0.048 0.158,0.097 0.317,0.195 0.54,0.332 -0.073,-0.179 -0.125,-0.303 -0.179,-0.434 0.35,0.018 0.371,-0.184 0.318,-0.435 -0.057,-0.276 0.057,-0.453 0.344,-0.485 0.398,-0.044 0.819,-0.236 1.177,0.204 0.179,-0.341 0.353,-0.308 0.6,-0.171 0.274,0.153 0.597,0.226 0.884,0.361 0.179,0.084 0.352,0.201 0.489,0.338 0.221,0.224 0.395,0.49 0.615,0.715 0.467,0.477 1.012,0.895 1.412,1.416 C -0.646,-1.564 -0.184,-0.861 0,0"
             style="fill:#ffffff;fill-opacity:1;fill-rule:nonzero;stroke:none"
             id="path173" />
        </g>
        <g
           id="g175"
           transform="translate(75.4009,52.5837)">
          <path
             d="M 0,0 C 0.053,0.47 -0.005,0.771 -0.535,0.873 -0.588,0.883 -0.63,0.945 -0.684,0.955 -0.779,0.973 -0.892,1.001 -0.973,0.97 -1.274,0.85 -1.566,0.708 -1.886,0.563 -1.824,0.391 -1.72,0.229 -1.457,0.199 c 0.078,-0.01 0.198,-0.08 0.21,-0.139 0.077,-0.364 0.355,-0.323 0.625,-0.307 0.092,0.005 0.183,0.014 0.273,0.021 0.002,-0.013 0.004,-0.026 0.006,-0.04 -0.276,-0.086 -0.552,-0.171 -0.841,-0.26 0.117,-0.265 0.467,-0.372 0.334,-0.692 -0.011,-0.027 0.099,-0.131 0.165,-0.145 0.051,-0.011 0.129,0.057 0.183,0.103 0.048,0.041 0.08,0.099 0.092,0.115 C -0.006,-1.311 0.357,-1.497 0.744,-1.61 1.398,-1.803 1.836,-2.163 1.963,-2.822 1.995,-2.989 2.001,-3.136 1.797,-3.236 1.562,-3.352 1.449,-3.547 1.53,-3.882 c 0.217,0.05 0.422,0.094 0.624,0.146 0.187,0.048 0.392,0.16 0.518,-0.074 0.215,-0.399 0.569,-0.455 0.993,-0.438 0.337,0.013 0.542,0.188 0.613,0.447 0.075,0.27 0.169,0.491 0.467,0.546 0.265,0.048 0.666,-0.237 0.798,-0.505 0.223,-0.45 0.448,-0.899 1.102,-0.871 0.127,0.005 0.255,-0.093 0.389,-0.115 0.074,-0.011 0.176,0.018 0.233,0.066 0.026,0.023 -0.001,0.143 -0.04,0.193 -0.119,0.149 -0.325,0.267 -0.369,0.428 -0.053,0.198 -0.242,0.172 -0.316,0.273 -0.209,0.286 -0.39,0.593 -0.562,0.901 -0.06,0.108 -0.119,0.257 0.121,0.291 0.081,0.012 0.214,0.11 0.21,0.158 C 6.3,-2.329 6.243,-2.196 6.157,-2.133 6.022,-2.035 5.852,-1.975 5.69,-1.915 5.366,-1.797 5.357,-1.593 5.489,-1.376 5.387,-1.314 5.297,-1.262 5.209,-1.207 4.932,-1.032 4.674,-0.819 4.376,-0.688 3.574,-0.336 2.758,-0.009 1.937,0.303 1.805,0.354 1.565,0.331 1.468,0.246 1.186,0.001 0.948,-0.291 0.7,-0.569 0.617,-0.661 0.554,-0.769 0.481,-0.87 0.439,-0.857 0.398,-0.844 0.356,-0.832 0.228,-0.553 -0.029,-0.262 0,0"
             style="fill:#ffffff;fill-opacity:1;fill-rule:nonzero;stroke:none"
             id="path177" />
        </g>
        <g
           id="g179"
           transform="translate(65.4375,56.7424)">
          <path
             d="m 0,0 c 0.063,-0.01 0.126,-0.019 0.189,-0.029 0.017,-0.152 0.07,-0.312 0.035,-0.453 -0.02,-0.078 -0.193,-0.176 -0.287,-0.167 -0.098,0.008 -0.274,0.177 -0.261,0.203 0.084,0.16 0.211,0.3 0.324,0.446 m -2.453,-3.818 c 0.024,-10e-4 0.059,-0.087 0.065,-0.136 0.028,-0.215 0.071,-0.431 0.064,-0.646 -0.008,-0.291 0.215,-0.369 0.405,-0.326 0.296,0.068 0.422,-0.041 0.483,-0.246 0.308,-0.08 0.524,0.217 0.854,0.047 0.251,-0.131 0.58,-0.118 0.544,-0.489 0.282,0.082 0.515,0.15 0.842,0.246 0.046,0.25 0.171,0.614 0.16,0.973 -0.007,0.273 0.067,0.445 0.269,0.598 0.203,0.154 0.304,0.32 0.252,0.597 -0.072,0.379 0.087,0.53 0.484,0.596 0.091,0.016 0.172,0.083 0.275,0.137 C 2.014,-2.148 1.56,-1.981 1.695,-1.518 1.7,-1.501 1.68,-1.478 1.67,-1.457 1.379,-0.849 1.446,-0.62 2.021,-0.301 1.973,-0.212 1.924,-0.124 1.899,-0.078 2.077,0.022 2.232,0.11 2.378,0.192 2.352,0.26 2.351,0.274 2.344,0.28 2.187,0.394 2.032,0.51 1.87,0.617 1.724,0.714 1.589,0.774 1.538,0.99 1.47,1.278 1.112,1.395 0.99,1.222 0.74,0.867 0.521,0.494 0.289,0.128 -0.239,0.249 -0.257,0.2 -0.458,-0.304 -0.6,-0.656 -0.727,-1.088 -1.229,-1.164 c -0.391,-0.058 -0.593,-0.25 -0.603,-0.632 -10e-4,-0.08 -0.065,-0.158 -0.111,-0.262 -0.244,0.104 -0.468,0.2 -0.721,0.308 -0.065,-0.11 -0.145,-0.218 -0.196,-0.337 -0.198,-0.465 -0.022,-0.913 0.1,-1.355 0.039,-0.142 0.041,-0.37 0.307,-0.376"
             style="fill:#ffffff;fill-opacity:1;fill-rule:nonzero;stroke:none"
             id="path181" />
        </g>
        <g
           id="g183"
           transform="translate(67.5298,51.9787)">
          <path
             d="M 0,0 C -0.052,-0.142 0.004,-0.457 0.083,-0.482 0.349,-0.565 0.341,-0.747 0.342,-0.924 0.343,-1.109 0.272,-1.297 0.284,-1.48 0.291,-1.598 0.38,-1.8 0.451,-1.807 c 0.193,-0.02 0.389,0.04 0.384,0.302 -0.007,0.387 -0.013,0.775 0.001,1.162 0.005,0.118 0.08,0.234 0.122,0.35 0.048,-0.014 0.096,-0.028 0.143,-0.041 -0.014,-0.088 -0.044,-0.177 -0.038,-0.263 0.01,-0.126 0.034,-0.254 0.075,-0.373 0.05,-0.148 0.118,-0.292 0.189,-0.432 0.036,-0.072 0.084,-0.169 0.15,-0.189 0.054,-0.017 0.143,0.059 0.214,0.096 0.068,0.036 0.134,0.076 0.201,0.114 -0.246,-0.311 -0.222,-0.492 0.119,-0.728 0.44,0.265 0.044,0.69 0.195,0.947 -0.141,0.128 -0.307,0.213 -0.357,0.34 C 1.722,-0.203 1.647,0.136 1.545,0.491 1.649,0.581 1.795,0.706 1.94,0.832 2.039,0.916 2.136,1.001 2.236,1.084 2.302,1.138 2.373,1.187 2.441,1.239 2.345,1.277 2.23,1.368 2.154,1.345 1.785,1.234 1.425,1.092 1.018,0.946 0.976,0.993 0.87,1.093 0.788,1.209 0.62,1.447 0.696,1.925 0.915,1.934 1.35,1.952 1.821,1.998 2.215,1.865 2.732,1.691 3.231,2.06 3.258,2.819 3.132,2.734 3.033,2.702 2.998,2.638 2.823,2.32 2.537,2.249 2.203,2.302 1.922,2.348 1.646,2.422 1.368,2.485 1.291,2.502 1.172,2.566 1.145,2.541 0.913,2.317 0.527,2.209 0.495,1.83 0.44,1.191 0.221,0.598 0,0"
             style="fill:#ffffff;fill-opacity:1;fill-rule:nonzero;stroke:none"
             id="path185" />
        </g>
        <g
           id="g187"
           transform="translate(72.0425,73.4504)">
          <path
             d="m 0,0 c 0.012,-0.182 0.003,-0.368 0.044,-0.544 0.02,-0.085 0.129,-0.21 0.201,-0.212 0.083,-0.002 0.207,0.095 0.248,0.178 0.174,0.353 -0.003,1.017 -0.352,1.287 0.548,0.015 0.925,0.526 1.51,0.393 -0.004,-0.29 0.042,-0.518 0.41,-0.56 0.068,0.221 0.135,0.435 0.19,0.611 0.264,0.029 0.537,0.059 0.817,0.09 0.04,0.08 0.095,0.189 0.168,0.336 C 3.304,1.472 3.34,1.416 3.375,1.359 L 3.466,1.361 C 3.489,1.512 3.548,1.668 3.526,1.813 3.474,2.164 3.38,2.508 3.31,2.856 3.3,2.906 3.318,2.964 3.336,3.015 3.524,3.542 3.291,3.941 2.897,4.282 2.834,4.336 2.687,4.373 2.624,4.339 2.557,4.304 2.506,4.17 2.517,4.089 2.534,3.962 2.607,3.841 2.662,3.72 2.909,3.168 2.636,2.499 2.063,2.289 2.05,2.381 2.038,2.469 2.021,2.599 1.952,2.53 1.902,2.503 1.896,2.469 1.853,2.228 1.83,1.982 1.773,1.745 1.76,1.688 1.643,1.626 1.568,1.618 1.275,1.585 0.892,1.678 0.705,1.533 0.294,1.215 -0.019,0.782 -0.364,0.391 -0.386,0.366 -0.364,0.271 -0.331,0.242 -0.222,0.148 -0.098,0.07 0,0"
             style="fill:#ffffff;fill-opacity:1;fill-rule:nonzero;stroke:none"
             id="path189" />
        </g>
        <g
           id="g191"
           transform="translate(65.5366,48.4665)">
          <path
             d="m 0,0 c 0.133,-0.158 0.3,-0.166 0.495,0.163 -0.507,0.175 -0.992,0.342 -1.511,0.522 0.224,0.093 0.399,0.167 0.574,0.24 C -0.451,0.963 -0.459,1 -0.468,1.039 -0.737,1.039 -1.011,1.004 -1.271,1.048 -1.538,1.092 -1.791,1.212 -2.089,1.313 -2.152,0.987 -2.414,1.098 -2.64,1.081 -3.097,1.044 -3.31,1.45 -3.686,1.579 -4.215,1.76 -4.473,1.708 -4.702,1.188 c 0.159,-0.068 0.363,-0.092 0.417,-0.19 0.222,-0.4 0.664,-0.403 1.003,-0.449 0.359,-0.048 0.696,-0.096 1.03,-0.234 0.219,-0.09 0.467,-0.123 0.704,-0.168 0.407,-0.079 0.844,0.008 1.227,-0.219 C -0.265,-0.105 -0.14,-0.034 0,0"
             style="fill:#ffffff;fill-opacity:1;fill-rule:nonzero;stroke:none"
             id="path193" />
        </g>
        <g
           id="g195"
           transform="translate(77.9038,85.842)">
          <path
             d="m 0,0 c 0.502,-0.405 0.89,-0.639 1.449,-0.768 0.343,-0.08 0.688,-0.15 1.026,-0.243 0.282,-0.078 0.6,-0.128 0.822,-0.289 0.307,-0.225 0.54,-0.543 0.831,-0.849 -0.09,0.177 -0.13,0.389 -0.263,0.487 -0.408,0.302 -0.851,0.56 -1.28,0.837 C 2.526,-0.787 2.467,-0.744 2.422,-0.691 2.283,-0.529 2.186,-0.286 2.008,-0.208 1.388,0.062 0.743,0.283 0.102,0.51 -0.919,0.872 -1.944,1.228 -3.078,1.084 -2.582,0.624 -1.896,0.641 -1.215,0.472 -1.342,0.393 -1.399,0.357 -1.456,0.322 -1.172,0.224 -0.89,0.216 -0.613,0.173 -0.402,0.141 -0.149,0.121 0,0"
             style="fill:#ffffff;fill-opacity:1;fill-rule:nonzero;stroke:none"
             id="path197" />
        </g>
        <g
           id="g199"
           transform="translate(42.2002,45.07)">
          <path
             d="M 0,0 C -0.231,0.67 -0.405,1.358 -0.607,2.037 -0.804,2.698 -1.004,3.358 -1.203,4.019 -1.234,4.01 -1.266,4.002 -1.297,3.993 c 0.03,-0.349 0.079,-0.7 0.082,-1.05 0.002,-0.19 -0.08,-0.38 -0.116,-0.571 -0.022,-0.113 -0.068,-0.242 -0.034,-0.341 0.152,-0.44 0.338,-0.868 0.496,-1.306 0.325,-0.899 0.642,-1.801 1.19,-2.606 0.152,-0.224 0.317,-0.439 0.476,-0.659 0.045,0.023 0.091,0.046 0.136,0.069 C 0.905,-2.383 0.884,-2.292 0.851,-2.207 0.566,-1.471 0.257,-0.744 0,0"
             style="fill:#ffffff;fill-opacity:1;fill-rule:nonzero;stroke:none"
             id="path201" />
        </g>
        <g
           id="g203"
           transform="translate(68.439,62.8049)">
          <path
             d="M 0,0 C -0.006,-0.132 -0.07,-0.307 -0.006,-0.407 0.096,-0.567 0.282,-0.613 0.468,-0.451 0.498,-0.426 0.616,-0.494 0.7,-0.521 0.637,-0.62 0.595,-0.685 0.554,-0.75 h 0.43 c -0.01,0.065 -0.022,0.135 -0.038,0.233 0.056,-0.036 0.084,-0.054 0.111,-0.072 0.162,-0.107 0.168,-0.246 0.092,-0.402 0.13,-0.038 0.26,-0.075 0.39,-0.113 0.011,-0.026 0.023,-0.053 0.034,-0.08 -0.296,-0.003 -0.386,-0.127 -0.299,-0.349 0.134,-0.053 0.262,-0.103 0.467,-0.184 -0.077,0.17 -0.123,0.272 -0.17,0.375 0.027,-10e-4 0.054,-0.002 0.081,-0.003 0.008,0.155 0.04,0.313 0.018,0.464 -0.024,0.16 -0.056,0.35 -0.16,0.462 C 1.389,-0.289 1.194,-0.2 1.014,-0.149 0.889,-0.114 0.735,-0.172 0.591,-0.189 0.279,0.35 0.312,0.589 0.668,1.053 0.782,1.201 0.845,1.425 0.833,1.609 0.816,1.874 0.71,2.133 0.641,2.401 0.563,2.409 0.444,2.396 0.345,2.433 -0.051,2.581 -0.167,2.539 -0.203,2.142 -0.235,1.792 -0.209,1.437 -0.209,1.068 -0.312,1.078 -0.386,1.084 -0.459,1.091 -0.54,0.457 -0.299,-0.046 0,0"
             style="fill:#ffffff;fill-opacity:1;fill-rule:nonzero;stroke:none"
             id="path205" />
        </g>
        <g
           id="g207"
           transform="translate(70.8276,59.5012)">
          <path
             d="m 0,0 c -0.237,-0.209 -0.45,-0.396 -0.663,-0.583 -0.251,0.288 -0.27,0.286 -0.564,0.003 -0.071,-0.068 -0.169,-0.11 -0.255,-0.165 -0.204,-0.13 -0.287,-0.543 -0.122,-0.767 0.084,0.142 0.159,0.269 0.234,0.397 0.011,-0.031 0.022,-0.061 0.033,-0.091 0.18,0.048 0.36,0.096 0.616,0.164 0.01,-0.097 0.055,-0.234 0.031,-0.36 -0.056,-0.3 0.038,-0.529 0.301,-0.686 0.151,-0.09 0.324,-0.147 0.549,-0.246 0.031,0.175 0.083,0.32 0.076,0.463 -0.006,0.138 -0.215,0.283 0.043,0.423 0.054,-0.124 0.101,-0.229 0.149,-0.34 0.569,0.763 -0.075,1.465 -0.07,2.169 C 0.242,0.354 0.126,0.327 0,0.297 Z"
             style="fill:#ffffff;fill-opacity:1;fill-rule:nonzero;stroke:none"
             id="path209" />
        </g>
        <g
           id="g211"
           transform="translate(49.6294,60.591)">
          <path
             d="m 0,0 c -0.275,-0.769 -0.392,-1.488 -0.297,-1.954 0.028,-0.139 0.128,-0.265 0.195,-0.397 0.155,0.084 0.379,0.135 0.448,0.261 0.103,0.191 0.152,0.441 0.125,0.655 C 0.43,-1.099 0.314,-0.771 0.213,-0.444 0.169,-0.302 0.084,-0.172 0,0"
             style="fill:#ffffff;fill-opacity:1;fill-rule:nonzero;stroke:none"
             id="path213" />
        </g>
        <g
           id="g215"
           transform="translate(74.3506,77.9314)">
          <path
             d="M 0,0 C 0.154,0.109 0.229,0.163 0.304,0.215 0.186,0.3 0.1,0.362 0.014,0.424 0.027,0.46 0.041,0.495 0.054,0.531 0.362,0.475 0.669,0.42 0.882,0.382 1.063,0.567 1.219,0.728 1.375,0.889 1.419,0.914 1.463,0.939 1.508,0.964 1.377,1.043 1.249,1.184 1.114,1.19 0.736,1.207 0.464,1.387 0.201,1.609 0.132,1.668 0.049,1.711 -0.091,1.804 0.151,1.237 0.124,1.246 -0.074,0.69 -0.141,0.502 -0.033,0.258 0,0"
             style="fill:#ffffff;fill-opacity:1;fill-rule:nonzero;stroke:none"
             id="path217" />
        </g>
        <g
           id="g219"
           transform="translate(70.6099,47.7429)">
          <path
             d="M 0,0 C 0.098,0.158 0.196,0.251 0.415,0.124 0.634,-0.005 0.888,0.109 0.977,0.333 1.041,0.494 1.101,0.657 1.171,0.842 0.672,1.053 0.4,1.002 0.066,0.65 -0.019,0.562 -0.11,0.45 -0.221,0.417 -0.619,0.302 -0.676,-0.03 -0.842,-0.364 -0.47,-0.348 -0.181,-0.292 0,0"
             style="fill:#ffffff;fill-opacity:1;fill-rule:nonzero;stroke:none"
             id="path221" />
        </g>
        <g
           id="g223"
           transform="translate(69.0791,61.1745)">
          <path
             d="M 0,0 V -0.838 C 0.173,-0.909 0.3,-0.961 0.445,-1.02 0.138,-1.39 0.186,-1.549 0.648,-1.822 c 0.098,0.192 0.193,0.382 0.289,0.571 0.056,0.186 0.131,0.369 0.156,0.558 0.011,0.082 -0.089,0.176 -0.139,0.265 L 0.872,-0.473 C 0.879,-0.557 0.886,-0.64 0.893,-0.723 0.734,-0.596 0.681,-0.41 0.556,-0.299 0.408,-0.168 0.197,-0.101 0,0"
             style="fill:#ffffff;fill-opacity:1;fill-rule:nonzero;stroke:none"
             id="path225" />
        </g>
        <g
           id="g227"
           transform="translate(70.0215,59.9353)">
          <path
             d="M 0,0 -0.006,-0.012 C -0.007,-0.015 -0.008,-0.018 -0.009,-0.021 Z"
             style="fill:#ffffff;fill-opacity:1;fill-rule:nonzero;stroke:none"
             id="path229" />
        </g>
        <g
           id="g231"
           transform="translate(71.7466,53.4758)">
          <path
             d="M 0,0 C 0.112,-0.416 0.381,-0.331 0.655,-0.233 0.608,-0.025 0.562,0.183 0.512,0.408 H 0.808 C 0.84,0.636 0.889,0.811 0.879,0.981 0.874,1.066 0.768,1.151 0.695,1.225 0.631,1.291 0.549,1.342 0.444,1.423 0.851,1.562 0.851,1.562 0.768,1.843 0.207,1.543 0.047,1.15 0.235,0.507 0.304,0.271 0.356,0.057 0,0"
             style="fill:#ffffff;fill-opacity:1;fill-rule:nonzero;stroke:none"
             id="path233" />
        </g>
        <g
           id="g235"
           transform="translate(68.8291,69.0232)">
          <path
             d="M 0,0 C 0.017,0.079 -0.035,0.195 -0.097,0.252 -0.128,0.28 -0.291,0.24 -0.333,0.187 -0.76,-0.358 -1.087,-0.985 -0.385,-1.665 -0.245,-1.073 -0.113,-0.538 0,0"
             style="fill:#ffffff;fill-opacity:1;fill-rule:nonzero;stroke:none"
             id="path237" />
        </g>
        <g
           id="g239"
           transform="translate(80.4414,32.7429)">
          <path
             d="M 0,0 C 0.439,-0.153 2.723,1.139 3.271,1.792 3.257,1.818 3.243,1.845 3.228,1.871 2.164,1.254 1.101,0.638 0,0"
             style="fill:#ffffff;fill-opacity:1;fill-rule:nonzero;stroke:none"
             id="path241" />
        </g>
        <g
           id="g243"
           transform="translate(83.4321,51.6892)">
          <path
             d="m 0,0 c -0.084,-0.611 -0.405,-0.869 -0.637,-0.725 -0.334,-0.084 -0.579,-0.145 -0.845,-0.212 0.136,-0.308 0.628,-0.5 0.909,-0.349 0.388,0.209 0.731,0.467 0.87,0.896 0.032,0.096 0.07,0.239 0.021,0.297 C 0.263,-0.026 0.114,-0.029 0,0"
             style="fill:#ffffff;fill-opacity:1;fill-rule:nonzero;stroke:none"
             id="path245" />
        </g>
        <g
           id="g247"
           transform="translate(63.3701,65.3386)">
          <path
             d="M 0,0 C 0.184,0.251 0.308,0.542 0.486,0.868 -0.05,0.953 -0.433,0.902 -0.633,0.534 -0.72,0.374 -0.724,0.074 -0.621,-0.059 -0.454,-0.272 -0.158,-0.216 0,0"
             style="fill:#ffffff;fill-opacity:1;fill-rule:nonzero;stroke:none"
             id="path249" />
        </g>
        <g
           id="g251"
           transform="translate(85.4795,35.8899)">
          <path
             d="M 0,0 C 0.145,0.38 0.256,0.673 0.368,0.966 0.321,0.979 0.275,0.992 0.229,1.004 0.17,0.888 0.084,0.777 0.056,0.655 -0.045,0.221 -0.294,-0.153 -0.667,-0.364 -1.083,-0.599 -1.069,-1.11 -1.526,-1.275 c 0.03,-0.03 0.06,-0.059 0.09,-0.089 0.619,0.472 1.237,0.945 1.855,1.416 C 0.404,0.071 0.388,0.089 0.373,0.107 0.285,0.082 0.196,0.056 0,0"
             style="fill:#ffffff;fill-opacity:1;fill-rule:nonzero;stroke:none"
             id="path253" />
        </g>
        <g
           id="g255"
           transform="translate(69.4941,48.3694)">
          <path
             d="M 0,0 C 0.09,0.035 0.194,0.041 0.292,0.055 0.606,0.101 0.92,0.145 1.234,0.188 1.23,0.226 1.225,0.264 1.221,0.301 1.196,0.323 1.164,0.367 1.146,0.362 0.728,0.252 0.259,0.461 -0.136,0.178 -0.184,0.143 -0.282,0.172 -0.357,0.171 -0.79,0.17 -1.25,0.456 -1.653,0.028 -1.58,-0.01 -1.507,-0.076 -1.426,-0.087 -0.945,-0.155 -0.466,-0.18 0,0"
             style="fill:#ffffff;fill-opacity:1;fill-rule:nonzero;stroke:none"
             id="path257" />
        </g>
        <g
           id="g259"
           transform="translate(70.3081,61.0261)">
          <path
             d="m 0,0 c -0.035,-0.018 -0.07,-0.035 -0.105,-0.052 0.122,-0.332 0.243,-0.663 0.365,-0.994 0.046,0.013 0.093,0.025 0.139,0.038 0,0.134 -0.001,0.269 0,0.404 0.001,0.062 -0.004,0.178 0.013,0.181 0.418,0.081 0.173,0.362 0.165,0.545 C 0.559,0.536 0.345,0.647 -0.101,0.481 0.009,0.291 0.116,0.104 0.224,-0.082 0.199,-0.093 0.173,-0.104 0.148,-0.116 Z"
             style="fill:#ffffff;fill-opacity:1;fill-rule:nonzero;stroke:none"
             id="path261" />
        </g>
        <g
           id="g263"
           transform="translate(66.6318,48.5671)">
          <path
             d="m 0,0 c -0.014,-0.012 -0.068,0.006 -0.096,0.023 -0.344,0.212 -0.416,0.002 -0.468,-0.294 0.4,-0.102 0.767,-0.255 1.155,-0.047 0.055,0.03 0.136,0.019 0.205,0.019 0.32,0 0.354,0.14 0.216,0.359 C 0.664,0.093 0.315,0.273 0,0"
             style="fill:#ffffff;fill-opacity:1;fill-rule:nonzero;stroke:none"
             id="path265" />
        </g>
        <g
           id="g267"
           transform="translate(76.019,33.573)">
          <path
             d="m 0,0 c -0.342,-0.028 -0.192,-0.354 -0.297,-0.529 -0.035,-0.057 0.044,-0.187 0.093,-0.273 0.017,-0.03 0.114,-0.049 0.154,-0.031 0.416,0.189 0.801,0.412 1.011,0.838 C 0.607,0.005 0.301,0.025 0,0"
             style="fill:#ffffff;fill-opacity:1;fill-rule:nonzero;stroke:none"
             id="path269" />
        </g>
        <g
           id="g271"
           transform="translate(72.4946,51.4729)">
          <path
             d="M 0,0 C 0.272,0.188 0.53,0.158 0.806,0.003 0.901,-0.051 1.03,-0.05 1.143,-0.074 1.111,0.055 1.119,0.214 1.04,0.306 0.787,0.599 0.416,0.56 0.073,0.532 -0.377,0.496 -0.463,0.339 -0.273,-0.101 -0.166,-0.063 -0.07,-0.049 0,0"
             style="fill:#ffffff;fill-opacity:1;fill-rule:nonzero;stroke:none"
             id="path273" />
        </g>
        <g
           id="g275"
           transform="translate(68.0161,60.3098)">
          <path
             d="M 0,0 C -0.052,0.13 -0.112,0.278 -0.14,0.348 -0.516,-0.176 -0.919,-0.74 -1.322,-1.303 -1.28,-1.331 -1.239,-1.359 -1.198,-1.388 -0.796,-0.922 -0.395,-0.458 0,0"
             style="fill:#ffffff;fill-opacity:1;fill-rule:nonzero;stroke:none"
             id="path277" />
        </g>
        <g
           id="g279"
           transform="translate(72.7944,74.0798)">
          <path
             d="m 0,0 c -0.033,-0.157 0.045,-0.335 0.074,-0.504 0.043,0.008 0.086,0.017 0.129,0.025 0.082,0.113 0.17,0.326 0.244,0.321 0.434,-0.024 0.259,0.28 0.345,0.454 C 0.49,0.353 0.043,0.2 0,0"
             style="fill:#ffffff;fill-opacity:1;fill-rule:nonzero;stroke:none"
             id="path281" />
        </g>
        <g
           id="g283"
           transform="translate(86.75,43.1975)">
          <path
             d="m 0,0 c -0.147,-0.455 0.017,-0.921 0.465,-0.885 0.032,0.209 0.143,0.448 0.068,0.603 C 0.464,-0.142 0.19,-0.093 0,0"
             style="fill:#ffffff;fill-opacity:1;fill-rule:nonzero;stroke:none"
             id="path285" />
        </g>
        <g
           id="g287"
           transform="translate(61.4004,51.8415)">
          <path
             d="M 0,0 C 0.024,0.025 0.049,0.05 0.073,0.076 -0.026,0.278 -0.119,0.484 -0.228,0.682 -0.288,0.79 -0.376,0.966 -0.45,0.965 -0.562,0.964 -0.673,0.836 -0.784,0.761 L -0.652,0.719 C -0.577,0.572 -0.502,0.425 -0.427,0.278 -0.409,0.246 -0.391,0.213 -0.373,0.181 -0.249,0.121 -0.125,0.061 0,0"
             style="fill:#ffffff;fill-opacity:1;fill-rule:nonzero;stroke:none"
             id="path289" />
        </g>
        <g
           id="g291"
           transform="translate(68.2554,47.4328)">
          <path
             d="M 0,0 C 0.074,0.009 0.18,0.002 0.213,0.045 0.255,0.101 0.272,0.211 0.242,0.272 0.09,0.578 -0.287,0.653 -0.682,0.435 -0.452,0.289 -0.253,0.163 -0.056,0.036 -0.037,0.024 -0.017,-0.002 0,0"
             style="fill:#ffffff;fill-opacity:1;fill-rule:nonzero;stroke:none"
             id="path293" />
        </g>
        <g
           id="g295"
           transform="translate(68.7969,61.9919)">
          <path
             d="M 0,0 C -0.095,0.125 -0.318,0.163 -0.484,0.239 -0.505,0.207 -0.527,0.174 -0.548,0.141 -0.41,-0.113 -0.271,-0.368 -0.103,-0.676 0.142,-0.408 0.129,-0.171 0,0"
             style="fill:#ffffff;fill-opacity:1;fill-rule:nonzero;stroke:none"
             id="path297" />
        </g>
        <g
           id="g299"
           transform="translate(75.1973,49.5881)">
          <path
             d="M 0,0 C 0.393,0.111 0.492,0.417 0.294,0.84 0.006,0.715 -0.104,0.416 0,0"
             style="fill:#ffffff;fill-opacity:1;fill-rule:nonzero;stroke:none"
             id="path301" />
        </g>
        <g
           id="g303"
           transform="translate(71.5513,51.3235)">
          <path
             d="M 0,0 C 0.06,-0.023 0.206,0.153 0.312,0.238 0.205,0.347 0.097,0.456 -0.044,0.6 -0.198,0.474 -0.292,0.397 -0.386,0.32 -0.26,0.207 -0.15,0.059 0,0"
             style="fill:#ffffff;fill-opacity:1;fill-rule:nonzero;stroke:none"
             id="path305" />
        </g>
        <g
           id="g307"
           transform="translate(73.7603,46.7629)">
          <path
             d="M 0,0 C 0.025,0.058 0.007,0.186 -0.036,0.209 -0.229,0.318 -0.623,0.128 -0.695,-0.092 -0.333,-0.261 -0.106,-0.236 0,0"
             style="fill:#ffffff;fill-opacity:1;fill-rule:nonzero;stroke:none"
             id="path309" />
        </g>
        <g
           id="g311"
           transform="translate(85.123,50.2986)">
          <path
             d="M 0,0 C 0.002,0.097 0.043,0.213 0,0.285 -0.127,0.503 -0.288,0.704 -0.435,0.911 -0.456,0.901 -0.477,0.891 -0.499,0.88 -0.417,0.634 -0.351,0.382 -0.248,0.145 -0.218,0.076 -0.085,0.047 0,0"
             style="fill:#ffffff;fill-opacity:1;fill-rule:nonzero;stroke:none"
             id="path313" />
        </g>
        <g
           id="g315"
           transform="translate(70.5791,52.4299)">
          <path
             d="M 0,0 C 0.273,0.102 0.473,0.026 0.645,-0.237 0.687,-0.085 0.714,0.016 0.751,0.152 0.451,0.189 0.213,0.229 -0.026,0.24 -0.091,0.243 -0.16,0.159 -0.228,0.115 -0.15,0.074 -0.052,-0.02 0,0"
             style="fill:#ffffff;fill-opacity:1;fill-rule:nonzero;stroke:none"
             id="path317" />
        </g>
        <g
           id="g319"
           transform="translate(62.0352,51.7878)">
          <path
             d="M 0,0 C 0.032,-0.017 0.136,0.093 0.255,0.18 0.135,0.274 0.062,0.37 -0.027,0.385 -0.082,0.395 -0.161,0.282 -0.229,0.224 -0.154,0.146 -0.092,0.047 0,0"
             style="fill:#ffffff;fill-opacity:1;fill-rule:nonzero;stroke:none"
             id="path321" />
        </g>
        <g
           id="g323"
           transform="translate(73.6265,53.4279)">
          <path
             d="M 0,0 C 0.113,0.023 0.208,0.125 0.311,0.193 0.225,0.246 0.139,0.299 0.032,0.365 -0.067,0.298 -0.14,0.249 -0.213,0.199 -0.141,0.128 -0.054,-0.011 0,0"
             style="fill:#ffffff;fill-opacity:1;fill-rule:nonzero;stroke:none"
             id="path325" />
        </g>
        <g
           id="g327"
           transform="translate(70.0244,59.9206)">
          <path
             d="M 0,0 C -0.001,0.004 -0.002,0.01 -0.003,0.015 L -0.012,-0.006 C -0.008,-0.004 -0.004,-0.002 0,0"
             style="fill:#ffffff;fill-opacity:1;fill-rule:nonzero;stroke:none"
             id="path329" />
        </g>
        <g
           id="g331"
           transform="translate(70.2778,59.7278)">
          <path
             d="M 0,0 C 0.061,0.054 0.122,0.124 0.14,0.197 0.15,0.238 0.054,0.347 0.042,0.342 -0.061,0.303 -0.156,0.245 -0.253,0.193 -0.238,0.111 -0.222,0.03 -0.205,-0.062 -0.104,-0.034 -0.036,-0.033 0,0"
             style="fill:#ffffff;fill-opacity:1;fill-rule:nonzero;stroke:none"
             id="path333" />
        </g>
        <g
           id="g335"
           transform="translate(74.1367,49.3899)">
          <path
             d="m 0,0 c -0.37,-0.028 -0.471,-0.17 -0.417,-0.495 l 0.098,-0.046 c 0.1,0.17 0.2,0.34 0.319,0.541"
             style="fill:#ffffff;fill-opacity:1;fill-rule:nonzero;stroke:none"
             id="path337" />
        </g>
        <g
           id="g339"
           transform="translate(91.2007,45.1218)">
          <path
             d="M 0,0 C 0.047,-0.021 0.104,-0.072 0.138,-0.06 0.344,0.011 0.402,0.154 0.3,0.466 0.168,0.262 0.084,0.131 0,0"
             style="fill:#ffffff;fill-opacity:1;fill-rule:nonzero;stroke:none"
             id="path341" />
        </g>
        <g
           id="g343"
           transform="translate(85.3691,49.7966)">
          <path
             d="m 0,0 c 0.167,-0.173 0.333,-0.346 0.5,-0.519 0.035,0.031 0.068,0.062 0.103,0.094 -0.174,0.166 -0.348,0.333 -0.521,0.5 C 0.054,0.05 0.027,0.025 0,0"
             style="fill:#ffffff;fill-opacity:1;fill-rule:nonzero;stroke:none"
             id="path345" />
        </g>
        <g
           id="g347"
           transform="translate(86.8813,48.8415)">
          <path
             d="M 0,0 -0.333,0.198 C -0.369,0.148 -0.406,0.099 -0.443,0.049 -0.346,-0.014 -0.254,-0.088 -0.148,-0.132 -0.123,-0.142 -0.051,-0.046 0,0"
             style="fill:#ffffff;fill-opacity:1;fill-rule:nonzero;stroke:none"
             id="path349" />
        </g>
        <g
           id="g351"
           transform="translate(83.8237,52.0085)">
          <path
             d="M 0,0 C 0.039,-0.217 0.071,-0.4 0.109,-0.617 0.358,-0.348 0.335,-0.228 0,0"
             style="fill:#ffffff;fill-opacity:1;fill-rule:nonzero;stroke:none"
             id="path353" />
        </g>
        <g
           id="g355"
           transform="translate(107.2813,36.0329)">
          <path
             d="m 0,0 -7.496,-1.653 7.464,-6.023 z"
             style="fill:#a8133e;fill-opacity:1;fill-rule:nonzero;stroke:none"
             id="path357" />
        </g>
        <g
           id="g359"
           transform="translate(103.498,31.9358)">
          <path
             d="m 0,0 c -7.507,-10.799 -20,-17.867 -34.148,-17.867 -11.478,0 -21.864,4.651 -29.386,12.172 -7.522,7.523 -12.172,17.909 -12.173,29.386 10e-4,11.478 4.651,21.864 12.173,29.387 7.522,7.521 17.908,12.172 29.386,12.172 11.477,0 21.864,-4.651 29.386,-12.172 C 2.759,45.555 7.41,35.169 7.41,23.691 h 1 c 0,23.505 -19.054,42.559 -42.558,42.559 -23.505,0 -42.558,-19.054 -42.559,-42.559 10e-4,-23.504 19.054,-42.557 42.559,-42.558 14.486,0 27.285,7.24 34.969,18.296 z"
             style="fill:#a8133e;fill-opacity:1;fill-rule:nonzero;stroke:none"
             id="path361" />
        </g>
        <g
           id="g363"
           transform="translate(104.4136,55.1291)">
          <path
             d="M 0,0 H 7.46 V 1 H 0"
             style="fill:#a8133e;fill-opacity:1;fill-rule:nonzero;stroke:none"
             id="path365" />
        </g>
        <g
           id="g367"
           transform="translate(27.0918,55.1291)">
          <path
             d="M 0,0 H 7.658 V 1 H 0"
             style="fill:#a8133e;fill-opacity:1;fill-rule:nonzero;stroke:none"
             id="path369" />
        </g>
        <g
           id="g371"
           transform="translate(93.1245,34.1115)">
          <path
             d="M 0,0 V 36.925 H -9.794 V -7.346 C -6.065,-5.543 -2.744,-3.038 0,0"
             style="fill:#e8b3b7;fill-opacity:1;fill-rule:nonzero;stroke:none"
             id="path373" />
        </g>
        <g
           id="g375"
           transform="translate(71.5615,48.7629)">
          <path
             d="m 0,0 v -25.093 c 3.446,0.222 6.736,0.997 9.794,2.226 V 0 Z"
             style="fill:#e8b3b7;fill-opacity:1;fill-rule:nonzero;stroke:none"
             id="path377" />
        </g>
        <g
           id="g379"
           transform="translate(59.7925,40.6765)">
          <path
             d="m 0,0 v -15.565 c 3.09,-0.987 6.38,-1.517 9.794,-1.505 V 0 Z"
             style="fill:#e8b3b7;fill-opacity:1;fill-rule:nonzero;stroke:none"
             id="path381" />
        </g>
        <g
           id="g383"
           transform="translate(48.0239,36.0295)">
          <path
             d="M 0,0 V -4.106 C 2.843,-6.7 6.155,-8.784 9.794,-10.217 V 0 Z"
             style="fill:#e8b3b7;fill-opacity:1;fill-rule:nonzero;stroke:none"
             id="path385" />
        </g>
      </g>
    </g>
  </g>
</svg>
