<svg id="Layer_1" data-name="Layer 1" xmlns="http://www.w3.org/2000/svg" xmlns:xlink="http://www.w3.org/1999/xlink" viewBox="0 0 262.87 85.12"><defs><style>.cls-1{fill:#a8123e;}.cls-2{fill:url(#radial-gradient);}.cls-3{fill:#fff;}.cls-4{fill:#e7b2b5;}</style><radialGradient id="radial-gradient" cx="74.36" cy="45.5" r="21.23" gradientTransform="translate(60.92 -32.22) rotate(45)" gradientUnits="userSpaceOnUse"><stop offset="0" stop-color="#e3a7ab"/><stop offset="0.51" stop-color="#cd717b"/><stop offset="1" stop-color="#a8123e"/></radialGradient></defs><path class="cls-1" d="M150.64,55.43v7.33H127.55V32.07h23.09v7.08H136.79V43.6H148v6.82h-11.2v5Z" transform="translate(-26.79 -14.7)"/><path class="cls-1" d="M163.73,47.63v7.06h-11.4V47.63Z" transform="translate(-26.79 -14.7)"/><path class="cls-1" d="M193.54,45.56v17.2h-4.61a18.15,18.15,0,0,0-1.23-3.22c-1.91,2.46-4.72,3.69-8.46,3.69a12.65,12.65,0,0,1-9.75-4.15q-3.83-4.14-3.83-11.23a18.16,18.16,0,0,1,3.7-11.57q3.7-4.68,11-4.68a13.4,13.4,0,0,1,8.83,2.78,13.1,13.1,0,0,1,4.34,7.92l-9.13.9q-.67-4.79-4.2-4.79-4.64,0-4.63,8.81,0,5.34,1.48,7a4.62,4.62,0,0,0,3.6,1.7,4.31,4.31,0,0,0,2.91-1,3.62,3.62,0,0,0,1.23-2.83h-5.08V45.56Z" transform="translate(-26.79 -14.7)"/><path class="cls-1" d="M207,32.07V62.76H198.2V32.07Z" transform="translate(-26.79 -14.7)"/><path class="cls-1" d="M222.93,63.23a11.87,11.87,0,0,1-9-3.54,11.71,11.71,0,0,1-3.35-8.31,11.47,11.47,0,0,1,3.5-8.54,13.84,13.84,0,0,1,18.16-.05,11.37,11.37,0,0,1,3.43,8.46,11.49,11.49,0,0,1-3.47,8.55A12.55,12.55,0,0,1,222.93,63.23Zm.14-5.44a2.41,2.41,0,0,0,2.55-2.17,22.3,22.3,0,0,0,.46-4.53,12,12,0,0,0-.65-4.63,2.56,2.56,0,0,0-4.61,0,11.72,11.72,0,0,0-.72,4.82c0,2.62.24,4.35.74,5.2A2.41,2.41,0,0,0,223.07,57.79Z" transform="translate(-26.79 -14.7)"/><path class="cls-1" d="M244.22,62.76h-5.06V32.07H248V42.61a6.3,6.3,0,0,1,5.87-3.19,7.78,7.78,0,0,1,4.81,1.49,8.74,8.74,0,0,1,2.95,4.23,17.5,17.5,0,0,1,1,5.79,14.77,14.77,0,0,1-2.47,8.92q-2.47,3.38-7.38,3.38a8.38,8.38,0,0,1-7.35-3.62A13.8,13.8,0,0,0,244.22,62.76ZM248,54.24c0,2.25.87,3.37,2.61,3.37a2.41,2.41,0,0,0,2.17-1.22c.5-.82.75-2.5.75-5q0-4.17-.85-5.23A2.63,2.63,0,0,0,250.56,45a2.47,2.47,0,0,0-1.77.77A2.94,2.94,0,0,0,248,48Z" transform="translate(-26.79 -14.7)"/><path class="cls-1" d="M281.28,54.55l8.36.57a9.86,9.86,0,0,1-3.79,5.74q-3,2.37-8.24,2.37a12.67,12.67,0,0,1-9.22-3.34A11.07,11.07,0,0,1,265,51.61a12.75,12.75,0,0,1,21.33-8.86q3.39,3.33,3.38,9.06c0,.31,0,.75,0,1.3H274.33a6,6,0,0,0,.76,3.21,3.72,3.72,0,0,0,6.19-1.77Zm-.61-5.93c0-1.55-.33-2.58-.93-3.12a3.31,3.31,0,0,0-2.25-.8q-3.18,0-3.18,3.92Z" transform="translate(-26.79 -14.7)"/><path class="cls-1" d="M149.14,81.31a25.46,25.46,0,0,1-1,2.88,18.69,18.69,0,0,1-3.5.46c-4.56,0-6.89-3.15-6.89-6.38,0-4.08,3-6.58,7.33-6.58a20.48,20.48,0,0,1,3.51.44c.08.86.21,2,.37,3l-.59.13a3.44,3.44,0,0,0-1.86-2.52,4.69,4.69,0,0,0-1.9-.32c-3.21,0-4.87,2.55-4.87,5.47,0,3.69,2.12,6,5,6,1.94,0,2.88-.89,3.85-2.8Z" transform="translate(-26.79 -14.7)"/><path class="cls-1" d="M155.09,75.76A4.1,4.1,0,0,1,159.25,80a4.28,4.28,0,0,1-4.16,4.56,4.2,4.2,0,0,1-4.24-4.25A4.38,4.38,0,0,1,155.09,75.76Zm-.23.64c-1.16,0-2.21,1.13-2.21,3.34,0,2.43,1.07,4.18,2.63,4.18,1.18,0,2.18-.85,2.18-3.47C157.46,78.22,156.54,76.4,154.86,76.4Z" transform="translate(-26.79 -14.7)"/><path class="cls-1" d="M166,84.36v-.53c1.1-.12,1.22-.25,1.22-1.55V79.13c0-1.33-.48-2.23-1.74-2.23a3.36,3.36,0,0,0-2.12,1v4.47c0,1.32.12,1.35,1.24,1.47v.53h-4.12v-.53c1.26-.13,1.37-.21,1.37-1.47V78.43c0-1.24-.13-1.3-1.16-1.47v-.5a10.85,10.85,0,0,0,2.67-.76v1.51c.38-.27.8-.56,1.3-.88a2.86,2.86,0,0,1,1.58-.57c1.53,0,2.48,1.12,2.48,3v3.63c0,1.3.12,1.35,1.23,1.47v.53Z" transform="translate(-26.79 -14.7)"/><path class="cls-1" d="M175.93,78.26c-.34-1.11-.88-1.87-2-1.87a1.18,1.18,0,0,0-1.22,1.24c0,.84.63,1.24,1.66,1.69,1.56.69,2.46,1.3,2.46,2.62,0,1.76-1.6,2.65-3.11,2.65a5,5,0,0,1-2.27-.55c-.1-.55-.27-1.64-.35-2.27l.56-.1c.34,1.22,1,2.27,2.34,2.27a1.3,1.3,0,0,0,1.38-1.29c0-.86-.52-1.32-1.57-1.78-1.24-.57-2.46-1.2-2.46-2.65s1.22-2.46,3-2.46a11.21,11.21,0,0,1,1.87.24c.05.46.19,1.66.28,2.12Z" transform="translate(-26.79 -14.7)"/><path class="cls-1" d="M187.13,83.92a24.77,24.77,0,0,0-2.92.67V83.12a4.7,4.7,0,0,1-2.92,1.47c-1.28,0-2.38-.78-2.38-2.86V78c0-1-.16-1.15-.63-1.24l-.54-.1v-.5a22.85,22.85,0,0,0,2.73-.34c-.05.61-.05,1.53-.05,2.79v2.59c0,1.68.87,2.16,1.73,2.16a3,3,0,0,0,2.06-.92V78c0-1-.23-1.17-.87-1.26l-.62-.08v-.5a24.64,24.64,0,0,0,3-.34v6.39c0,1,.15,1.09.88,1.13l.53,0Z" transform="translate(-26.79 -14.7)"/><path class="cls-1" d="M187.8,84.36v-.53c1.22-.12,1.37-.21,1.37-1.47V73.22c0-1.17-.09-1.28-1.31-1.43v-.5a13.75,13.75,0,0,0,2.82-.65V82.36c0,1.26.12,1.35,1.36,1.47v.53Z" transform="translate(-26.79 -14.7)"/><path class="cls-1" d="M196.69,84.34a1.81,1.81,0,0,1-.82.25c-1.22,0-1.87-.74-1.87-2.27V76.77h-1.31l-.08-.23.52-.56H194v-1.6c.37-.38.92-.88,1.28-1.26l.29,0c0,.8-.06,1.91-.06,2.82h2.18a.61.61,0,0,1-.12.79h-2.06v4.88c0,1.55.61,1.84,1.11,1.84a2.72,2.72,0,0,0,1.16-.31l.17.5Z" transform="translate(-26.79 -14.7)"/><path class="cls-1" d="M198.74,84.36v-.53c1.2-.12,1.33-.21,1.33-1.51V78.39c0-1.18-.06-1.26-1.2-1.45v-.46a12.63,12.63,0,0,0,2.71-.76v6.6c0,1.3.13,1.39,1.37,1.51v.53Zm2-10.51a1,1,0,0,1-1-1,1,1,0,0,1,1-1,1,1,0,0,1,1,1A1,1,0,0,1,200.72,73.85Z" transform="translate(-26.79 -14.7)"/><path class="cls-1" d="M209.41,84.36v-.53c1.1-.12,1.22-.25,1.22-1.55V79.13c0-1.33-.48-2.23-1.74-2.23a3.36,3.36,0,0,0-2.12,1v4.47c0,1.32.12,1.35,1.24,1.47v.53h-4.12v-.53c1.26-.13,1.37-.21,1.37-1.47V78.43c0-1.24-.13-1.3-1.16-1.47v-.5a10.85,10.85,0,0,0,2.67-.76v1.51c.38-.27.8-.56,1.3-.88a2.86,2.86,0,0,1,1.58-.57c1.53,0,2.48,1.12,2.48,3v3.63c0,1.3.12,1.35,1.23,1.47v.53Z" transform="translate(-26.79 -14.7)"/><path class="cls-1" d="M217,81.58a1.38,1.38,0,0,0-.63,1c0,.34.33.73,1.18.73l2.14,0c1.22,0,2.79.4,2.79,2.29s-2.35,3.85-4.89,3.85c-2.15,0-3.32-1.26-3.36-2.38a1.52,1.52,0,0,1,.48-1.09,17.11,17.11,0,0,1,1.57-1.37,2.52,2.52,0,0,1-1.44-1,1.71,1.71,0,0,1-.22-.82,4,4,0,0,0,1.75-1.31Zm.92.19a3,3,0,0,1-3.25-2.88,3.29,3.29,0,0,1,3.44-3.19,3.85,3.85,0,0,1,1.83.48,13.13,13.13,0,0,0,2.56-.29l.11.17a2.33,2.33,0,0,1-.7,1c-.29,0-.92-.07-1.19-.09a2.91,2.91,0,0,1,.56,1.73A3.1,3.1,0,0,1,217.92,81.77Zm.44,2.82a2.44,2.44,0,0,0-1.7.4,2.19,2.19,0,0,0-.92,1.57c0,1,1.09,1.83,2.56,1.83,1.81,0,2.84-.93,2.84-2.16a1.43,1.43,0,0,0-.84-1.39A5.07,5.07,0,0,0,218.36,84.59Zm-.44-8.28c-.86,0-1.63.78-1.63,2.29s.77,2.56,1.82,2.56c.84,0,1.58-.75,1.58-2.29S219,76.31,217.92,76.31Z" transform="translate(-26.79 -14.7)"/><path class="cls-1" d="M240.4,79.15c-1.18.16-1.26.27-1.26,1.4v1.6a11,11,0,0,0,.11,1.81,18.68,18.68,0,0,1-4.27.69c-4.26,0-7-2.69-7-6.53,0-4.14,3.28-6.43,7.1-6.43a23.65,23.65,0,0,1,4,.48c0,.7.13,1.89.28,3.09l-.57.11c-.46-1.62-1-2.36-2.23-2.76a5.51,5.51,0,0,0-1.72-.21c-2.92,0-4.85,1.89-4.85,5.49,0,3.06,1.55,6,5.29,6a3.84,3.84,0,0,0,1.62-.3c.4-.23.63-.48.63-1.26V80.83c0-1.39-.15-1.54-2-1.68V78.6h4.91Z" transform="translate(-26.79 -14.7)"/><path class="cls-1" d="M246.12,84.36h-4.39v-.53c1.21-.12,1.32-.21,1.32-1.45v-4c0-1.26-.08-1.32-1.18-1.45v-.48a10.57,10.57,0,0,0,2.69-.78v2.1c.67-1,1.47-2,2.42-2,.71,0,1.11.43,1.11.91a1.29,1.29,0,0,1-.65,1,.37.37,0,0,1-.5,0,1.19,1.19,0,0,0-.85-.47c-.41,0-1.11.59-1.53,1.56v3.59c0,1.26.09,1.35,1.56,1.47Z" transform="translate(-26.79 -14.7)"/><path class="cls-1" d="M253,75.76A4.11,4.11,0,0,1,257.16,80,4.28,4.28,0,0,1,253,84.59a4.19,4.19,0,0,1-4.23-4.25A4.37,4.37,0,0,1,253,75.76Zm-.22.64c-1.17,0-2.22,1.13-2.22,3.34,0,2.43,1.07,4.18,2.64,4.18,1.18,0,2.17-.85,2.17-3.47C255.36,78.22,254.45,76.4,252.77,76.4Z" transform="translate(-26.79 -14.7)"/><path class="cls-1" d="M267.84,83.92a24.77,24.77,0,0,0-2.92.67V83.12A4.7,4.7,0,0,1,262,84.59c-1.28,0-2.38-.78-2.38-2.86V78c0-1-.16-1.15-.63-1.24l-.54-.1v-.5a22.85,22.85,0,0,0,2.73-.34c-.06.61-.06,1.53-.06,2.79v2.59c0,1.68.88,2.16,1.74,2.16a3,3,0,0,0,2.06-.92V78c0-1-.23-1.17-.88-1.26l-.61-.08v-.5a24.64,24.64,0,0,0,3-.34v6.39c0,1,.15,1.09.88,1.13l.53,0Z" transform="translate(-26.79 -14.7)"/><path class="cls-1" d="M268.62,76.39a12.37,12.37,0,0,0,2.77-.83v1.53l1.66-1a2.67,2.67,0,0,1,1.11-.38,3.44,3.44,0,0,1,3.38,3.64c0,2.9-2.29,4.73-4.79,5.19a3.23,3.23,0,0,1-1.36-.34v2.58c0,1.41.15,1.52,1.62,1.66V89h-4.52v-.53c1.24-.14,1.39-.23,1.39-1.51V78.29c0-1.14,0-1.22-1.26-1.39Zm2.77,6.52a2.79,2.79,0,0,0,1.82.75c1.66,0,2.72-1.4,2.72-3.53s-1.2-3.23-2.55-3.23a3.86,3.86,0,0,0-2,.82Z" transform="translate(-26.79 -14.7)"/><circle class="cls-2" cx="69.35" cy="57.43" r="31.86" transform="translate(-47.09 51.15) rotate(-45)"/><path class="cls-3" d="M65.37,56.8c.1,0,.27-.09.29-.17a1.39,1.39,0,0,0,0-.45l-.19,0a2.81,2.81,0,0,0-.33.44S65.28,56.79,65.37,56.8Z" transform="translate(-26.79 -14.7)"/><path class="cls-3" d="M51.58,33.06a2.43,2.43,0,0,0,.4-.45s0-.12,0-.16a5.46,5.46,0,0,0-.56.36c-.07.06-.08.19-.12.29S51.52,33.11,51.58,33.06Z" transform="translate(-26.79 -14.7)"/><path class="cls-3" d="M45.34,35.77q-.69.79-1.32,1.62l1.34-1.59Z" transform="translate(-26.79 -14.7)"/><path class="cls-3" d="M48,35.85c.35-.48.68-1,1-1.48s.5-.72.75-1.09a1.84,1.84,0,0,1,1-.8A1.79,1.79,0,0,0,51.3,32a.12.12,0,0,0,0-.14.22.22,0,0,0-.17,0,9.55,9.55,0,0,0-1.57,1c-.79.72-1.16,1.78-2,2.46-.07,0-.1.12-.15.18-.26.23-.21.51-.19.81C47.7,36.2,47.71,36.21,48,35.85Z" transform="translate(-26.79 -14.7)"/><path class="cls-3" d="M49.21,32.13l.78-.58-.23.05-.63.51Z" transform="translate(-26.79 -14.7)"/><path class="cls-3" d="M47.22,34c.27-.11.52-.14.63-.27.36-.43.68-.89,1-1.34,0,0,0-.05,0-.09-.54.45-1.05.92-1.56,1.4Z" transform="translate(-26.79 -14.7)"/><path class="cls-3" d="M42.33,39.94c-1.41,2.79-1.88,5.81-2.45,8.8a5.74,5.74,0,0,0,.74-.42c.32-.22.63-.43.94-.66a2.1,2.1,0,0,0,.26-.33,1.3,1.3,0,0,1,.25-.35,4.39,4.39,0,0,0,.83-.57,3.56,3.56,0,0,0,.91-1.17.51.51,0,0,1,.1-.21c.24-.28.49-.55.72-.83a.88.88,0,0,0,0-1,1,1,0,0,1,0-1,2,2,0,0,1,.14-.34,5.21,5.21,0,0,0-.7.71.45.45,0,0,1-.59.08.59.59,0,0,1-.12-.54c.11-.45.29-.89.44-1.33a9.69,9.69,0,0,1,.38-1.07,2.07,2.07,0,0,1,.4-.44l.15.06a2.46,2.46,0,0,1-.1.47,2,2,0,0,0-.16,1.25c0,.11.08.28.15.29s.24-.07.36-.12l.26-.13a3.67,3.67,0,0,1-.16.54.37.37,0,0,0,.2.53,1.66,1.66,0,0,0,1,.26,5.07,5.07,0,0,1,.87,0c.07.45.14.85.2,1.25,0,.24.13.41.45.35v.09l-.51.28c.06.28.13.59.2.88.55,0,.61-.46.83-.74a3,3,0,0,1-.13.92,8.55,8.55,0,0,0-.42,3A11.12,11.12,0,0,0,47.86,50c0,.57.15,1.14.23,1.71,0,.41.1.83.18,1.24,0,.09.15.16.23.25a2.84,2.84,0,0,0,.24-.26,4,4,0,0,1,.58-.91.83.83,0,0,0,.24-.61,1,1,0,0,1,.06-.39A3.9,3.9,0,0,0,50,49.22c0-.52.44-.69.78-.94a2.5,2.5,0,0,0,.29-.27c.06-.07.09-.16.15-.22l1.26-1.28c.06-.06.13-.14.2-.15a.78.78,0,0,0,.68-.69.59.59,0,0,1,.61-.42c.48.06.95.06,1.24-.42a.88.88,0,0,1,.2-.08c0,.19.07.36.1.53a4.56,4.56,0,0,0,.2.92c.1.25.41.43.25.76,0,0,0,.07,0,.09a1.21,1.21,0,0,1,.09,1.29c-.2.5-.15.58.41.67l.84-.8c0,.41.1.8.15,1.19a9.43,9.43,0,0,1,.17,1.17c0,.37-.19.8,0,1.1s-.14.72-.08,1.1a3.4,3.4,0,0,1-.17,1.16h.08l.12-.14a4.47,4.47,0,0,1,.87,2.33,2.24,2.24,0,0,0,.93,1.69.88.88,0,0,1,.37.77,5.76,5.76,0,0,0-.4-.43,2.08,2.08,0,0,0-.61-.47,1.07,1.07,0,0,1-.62-.54c-.12-.18-.3-.33-.44-.51a4.31,4.31,0,0,1-.39-.56c-.13-.22-.22-.43-.54-.46a2.24,2.24,0,0,1-.55-.19c-.06,0-.16-.07-.19,0s-.11.14-.09.19a1.38,1.38,0,0,0,.19.43c.19.27.43.51.61.78s.31.73.67,1c.11.08.14.27.19.41a6.85,6.85,0,0,0,.26.68c.22.45.47.88.7,1.33a3.6,3.6,0,0,0,.32.69c.46.58,1,1.15,1.46,1.72a.25.25,0,0,0,.11,0H61V60.87l-.06-.1c-.06-.07-.1-.17-.18-.19-.34-.1-.39-.36-.48-.63a.51.51,0,0,0-.26-.26c-.16-.08-.26-.15-.19-.33s.15-.47,0-.62c.19-.08.46-.13.52-.26a.61.61,0,0,0-.09-.57,1.43,1.43,0,0,1-.46-1.36c.14-.85-.54-1.26-1-1.83-.46-.06-.42-.42-.49-.72s-.07-.67-.25-.76c-.37-.2-.27-.46-.22-.68.14-.62.32-1.24.51-1.85a.28.28,0,0,1,.23-.14s.13.12.15.2a1.31,1.31,0,0,1,0,.28,1.07,1.07,0,0,1,1,1c0,.08.11.15.17.22l.09-.05a1.36,1.36,0,0,1,0,.21c.51.17.59.29.55.78a4.34,4.34,0,0,0,0,.51l.14,0c.2-.45.89-.51.86-1.11.55-.18,1.1-.37,1.22-.92A3.18,3.18,0,0,0,62,48.61a3,3,0,0,1-.55-1,1,1,0,0,1-.11-.64,1.84,1.84,0,0,1,.43-.65c.42-.46.83-.9,1.48-.51a.52.52,0,0,0,.22.7c0-.09.07-.14.06-.19-.06-.34.12-.5.46-.57a2,2,0,0,0,.65-.21,1.85,1.85,0,0,0,.39-.4l.06,0,.13.13c.26-.08.48-.13.68-.2a2.27,2.27,0,0,0,.54-.27c.26-.23.48-.5.72-.74s.66-.52.63-1c0-.07.06-.14.09-.21.16-.53.59-.93.74-1.47s.06-.61-.49-.7a1.64,1.64,0,0,1,.23-.16c.41-.17.27-.51.16-.72-.29-.56-.65-1.09-1-1.68A3.1,3.1,0,0,1,68.73,37c-.4,0-.79-.41-1.12,0,0,0-.22-.1-.22-.14,0-.21-.07-.29-.29-.32s-.18-.17-.27-.25a2.69,2.69,0,0,1,.28-.22,3.21,3.21,0,0,0,.31-.19c.21-.19.39-.4.61-.58a.31.31,0,0,1,.27,0,.24.24,0,0,1,.13.2c-.06.23-.14.46-.25.77a3.1,3.1,0,0,1,.65-.44,1.49,1.49,0,0,1,.72.06s0,.29,0,.44,0,.36.31.37.4.19.29.46a.36.36,0,0,0,0,.18c0,.27.07.53.11.8,0,.11,0,.22,0,.37.34-.16.63-.27.9-.43a.49.49,0,0,0,.2-.35,2.62,2.62,0,0,0-.8-1.57c-.28-.26-.27-.29,0-.56a1.25,1.25,0,0,0,.37-.52c0-.2.31-.77.5-.84a.22.22,0,0,1,.16,0c.2.08.39.21.58,0a1.75,1.75,0,0,0,.39-.48c.19-.5.29-1,.5-1.51a1,1,0,0,0-.08-.94,3.52,3.52,0,0,1-.15-.66l.14,0a9.09,9.09,0,0,1,1.13,2.16l.3-.16c-.59-.6-.65-.78-.4-1.13L73,30.11l-.09,0,.08.49c-.64-.73-.9-.81-1.2-.48l-.68-.39c.21-.38.41-.78.65-1.16a.57.57,0,0,1,.37-.18,8.8,8.8,0,0,1,1-.1,1.35,1.35,0,0,1,.34.06l.41.07c0-.24-.06-.44-.09-.63h.77l-.09-.35c.28.21.48.34.5.66s-.09.87.26,1.22.7.68,1.05,1l.53.49.11-.06c-.12-.39-.23-.77-.34-1.16l.09,0c-.1-.11-.29-.22-.29-.32,0-.35-.31-.47-.48-.52-.33-.12-.42-.35-.62-.63l.81-.21.16-.56c-.18-.08-.41-.15-.63-.26-.06,0-.09-.13-.13-.2s.16-.09.23-.08a2.13,2.13,0,0,1,.42.1l0-.09a5.25,5.25,0,0,0-.55-.22c-.27-.07-.55-.09-.82-.15a7.39,7.39,0,0,0-2.61-.13,1.07,1.07,0,0,1-.3-.06c-.57-.09-1.13-.22-1.71-.26a8.45,8.45,0,0,0-1.33.05c-.14,0-.29.11-.41.08a3.83,3.83,0,0,0-1.85-.27c.15-.34,0-.34-.27-.32a1.4,1.4,0,0,1-.35,0c-.54-.08-1,.39-1.58.18-.05,0-.14.06-.21.09A1,1,0,0,1,64,26c-.53.07-1.07.12-1.6.2a3.06,3.06,0,0,0-.51.21.54.54,0,0,0,0-.15.35.35,0,0,0-.07-.11c-.71.36-1.5.15-2.2.43l0-.11,0,0a31.65,31.65,0,0,0-9.81,5.2l.23-.05-.78.58-.08,0-.28.22s0,.07,0,.09c-.32.45-.64.91-1,1.34-.11.13-.36.16-.63.27l.07-.3q-1,1-1.95,2l0,0L44,37.39q-.93,1.22-1.74,2.52ZM52,32.45s0,.12,0,.16a2.43,2.43,0,0,1-.4.45c-.06,0-.2,0-.3,0s0-.23.12-.29A5.46,5.46,0,0,1,52,32.45Zm-4.58,3c0-.06.08-.14.15-.18.87-.68,1.24-1.74,2-2.46a9.55,9.55,0,0,1,1.57-1,.22.22,0,0,1,.17,0,.12.12,0,0,1,0,.14,1.79,1.79,0,0,1-.57.47,1.84,1.84,0,0,0-1,.8c-.25.37-.51.73-.75,1.09s-.67,1-1,1.48-.27.35-.78.39C47.17,35.94,47.12,35.66,47.38,35.43Z" transform="translate(-26.79 -14.7)"/><path class="cls-3" d="M41.64,69.26c-.07-.15-.11-.24-.16-.33-.32-.61-.68-1.21-.95-1.84a9.07,9.07,0,0,1-.4-1.53c-.09-.36-.11-.72-.2-1.07-.31-1.14-.66-2.26-1-3.39a8.42,8.42,0,0,1-.15-4.56c.18-.65.47-1.26.69-1.9q.6-1.77,1.17-3.54c.15-.47.25-1,.37-1.4l-1.48.48c.06-.44.1-.78.15-1.11a1.27,1.27,0,0,0,0-.26,10.83,10.83,0,0,1,.74-5c.1-.29.21-.59.32-.88.26-.63.52-1.27.79-1.91a31.76,31.76,0,0,0-4.11,14.34,32.68,32.68,0,0,0,.28,3.4C38.18,61.78,40.38,68,41.64,69.26Z" transform="translate(-26.79 -14.7)"/><path class="cls-3" d="M81.62,73.48a1.69,1.69,0,0,0-.12-1.29,3.77,3.77,0,0,1-.23-.64l.1-.06L81,71.35c0-.17,0-.33,0-.49a1.07,1.07,0,0,0-.09-.49,4.87,4.87,0,0,0-.56-.43.52.52,0,0,1-.18-.31c0-.28,0-.56,0-.85S80,68.24,80,68c0-.45-.13-.59-.56-.65-.09-.65-.18-1.31-.28-2H79a.7.7,0,0,0-.16.19,9.46,9.46,0,0,0-.59,2,6.89,6.89,0,0,1-.48,1.5c-.12.28-.36.27-.6.09s-.72-.51-1.06-.78-.52-.34-.52-.53A1.76,1.76,0,0,1,76,67a4.43,4.43,0,0,1,.47-.6l-.06-.12-.7,0c-.09,0-.18.06-.26,0a2.08,2.08,0,0,1-1.05-.44c0-.07-.25,0-.37,0,.1.2.16.34.22.47a4,4,0,0,0-.5.1.7.7,0,0,0-.39.17,4.59,4.59,0,0,0-.51.76,3.83,3.83,0,0,0-.22.63c-.22-.06-.55,0-.74-.33-.07-.14-.24-.37-.52-.15s-.41.13-.55.26-.54.42-.58.67-.14.39-.43.38v.43h-.07l-.23-.38c-.16.21-.39.37-.4.55a1.93,1.93,0,0,1-.26.74,1.1,1.1,0,0,1-.82.6c-.52.14-1,.25-1.56.37l-.16.07-.91.69-.16-.18a2.22,2.22,0,0,0,.23,2.08h-.1l-.27-.28c0,.21,0,.35,0,.46.16.35.36.68.53,1a3.56,3.56,0,0,1,.19.49c.07.19.13.39.21.58.14.35.24.68-.07,1a.26.26,0,0,0,0,.25,1.13,1.13,0,0,0,1.31.18,2.78,2.78,0,0,1,1.7-.3.63.63,0,0,0,.42-.16,2.05,2.05,0,0,1,1.23-.53,1.62,1.62,0,0,0,.54-.11,3,3,0,0,1,2.11,0,.15.15,0,0,1,.1.09c.1.25.18.5.28.75,0,.06,0,.14.09.16a.25.25,0,0,0,.17-.06l.81-.59,0,0-.51.69,0,0,.54-.33-.18.44c.35,0,.37.18.32.43a.36.36,0,0,0,.34.49c.4,0,.82.23,1.18-.21.18.34.35.31.6.17s.6-.22.88-.36a1.54,1.54,0,0,0,.49-.34c.22-.22.4-.49.62-.71a18.88,18.88,0,0,0,1.41-1.42A5.48,5.48,0,0,0,81.62,73.48Z" transform="translate(-26.79 -14.7)"/><path class="cls-3" d="M75.4,60.3c0-.46,0-.77-.53-.87-.06,0-.1-.07-.15-.08a.48.48,0,0,0-.29,0c-.3.11-.6.26-.92.4a.51.51,0,0,0,.43.37c.08,0,.2.08.21.14.08.36.36.32.63.3l.27,0v0l-.84.26c.11.27.46.37.33.69,0,0,.1.13.17.15s.12-.06.18-.1a.51.51,0,0,0,.09-.12c.41.17.77.35,1.15.47a1.51,1.51,0,0,1,1.22,1.21.31.31,0,0,1-.16.41.5.5,0,0,0-.27.65l.62-.15c.19-.05.4-.16.52.08a1,1,0,0,0,1,.43.61.61,0,0,0,.61-.44c.07-.27.17-.5.47-.55a.94.94,0,0,1,.79.5c.23.46.45.9,1.11.88.12,0,.25.09.38.11a.39.39,0,0,0,.24-.06.26.26,0,0,0,0-.2c-.12-.15-.33-.26-.37-.43s-.24-.17-.32-.27a8.42,8.42,0,0,1-.56-.9c-.06-.11-.12-.26.12-.29.08,0,.22-.11.21-.16a.46.46,0,0,0-.15-.3,2,2,0,0,0-.47-.22c-.32-.12-.33-.32-.2-.54l-.28-.17a7.19,7.19,0,0,0-.83-.52c-.81-.35-1.62-.68-2.44-1a.55.55,0,0,0-.47.06,9.82,9.82,0,0,0-.77.81,3.46,3.46,0,0,0-.22.31l-.12,0C75.63,60.86,75.37,60.57,75.4,60.3Z" transform="translate(-26.79 -14.7)"/><path class="cls-3" d="M63,60s.06.09.07.14a3.57,3.57,0,0,1,.06.65.31.31,0,0,0,.41.32c.3-.07.42,0,.48.25.31.08.53-.22.86,0s.58.12.54.49l.84-.25a4.17,4.17,0,0,0,.16-1,.65.65,0,0,1,.27-.6.55.55,0,0,0,.25-.59c-.07-.38.09-.53.49-.6a1,1,0,0,0,.27-.14c-.23-.32-.68-.48-.55-1,0,0,0,0,0-.06-.29-.6-.23-.83.35-1.15,0-.09-.1-.18-.12-.23l.48-.27c0-.06,0-.08,0-.08l-.47-.34c-.15-.1-.28-.16-.33-.37s-.43-.41-.55-.24c-.25.36-.47.73-.7,1.1-.53-.12-.55-.07-.75.43-.14.35-.27.79-.77.86a.6.6,0,0,0-.6.63,1,1,0,0,1-.12.26l-.72-.3a3.54,3.54,0,0,0-.19.33,2,2,0,0,0,.1,1.36C62.72,59.73,62.72,60,63,60Zm2.46-3.81.19,0a1.39,1.39,0,0,1,0,.45c0,.08-.19.17-.29.17s-.27-.18-.26-.21A2.81,2.81,0,0,1,65.44,56.15Z" transform="translate(-26.79 -14.7)"/><path class="cls-3" d="M67.53,60.91c0,.14,0,.46.08.48.27.09.26.27.26.44s-.07.38-.06.56.1.32.17.33.39,0,.38-.3,0-.78,0-1.17a1.32,1.32,0,0,1,.12-.35l.14,0a2.51,2.51,0,0,0,0,.27,1.63,1.63,0,0,0,.08.37,3.3,3.3,0,0,0,.19.43c0,.07.08.17.15.19s.14-.06.21-.09l.2-.12c-.24.31-.22.49.12.73.44-.27,0-.69.2-.95-.14-.13-.31-.21-.36-.34-.13-.32-.2-.66-.31-1l.4-.34.3-.25a1.56,1.56,0,0,1,.2-.16c-.1,0-.21-.13-.29-.11-.37.12-.73.26-1.13.4a1.69,1.69,0,0,1-.23-.26c-.17-.24-.09-.72.12-.72a3.57,3.57,0,0,1,1.31.07c.51.17,1-.2,1-1-.13.09-.23.12-.26.18a.7.7,0,0,1-.8.34c-.28,0-.55-.12-.83-.18-.08,0-.2-.09-.23-.06-.23.22-.61.33-.65.71A6.89,6.89,0,0,1,67.53,60.91Z" transform="translate(-26.79 -14.7)"/><path class="cls-3" d="M72,39.44a3.19,3.19,0,0,0,0,.54c0,.09.13.21.2.21s.2-.09.25-.17a1.24,1.24,0,0,0-.36-1.29c.55,0,.93-.53,1.51-.39,0,.29,0,.51.41.56l.19-.62.82-.08.17-.34.14.22h.09a1.8,1.8,0,0,0,.06-.45c0-.35-.15-.7-.22-1.05a.3.3,0,0,1,0-.16,1.09,1.09,0,0,0-.44-1.26.31.31,0,0,0-.27-.06.28.28,0,0,0-.11.25,1.66,1.66,0,0,0,.14.37,1.07,1.07,0,0,1-.59,1.43c0-.09,0-.18,0-.31-.07.07-.12.1-.12.13,0,.24-.07.49-.12.72a.29.29,0,0,1-.21.13c-.29,0-.68-.06-.86.09a7.72,7.72,0,0,0-1.07,1.14s0,.12,0,.15Z" transform="translate(-26.79 -14.7)"/><path class="cls-3" d="M65.54,64.42c.13.16.3.17.49-.16l-1.51-.52.57-.24,0-.12a4.38,4.38,0,0,1-.81,0,5.37,5.37,0,0,1-.81-.26c-.07.33-.33.21-.55.23-.46,0-.67-.37-1-.5-.53-.18-.79-.13-1,.39.15.07.36.1.41.19.22.4.67.41,1,.45a4,4,0,0,1,1,.24,4.09,4.09,0,0,0,.71.17,3.46,3.46,0,0,1,1.23.21S65.4,64.46,65.54,64.42Z" transform="translate(-26.79 -14.7)"/><path class="cls-3" d="M77.9,27.05a3.47,3.47,0,0,0,1.45.77c.35.07.69.14,1,.24a2.66,2.66,0,0,1,.82.29,6.1,6.1,0,0,1,.83.85c-.09-.18-.13-.39-.26-.49-.41-.3-.85-.56-1.28-.84a.7.7,0,0,1-.16-.13c-.14-.16-.24-.41-.42-.48-.62-.28-1.26-.5-1.9-.72A6.93,6.93,0,0,0,74.83,26a3.77,3.77,0,0,0,1.86.61l-.24.16a4.91,4.91,0,0,0,.84.14A1.45,1.45,0,0,1,77.9,27.05Z" transform="translate(-26.79 -14.7)"/><path class="cls-3" d="M42.2,67.82c-.23-.67-.41-1.36-.61-2s-.39-1.32-.59-2l-.1,0c0,.35.08.7.09,1a2.9,2.9,0,0,1-.12.57.67.67,0,0,0,0,.34c.15.44.33.87.49,1.3a11.59,11.59,0,0,0,1.19,2.61c.15.22.32.44.48.66l.13-.07a2,2,0,0,0-.08-.26C42.77,69.29,42.46,68.56,42.2,67.82Z" transform="translate(-26.79 -14.7)"/><path class="cls-3" d="M68.44,50.08c0,.14-.07.31,0,.41a.3.3,0,0,0,.48,0s.15,0,.23.06l-.15.23h.43l0-.23.11.07a.29.29,0,0,1,.09.41l.39.11,0,.08c-.29,0-.38.12-.3.35l.47.18L70,51.43h.08a2.4,2.4,0,0,0,0-.46A.91.91,0,0,0,70,50.5a1.11,1.11,0,0,0-.5-.27,1.57,1.57,0,0,0-.42,0A.89.89,0,0,1,69.11,49a.92.92,0,0,0,.16-.56,3.94,3.94,0,0,0-.19-.79.81.81,0,0,1-.3,0c-.39-.15-.51-.1-.54.29a9.68,9.68,0,0,0,0,1.08L68,49C67.9,49.63,68.14,50.13,68.44,50.08Z" transform="translate(-26.79 -14.7)"/><path class="cls-3" d="M70.83,53.39l-.66.58c-.26-.29-.28-.28-.57,0a1.32,1.32,0,0,1-.25.16.61.61,0,0,0-.13.77l.24-.4,0,.09.62-.16a1.34,1.34,0,0,1,0,.36.61.61,0,0,0,.3.69,5.21,5.21,0,0,0,.55.24,2.06,2.06,0,0,0,.07-.46c0-.14-.21-.28,0-.42l.15.34c.56-.77-.08-1.47-.07-2.17l-.36.08Z" transform="translate(-26.79 -14.7)"/><path class="cls-3" d="M49.63,52.3a4.06,4.06,0,0,0-.3,2,1.66,1.66,0,0,0,.2.4c.15-.09.38-.14.45-.26a1.15,1.15,0,0,0,.12-.66,6,6,0,0,0-.26-1A3.41,3.41,0,0,0,49.63,52.3Z" transform="translate(-26.79 -14.7)"/><path class="cls-3" d="M74.35,35l.3-.22-.29-.21,0-.1.83.15.5-.51.13-.08c-.13-.08-.26-.22-.4-.22a1.51,1.51,0,0,1-.91-.42c-.07-.06-.15-.1-.29-.2a1.05,1.05,0,0,1,0,1.12C74.21,34.46,74.32,34.7,74.35,35Z" transform="translate(-26.79 -14.7)"/><path class="cls-3" d="M70.61,65.15c.1-.16.2-.26.41-.13a.39.39,0,0,0,.57-.21l.19-.51a.81.81,0,0,0-1.1.2c-.09.08-.18.2-.29.23-.4.11-.46.45-.62.78C70.14,65.49,70.43,65.44,70.61,65.15Z" transform="translate(-26.79 -14.7)"/><path class="cls-3" d="M69.08,51.71v.84l.44.18c-.3.37-.26.53.21.81.09-.2.19-.39.29-.57a3.87,3.87,0,0,0,.15-.56c0-.08-.09-.18-.14-.27l-.08,0a2,2,0,0,1,0,.25c-.16-.13-.21-.32-.34-.43A2.83,2.83,0,0,0,69.08,51.71Z" transform="translate(-26.79 -14.7)"/><polygon class="cls-3" points="43.23 38.25 43.22 38.26 43.22 38.27 43.23 38.25"/><path class="cls-3" d="M71.75,59.41c.11.42.38.33.65.24,0-.21-.09-.42-.14-.65h.29a2.59,2.59,0,0,0,.08-.57c0-.08-.12-.17-.19-.24a1.45,1.45,0,0,0-.25-.2c.41-.14.41-.14.32-.42A1,1,0,0,0,72,58.91C72.05,59.14,72.1,59.36,71.75,59.41Z" transform="translate(-26.79 -14.7)"/><path class="cls-3" d="M68.83,43.87a.33.33,0,0,0-.1-.26.31.31,0,0,0-.23.07c-.43.54-.76,1.17-.06,1.85C68.58,44.94,68.72,44.4,68.83,43.87Z" transform="translate(-26.79 -14.7)"/><path class="cls-3" d="M80.44,80.15c.44.15,2.72-1.14,3.27-1.8l0-.07Z" transform="translate(-26.79 -14.7)"/><path class="cls-3" d="M83.43,61.2c-.08.61-.4.87-.63.72l-.85.22a.76.76,0,0,0,.91.35,1.63,1.63,0,0,0,.87-.9c0-.1.07-.24,0-.3S83.55,61.23,83.43,61.2Z" transform="translate(-26.79 -14.7)"/><path class="cls-3" d="M63.37,47.55a8.45,8.45,0,0,0,.49-.87c-.54-.08-.92,0-1.12.34a.64.64,0,0,0,0,.59A.38.38,0,0,0,63.37,47.55Z" transform="translate(-26.79 -14.7)"/><path class="cls-3" d="M85.48,77c.14-.38.26-.67.37-1l-.14,0a1.41,1.41,0,0,0-.17.35,1.55,1.55,0,0,1-.73,1c-.41.24-.4.75-.86.91l.09.09L85.9,77l-.05-.06Z" transform="translate(-26.79 -14.7)"/><path class="cls-3" d="M69.49,64.52a1.45,1.45,0,0,1,.3-.06l.94-.13,0-.11s0-.07-.07-.06c-.42.11-.89-.1-1.28.18,0,0-.15,0-.22,0-.44,0-.9-.29-1.3.14a.72.72,0,0,0,.23.12A2.85,2.85,0,0,0,69.49,64.52Z" transform="translate(-26.79 -14.7)"/><path class="cls-3" d="M70.31,51.86l-.11.06.37,1,.14,0v-.4c0-.07,0-.18,0-.18.42-.09.17-.37.17-.55,0-.41-.24-.52-.68-.36.11.19.21.38.32.56l-.07,0Z" transform="translate(-26.79 -14.7)"/><path class="cls-3" d="M66.63,64.32a.11.11,0,0,1-.09,0c-.35-.21-.42,0-.47.29.4.1.76.26,1.15,0a.49.49,0,0,1,.21,0c.32,0,.35-.14.21-.36C67.3,64.23,67,64.05,66.63,64.32Z" transform="translate(-26.79 -14.7)"/><path class="cls-3" d="M76,79.32c-.34,0-.19.35-.3.52s0,.19.09.28a.18.18,0,0,0,.16,0,1.9,1.9,0,0,0,1-.84C76.63,79.31,76.32,79.29,76,79.32Z" transform="translate(-26.79 -14.7)"/><path class="cls-3" d="M72.49,61.42a.71.71,0,0,1,.81,0,.94.94,0,0,0,.34.08.89.89,0,0,0-.11-.38,1.07,1.07,0,0,0-1-.23c-.45,0-.54.2-.35.64A2,2,0,0,0,72.49,61.42Z" transform="translate(-26.79 -14.7)"/><path class="cls-3" d="M68,52.58a3.13,3.13,0,0,1-.14-.35l-1.19,1.65.13.09Z" transform="translate(-26.79 -14.7)"/><path class="cls-3" d="M72.79,38.81a1.49,1.49,0,0,0,.08.5l.13,0c.08-.11.17-.33.24-.32.44,0,.26-.28.35-.46C73.28,38.46,72.84,38.61,72.79,38.81Z" transform="translate(-26.79 -14.7)"/><path class="cls-3" d="M86.75,69.69c-.15.46,0,.92.47.89,0-.21.14-.45.06-.61S86.94,69.78,86.75,69.69Z" transform="translate(-26.79 -14.7)"/><path class="cls-3" d="M61.4,61.05l.07-.08c-.1-.2-.19-.41-.3-.6s-.15-.29-.22-.29-.22.13-.33.21l.13,0c.07.15.15.29.22.44l.06.1Z" transform="translate(-26.79 -14.7)"/><path class="cls-3" d="M68.26,65.46c.07,0,.18,0,.21,0a.27.27,0,0,0,0-.23c-.15-.3-.53-.38-.93-.16l.63.4S68.24,65.46,68.26,65.46Z" transform="translate(-26.79 -14.7)"/><path class="cls-3" d="M68.8,50.9c-.1-.13-.32-.17-.49-.24l-.06.1.44.81C68.94,51.3,68.93,51.07,68.8,50.9Z" transform="translate(-26.79 -14.7)"/><path class="cls-3" d="M75.2,63.3c.39-.11.49-.42.29-.84C75.2,62.59,75.09,62.89,75.2,63.3Z" transform="translate(-26.79 -14.7)"/><path class="cls-3" d="M71.55,61.57c.06,0,.21-.16.31-.24L71.51,61c-.16.12-.25.2-.34.28A1.44,1.44,0,0,0,71.55,61.57Z" transform="translate(-26.79 -14.7)"/><path class="cls-3" d="M73.76,66.13c0-.06,0-.19,0-.21a.55.55,0,0,0-.65.3C73.43,66.39,73.65,66.36,73.76,66.13Z" transform="translate(-26.79 -14.7)"/><path class="cls-3" d="M85.12,62.59c0-.1,0-.21,0-.28a6.38,6.38,0,0,0-.43-.63l-.07,0c.09.25.15.5.26.74C84.91,62.51,85,62.54,85.12,62.59Z" transform="translate(-26.79 -14.7)"/><path class="cls-3" d="M70.58,60.46a.48.48,0,0,1,.64.24l.11-.39c-.3,0-.54-.08-.78-.09-.06,0-.13.08-.2.12C70.43,60.39,70.53,60.48,70.58,60.46Z" transform="translate(-26.79 -14.7)"/><path class="cls-3" d="M62,61.1s.13-.09.25-.18c-.12-.09-.19-.19-.28-.2s-.14.1-.2.16A.8.8,0,0,0,62,61.1Z" transform="translate(-26.79 -14.7)"/><path class="cls-3" d="M73.63,59.46a.93.93,0,0,0,.31-.19l-.28-.17-.25.16C73.49,59.33,73.57,59.47,73.63,59.46Z" transform="translate(-26.79 -14.7)"/><path class="cls-3" d="M70,53v0Z" transform="translate(-26.79 -14.7)"/><path class="cls-3" d="M70.28,53.16a.41.41,0,0,0,.14-.2s-.09-.15-.1-.14L70,53l0,.25A.93.93,0,0,0,70.28,53.16Z" transform="translate(-26.79 -14.7)"/><path class="cls-3" d="M74.14,63.5c-.37,0-.47.17-.42.49l.1.05Z" transform="translate(-26.79 -14.7)"/><path class="cls-3" d="M91.2,67.77s.11.07.14.06c.2-.07.26-.22.16-.53C91.37,67.51,91.29,67.64,91.2,67.77Z" transform="translate(-26.79 -14.7)"/><path class="cls-3" d="M85.37,63.09l.5.52.1-.09-.52-.5Z" transform="translate(-26.79 -14.7)"/><path class="cls-3" d="M86.88,64.05l-.33-.2-.11.15a2.29,2.29,0,0,0,.29.18S86.83,64.09,86.88,64.05Z" transform="translate(-26.79 -14.7)"/><path class="cls-3" d="M83.82,60.88l.11.62C84.18,61.23,84.16,61.11,83.82,60.88Z" transform="translate(-26.79 -14.7)"/><polygon class="cls-1" points="80.49 62.15 72.99 63.8 80.46 69.83 80.49 62.15"/><path class="cls-1" d="M103.5,81a41.56,41.56,0,1,1,7.41-23.69h1a42.56,42.56,0,1,0-7.59,24.26L103.5,81Z" transform="translate(-26.79 -14.7)"/><polyline class="cls-1" points="77.62 43.06 85.08 43.06 85.08 42.06 77.62 42.06"/><polyline class="cls-1" points="0.3 43.06 7.96 43.06 7.96 42.06 0.3 42.06"/><path class="cls-4" d="M93.12,78.78V41.85H83.33V86.12A31.92,31.92,0,0,0,93.12,78.78Z" transform="translate(-26.79 -14.7)"/><path class="cls-4" d="M71.56,64.13V89.22A31.62,31.62,0,0,0,81.36,87V64.13Z" transform="translate(-26.79 -14.7)"/><path class="cls-4" d="M59.79,72.21V87.78a32,32,0,0,0,9.8,1.5V72.21Z" transform="translate(-26.79 -14.7)"/><path class="cls-4" d="M48,76.86V81a32.16,32.16,0,0,0,9.8,6.11V76.86Z" transform="translate(-26.79 -14.7)"/></svg>