<svg width="480" height="480" viewBox="0 0 480 480" fill="none" xmlns="http://www.w3.org/2000/svg">
<mask id="mask0_333_56341" style="mask-type:alpha" maskUnits="userSpaceOnUse" x="0" y="0" width="480" height="480">
<circle cx="240" cy="240" r="240" fill="#D9D9D9"/>
</mask>
<g mask="url(#mask0_333_56341)">
<path d="M555.02 1.15527H-8.08838V494.619H555.02V1.15527Z" fill="#087468"/>
<path d="M293.385 47.1943C284.41 58.6362 272.449 67.3774 258.821 72.4542V181.476C258.821 184.703 257.539 187.798 255.257 190.08C252.976 192.362 249.881 193.644 246.653 193.644V193.644C243.506 193.644 240.482 192.425 238.215 190.242C235.947 188.059 234.614 185.083 234.495 181.938C233.839 165.733 234.495 128.259 231.723 128.259C228.314 128.259 229.57 165.881 228.72 182.086C228.555 185.197 227.202 188.125 224.942 190.269C222.682 192.412 219.686 193.607 216.571 193.607H216.109C212.882 193.607 209.787 192.325 207.505 190.043C205.223 187.762 203.941 184.667 203.941 181.439V72.4173C190.312 67.3377 178.349 58.5972 169.368 47.1574C167.861 45.2709 167.041 42.9286 167.04 40.5144C167.036 38.231 167.743 36.003 169.063 34.1398C170.382 32.2765 172.25 30.8704 174.405 30.1167C176.561 29.363 178.897 29.2991 181.091 29.9339C183.284 30.5687 185.225 31.8706 186.645 33.659C191.968 40.4391 198.763 45.9209 206.515 49.6905C214.267 53.4601 222.775 55.4188 231.395 55.4188C240.015 55.4188 248.523 53.4601 256.275 49.6905C264.027 45.9209 270.822 40.4391 276.145 33.659C277.935 31.3691 280.561 29.8841 283.446 29.5306C286.331 29.1771 289.238 29.9842 291.528 31.7742C293.818 33.5642 295.303 36.1905 295.656 39.0754C296.01 41.9603 295.203 44.8675 293.413 47.1574L293.385 47.1943Z" fill="#FFF0CC"/>
<path d="M231.594 48.4869C244.279 48.4869 254.563 38.2035 254.563 25.5184C254.563 12.8332 244.279 2.5498 231.594 2.5498C218.909 2.5498 208.625 12.8332 208.625 25.5184C208.625 38.2035 218.909 48.4869 231.594 48.4869Z" fill="#FFF0CC"/>
<path d="M376.621 44.6347C367.644 56.0775 355.684 64.8215 342.057 69.9038V178.926C342.057 182.153 340.775 185.248 338.493 187.53C336.211 189.812 333.116 191.094 329.889 191.094V191.094C326.748 191.094 323.729 189.88 321.463 187.705C319.197 185.53 317.859 182.563 317.731 179.425C317.065 163.219 317.731 125.745 314.959 125.745C311.55 125.745 312.806 163.367 311.956 179.573C311.79 182.685 310.437 185.615 308.175 187.758C305.912 189.902 302.914 191.096 299.797 191.094H299.345C297.742 191.098 296.154 190.784 294.672 190.172C293.191 189.56 291.845 188.66 290.713 187.526C289.58 186.392 288.683 185.045 288.073 183.562C287.463 182.08 287.152 180.492 287.158 178.889V69.913C273.525 64.829 261.558 56.0819 252.576 44.6347C251.07 42.7482 250.249 40.4059 250.248 37.9917C250.24 35.7065 250.945 33.4758 252.265 31.6102C253.585 29.7447 255.454 28.3373 257.611 27.5839C259.769 26.8305 262.108 26.7687 264.302 27.4071C266.496 28.0455 268.437 29.3523 269.853 31.1455C275.179 37.9225 281.974 43.4014 289.726 47.1689C297.478 50.9363 305.984 52.8939 314.603 52.8939C323.222 52.8939 331.728 50.9363 339.48 47.1689C347.232 43.4014 354.028 37.9225 359.353 31.1455C361.16 28.9111 363.773 27.4761 366.629 27.1499C369.484 26.8237 372.353 27.6323 374.618 29.4015C376.883 31.1707 378.362 33.7589 378.736 36.6082C379.111 39.4576 378.351 42.3401 376.621 44.6347Z" fill="#F9C198"/>
<path d="M314.829 45.9371C327.515 45.9371 337.798 35.6537 337.798 22.9686C337.798 10.2834 327.515 0 314.829 0C302.144 0 291.861 10.2834 291.861 22.9686C291.861 35.6537 302.144 45.9371 314.829 45.9371Z" fill="#F9C198"/>
<path d="M183.827 70.1252C179.375 75.7903 174.172 80.8226 168.361 85.0834C162.504 89.3863 156.076 92.8534 149.264 95.385V204.407C149.264 207.634 147.982 210.729 145.7 213.011C143.418 215.293 140.323 216.575 137.096 216.575C133.954 216.578 130.933 215.364 128.667 213.189C126.4 211.013 125.064 208.045 124.937 204.906C124.272 188.701 124.937 151.227 122.165 151.227C118.747 151.227 120.003 188.848 119.153 205.054C118.978 208.16 117.621 211.08 115.36 213.216C113.098 215.352 110.105 216.541 106.995 216.538H106.533C104.935 216.538 103.352 216.223 101.876 215.612C100.4 215 99.0584 214.104 97.9285 212.974C96.7986 211.844 95.9023 210.503 95.2908 209.027C94.6793 207.55 94.3646 205.968 94.3646 204.37V95.3481C80.737 90.2718 68.7761 81.5305 59.8009 70.0882C58.2918 68.2026 57.4677 65.8604 57.4634 63.4453C57.4732 61.1688 58.1895 58.9516 59.5132 57.0996C60.8369 55.2477 62.7029 53.8522 64.8535 53.1059C67.0041 52.3596 69.3334 52.2993 71.5198 52.9333C73.7061 53.5673 75.6418 54.8643 77.0596 56.6452C82.383 63.4253 89.1773 68.9072 96.9296 72.6767C104.682 76.4463 113.189 78.4051 121.81 78.4051C130.43 78.4051 138.937 76.4463 146.689 72.6767C154.442 68.9072 161.236 63.4253 166.559 56.6452C167.446 55.5114 168.547 54.5633 169.799 53.8549C171.052 53.1466 172.432 52.6919 173.861 52.5169C175.289 52.3419 176.738 52.4499 178.125 52.8349C179.511 53.2198 180.809 53.8741 181.943 54.7604C183.076 55.6468 184.025 56.7477 184.733 58.0005C185.441 59.2532 185.896 60.6332 186.071 62.0617C186.246 63.4902 186.138 64.9391 185.753 66.3258C185.368 67.7125 184.714 69.0098 183.827 70.1436V70.1252Z" fill="#603813"/>
<path d="M122.027 71.4186C134.712 71.4186 144.995 61.1352 144.995 48.45C144.995 35.7648 134.712 25.4814 122.027 25.4814C109.341 25.4814 99.0581 35.7648 99.0581 48.45C99.0581 61.1352 109.341 71.4186 122.027 71.4186Z" fill="#603813"/>
<path d="M249.222 101.557C240.248 113.01 228.288 121.767 214.659 126.863V235.885C214.659 239.112 213.377 242.207 211.095 244.489C208.813 246.771 205.718 248.053 202.491 248.053V248.053C199.35 248.056 196.331 246.843 194.065 244.67C191.798 242.497 190.461 239.531 190.332 236.393C189.667 220.178 190.378 182.704 187.56 182.704C184.151 182.704 185.407 220.326 184.557 236.532C184.392 239.644 183.038 242.574 180.776 244.718C178.514 246.861 175.515 248.055 172.399 248.053H171.946C170.337 248.058 168.744 247.744 167.258 247.128C165.772 246.513 164.423 245.609 163.288 244.469C162.154 243.329 161.257 241.975 160.65 240.485C160.043 238.996 159.737 237.401 159.75 235.793V126.863C146.124 121.78 134.161 113.04 125.177 101.603C123.672 99.7122 122.851 97.3675 122.849 94.9508C122.832 92.6616 123.53 90.4242 124.846 88.5512C126.162 86.6783 128.031 85.2633 130.191 84.5041C132.35 83.7448 134.693 83.6792 136.892 84.3165C139.091 84.9537 141.035 86.262 142.454 88.0584C147.78 94.8353 154.575 100.314 162.327 104.082C170.079 107.849 178.585 109.807 187.204 109.807C195.823 109.807 204.33 107.849 212.082 104.082C219.834 100.314 226.629 94.8353 231.954 88.0584C233.744 85.7685 236.371 84.2835 239.255 83.93C242.14 83.5765 245.048 84.3836 247.337 86.1736C249.627 87.9636 251.112 90.5899 251.466 93.4748C251.819 96.3597 251.012 99.2669 249.222 101.557V101.557Z" fill="#A67C52"/>
<path d="M187.431 102.85C200.116 102.85 210.4 92.5668 210.4 79.8816C210.4 67.1965 200.116 56.9131 187.431 56.9131C174.746 56.9131 164.462 67.1965 164.462 79.8816C164.462 92.5668 174.746 102.85 187.431 102.85Z" fill="#A67C52"/>
<path d="M340.949 115.988C331.968 127.425 320.009 136.165 306.385 141.248V250.27C306.385 253.498 305.103 256.592 302.821 258.874C300.539 261.156 297.444 262.438 294.217 262.438C291.076 262.439 288.057 261.224 285.791 259.049C283.524 256.875 282.187 253.908 282.058 250.769C281.393 234.564 282.058 197.09 279.286 197.09C275.877 197.09 277.134 234.712 276.284 250.917C276.108 254.034 274.742 256.964 272.467 259.102C270.192 261.239 267.182 262.421 264.06 262.401H263.608C260.38 262.401 257.285 261.119 255.004 258.837C252.722 256.556 251.44 253.461 251.44 250.233V141.211C237.841 136.134 225.904 127.406 216.941 115.988C215.434 114.102 214.613 111.76 214.612 109.345C214.608 107.062 215.315 104.834 216.635 102.971C217.955 101.108 219.822 99.7014 221.978 98.9477C224.133 98.1941 226.47 98.1302 228.663 98.7649C230.857 99.3997 232.798 100.702 234.218 102.49C239.541 109.27 246.336 114.752 254.088 118.522C261.84 122.291 270.348 124.25 278.968 124.25C287.588 124.25 296.095 122.291 303.848 118.522C311.6 114.752 318.394 109.27 323.718 102.49C324.604 101.356 325.705 100.408 326.958 99.6996C328.21 98.9913 329.59 98.5366 331.019 98.3616C332.447 98.1866 333.896 98.2947 335.283 98.6796C336.67 99.0646 337.967 99.7189 339.101 100.605C340.235 101.491 341.183 102.592 341.891 103.845C342.599 105.098 343.054 106.478 343.229 107.906C343.404 109.335 343.296 110.784 342.911 112.171C342.526 113.557 341.872 114.855 340.986 115.988H340.949Z" fill="#F1EB9D"/>
<path d="M279.157 117.282C291.842 117.282 302.126 106.998 302.126 94.3133C302.126 81.6281 291.842 71.3447 279.157 71.3447C266.472 71.3447 256.188 81.6281 256.188 94.3133C256.188 106.998 266.472 117.282 279.157 117.282Z" fill="#F1EB9D"/>
<path d="M436.925 82.8664C427.945 94.3031 415.985 103.043 402.361 108.126V217.148C402.361 220.375 401.079 223.47 398.798 225.752C396.516 228.034 393.421 229.316 390.194 229.316C387.053 229.317 384.033 228.102 381.767 225.927C379.501 223.753 378.164 220.786 378.035 217.647C377.37 201.442 378.035 163.968 375.263 163.968C371.845 163.968 373.11 201.59 372.251 217.795C372.088 220.906 370.736 223.836 368.475 225.98C366.215 228.124 363.217 229.318 360.102 229.316H359.64C356.412 229.316 353.317 228.034 351.036 225.752C348.754 223.47 347.472 220.375 347.472 217.148V108.126C333.847 103.044 321.888 94.3038 312.908 82.8664C311.401 80.9798 310.581 78.6376 310.58 76.2234C310.576 73.94 311.283 71.712 312.603 69.8488C313.922 67.9855 315.79 66.5794 317.945 65.8257C320.101 65.072 322.437 65.0081 324.631 65.6429C326.824 66.2777 328.765 67.5796 330.185 69.3679C335.511 76.1449 342.306 81.6239 350.058 85.3913C357.81 89.1588 366.316 91.1164 374.935 91.1164C383.554 91.1164 392.06 89.1588 399.812 85.3913C407.564 81.6239 414.36 76.1449 419.685 69.3679C421.475 67.0781 424.101 65.5931 426.986 65.2396C429.871 64.8861 432.778 65.6932 435.068 67.4832C437.358 69.2732 438.843 71.8995 439.196 74.7844C439.55 77.6693 438.743 80.5765 436.953 82.8664H436.925Z" fill="#603813"/>
<path d="M375.134 84.1598C387.819 84.1598 398.102 73.8764 398.102 61.1912C398.102 48.506 387.819 38.2227 375.134 38.2227C362.448 38.2227 352.165 48.506 352.165 61.1912C352.165 73.8764 362.448 84.1598 375.134 84.1598Z" fill="#603813"/>
<path d="M430.458 158.396C417.048 175.484 399.192 188.548 378.848 196.157V358.84C378.848 363.66 376.933 368.282 373.525 371.691C370.117 375.099 365.494 377.014 360.674 377.014V377.014C355.984 377.015 351.475 375.202 348.091 371.954C344.707 368.706 342.71 364.275 342.519 359.588C341.531 335.391 342.584 279.429 338.343 279.429C333.243 279.429 335.119 335.604 333.853 359.81C333.609 364.458 331.591 368.834 328.214 372.037C324.838 375.24 320.361 377.024 315.707 377.023H315.014C310.196 377.02 305.576 375.105 302.17 371.697C298.764 368.289 296.85 363.668 296.85 358.849V196.157C276.502 188.572 258.641 175.522 245.231 158.443C242.983 155.624 241.759 152.125 241.757 148.52C241.742 145.106 242.792 141.773 244.761 138.985C246.73 136.197 249.52 134.093 252.742 132.966C255.964 131.839 259.457 131.746 262.735 132.699C266.013 133.652 268.911 135.604 271.027 138.283C278.98 148.4 289.128 156.579 300.703 162.203C312.278 167.827 324.98 170.749 337.849 170.749C350.718 170.749 363.419 167.827 374.995 162.203C386.57 156.579 396.717 148.4 404.671 138.283C406.202 136.342 408.153 134.774 410.378 133.695C412.602 132.617 415.042 132.056 417.514 132.056C431.114 132.009 438.856 147.697 430.458 158.396Z" fill="#FFF0CC"/>
<path d="M338.186 160.337C357.132 160.337 372.491 144.978 372.491 126.032C372.491 107.085 357.132 91.7266 338.186 91.7266C319.24 91.7266 303.881 107.085 303.881 126.032C303.881 144.978 319.24 160.337 338.186 160.337Z" fill="#FFF0CC"/>
<path d="M123.523 138.92C114.549 150.364 102.588 159.106 88.9593 164.18V273.202C88.9593 276.429 87.6773 279.524 85.3954 281.806C83.1135 284.088 80.0185 285.37 76.7913 285.37C73.6504 285.37 70.631 284.156 68.3649 281.981C66.0987 279.806 64.7614 276.839 64.6326 273.701C63.9674 257.495 64.6788 220.021 61.8608 220.021C58.4424 220.021 59.6989 257.643 58.8489 273.849C58.6855 276.96 57.334 279.89 55.0733 282.034C52.8125 284.178 49.815 285.372 46.6994 285.37H46.2374C44.631 285.378 43.0387 285.069 41.5525 284.459C40.0663 283.849 38.7157 282.951 37.5784 281.816C36.4412 280.681 35.5399 279.333 34.9265 277.848C34.3131 276.363 33.9999 274.771 34.0048 273.165V164.143C20.3786 159.064 8.41832 150.323 -0.558931 138.883C-2.06533 136.996 -2.88625 134.654 -2.88719 132.24C-2.89119 129.957 -2.18417 127.729 -0.864262 125.865C0.455646 124.002 2.32294 122.596 4.47837 121.842C6.6338 121.089 8.9704 121.025 11.1638 121.659C13.3572 122.294 15.2986 123.596 16.7183 125.385C22.0416 132.165 28.836 137.646 36.5883 141.416C44.3405 145.186 52.848 147.144 61.4682 147.144C70.0884 147.144 78.5959 145.186 86.3481 141.416C94.1004 137.646 100.895 132.165 106.218 125.385C108.008 123.095 110.634 121.61 113.519 121.256C116.404 120.903 119.311 121.71 121.601 123.5C123.891 125.29 125.376 127.916 125.73 130.801C126.083 133.686 125.276 136.593 123.486 138.883L123.523 138.92Z" fill="#F1EB9D"/>
<path d="M61.7317 140.213C74.4169 140.213 84.7003 129.93 84.7003 117.245C84.7003 104.56 74.4169 94.2764 61.7317 94.2764C49.0466 94.2764 38.7632 104.56 38.7632 117.245C38.7632 129.93 49.0466 140.213 61.7317 140.213Z" fill="#F1EB9D"/>
<path d="M236.814 167.737C223.407 184.819 205.544 197.869 185.195 205.451V368.18C185.195 372.995 183.284 377.614 179.882 381.021C176.48 384.428 171.864 386.346 167.049 386.354V386.354C162.356 386.36 157.842 384.549 154.454 381.301C151.066 378.052 149.067 373.618 148.876 368.929C147.887 344.731 148.941 288.77 144.691 288.77C139.6 288.77 141.475 344.953 140.2 369.15C139.957 373.798 137.938 378.174 134.562 381.377C131.185 384.58 126.708 386.365 122.055 386.363H121.371C116.553 386.36 111.933 384.445 108.526 381.037C105.12 377.629 103.207 373.008 103.207 368.189V205.451C82.8489 197.871 64.9775 184.821 51.5598 167.737C49.3095 164.918 48.0816 161.42 48.0767 157.814C48.0503 154.385 49.098 151.034 51.0728 148.232C53.0475 145.429 55.8502 143.314 59.0876 142.185C62.3251 141.056 65.8347 140.969 69.1242 141.936C72.4137 142.903 75.318 144.875 77.4295 147.577C85.3833 157.694 95.5305 165.873 107.106 171.497C118.681 177.121 131.382 180.043 144.252 180.043C157.121 180.043 169.822 177.121 181.398 171.497C192.973 165.873 203.12 157.694 211.074 147.577C212.604 145.636 214.555 144.068 216.78 142.99C219.005 141.913 221.445 141.355 223.916 141.359C237.461 141.359 245.213 157.047 236.814 167.737Z" fill="#F9C198"/>
<path d="M144.542 169.676C163.488 169.676 178.847 154.318 178.847 135.371C178.847 116.425 163.488 101.066 144.542 101.066C125.596 101.066 110.237 116.425 110.237 135.371C110.237 154.318 125.596 169.676 144.542 169.676Z" fill="#F9C198"/>
<path d="M323.44 216.15C310.032 233.227 292.174 246.276 271.83 253.864V416.593C271.83 421.413 269.916 426.036 266.508 429.444C263.099 432.852 258.477 434.767 253.657 434.767C248.967 434.768 244.457 432.955 241.073 429.707C237.689 426.46 235.693 422.028 235.502 417.342C234.513 393.144 235.567 337.183 231.326 337.183C226.226 337.183 228.102 393.357 226.836 417.564C226.592 422.211 224.574 426.588 221.197 429.79C217.821 432.993 213.344 434.778 208.69 434.776H208.006C203.186 434.776 198.564 432.861 195.156 429.453C191.748 426.045 189.833 421.423 189.833 416.603V253.864C169.486 246.282 151.627 233.231 138.223 216.15C135.963 213.335 134.725 209.837 134.712 206.227C134.7 202.814 135.752 199.482 137.723 196.695C139.693 193.909 142.483 191.806 145.705 190.679C148.927 189.553 152.42 189.459 155.697 190.411C158.975 191.363 161.874 193.313 163.991 195.99C171.945 206.105 182.092 214.283 193.666 219.906C205.241 225.529 217.941 228.45 230.809 228.45C243.677 228.45 256.377 225.529 267.951 219.906C279.526 214.283 289.672 206.105 297.626 195.99C299.157 194.049 301.108 192.481 303.333 191.402C305.557 190.324 307.997 189.763 310.469 189.763C324.115 189.763 331.839 205.451 323.44 216.15Z" fill="#603813"/>
<path d="M231.169 218.09C250.115 218.09 265.474 202.732 265.474 183.785C265.474 164.839 250.115 149.48 231.169 149.48C212.223 149.48 196.864 164.839 196.864 183.785C196.864 202.732 212.223 218.09 231.169 218.09Z" fill="#603813"/>
<path d="M152.728 237.382C139.321 254.464 121.458 267.515 101.109 275.096V437.825C101.109 442.639 99.1996 447.256 95.7994 450.663C92.3992 454.07 87.7862 455.989 82.9727 455.999V455.999C78.2822 456 73.773 454.187 70.389 450.939C67.005 447.691 65.0086 443.26 64.8178 438.574C63.8292 414.376 64.8824 358.415 60.6324 358.415C55.5416 358.415 57.4172 414.598 56.1514 438.795C55.9076 443.443 53.8893 447.819 50.5129 451.022C47.1365 454.225 42.6595 456.01 38.0057 456.008H37.3128C32.4945 456.006 27.8744 454.09 24.4682 450.682C21.062 447.274 19.1486 442.653 19.1486 437.835V275.096C-1.21591 267.519 -19.0941 254.468 -32.5168 237.382C-34.7671 234.563 -35.9951 231.065 -36 227.459C-36.0066 224.049 -34.951 220.721 -32.9799 217.938C-31.0088 215.155 -28.2199 213.055 -25.0007 211.929C-21.7814 210.804 -18.2916 210.708 -15.0158 211.657C-11.74 212.605 -8.84089 214.55 -6.72106 217.222C1.23274 227.339 11.3799 235.518 22.9553 241.142C34.5306 246.766 47.2319 249.688 60.1012 249.688C72.9704 249.688 85.6717 246.766 97.247 241.142C108.822 235.518 118.97 227.339 126.923 217.222C128.455 215.282 130.406 213.714 132.63 212.637C134.855 211.56 137.294 211.002 139.766 211.004C153.384 211.004 161.127 226.692 152.728 237.382Z" fill="#A67C52"/>
<path d="M60.4569 239.322C79.403 239.322 94.7619 223.963 94.7619 205.017C94.7619 186.071 79.403 170.712 60.4569 170.712C41.5107 170.712 26.1519 186.071 26.1519 205.017C26.1519 223.963 41.5107 239.322 60.4569 239.322Z" fill="#A67C52"/>
<path d="M504.353 228.891C490.938 245.966 473.078 259.015 452.733 266.605V429.335C452.733 434.153 450.82 438.774 447.414 442.182C444.008 445.59 439.387 447.506 434.569 447.508V447.508C429.879 447.51 425.369 445.697 421.985 442.449C418.601 439.201 416.605 434.77 416.414 430.083C415.426 405.886 416.479 349.924 412.229 349.924C407.138 349.924 409.014 406.098 407.739 430.305C407.495 434.952 405.476 439.329 402.1 442.532C398.724 445.734 394.247 447.519 389.593 447.517H388.909C384.091 447.515 379.471 445.599 376.065 442.191C372.658 438.783 370.745 434.162 370.745 429.344V266.605C350.396 259.023 332.534 245.973 319.126 228.891C316.875 226.073 315.648 222.575 315.643 218.968C315.631 215.555 316.683 212.223 318.653 209.437C320.624 206.65 323.414 204.547 326.636 203.42C329.857 202.294 333.35 202.2 336.628 203.152C339.905 204.104 342.804 206.054 344.922 208.731C352.875 218.848 363.023 227.027 374.598 232.651C386.173 238.275 398.875 241.197 411.744 241.197C424.613 241.197 437.314 238.275 448.89 232.651C460.465 227.027 470.612 218.848 478.566 208.731C480.096 206.789 482.047 205.219 484.271 204.141C486.496 203.062 488.936 202.502 491.409 202.504C504.999 202.504 512.751 218.192 504.353 228.891Z" fill="#F1EB9D"/>
<path d="M412.081 230.832C431.027 230.832 446.386 215.473 446.386 196.527C446.386 177.581 431.027 162.222 412.081 162.222C393.135 162.222 377.776 177.581 377.776 196.527C377.776 215.473 393.135 230.832 412.081 230.832Z" fill="#F1EB9D"/>
<path d="M201.992 289.186C188.593 306.26 170.749 319.312 150.419 326.909V489.639C150.419 494.456 148.505 499.076 145.099 502.482C141.692 505.889 137.072 507.803 132.255 507.803V507.803C127.565 507.807 123.056 505.996 119.671 502.749C116.287 499.503 114.291 495.073 114.1 490.387C113.111 466.18 114.164 410.228 109.914 410.228C104.823 410.228 106.699 466.402 105.424 490.609C105.178 495.254 103.159 499.629 99.7824 502.829C96.4062 506.03 91.9306 507.814 87.2783 507.812H86.5946C81.7772 507.812 77.157 505.898 73.7506 502.492C70.3441 499.085 68.4304 494.465 68.4304 489.648V326.909C48.0821 319.321 30.2208 306.268 16.8112 289.186C14.5509 286.388 13.3067 282.906 13.2818 279.309C13.2697 275.896 14.3221 272.564 16.2924 269.777C18.2628 266.991 21.0531 264.888 24.2749 263.761C27.4966 262.635 30.9894 262.541 34.2669 263.493C37.5445 264.445 40.4436 266.395 42.5608 269.072C50.5146 279.189 60.6618 287.368 72.2371 292.992C83.8125 298.616 96.5137 301.538 109.383 301.538C122.252 301.538 134.953 298.616 146.529 292.992C158.104 287.368 168.251 279.189 176.205 269.072C177.734 267.128 179.684 265.558 181.909 264.479C184.134 263.4 186.575 262.841 189.048 262.845C202.638 262.808 210.39 278.496 201.992 289.186Z" fill="#FFF0CC"/>
<path d="M109.72 291.134C128.666 291.134 144.025 275.776 144.025 256.829C144.025 237.883 128.666 222.524 109.72 222.524C90.7739 222.524 75.415 237.883 75.415 256.829C75.415 275.776 90.7739 291.134 109.72 291.134Z" fill="#FFF0CC"/>
<path d="M455.089 318.917C441.681 335.999 423.819 349.05 403.47 356.631V519.361C403.47 524.179 401.556 528.8 398.15 532.208C394.744 535.616 390.124 537.531 385.305 537.534V537.534C380.615 537.535 376.106 535.722 372.722 532.474C369.338 529.227 367.341 524.795 367.15 520.109C366.162 495.912 367.215 439.95 362.965 439.95C357.874 439.95 359.75 496.133 358.484 520.331C358.24 524.978 356.222 529.355 352.846 532.557C349.469 535.76 344.992 537.545 340.338 537.543H339.645C334.827 537.541 330.207 535.625 326.801 532.217C323.395 528.809 321.481 524.188 321.481 519.37V356.631C301.134 349.047 283.272 335.997 269.862 318.917C267.612 316.099 266.384 312.6 266.379 308.994C266.372 305.584 267.428 302.256 269.399 299.473C271.37 296.69 274.159 294.59 277.378 293.464C280.597 292.339 284.087 292.244 287.363 293.192C290.639 294.141 293.538 296.086 295.658 298.757C303.612 308.874 313.759 317.053 325.334 322.677C336.91 328.301 349.611 331.223 362.48 331.223C375.349 331.223 388.051 328.301 399.626 322.677C411.201 317.053 421.349 308.874 429.302 298.757C430.834 296.817 432.785 295.25 435.009 294.173C437.234 293.096 439.673 292.537 442.145 292.539C455.745 292.539 463.487 308.227 455.089 318.917Z" fill="#A67C52"/>
<path d="M362.818 320.857C381.764 320.857 397.123 305.498 397.123 286.552C397.123 267.606 381.764 252.247 362.818 252.247C343.872 252.247 328.513 267.606 328.513 286.552C328.513 305.498 343.872 320.857 362.818 320.857Z" fill="#A67C52"/>
<path d="M342.186 294.721C338.849 294.719 335.556 295.475 332.553 296.931C329.551 298.387 326.918 300.506 324.854 303.128C314.124 316.784 300.433 327.824 284.814 335.416C269.195 343.007 252.055 346.952 234.689 346.952C217.322 346.952 200.183 343.007 184.563 335.416C168.944 327.824 155.253 316.784 144.524 303.128C142.458 300.508 139.825 298.39 136.823 296.934C133.821 295.478 130.528 294.721 127.191 294.721V294.721C108.833 294.721 98.3835 315.888 109.711 330.319C127.802 353.372 151.905 370.985 179.365 381.218V381.218V535.928H290.004V381.218C317.463 370.985 341.566 353.372 359.658 330.319C370.994 315.888 360.535 294.721 342.186 294.721Z" fill="#F1EB9D"/>
<path d="M235.142 332.934C260.706 332.934 281.43 312.21 281.43 286.646C281.43 261.081 260.706 240.357 235.142 240.357C209.577 240.357 188.854 261.081 188.854 286.646C188.854 312.21 209.577 332.934 235.142 332.934Z" fill="#F1EB9D"/>
</g>
</svg>
