<svg width="49" height="56" viewBox="0 0 49 56" fill="none" xmlns="http://www.w3.org/2000/svg">
<path d="M48.377 0.516766L43.2203 4.3767L38.0343 16.4679H33.8641L32.2266 12.9194H33.2964C35.2534 12.9194 36.8449 11.3449 36.8449 9.38791V5.8225H38.6191V0.5H33.2964V5.8225H35.0707V9.38791C35.0707 10.3656 34.275 11.1452 33.2964 11.1452H31.4078L29.1403 6.23961L31.8566 4.88583L22.9625 1.07657L20.8716 8.39424C20.8148 4.04045 17.2602 0.516021 12.893 0.516021C8.49037 0.516021 4.90912 4.09727 4.90912 8.49987C4.90912 11.1603 6.25656 13.6556 8.45758 15.1309V16.4677H6.3091L6.17068 17.1952C5.73961 19.4316 5.69955 21.73 6.05183 24.0223L0 34.8095L6.68335 36.3361V47.5162H15.5543V55.5H36.8447V43.1383C43.0543 38.7454 46.6009 31.6824 46.5957 24.1473L46.5976 20.9113C46.5976 19.6915 46.4848 18.4381 46.2578 17.2032L46.1264 16.4677H44.385L48.377 6.90392V0.516766ZM35.0705 4.06523V2.291H36.8447V4.06523H35.0705ZM31.9099 16.4677H28.5451L26.9324 12.9192H30.2724L31.9099 16.4677ZM24.114 3.50281L27.6403 5.01363L26.8081 5.42161L29.4534 11.1452H26.1259L23.964 6.40019L23.17 6.80109L24.114 3.50281ZM26.5961 16.4679H22.6512V14.7106C22.6512 13.7322 23.4469 12.9196 24.4255 12.9196H24.9834V12.9194L26.5961 16.4679ZM23.1125 8.81824L24.1885 11.186C22.3433 11.3102 20.877 12.8343 20.877 14.7104V16.4677H17.3285V15.1309C19.1037 13.9412 20.3083 12.0847 20.7146 10.0168L23.1125 8.81824ZM6.68354 8.5008C6.68354 5.07753 9.46988 2.29118 12.8932 2.29118C16.3164 2.29118 19.1028 5.07753 19.1028 8.5008C19.1028 10.7044 17.9124 12.7633 15.9971 13.873L15.5545 14.1284V16.4677H13.7803V10.9978C14.8103 10.6307 15.5545 9.65468 15.5545 8.49968C15.5545 7.03246 14.3604 5.83834 12.8932 5.83834C11.4259 5.83834 10.2318 7.03265 10.2318 8.49987C10.2318 9.65487 10.976 10.6307 12.006 10.998V16.4679H10.2318V14.1284L9.78919 13.8721C7.87393 12.7624 6.68354 10.7042 6.68354 8.5008ZM12.8932 9.38791C12.4034 9.38791 12.006 8.98944 12.006 8.5008C12.006 8.01104 12.4034 7.61368 12.8932 7.61368C13.3829 7.61368 13.7803 8.01104 13.7803 8.5008C13.7803 8.99056 13.3829 9.38791 12.8932 9.38791ZM44.6333 18.2421C44.762 19.129 44.8269 20.0286 44.8269 20.9033L44.8287 24.1457C44.8341 31.2523 41.3274 37.9071 35.4609 41.9461L35.0707 42.2123V53.726H17.3287V45.7421H8.45758V34.9212L2.70829 33.6092L7.90132 24.3506L7.85083 24.0339C7.52091 22.0929 7.50229 20.0162 7.7888 18.2421H8.45758H17.3285H44.6333ZM42.4627 16.4677H39.9638L44.3859 6.15783L46.3526 7.13715L42.4627 16.4677ZM46.6028 5.29027L45.6216 4.79977L46.6028 4.06523V5.29027Z" fill="black"/>
<path d="M14.6674 23.5647C13.2002 23.5647 12.006 22.6775 12.006 20.9033H10.2318C10.2318 23.5647 12.2216 25.3389 14.6674 25.3389C17.1132 25.3389 19.103 23.5647 19.103 20.9033H17.3287C17.3285 22.6775 16.1346 23.5647 14.6674 23.5647Z" fill="black"/>
</svg>
