<svg id="Layer_1" data-name="Layer 1" xmlns="http://www.w3.org/2000/svg" xmlns:xlink="http://www.w3.org/1999/xlink" viewBox="0 0 643.11 606.47"><defs><style>.cls-1{fill:none;}.cls-2{fill:#4d4d4d;}.cls-3{fill:#333;}.cls-4{clip-path:url(#clip-path);}.cls-5{fill:#666;}.cls-6{fill:#999;}.cls-7{fill:#f2f2f2;opacity:0.4;}.cls-8{fill:#fff;}</style><clipPath id="clip-path" transform="translate(-132.3 -21.84)"><path id="SVGID" class="cls-1" d="M694.12,560.77h0c-12.94,13.6-39.32,17.8-52.92,4.86l-81.27-92.8a301.49,301.49,0,0,0-26.75-24.53L488,411.6l-4.3-4.09a7.88,7.88,0,0,1-.28-11.14l36-37.85a7.89,7.89,0,0,1,11.15-.28l3.66,3.48,39.63,44a301.69,301.69,0,0,0,25.66,25.29l101,73.67C714.11,517.67,712.8,544,694.12,560.77Z"/></clipPath></defs><rect class="cls-2" x="453.15" y="302.98" width="24" height="80" transform="translate(-236.24 421.81) rotate(-46.43)"/><path class="cls-3" d="M485.88,367.15h23a8.48,8.48,0,0,1,8.48,8.48v4.52a0,0,0,0,1,0,0h-40a0,0,0,0,1,0,0v-4.52A8.48,8.48,0,0,1,485.88,367.15Z" transform="translate(-248.44 454.71) rotate(-46.43)"/><g class="cls-4"><rect class="cls-3" x="549.03" y="317.55" width="135.07" height="310" transform="translate(-283.06 571.79) rotate(-46.43)"/><rect class="cls-2" x="481.82" y="386.1" width="83" height="12" transform="translate(-253.75 479.23) rotate(-46.43)"/><rect class="cls-2" x="495.59" y="399.2" width="83" height="12" transform="translate(-258.96 493.27) rotate(-46.43)"/><rect class="cls-2" x="509.36" y="412.29" width="83" height="12" transform="translate(-264.17 507.32) rotate(-46.43)"/><rect class="cls-2" x="523.12" y="425.38" width="83" height="12" transform="matrix(0.69, -0.72, 0.72, 0.69, -269.38, 521.37)"/><rect class="cls-2" x="536.89" y="438.48" width="83" height="12" transform="translate(-274.59 535.41) rotate(-46.43)"/><rect class="cls-2" x="550.66" y="451.57" width="83" height="12" transform="translate(-279.8 549.46) rotate(-46.43)"/><rect class="cls-2" x="564.43" y="464.67" width="83" height="12" transform="translate(-285.01 563.5) rotate(-46.43)"/><rect class="cls-2" x="578.19" y="477.76" width="83" height="12" transform="matrix(0.69, -0.72, 0.72, 0.69, -290.22, 577.55)"/><rect class="cls-2" x="591.96" y="490.86" width="83" height="12" transform="translate(-295.42 591.59) rotate(-46.43)"/><rect class="cls-2" x="601.08" y="505.95" width="88.51" height="12" transform="translate(-302.67 604.88) rotate(-46.43)"/><rect class="cls-2" x="614.6" y="519.15" width="88.8" height="12" transform="translate(-307.99 618.89) rotate(-46.43)"/><rect class="cls-2" x="625.72" y="533.38" width="91.93" height="12" transform="translate(-314.35 632.51) rotate(-46.43)"/><rect class="cls-2" x="647.03" y="543.23" width="83" height="12" transform="translate(-316.26 647.78) rotate(-46.43)"/></g><path class="cls-5" d="M309.3,21.84a177,177,0,1,0,177,177A177,177,0,0,0,309.3,21.84Zm.38,324.75c-81.26,0-147.13-65.81-147.13-147s65.87-147,147.13-147a147,147,0,1,1,0,294Z" transform="translate(-132.3 -21.84)"/><path class="cls-6" d="M309.3,353.34c-85.26,0-154.63-69.31-154.63-154.5S224,44.34,309.3,44.34s154.62,69.31,154.62,154.5S394.56,353.34,309.3,353.34Zm0-301c-80.85,0-146.63,65.72-146.63,146.5s65.78,146.5,146.63,146.5,146.62-65.72,146.62-146.5S390.15,52.34,309.3,52.34Z" transform="translate(-132.3 -21.84)"/><ellipse class="cls-7" cx="177" cy="177" rx="147.12" ry="147"/><ellipse class="cls-8" cx="395.12" cy="121.26" rx="20.51" ry="37.01" transform="translate(-126.88 237.1) rotate(-36.52)"/><circle class="cls-8" cx="288.63" cy="48.92" r="3.5"/></svg>