<svg width="59" height="56" viewBox="0 0 59 56" fill="none" xmlns="http://www.w3.org/2000/svg">
<path d="M26.4991 18.1786H27.4812C28.0233 18.1786 28.4633 17.7386 28.4633 17.1965C28.4633 16.6544 28.0233 16.2144 27.4812 16.2144H26.4991C25.957 16.2144 25.517 16.6544 25.517 17.1965C25.517 17.7386 25.957 18.1786 26.4991 18.1786Z" fill="black"/>
<path d="M11.7673 10.3214H12.7494C13.2915 10.3214 13.7315 9.88138 13.7315 9.33928C13.7315 8.79719 13.2915 8.35718 12.7494 8.35718H11.7673C11.2252 8.35718 10.7852 8.79719 10.7852 9.33928C10.7852 9.88138 11.2252 10.3214 11.7673 10.3214Z" fill="black"/>
<path d="M21.626 19.9003C21.8136 21.788 22.6337 23.4497 22.6731 23.5283C23.5639 25.3089 24.9093 28 29.4449 28C33.9804 28 35.326 25.3089 36.2158 23.5283C36.2561 23.4497 37.0762 21.788 37.2638 19.9003C37.8717 19.5664 38.2842 18.9191 38.2842 18.1786V16.2143C38.2842 15.4885 37.8884 14.8539 37.3021 14.5142V14.25C37.3021 11.0001 34.6592 8.35718 31.4092 8.35718H27.4807C24.2307 8.35718 21.5878 11.0001 21.5878 14.25V14.5142C21.0015 14.8541 20.6057 15.4885 20.6057 16.2143V18.1786C20.6056 18.9191 21.0181 19.5663 21.626 19.9003ZM22.5699 16.2143C23.112 16.2143 23.552 15.7742 23.552 15.2321V14.25C23.552 12.0834 25.314 10.3215 27.4806 10.3215H31.4091C33.5758 10.3215 35.3376 12.0835 35.3376 14.25V15.2321C35.3376 15.7742 35.7777 16.2143 36.3197 16.2143V18.1786C35.7777 18.1786 35.3376 18.6186 35.3376 19.1607C35.3376 20.8598 34.4674 22.6336 34.4587 22.6503C33.4363 24.695 32.5346 26.0357 29.4448 26.0357C26.3549 26.0357 25.4524 24.695 24.4309 22.6512C24.422 22.6334 23.5519 20.8597 23.5519 19.1607C23.5519 18.6186 23.1119 18.1786 22.5698 18.1786V16.2143H22.5699Z" fill="black"/>
<path d="M13.745 22.9399L12.9289 27.833C12.8395 28.3683 13.1999 28.874 13.7353 28.9634C13.7903 28.9723 13.8442 28.9762 13.8983 28.9762C14.3698 28.9762 14.7862 28.6363 14.8657 28.1561L15.5444 24.0931C16.9617 24.1255 18.2718 24.2482 19.4514 24.4603C19.9877 24.5576 20.4955 24.2001 20.5917 23.6668C20.6879 23.1325 20.3324 22.6218 19.7992 22.5265C18.2935 22.2564 16.6023 22.1199 14.7716 22.1199C14.2764 22.1248 13.8265 22.4479 13.745 22.9399Z" fill="black"/>
<path d="M45.1594 10.3214H46.1415C46.6836 10.3214 47.1236 9.88138 47.1236 9.33928C47.1236 8.79719 46.6836 8.35718 46.1415 8.35718H45.1594C44.6173 8.35718 44.1772 8.79719 44.1772 9.33928C44.1772 9.88138 44.6173 10.3214 45.1594 10.3214Z" fill="black"/>
<path d="M31.4094 18.1786H32.3915C32.9336 18.1786 33.3736 17.7386 33.3736 17.1965C33.3736 16.6544 32.9336 16.2144 32.3915 16.2144H31.4094C30.8673 16.2144 30.4272 16.6544 30.4272 17.1965C30.4271 17.7386 30.8671 18.1786 31.4094 18.1786Z" fill="black"/>
<path d="M50.0707 10.3214H51.0528C51.5949 10.3214 52.0349 9.88138 52.0349 9.33928C52.0349 8.79719 51.5949 8.35718 51.0528 8.35718H50.0707C49.5286 8.35718 49.0886 8.79719 49.0886 9.33928C49.0886 9.88138 49.5286 10.3214 50.0707 10.3214Z" fill="black"/>
<path d="M40.2874 12.0431C40.475 13.9308 41.2951 15.5925 41.3343 15.6711C42.2251 17.4518 43.5706 20.1428 48.1062 20.1428C52.6417 20.1428 53.9873 17.4518 54.878 15.6711C54.9172 15.5925 55.7374 13.9308 55.925 12.0431C56.5329 11.7092 56.9454 11.0619 56.9454 10.3214V8.35708C56.9454 7.63129 56.5496 6.99677 55.9633 6.65701V6.39286C55.9633 3.14293 53.3204 0.5 50.0705 0.5H46.1419C42.892 0.5 40.2491 3.14293 40.2491 6.39286V6.65701C39.6628 6.99688 39.267 7.63129 39.267 8.35708V10.3214C39.267 11.0619 39.6795 11.7091 40.2874 12.0431ZM41.2313 8.35708C41.7734 8.35708 42.2134 7.91707 42.2134 7.37497V6.39286C42.2134 4.2262 43.9754 2.46433 46.1419 2.46433H50.0705C52.2371 2.46433 53.999 4.22632 53.999 6.39286V7.37497C53.999 7.91707 54.439 8.35708 54.9811 8.35708V10.3214C54.439 10.3214 53.999 10.7614 53.999 11.3035C53.999 13.0027 53.1289 14.7764 53.12 14.7931C52.0976 16.8379 51.196 18.1785 48.1062 18.1785C45.0154 18.1785 44.1137 16.8379 43.0923 14.794C43.0834 14.7763 42.2133 13.0025 42.2133 11.3035C42.2133 10.7614 41.7733 10.3214 41.2312 10.3214V8.35708H41.2313Z" fill="black"/>
<path d="M38.2813 23.6658C38.3766 24.1992 38.8814 24.5537 39.4215 24.4603C40.6031 24.2482 41.9182 24.1254 43.3392 24.0931L44.018 28.1561C44.0975 28.6364 44.5139 28.9762 44.9853 28.9762C45.0393 28.9762 45.0934 28.9723 45.1484 28.9634C45.6837 28.874 46.0441 28.3672 45.9548 27.833L45.1386 22.9399C45.0552 22.4479 44.6299 22.1238 44.1113 22.1199C42.2767 22.1199 40.5825 22.2564 39.0749 22.5265C38.5416 22.6218 38.1861 23.1326 38.2813 23.6658Z" fill="black"/>
<path d="M5.86006 22.941C5.77858 22.447 5.3228 22.1238 4.82985 22.1199C3.4166 22.1199 2.07885 22.2024 0.85412 22.3634C0.315935 22.4341 -0.0622669 22.9282 0.00851659 23.4653C0.0802208 24.0035 0.575244 24.3798 1.11044 24.3109C2.02878 24.1901 3.01676 24.1164 4.06078 24.0929L6.86968 40.9299C6.94921 41.4101 7.36562 41.7499 7.83705 41.7499C7.89011 41.7499 7.94512 41.746 8.00014 41.7362C8.53441 41.6478 8.89581 41.1411 8.8065 40.6057L5.86006 22.941Z" fill="black"/>
<path d="M34.4198 29.9771C33.9159 29.9781 33.4524 30.3189 33.3827 30.8256L30.4362 52.421C30.3636 52.9583 30.7387 53.4533 31.277 53.527C31.3222 53.5329 31.3663 53.5359 31.4106 53.5359C31.8948 53.5359 32.3152 53.1793 32.383 52.6863L35.2126 31.9504C39.3985 32.0526 42.6297 32.96 44.153 34.4793C44.8307 35.1561 45.1598 35.928 45.1598 36.8395V52.5535C45.1598 53.0956 45.5998 53.5356 46.1419 53.5356C46.684 53.5356 47.124 53.0956 47.124 52.5535V36.8392C47.124 35.4004 46.5906 34.1383 45.5398 33.0894C43.5282 31.0809 39.581 29.9771 34.4198 29.9771Z" fill="black"/>
<path d="M31.4094 31.9284C31.4094 30.8452 30.5284 29.9641 29.445 29.9641C28.3618 29.9641 27.4807 30.845 27.4807 31.9284C27.4807 32.6523 27.8785 33.2788 28.4628 33.6196V40.7677C28.4628 41.3098 28.9028 41.7498 29.4449 41.7498C29.987 41.7498 30.427 41.3098 30.427 40.7677V33.6196C31.0116 33.279 31.4094 32.6523 31.4094 31.9284Z" fill="black"/>
<path d="M40.2491 41.75C39.707 41.75 39.267 42.19 39.267 42.7321V54.5178C39.267 55.0599 39.707 55.4999 40.2491 55.4999C40.7912 55.4999 41.2312 55.0599 41.2312 54.5178V42.7321C41.2312 42.19 40.7912 41.75 40.2491 41.75Z" fill="black"/>
<path d="M51.0563 24.0715C51.0563 22.9882 50.1744 22.1072 49.0901 22.1072C48.0058 22.1072 47.1238 22.9881 47.1238 24.0715C47.1238 24.7953 47.5215 25.421 48.1059 25.7618V32.9108C48.1059 33.4529 48.5459 33.8929 49.088 33.8929C49.6301 33.8929 50.0701 33.4529 50.0701 32.9108V25.7647C50.6566 25.4239 51.0563 24.7963 51.0563 24.0715Z" fill="black"/>
<path d="M58.0567 22.3634C56.83 22.2024 55.4903 22.1199 54.0732 22.1199C53.5654 22.1199 53.1244 22.447 53.0419 22.9399L50.0905 40.6057C50.0011 41.1411 50.3616 41.6478 50.8969 41.7362C50.9519 41.746 51.0059 41.7499 51.06 41.7499C51.5314 41.7499 51.9478 41.41 52.0273 40.9299L54.8412 24.0929C55.8881 24.1165 56.8801 24.1902 57.7994 24.3109C58.3327 24.3796 58.8306 24.0035 58.9013 23.4653C58.9731 22.9271 58.594 22.4342 58.0567 22.3634Z" fill="black"/>
<path d="M6.85589 10.3214H7.83799C8.38009 10.3214 8.8201 9.88138 8.8201 9.33928C8.8201 8.79719 8.38009 8.35718 7.83799 8.35718H6.85589C6.31379 8.35718 5.87378 8.79719 5.87378 9.33928C5.87378 9.88138 6.31379 10.3214 6.85589 10.3214Z" fill="black"/>
<path d="M9.80295 22.1072C8.71968 22.1072 7.83862 22.9881 7.83862 24.0715C7.83862 24.7953 8.23639 25.4219 8.82073 25.7627V32.9108C8.82073 33.4529 9.26074 33.8929 9.80284 33.8929C10.3449 33.8929 10.7849 33.4529 10.7849 32.9108V25.7627C11.3693 25.4219 11.767 24.7953 11.767 24.0715C11.7673 22.9881 10.8863 22.1072 9.80295 22.1072Z" fill="black"/>
<path d="M1.98394 12.0431C2.17051 13.9308 2.9916 15.5925 3.03085 15.6711C3.92168 17.4518 5.26714 20.1428 9.80269 20.1428C14.3382 20.1428 15.6838 17.4518 16.5736 15.6711C16.6139 15.5925 17.434 13.9308 17.6216 12.0431C18.2295 11.7092 18.642 11.0619 18.642 10.3214V8.35708C18.642 7.63129 18.2462 6.99677 17.6599 6.65701V6.39286C17.6599 3.14293 15.017 0.5 11.767 0.5H7.83859C4.58866 0.5 1.94573 3.14293 1.94573 6.39286V6.65701C1.35943 6.99688 0.963623 7.63129 0.963623 8.35708V10.3214C0.963508 11.0619 1.37601 11.7091 1.98394 12.0431ZM2.92783 8.35708C3.46993 8.35708 3.90994 7.91707 3.90994 7.37497V6.39286C3.90994 4.2262 5.67193 2.46433 7.83848 2.46433H11.767C13.9337 2.46433 15.6956 4.22632 15.6956 6.39286V7.37497C15.6956 7.91707 16.1356 8.35708 16.6777 8.35708V10.3214C16.1356 10.3214 15.6956 10.7614 15.6956 11.3035C15.6956 13.0027 14.8253 14.7764 14.8166 14.7931C13.7942 16.8379 12.8925 18.1785 9.80269 18.1785C6.71193 18.1785 5.81131 16.8379 4.78881 14.794C4.77994 14.7763 3.90983 13.0025 3.90983 11.3035C3.90983 10.7614 3.46982 10.3214 2.92772 10.3214V8.35708H2.92783Z" fill="black"/>
<path d="M18.6412 41.75C18.0991 41.75 17.6591 42.19 17.6591 42.7321V54.5178C17.6591 55.0599 18.0991 55.4999 18.6412 55.4999C19.1833 55.4999 19.6233 55.0599 19.6233 54.5178V42.7321C19.6234 42.19 19.1834 41.75 18.6412 41.75Z" fill="black"/>
<path d="M25.508 30.8266C25.4413 30.3404 25.0268 29.978 24.5368 29.9771C19.3766 29.984 15.3714 31.0722 13.3511 33.0894C12.2993 34.1384 11.767 35.4004 11.767 36.8392V52.5535C11.767 53.0956 12.207 53.5356 12.7491 53.5356C13.2912 53.5356 13.7312 53.0956 13.7312 52.5535V36.8392C13.7312 35.9278 14.0602 35.1559 14.7388 34.4791C16.2612 32.9597 19.4924 32.0522 23.6783 31.951L26.5079 52.6861C26.5757 53.1792 26.996 53.5356 27.4792 53.5356C27.5244 53.5356 27.5686 53.5326 27.6137 53.5268C28.1519 53.4531 28.5271 52.9581 28.4545 52.4208L25.508 30.8266Z" fill="black"/>
</svg>
