<svg id="Layer_1" data-name="Layer 1" xmlns="http://www.w3.org/2000/svg" xmlns:xlink="http://www.w3.org/1999/xlink" viewBox="0 0 974.22 417.29"><defs><style>.cls-1{fill:none;}.cls-2{clip-path:url(#clip-path);}.cls-3{fill:#efeb9d;}.cls-4{clip-path:url(#clip-path-2);}.cls-5{fill:url(#linear-gradient);}.cls-6{fill:#e1f9ff;}.cls-7{fill:#44688c;}.cls-8{clip-path:url(#clip-path-3);}.cls-9{fill:#4783a0;}.cls-10{fill:#336889;}.cls-11{fill:#6db5d1;}.cls-12{clip-path:url(#clip-path-4);}.cls-13{fill:#49819e;}.cls-14{clip-path:url(#clip-path-5);}.cls-15{fill:#255172;}.cls-16{fill:#1c4466;}.cls-17{clip-path:url(#clip-path-6);}.cls-18{fill:#122e49;}.cls-19{clip-path:url(#clip-path-7);}.cls-20{fill:#0b1e35;}.cls-21{fill:#06121c;}.cls-22{clip-path:url(#clip-path-8);}.cls-23{fill:#5c88ba;}.cls-24{fill:#79a3c6;}.cls-25{clip-path:url(#clip-path-9);}.cls-26{clip-path:url(#clip-path-10);}.cls-27{fill:url(#radial-gradient);}.cls-28{fill:#f7eeba;}.cls-29{fill:url(#linear-gradient-2);}.cls-30{fill:url(#linear-gradient-3);}.cls-31{clip-path:url(#clip-path-11);}.cls-32{fill:#f0b366;}.cls-33{fill:url(#linear-gradient-4);}.cls-34{fill:url(#linear-gradient-5);}.cls-35{fill:#b56643;}.cls-36{fill:#177468;}</style><clipPath id="clip-path" transform="translate(46.39 -112.9)"><rect id="SVGID" class="cls-1" x="36.28" y="137.08" width="769.34" height="321.12"/></clipPath><clipPath id="clip-path-2" transform="translate(46.39 -112.9)"><rect id="SVGID-2" data-name="SVGID" class="cls-1" x="42.46" y="143.26" width="377.36" height="308.75"/></clipPath><linearGradient id="linear-gradient" x1="411.31" y1="267.34" x2="215.62" y2="71.65" gradientUnits="userSpaceOnUse"><stop offset="0" stop-color="#5c88ba"/><stop offset="1" stop-color="#0b1e35"/></linearGradient><clipPath id="clip-path-3" transform="translate(46.39 -112.9)"><path id="SVGID-3" data-name="SVGID" class="cls-1" d="M357.4,235.49s-46.12-12.93-52.31-18-16.87-14.62-16.87-14.62H268.54l-8.44,11.81-8.43.56-13.5,19.68H210.61S188.12,267,180.81,267s-21.37-.56-21.37-.56l-6.65,7.46L173.5,299,375.39,283.3Z"/></clipPath><clipPath id="clip-path-4" transform="translate(46.39 -112.9)"><path id="SVGID-4" data-name="SVGID" class="cls-1" d="M304,272.61,251.11,251.8l-10.69,2.25L220.74,278.8l-16.31,1.12L191.49,276l-39.36,27.55,26.09,15.86s111.36-1.71,119.12,1.34S304,272.61,304,272.61Z"/></clipPath><clipPath id="clip-path-5" transform="translate(46.39 -112.9)"><path id="SVGID-5" data-name="SVGID" class="cls-1" d="M-1.4,206.81l18-20.24,14.62-13.5,18.56-4.5,5.63,7.31,4.36,1,6.88,8.58s22.5,5.63,25.87,10.69,27,33.74,30.94,34.3,32.61,22.5,35.43,29.81,23.05,34.87,23.05,34.87L17.72,274.3Z"/></clipPath><clipPath id="clip-path-6" transform="translate(46.39 -112.9)"><polygon id="SVGID-6" data-name="SVGID" class="cls-1" points="-9.28 210.19 35.15 206.25 68.89 234.93 127.38 253.49 152.69 283.86 160 313.67 -32.9 272.05 -9.28 210.19"/></clipPath><clipPath id="clip-path-7" transform="translate(46.39 -112.9)"><path id="SVGID-7" data-name="SVGID" class="cls-1" d="M-7.59,256.87l35.43-1.13,21.37-6.19L80.7,235.49l70.3,63,46.12,27s-49.49,3.37-50.05,7.87-.57,8.43-8.44,8.43-143.41-31.49-153-28.68S-7.59,256.87-7.59,256.87Z"/></clipPath><clipPath id="clip-path-8" transform="translate(46.39 -112.9)"><path id="RoaD" class="cls-1" d="M-12.09,416s177.15,2.25,239-77.61c0,0,14.63-7.31,9.56-10.12s-18.85-7-14.2-8.28,9.86-1.54,12.88,0,25.51,1,33.94,12.21c0,0,19.69-.56,30.93,11.25s144.53,79.86,154.1,100.11S.28,448.07.28,448.07Z"/></clipPath><clipPath id="clip-path-9" transform="translate(46.39 -112.9)"><path id="SVGID-8" data-name="SVGID" class="cls-1" d="M443.72,190.8,403,161.26l-33.18,36.56-7.31,1.68-19.69,23.62L322,231.56l-3.94,4.5-10.12-1.69L300,245.06l-4.5,2.24-12.37,54-15.18,18s30.93,0,36.55,2.81S328.15,326,333.21,326H440.63Z"/></clipPath><clipPath id="clip-path-10" transform="translate(46.39 -112.9)"><rect id="SVGID-9" data-name="SVGID" class="cls-1" x="426.57" y="143.26" width="377.36" height="308.75"/></clipPath><radialGradient id="radial-gradient" cx="401.43" cy="-68.18" r="303.71" gradientTransform="translate(117.52 331.6) scale(1.21 1.21)" gradientUnits="userSpaceOnUse"><stop offset="0" stop-color="#fbe48f"/><stop offset="0.46" stop-color="#f7bf68"/><stop offset="0.99" stop-color="#f19036"/></radialGradient><linearGradient id="linear-gradient-2" x1="683.39" y1="414.56" x2="680.89" y2="316.66" gradientUnits="userSpaceOnUse"><stop offset="0" stop-color="#fbe48f"/><stop offset="0.26" stop-color="#fadd8a"/><stop offset="0.63" stop-color="#f5cb7a"/><stop offset="0.99" stop-color="#f0b366"/></linearGradient><linearGradient id="linear-gradient-3" x1="739.39" y1="458.51" x2="507.08" y2="408.62" gradientUnits="userSpaceOnUse"><stop offset="0" stop-color="#f0b366"/><stop offset="1" stop-color="#ca774a"/></linearGradient><clipPath id="clip-path-11" transform="translate(46.39 -112.9)"><path id="SVGID-10" data-name="SVGID" class="cls-1" d="M897.84,368.22s-72.54-42.18-119.78-45-116.42,50.61-165.91,54.55l86.61,32.05,191.77-9Z"/></clipPath><linearGradient id="linear-gradient-4" x1="917.53" y1="346.77" x2="806.65" y2="341.12" gradientUnits="userSpaceOnUse"><stop offset="0" stop-color="#f0b366"/><stop offset="0.79" stop-color="#d28450"/><stop offset="1" stop-color="#ca774a"/></linearGradient><linearGradient id="linear-gradient-5" x1="408.48" y1="392.38" x2="900.71" y2="392.38" gradientUnits="userSpaceOnUse"><stop offset="0" stop-color="#f0b366"/><stop offset="0.23" stop-color="#ecac63"/><stop offset="0.56" stop-color="#e09a5a"/><stop offset="0.94" stop-color="#cd7c4c"/><stop offset="1" stop-color="#ca774a"/></linearGradient></defs><g class="cls-2"><rect class="cls-3" x="66.36" y="1.12" width="796.89" height="361.05"/><g class="cls-4"><rect class="cls-3" x="74.8" y="18" width="402.66" height="336.3"/><rect class="cls-5" x="35.99" y="37.12" width="454.4" height="164.22"/><circle class="cls-6" cx="421.5" cy="141.44" r="49.21"/><rect id="GRASS" class="cls-7" x="29.81" y="200.77" width="469.59" height="145.09"/><g class="cls-8"><rect class="cls-9" x="176.03" y="83.79" width="296.94" height="135.53"/><polygon class="cls-10" points="315.5 85.48 316.06 116.97 304.81 150.16 308.75 84.92 315.5 85.48"/><path class="cls-11" d="M268.54,201.19s.72,7.73,2,7.52l1.32-.21h2.82l1.68,1.69,3.38-1.69s0,11.81,2.81,11.81a4.48,4.48,0,0,0,3.94-2.25l2.25-3.37,1.12,2.81-2.81,5.06,6.75-2.81,2.81,2.81H300l2.81-3.94,2.25-1.12,1.69,6.75,2.81-.57,3.94,7.88v-7.88l-15.75-27.55Z" transform="translate(46.39 -112.9)"/><polygon class="cls-11" points="307.62 97.85 307.28 108.99 303.69 104.6 298.5 104.6 298.62 97.85 283.48 123.54 273.32 123.72 269.94 124.29 268.26 123.72 266.57 127.66 265.44 123.72 262.63 124.85 264.88 113.04 305.94 90.54 307.62 97.85"/><path class="cls-11" d="M210.05,230.43l-.92,12.71,2.61-3.71,1.69,2.25,11.81-8.43,2.81,5.62,3.49-2s1.57,4.78-.68,7.59a31.54,31.54,0,0,0-3.37,5.06l9.56-9-2.25-11.81Z" transform="translate(46.39 -112.9)"/><path class="cls-10" d="M252.23,209.63v23.62l-14.06,18-7.31-.56L220.74,265.3s6.75-17.43,14.06-20.24S235.92,231,235.92,231Z" transform="translate(46.39 -112.9)"/><path class="cls-10" d="M210.05,231l-1.12,16.87L187,274.3s10.13-24.75,10.13-31.49S210.05,231,210.05,231Z" transform="translate(46.39 -112.9)"/><polygon class="cls-10" points="340.24 106.85 339.68 117.54 328.43 131.03 330.68 136.66 331.24 153.53 320.56 149.03 323.93 123.16 340.24 106.85"/><path class="cls-10" d="M306.78,226.5s-9,3.37-9.56,12.37,1.69,34.3,1.69,34.3l12.37-27Z" transform="translate(46.39 -112.9)"/><path class="cls-10" d="M324.78,223.12,309,243.8,299.09,262l-37.23-8.36-23.13,22.87S187,266.43,178,278.8l-9,12.37,159.71,30.37,33.18-91.67L330.4,213.56Z" transform="translate(46.39 -112.9)"/></g><g class="cls-12"><rect class="cls-10" x="182.21" y="129.35" width="195.15" height="102.35"/><polygon class="cls-13" points="287.94 136.66 284 186.15 301.44 126.54 297.5 165.9 307.06 136.1 307.06 162.53 278.94 195.15 265.44 183.9 247.45 203.02 280.07 212.02 331.24 199.65 346.99 153.53 330.68 146.78 331.24 160.84 324.49 156.34 320 167.59 309.31 134.41 295.81 110.23 287.94 136.66"/></g><g class="cls-14"><rect class="cls-15" x="20.25" y="52.86" width="217.08" height="137.78"/><path class="cls-10" d="M56.52,173.07,54.83,177l2.25,1.68.57,3.38,4.5,1.12,3.93,3.38s20.81,6.75,23.62,9,12.94,7.31,12.94,7.31L83,182.63Z" transform="translate(46.39 -112.9)"/><polygon class="cls-16" points="97.29 54.55 92.79 64.11 96.17 69.73 96.17 77.61 80.42 101.79 37.68 95.61 68.05 49.49 97.29 54.55"/><polygon class="cls-10" points="128.22 106.29 129.35 97.29 127.1 86.04 134.41 97.85 134.41 104.04 129.91 110.79 128.22 106.29"/><polygon class="cls-10" points="158.59 123.72 157.47 113.6 171.53 107.42 194.02 119.79 195.15 140.03 209.77 157.47 219.58 176.41 159.15 144.53 158.59 123.72"/></g><polygon class="cls-16" points="36.55 89.42 144.53 111.35 166.47 123.72 192.33 138.91 204.71 169.84 244.64 185.59 259.82 208.08 197.4 205.27 25.31 208.08 36.55 89.42"/><g class="cls-17"><rect class="cls-18" y="78.17" width="218.2" height="133.28"/><polygon class="cls-16" points="78.17 92.79 78.73 123.72 83.8 120.91 86.61 126.54 97.85 128.78 87.17 123.72 85.48 116.41 78.17 92.79"/><polygon class="cls-16" points="144.53 121.47 146.22 131.03 156.9 136.66 161.97 143.97 174.9 154.09 164.78 142.28 160.84 134.41 148.47 130.47 144.53 121.47"/></g><g class="cls-19"><rect class="cls-20" x="24.74" y="119.41" width="231.14" height="118.48"/><polygon class="cls-21" points="61.3 137.78 69.73 137.78 76.48 154.66 76.48 176.03 82.11 197.96 57.36 138.91 61.3 137.78"/><polygon class="cls-21" points="99.87 130.82 128.22 189.52 106.85 174.34 108.54 161.97 95.61 133.28 99.87 130.82"/><polygon class="cls-15" points="126.54 119.22 130.47 144.53 132.72 139.47 135.53 139.47 140.03 142.84 140.03 140.03 154.15 145.82 137.78 116.41 126.54 119.22"/></g><g class="cls-22"><rect class="cls-23" x="4.5" y="190.65" width="595" height="226.64"/><path class="cls-24" d="M197.26,454.46c-65.94-1.32-10.84-8.39-6-11.44,44.13-28.13,63.07-104.93,59.88-106.3l-2.25-1.12s3.93-8.44-10.13-11.25-13.17-4.42-9.67-5.58,1.8,0,1.8,0-2.25.56-1.69,1.12,13.5,2.81,15.19,3.94,15.74,7.31,9.56,11.25c0,0,3.37,0,3.93,1.68s.57,94.48,22.5,112.48C318.21,480.27,226.41,455.05,197.26,454.46Z" transform="translate(46.39 -112.9)"/></g><g class="cls-25"><rect class="cls-18" x="303.12" y="45.55" width="199.65" height="173.78"/><polygon class="cls-16" points="417.85 91.67 408.29 86.61 385.23 114.16 345.3 123.16 312.12 213.14 412.23 220.45 403.23 148.47 409.98 138.91 407.73 118.66 420.1 99.54 417.85 91.67"/><polygon class="cls-16" points="414.48 215.39 412.23 169.84 418.41 181.65 422.35 199.08 420.1 153.53 434.16 221.02 414.48 215.39"/><polygon class="cls-20" points="366.11 115.85 336.3 208.64 368.36 127.66 344.18 215.39 368.92 214.83 376.8 148.47 384.67 222.7 389.73 216.52 384.11 135.53 395.92 188.96 388.61 92.79 394.79 96.17 394.79 118.1 403.79 125.41 403.79 140.59 406.6 102.35 394.23 87.17 367.24 105.73 366.11 115.85"/><polygon class="cls-15" points="415.6 80.98 421.79 115.85 425.16 197.4 432.42 216.19 436.41 153.53 440.91 191.21 435.85 216.52 463.96 217.08 454.97 135.53 469.03 181.09 474.65 183.34 487.58 210.89 472.96 133.85 451.03 119.79 461.15 79.3 448.78 42.18 470.78 64.69 488.15 147.91 496.02 233.39 436.41 224.95 521.89 241.26 498.83 51.74 447.09 33.18 415.6 80.98"/><polygon class="cls-20" points="467.9 56.24 485.9 143.41 489.27 74.23 467.9 56.24"/></g></g><g class="cls-26"><rect class="cls-3" x="434.72" y="12.37" width="444.84" height="348.11"/><rect class="cls-27" x="465.65" y="30.37" width="484.77" height="318.87"/><circle class="cls-28" cx="532.86" cy="233.67" r="44.71"/><path class="cls-29" d="M437.25,375.58,461.72,363l14.21-20.13v-22.1l13.42-9.47.79-26.84,18.15-18.55,13.42,2.37L530,287.57l19.34,11.05,6.71,39.07L568.28,331h17.37l9.47,8.69,18.15,26.44L625.51,342l21.71-2.76L650,349.93s2.76,19.34,16.18,21.7,45.78,13.42,45.78,13.42l22.5-28.41V327l8.28-9.08,5.92,4.34h10.27L768,366.5l23.29-4.73-5.13-47.36L798.77,301l15.78.39,11.05,6.71,7.5-1.58,11,22.5,83.67,57.62-223.38,56Z" transform="translate(46.39 -112.9)"/><path class="cls-30" d="M400.83,346.33s40.92-27.6,46-26.48S746,443,888.85,420l16.87,12.37,14.06,44.43-514-14.06Z" transform="translate(46.39 -112.9)"/><g class="cls-31"><rect class="cls-32" x="625.93" y="196.83" width="332.93" height="115.85"/><path class="cls-33" d="M779.18,322.66S791,350.78,816.3,356.41s77.61,5.06,77.61,5.06l-35.43-29.81Z" transform="translate(46.39 -112.9)"/></g><path class="cls-34" d="M409,341.52s35-22.79,37.84-21.67l2.82,1.13s-1.69,55.11,102.91,81,284-25.87,326.18-21.93S889.41,465,889.41,465L408.48,458.7Z" transform="translate(46.39 -112.9)"/><path class="cls-35" d="M576.08,391s-.29,4.11,1.15,5.32l3.43,2.91V407l3.72-.24-1.14-6.3s3.72-3.87,3.43-4.84-.86-5.09-1.14-3.88,0,5.09-1.72,5.57-2-17.31-3.15-15.62.86,15.14-.29,14.9-2,0-2-1.94S577.8,391,576.08,391Z" transform="translate(46.39 -112.9)"/><path class="cls-35" d="M740.25,356.48c.41-3,.63-3.15,1.15-3.22s3.84,2.86,4.51,10,4,12.56,5.75,12.3,1.43-5.06-.13-14.56-6-26.13-3.83-27.52a3.46,3.46,0,0,1,5.42,2.63c.44,3,3.86,11.68,2.73,13.82s1.07,11,1.07,11,3.91-4,3.4-7.52-3.05-12.33-.94-12.64,3.43,9.94,3.43,9.94,3.37-1.57,3.06-3.68-.77-4,.29-4.19,3.65,6.49,2,7.81a53.84,53.84,0,0,1-5.61,3.51s2.53,5,.14,7.18-4.92,4.5-4.69,7.34,3.12,15.21,3.12,15.21,2.57.35,2.46-2.88-.17-4.83,1.19-5.39,3.37,4.55,2.19,6.34-5.59,3.69-5.15,6.69,1,8.13,1,8.13l-6.17-.36-3-16.84s-7.25-.39-8.75-4.49S739.39,362.91,740.25,356.48Z" transform="translate(46.39 -112.9)"/><polygon class="cls-35" points="803.27 281.95 793.06 270.37 800.25 280.69 794.83 278.63 801.04 282.28 797.46 281.09 799.62 284.19 795.09 284.28 798.27 286.66 796.68 287.46 802.33 287.2 803.92 286.4 805.75 287.27 808.45 286.31 811.79 285.83 815.44 283.59 813.22 283.91 815.11 277.39 812.68 281.56 811.61 276.76 810.98 280.26 813.51 274.21 808.59 279.47 809.7 275.33 806.61 281.47 803.27 281.95"/></g><rect class="cls-36" x="461.15" y="7.87" width="12.37" height="353.74"/><rect class="cls-36" x="422.81" y="46.72" width="12.37" height="811.7" transform="translate(927.97 -89.32) rotate(90)"/><rect class="cls-36" x="423.13" y="-264.73" width="17.78" height="811.7" transform="translate(619.53 -403.79) rotate(90)"/><rect class="cls-36" x="82.67" width="12.37" height="353.74"/><rect class="cls-36" x="839.63" y="9.56" width="12.37" height="353.74"/></g></svg>