<?xml version="1.0" encoding="UTF-8"?>
<!-- Created with Inkscape (http://www.inkscape.org/) -->
<svg width="500mm" height="200mm" version="1.1" viewBox="0 0 500 200" xmlns="http://www.w3.org/2000/svg">
 <defs>
  <clipPath id="clipPath844">
   <path d="M 0,112.889 H 311.5 V 0 H 0 Z"/>
  </clipPath>
  <radialGradient id="radialGradient942" cx="0" cy="0" r="1" gradientTransform="matrix(-12.667 -17.034 -17.034 12.667 74.357 67.387)" gradientUnits="userSpaceOnUse">
   <stop stop-color="#e4a9ad" offset="0"/>
   <stop stop-color="#ce717b" offset=".50538"/>
   <stop stop-color="#a8133e" offset="1"/>
  </radialGradient>
  <clipPath id="clipPath952">
   <path d="M 0,112.889 H 311.5 V 0 H 0 Z"/>
  </clipPath>
 </defs>
 <g transform="matrix(1.765 0 0 -1.9829 -30.928 212.39)">
  <g transform="translate(150.64 57.459)">
   <path d="m0 0v-7.33h-23.091v30.691h23.091v-7.083h-13.85v-4.451h11.197v-6.813h-11.197v-5.014z" fill="#a8133e"/>
  </g>
  <path d="m163.73 58.201h-11.399v7.06h11.399z" fill="#a8133e"/>
  <g clip-path="url(#clipPath844)">
   <g transform="translate(193.54 67.329)">
    <path d="m0 0v-17.2h-4.61c-0.374 1.274-0.786 2.346-1.236 3.215-1.904-2.458-4.722-3.687-8.454-3.687-3.957 0-7.21 1.382-9.758 4.148-2.549 2.765-3.823 6.509-3.823 11.231 0 4.586 1.233 8.442 3.699 11.568 2.466 3.125 6.135 4.688 11.006 4.688 3.657 0 6.603-0.93 8.836-2.788 2.234-1.859 3.68-4.497 4.34-7.915l-9.129-0.899c-0.45 3.193-1.851 4.789-4.204 4.789-3.088 0-4.632-2.938-4.632-8.814 0-3.552 0.494-5.895 1.484-7.026 0.989-1.132 2.188-1.698 3.597-1.698 1.139 0 2.11 0.345 2.912 1.035 0.802 0.689 1.21 1.633 1.225 2.833h-5.081v6.52z" fill="#a8133e"/>
   </g>
   <path d="m207.03 50.129h-8.836v30.691h8.836z" fill="#a8133e"/>
   <g transform="translate(223.06 55.098)">
    <path d="m0 0c1.395 0 2.245 0.723 2.552 2.17 0.307 1.446 0.461 2.956 0.461 4.531 0 2.143-0.218 3.687-0.652 4.632-0.435 0.943-1.214 1.416-2.339 1.416-1.033 0-1.791-0.487-2.27-1.462-0.48-0.974-0.72-2.578-0.72-4.811 0-2.623 0.248-4.359 0.742-5.205 0.495-0.847 1.237-1.271 2.226-1.271m-0.135-5.441c-3.792 0-6.805 1.18-9.038 3.541-2.234 2.361-3.35 5.13-3.35 8.308 0 3.418 1.165 6.266 3.496 8.544s5.362 3.418 9.095 3.418c3.762 0 6.786-1.124 9.072-3.373 2.286-2.248 3.429-5.066 3.429-8.454 0-3.418-1.158-6.27-3.474-8.555-2.316-2.286-5.392-3.429-9.23-3.429" fill="#a8133e"/>
   </g>
   <g transform="translate(248 58.651)">
    <path d="m0 0c0-2.249 0.869-3.373 2.608-3.373 0.945 0 1.667 0.409 2.17 1.226 0.502 0.816 0.753 2.499 0.753 5.047 0 2.773-0.284 4.516-0.854 5.228s-1.274 1.068-2.114 1.068c-0.66 0-1.251-0.255-1.776-0.764-0.525-0.51-0.787-1.252-0.787-2.226zm-3.777-8.521h-5.059v30.69h8.836v-10.544c1.229 2.127 3.185 3.192 5.868 3.192 1.889 0 3.493-0.495 4.812-1.484s2.301-2.402 2.945-4.238c0.645-1.836 0.967-3.766 0.967-5.79 0-3.687-0.824-6.659-2.473-8.915s-4.107-3.384-7.375-3.384c-3.223 0-5.674 1.207-7.352 3.62-0.48-0.899-0.87-1.949-1.169-3.147" fill="#a8133e"/>
   </g>
   <g transform="translate(280.67 64.272)">
    <path d="m0 0c-0.015 1.543-0.325 2.582-0.93 3.114s-1.356 0.798-2.252 0.798c-2.121 0-3.181-1.304-3.181-3.912zm0.607-5.936 8.364-0.562c-0.494-2.249-1.758-4.163-3.788-5.745-2.032-1.581-4.778-2.372-8.241-2.372-3.853 0-6.925 1.113-9.218 3.339-2.294 2.226-3.44 4.988-3.44 8.286 0 3.417 1.131 6.303 3.395 8.656 2.262 2.353 5.283 3.53 9.061 3.53 3.657 0 6.614-1.11 8.87-3.328s3.384-5.239 3.384-9.061c0-0.314-8e-3 -0.749-0.023-1.304h-15.312c0.03-1.439 0.285-2.507 0.765-3.204 0.479-0.697 1.394-1.046 2.743-1.046 1.948 0 3.095 0.937 3.44 2.811" fill="#a8133e"/>
   </g>
   <g transform="translate(149.14 31.579)">
    <path d="m0 0c-0.268-0.916-0.764-2.291-1.05-2.882-0.554-0.096-2.042-0.458-3.493-0.458-4.561 0-6.89 3.149-6.89 6.375 0 4.084 3.016 6.585 7.329 6.585 1.565 0 2.882-0.363 3.512-0.439 0.076-0.859 0.21-2.024 0.363-2.978l-0.592-0.134c-0.382 1.279-0.878 2.119-1.851 2.52-0.496 0.229-1.183 0.325-1.909 0.325-3.207 0-4.867-2.558-4.867-5.478 0-3.684 2.118-6.051 5.02-6.051 1.947 0 2.882 0.897 3.855 2.806z" fill="#a8133e"/>
   </g>
   <g transform="translate(154.86 36.485)">
    <path d="m0 0c-1.164 0-2.214-1.126-2.214-3.34 0-2.424 1.069-4.18 2.634-4.18 1.184 0 2.176 0.859 2.176 3.474 0 2.233-0.916 4.046-2.596 4.046m0.229 0.649c2.386 0 4.161-1.814 4.161-4.275 0-3.093-2.29-4.562-4.161-4.562-2.634 0-4.237 2.118-4.237 4.256 0 3.111 2.424 4.581 4.237 4.581" fill="#a8133e"/>
   </g>
   <g transform="translate(166.03 28.525)">
    <path d="m0 0v0.535c1.107 0.114 1.222 0.248 1.222 1.546v3.149c0 1.336-0.478 2.233-1.738 2.233-0.782 0-1.526-0.458-2.118-0.992v-4.467c0-1.317 0.114-1.355 1.24-1.469v-0.535h-4.122v0.535c1.26 0.133 1.374 0.21 1.374 1.469v3.932c0 1.241-0.133 1.298-1.164 1.47v0.496c0.935 0.153 1.87 0.401 2.672 0.764v-1.508c0.382 0.267 0.801 0.553 1.298 0.878 0.534 0.343 1.03 0.572 1.584 0.572 1.527 0 2.481-1.126 2.481-2.977v-3.627c0-1.297 0.115-1.355 1.222-1.469v-0.535z" fill="#a8133e"/>
   </g>
   <g transform="translate(175.93 34.633)">
    <path d="m0 0c-0.344 1.107-0.878 1.871-2.042 1.871-0.668 0-1.222-0.477-1.222-1.241 0-0.84 0.63-1.241 1.661-1.699 1.565-0.687 2.462-1.298 2.462-2.615 0-1.755-1.603-2.653-3.111-2.653-0.993 0-1.871 0.325-2.271 0.554-0.096 0.554-0.268 1.641-0.344 2.271l0.554 0.095c0.343-1.221 1.011-2.271 2.347-2.271 0.726 0 1.375 0.497 1.375 1.298 0 0.859-0.516 1.317-1.566 1.775-1.24 0.573-2.462 1.202-2.462 2.653 0 1.394 1.222 2.462 3.016 2.462 0.802 0 1.489-0.19 1.871-0.248 0.057-0.458 0.19-1.66 0.286-2.118z" fill="#a8133e"/>
   </g>
   <g transform="translate(187.13 28.965)">
    <path d="m0 0c-0.917-0.134-1.947-0.382-2.92-0.668v1.469c-1.031-0.859-1.871-1.469-2.921-1.469-1.278 0-2.386 0.782-2.386 2.863v3.702c0 1.031-0.152 1.146-0.629 1.241l-0.535 0.095v0.497c0.821 0.038 2.08 0.229 2.729 0.344-0.057-0.611-0.057-1.528-0.057-2.787v-2.596c0-1.679 0.878-2.157 1.737-2.157 0.707 0 1.413 0.305 2.062 0.916v4.447c0 1.031-0.229 1.165-0.878 1.26l-0.611 0.076v0.497c1.221 0.057 2.557 0.267 2.996 0.344v-6.395c0-0.954 0.153-1.088 0.878-1.126l0.535-0.019z" fill="#a8133e"/>
   </g>
   <g transform="translate(187.8 28.525)">
    <path d="m0 0v0.535c1.222 0.114 1.375 0.21 1.375 1.469v9.143c0 1.164-0.096 1.279-1.317 1.431v0.497c1.03 0.114 2.214 0.42 2.824 0.649v-11.72c0-1.259 0.115-1.355 1.355-1.469v-0.535z" fill="#a8133e"/>
   </g>
   <g transform="translate(196.69 28.545)">
    <path d="m0 0c-0.325-0.172-0.63-0.249-0.821-0.249-1.221 0-1.87 0.745-1.87 2.272v5.554h-1.317l-0.076 0.229 0.515 0.554h0.878v1.603c0.362 0.382 0.916 0.878 1.278 1.26l0.287-0.038c-0.039-0.802-0.058-1.909-0.058-2.825h2.176c0.172-0.191 0.115-0.611-0.114-0.783h-2.062v-4.886c0-1.546 0.611-1.832 1.107-1.832 0.459 0 0.898 0.171 1.165 0.305l0.172-0.496z" fill="#a8133e"/>
   </g>
   <g transform="translate(200.72 39.042)">
    <path d="m0 0c-0.535 0-1.012 0.477-1.012 1.011 0 0.611 0.477 1.05 1.031 1.05 0.534 0 0.974-0.439 0.974-1.05 0-0.534-0.44-1.011-0.993-1.011m-1.985-10.517v0.535c1.202 0.114 1.336 0.21 1.336 1.507v3.933c0 1.183-0.057 1.259-1.203 1.45v0.458c0.993 0.172 1.89 0.42 2.711 0.763v-6.604c0-1.297 0.134-1.393 1.374-1.507v-0.535z" fill="#a8133e"/>
   </g>
   <g transform="translate(209.41 28.525)">
    <path d="m0 0v0.535c1.107 0.114 1.221 0.248 1.221 1.546v3.149c0 1.336-0.477 2.233-1.737 2.233-0.782 0-1.526-0.458-2.118-0.992v-4.467c0-1.317 0.114-1.355 1.24-1.469v-0.535h-4.122v0.535c1.259 0.133 1.374 0.21 1.374 1.469v3.932c0 1.241-0.133 1.298-1.164 1.47v0.496c0.935 0.153 1.87 0.401 2.672 0.764v-1.508c0.382 0.267 0.801 0.553 1.298 0.878 0.534 0.343 1.03 0.572 1.584 0.572 1.527 0 2.481-1.126 2.481-2.977v-3.627c0-1.297 0.115-1.355 1.222-1.469v-0.535z" fill="#a8133e"/>
   </g>
   <g transform="translate(217.92 36.58)">
    <path d="m0 0c-0.859 0-1.622-0.782-1.622-2.29s0.763-2.558 1.813-2.558c0.84 0.038 1.584 0.744 1.584 2.29 0 1.489-0.706 2.558-1.775 2.558m0.439-8.284c-0.935 0-1.355-0.114-1.699-0.4-0.534-0.439-0.916-1.012-0.916-1.566 0-1.049 1.088-1.832 2.558-1.832 1.813 0 2.844 0.936 2.844 2.157 0 0.649-0.306 1.164-0.84 1.393-0.477 0.21-1.145 0.248-1.947 0.248m-0.439 2.826c-1.775 0-3.245 1.087-3.245 2.881 0 2.176 1.947 3.188 3.436 3.188 0.63 0 1.26-0.172 1.832-0.477 0.878 0 2.023 0.153 2.558 0.286l0.114-0.172c-0.114-0.305-0.42-0.839-0.706-1.011-0.286 0-0.916 0.076-1.183 0.095 0.324-0.439 0.553-1.05 0.553-1.737 0-2.08-1.717-3.053-3.359-3.053m-0.916 0.19c-0.458-0.362-0.63-0.725-0.63-0.954 0-0.343 0.324-0.725 1.183-0.725 0.707 0 1.508 0.019 2.138 0.019 1.222 0 2.787-0.401 2.787-2.291 0-1.985-2.348-3.855-4.886-3.855-2.157 0-3.322 1.26-3.36 2.386 0 0.419 0.172 0.782 0.477 1.087 0.382 0.401 1.126 1.031 1.565 1.375-0.687 0.191-1.183 0.63-1.431 1.031-0.172 0.286-0.229 0.63-0.229 0.82 0.725 0.268 1.374 0.802 1.756 1.317z" fill="#a8133e"/>
   </g>
   <g transform="translate(240.4 33.736)">
    <path d="m0 0c-1.184-0.153-1.26-0.267-1.26-1.393v-1.604c0-0.668 0.019-1.297 0.114-1.813-1.183-0.267-2.671-0.687-4.275-0.687-4.256 0-7.024 2.691-7.024 6.528 0 4.141 3.283 6.432 7.101 6.432 2.023 0 3.378-0.439 3.969-0.477 0.039-0.707 0.134-1.89 0.287-3.092l-0.573-0.115c-0.458 1.622-1.03 2.367-2.233 2.768-0.439 0.152-1.088 0.21-1.718 0.21-2.92 0-4.848-1.89-4.848-5.497 0-3.054 1.546-6.051 5.287-6.051 0.65 0 1.241 0.115 1.623 0.306 0.4 0.229 0.63 0.477 0.63 1.259v1.546c0 1.394-0.153 1.546-1.985 1.68v0.554h4.905z" fill="#a8133e"/>
   </g>
   <g transform="translate(246.12 28.525)">
    <path d="m0 0h-4.39v0.535c1.202 0.114 1.317 0.21 1.317 1.45v3.97c0 1.26-0.076 1.317-1.183 1.451v0.477c0.935 0.153 1.794 0.382 2.691 0.783v-2.1c0.668 0.993 1.469 2.042 2.424 2.042 0.706 0 1.107-0.439 1.107-0.916 0-0.439-0.305-0.859-0.649-1.049-0.191-0.115-0.343-0.096-0.496 0.038-0.287 0.286-0.516 0.477-0.859 0.477-0.401 0-1.108-0.592-1.527-1.565v-3.589c0-1.259 0.095-1.355 1.565-1.469z" fill="#a8133e"/>
   </g>
   <g transform="translate(252.77 36.485)">
    <path d="m0 0c-1.165 0-2.214-1.126-2.214-3.34 0-2.424 1.069-4.18 2.634-4.18 1.184 0 2.176 0.859 2.176 3.474 0 2.233-0.916 4.046-2.596 4.046m0.229 0.649c2.386 0 4.161-1.814 4.161-4.275 0-3.093-2.29-4.562-4.161-4.562-2.634 0-4.237 2.118-4.237 4.256 0 3.111 2.424 4.581 4.237 4.581" fill="#a8133e"/>
   </g>
   <g transform="translate(267.84 28.965)">
    <path d="m0 0c-0.916-0.134-1.947-0.382-2.92-0.668v1.469c-1.031-0.859-1.871-1.469-2.92-1.469-1.279 0-2.386 0.782-2.386 2.863v3.702c0 1.031-0.153 1.146-0.63 1.241l-0.535 0.095v0.497c0.821 0.038 2.081 0.229 2.73 0.344-0.057-0.611-0.057-1.528-0.057-2.787v-2.596c0-1.679 0.878-2.157 1.737-2.157 0.706 0 1.412 0.305 2.061 0.916v4.447c0 1.031-0.229 1.165-0.878 1.26l-0.611 0.076v0.497c1.221 0.057 2.557 0.267 2.997 0.344v-6.395c0-0.954 0.152-1.088 0.878-1.126l0.534-0.019z" fill="#a8133e"/>
   </g>
   <g transform="translate(271.39 29.976)">
    <path d="m0 0c0.439-0.439 1.183-0.745 1.813-0.745 1.661 0 2.729 1.393 2.729 3.531 0 2.062-1.202 3.226-2.557 3.226-0.668 0-1.47-0.439-1.985-0.821zm-2.768 6.527c0.897 0.134 1.89 0.458 2.768 0.821v-1.527c0.057 0.038 1.584 0.916 1.66 0.954 0.459 0.248 0.859 0.382 1.108 0.382 2.099 0 3.378-1.756 3.378-3.645 0-2.902-2.291-4.734-4.791-5.192-0.573 0.019-1.088 0.191-1.355 0.344v-2.577c0-1.412 0.152-1.527 1.623-1.661v-0.534h-4.524v0.534c1.24 0.134 1.393 0.229 1.393 1.508v8.685c0 1.145-0.038 1.221-1.26 1.393z" fill="#a8133e"/>
   </g>
  </g>
  <path d="m68.991 87.315c-17.592-0.198-31.693-14.619-31.495-32.212 0.198-17.592 14.619-31.692 32.212-31.495 17.592 0.198 31.693 14.62 31.495 32.212-0.196 17.471-14.419 31.499-31.846 31.497-0.121 0-0.244 0-0.366-2e-3" fill="url(#radialGradient942)"/>
  <g clip-path="url(#clipPath952)">
   <g transform="translate(65.374 56.093)">
    <path d="m0 0c0.094-8e-3 0.267 0.089 0.287 0.167 0.035 0.141-0.018 0.302-0.035 0.454-0.063 9e-3 -0.126 0.019-0.189 0.028-0.113-0.146-0.24-0.286-0.324-0.446-0.013-0.025 0.163-0.194 0.261-0.203" fill="#fff"/>
   </g>
   <g transform="translate(51.584 79.832)">
    <path d="m0 0c0.153 0.129 0.278 0.29 0.398 0.449 0.027 0.036-0.014 0.118-0.02 0.155-0.211-0.13-0.404-0.225-0.563-0.356-0.073-0.062-0.082-0.195-0.121-0.295 0.104 0.013 0.241-8e-3 0.306 0.047" fill="#fff"/>
   </g>
   <g transform="translate(45.342 77.117)">
    <path d="m0 0c-0.459-0.525-0.898-1.067-1.323-1.622 0.443 0.525 0.892 1.057 1.345 1.594-7e-3 9e-3 -0.015 0.019-0.022 0.028" fill="#fff"/>
   </g>
   <g transform="translate(47.971 77.039)">
    <path d="m0 0c0.352 0.485 0.676 0.988 1.015 1.481 0.249 0.364 0.504 0.723 0.754 1.085 0.25 0.36 0.528 0.664 0.992 0.809 0.22 0.069 0.387 0.296 0.57 0.461 0.027 0.024 0.027 0.123 2e-3 0.143-0.043 0.033-0.137 0.063-0.175 0.041-0.53-0.311-1.121-0.563-1.564-0.963-0.797-0.718-1.168-1.775-2.038-2.453-0.062-0.047-0.094-0.128-0.152-0.181-0.254-0.228-0.2-0.511-0.189-0.817 0.513 0.049 0.528 0.039 0.785 0.394" fill="#fff"/>
   </g>
   <g transform="translate(49.205 80.763)">
    <path d="M 0,0 C 0.245,0.163 0.475,0.346 0.781,0.577 0.7,0.564 0.628,0.542 0.551,0.525 0.339,0.36 0.131,0.19 -0.077,0.02 -0.045,0.006 -0.013,-0.009 0,0" fill="#fff"/>
   </g>
   <g transform="translate(47.22 78.854)">
    <path d="M 0,0 C 0.273,0.114 0.519,0.145 0.631,0.277 0.993,0.703 1.31,1.164 1.631,1.62 1.644,1.637 1.634,1.669 1.625,1.702 1.091,1.253 0.576,0.783 0.073,0.301 0.052,0.215 0.03,0.123 0,0" fill="#fff"/>
   </g>
   <g transform="translate(47.375 77.462)">
    <path d="m0 0c0.058 0.053 0.09 0.133 0.151 0.181 0.87 0.677 1.242 1.735 2.038 2.453 0.443 0.4 1.035 0.652 1.565 0.962 0.038 0.022 0.131-7e-3 0.175-0.041 0.025-0.019 0.025-0.118-2e-3 -0.142-0.183-0.165-0.35-0.392-0.571-0.461-0.463-0.145-0.742-0.45-0.991-0.809-0.251-0.362-0.506-0.722-0.755-1.085-0.339-0.493-0.663-0.996-1.014-1.481-0.257-0.355-0.272-0.346-0.785-0.394-0.012 0.305-0.065 0.588 0.189 0.817m4.587 2.974c6e-3 -0.037 0.047-0.12 0.02-0.155-0.12-0.159-0.245-0.32-0.398-0.449-0.065-0.056-0.202-0.034-0.306-0.048 0.039 0.101 0.048 0.234 0.121 0.295 0.159 0.132 0.351 0.227 0.563 0.357m-9.629-7.483c-1.411-2.793-1.887-5.81-2.457-8.805 0.284 0.131 0.518 0.27 0.743 0.422 0.318 0.214 0.634 0.431 0.937 0.663 0.109 0.084 0.177 0.217 0.261 0.33 0.085 0.114 0.144 0.261 0.256 0.341 0.27 0.194 0.572 0.308 0.823 0.574 0.347 0.37 0.741 0.685 0.912 1.174 0.025 0.073 0.056 0.149 0.106 0.208 0.236 0.28 0.488 0.548 0.719 0.832 0.258 0.318 0.2 0.733 0.04 0.997-0.219 0.364-0.121 0.649-0.017 0.972 0.037 0.115 0.094 0.226 0.141 0.339-0.266-0.219-0.49-0.459-0.701-0.708-0.175-0.206-0.442-0.197-0.588-0.083-0.119 0.094-0.164 0.369-0.122 0.536 0.114 0.453 0.293 0.892 0.446 1.337 0.123 0.357 0.22 0.724 0.377 1.066 0.08 0.171 0.267 0.298 0.405 0.445 0.049-0.022 0.097-0.043 0.146-0.065-0.031-0.157-0.039-0.323-0.097-0.471-0.161-0.407-0.269-0.817-0.167-1.251 0.025-0.108 0.087-0.281 0.155-0.291 0.11-0.018 0.241 0.072 0.36 0.12 0.055 0.023 0.106 0.055 0.255 0.134-0.066-0.24-0.089-0.398-0.153-0.54-0.11-0.245-0.023-0.416 0.2-0.526 0.304-0.149 0.593-0.324 0.978-0.26 0.287 0.049 0.591 0.01 0.871 0.01 0.073-0.453 0.143-0.855 0.201-1.258 0.034-0.237 0.126-0.402 0.444-0.349l9e-3 -0.09c-0.155-0.086-0.311-0.172-0.509-0.282 0.065-0.276 0.137-0.587 0.205-0.874 0.55 0.032 0.607 0.457 0.832 0.734-0.017-0.32-0.031-0.632-0.137-0.912-0.366-0.964-0.401-1.967-0.422-2.97-0.01-0.506 0.024-1.015 0.073-1.519 0.056-0.572 0.151-1.139 0.229-1.709 0.058-0.414 0.104-0.83 0.184-1.241 0.018-0.094 0.152-0.168 0.232-0.251 0.08 0.085 0.173 0.163 0.234 0.259 0.195 0.304 0.325 0.665 0.58 0.91 0.202 0.195 0.228 0.38 0.245 0.606 0.01 0.132 2e-3 0.28 0.063 0.39 0.309 0.56 0.324 1.173 0.353 1.775 0.023 0.52 0.44 0.686 0.783 0.935 0.109 0.079 0.203 0.177 0.293 0.276 0.06 0.064 0.09 0.154 0.151 0.217 0.416 0.428 0.837 0.853 1.258 1.277 0.059 0.059 0.126 0.143 0.2 0.154 0.42 0.062 0.597 0.329 0.672 0.688 0.053 0.247 0.352 0.451 0.612 0.42 0.486-0.057 0.954-0.064 1.247 0.416 0.022 0.036 0.098 0.042 0.201 0.083 0.036-0.194 0.066-0.363 0.098-0.531 0.059-0.31 0.073-0.636 0.193-0.921 0.104-0.25 0.41-0.428 0.255-0.761-9e-3 -0.02 0.019-0.063 0.039-0.088 0.328-0.412 0.263-0.845 0.089-1.29-0.196-0.502-0.145-0.579 0.416-0.669 0.265 0.254 0.528 0.508 0.831 0.8 0.054-0.405 0.103-0.796 0.159-1.185 0.055-0.391 0.151-0.781 0.167-1.173 0.014-0.369-0.195-0.803-0.053-1.098 0.206-0.423-0.14-0.721-0.074-1.105 0.062-0.366-0.105-0.768-0.171-1.154l0.081-0.015c0.039 0.047 0.078 0.094 0.115 0.137 0.559-0.692 0.759-1.486 0.87-2.322 0.087-0.662 0.322-1.289 0.929-1.695 0.288-0.192 0.34-0.442 0.374-0.771-0.152 0.166-0.264 0.311-0.4 0.432-0.194 0.171-0.382 0.387-0.616 0.467-0.308 0.106-0.467 0.292-0.619 0.538-0.116 0.188-0.3 0.337-0.439 0.514-0.142 0.18-0.283 0.364-0.393 0.562-0.122 0.219-0.214 0.428-0.536 0.454-0.189 0.015-0.368 0.13-0.554 0.197-0.061 0.022-0.154 0.066-0.183 0.043-0.054-0.041-0.11-0.136-0.095-0.19 0.041-0.147 0.098-0.298 0.187-0.422 0.196-0.269 0.435-0.51 0.62-0.785 0.22-0.329 0.309-0.73 0.664-0.988 0.11-0.08 0.137-0.27 0.193-0.413 0.088-0.226 0.147-0.464 0.254-0.68 0.222-0.447 0.472-0.88 0.699-1.325 0.116-0.226 0.166-0.494 0.321-0.689 0.469-0.588 0.974-1.15 1.468-1.72 0.022-0.025 0.072-0.039 0.11-0.04 0.191-4e-3 0.383-2e-3 0.634-2e-3v1.772c-0.018 0.032-0.036 0.065-0.054 0.097-0.059 0.067-0.107 0.172-0.18 0.193-0.34 0.095-0.397 0.361-0.486 0.629-0.035 0.104-0.152 0.21-0.26 0.259-0.161 0.074-0.258 0.15-0.186 0.326 0.099 0.242 0.144 0.478-0.018 0.62 0.185 0.086 0.458 0.13 0.518 0.262 0.071 0.156 0.033 0.465-0.089 0.572-0.436 0.383-0.542 0.875-0.461 1.359 0.141 0.854-0.544 1.261-0.949 1.825-0.463 0.062-0.422 0.421-0.488 0.73-0.058 0.267-0.077 0.662-0.257 0.759-0.363 0.197-0.263 0.452-0.214 0.675 0.137 0.623 0.32 1.238 0.502 1.851 0.02 0.065 0.152 0.136 0.232 0.137 0.051 0 0.128-0.118 0.15-0.194 0.026-0.089 6e-3 -0.191 6e-3 -0.283 0.584-0.112 0.884-0.428 0.967-0.971 0.011-0.078 0.113-0.145 0.174-0.218 0.028 0.016 0.057 0.03 0.086 0.045-6e-3 -0.071-0.011-0.142-0.017-0.211 0.503-0.161 0.584-0.285 0.541-0.778-0.014-0.167-2e-3 -0.336-2e-3 -0.504 0.045-0.016 0.09-0.031 0.135-0.047 0.203 0.454 0.897 0.517 0.861 1.113 0.551 0.177 1.1 0.376 1.218 0.92 0.243 1.115 0.145 2.182-0.737 3.087-0.257 0.265-0.402 0.638-0.554 0.98-0.088 0.197-0.162 0.451-0.106 0.643 0.069 0.238 0.258 0.457 0.434 0.651 0.412 0.456 0.83 0.902 1.473 0.509-0.085-0.257-0.088-0.5 0.221-0.7 0.033 0.091 0.07 0.142 0.063 0.186-0.058 0.35 0.121 0.507 0.462 0.574 0.224 0.045 0.456 0.104 0.65 0.213 0.156 0.089 0.26 0.261 0.389 0.394 0.013 0.013 0.04 0.015 0.059 0.023 0.06-0.061 0.119-0.121 0.129-0.131 0.264 0.078 0.479 0.128 0.683 0.206 0.187 0.072 0.391 0.142 0.536 0.268 0.261 0.227 0.478 0.5 0.726 0.743 0.29 0.283 0.65 0.519 0.627 0.986-4e-3 0.07 0.061 0.141 0.084 0.214 0.165 0.525 0.596 0.925 0.746 1.462 0.127 0.455 0.059 0.61-0.489 0.702 0.1 0.073 0.157 0.131 0.227 0.161 0.406 0.171 0.271 0.509 0.16 0.725-0.287 0.558-0.65 1.08-1.018 1.672 0.236 0.435 0.662 0.828 1.204 1.129-0.396 0.044-0.783 0.411-1.118-0.048-2e-3 -1e-3 -0.22 0.097-0.218 0.143 0.01 0.212-0.067 0.29-0.29 0.32-0.1 0.013-0.178 0.164-0.267 0.252 0.093 0.074 0.181 0.153 0.278 0.22 0.099 0.068 0.221 0.109 0.307 0.188 0.208 0.188 0.394 0.401 0.607 0.583 0.057 0.047 0.198 0.046 0.277 0.015 0.063-0.024 0.141-0.139 0.128-0.196-0.056-0.235-0.145-0.465-0.248-0.776 0.265 0.187 0.438 0.383 0.652 0.439 0.22 0.059 0.488 7e-3 0.716-0.058 0.05-0.014 0.048-0.29 0.02-0.437-0.049-0.255 7e-3 -0.365 0.307-0.371 0.308-6e-3 0.405-0.194 0.293-0.457-0.023-0.054-0.017-0.123-0.01-0.183 0.032-0.266 0.07-0.533 0.105-0.799 0.015-0.112 0.026-0.223 0.044-0.374 0.339 0.16 0.635 0.276 0.901 0.436 0.104 0.064 0.213 0.236 0.198 0.343-0.084 0.603-0.338 1.142-0.799 1.573-0.276 0.258-0.27 0.295 0.022 0.561 0.158 0.143 0.313 0.329 0.368 0.523 0.056 0.195 0.312 0.763 0.498 0.838 0.047 0.019 0.119 0.017 0.167-3e-3 0.191-0.081 0.384-0.207 0.572-0.01 0.144 0.151 0.324 0.3 0.393 0.483 0.19 0.494 0.29 1.021 0.501 1.505 0.156 0.355 0.062 0.63-0.076 0.943-0.09 0.204-0.108 0.437-0.158 0.656 0.046 0.014 0.093 0.026 0.14 0.039 0.582-0.625 0.753-1.457 1.138-2.162 0.098 0.055 0.196 0.108 0.291 0.161-0.589 0.602-0.649 0.778-0.39 1.128-0.373 0.475-0.742 0.945-1.112 1.415-0.031-0.01-0.061-0.021-0.091-0.032 0.024-0.146 0.047-0.292 0.081-0.499-0.64 0.739-0.9 0.816-1.2 0.481-0.233 0.136-0.469 0.274-0.68 0.396 0.208 0.379 0.409 0.779 0.649 1.158 0.063 0.099 0.237 0.164 0.371 0.184 0.337 0.052 0.679 0.076 1.02 0.095 0.111 6e-3 0.224-0.039 0.337-0.059 0.155-0.029 0.31-0.056 0.413-0.074-0.038 0.248-0.068 0.44-0.097 0.633h0.774c-0.011 0.043-0.04 0.156-0.089 0.348 0.283-0.207 0.478-0.338 0.498-0.655 0.027-0.414-0.089-0.872 0.257-1.224 0.342-0.347 0.7-0.679 1.054-1.016 0.175-0.165 0.354-0.325 0.532-0.488 0.035 0.02 0.071 0.039 0.106 0.059-0.114 0.384-0.228 0.769-0.342 1.153 0.033 9e-3 0.066 0.017 0.099 0.025-0.102 0.105-0.299 0.218-0.29 0.314 0.031 0.355-0.312 0.471-0.483 0.529-0.329 0.114-0.42 0.341-0.619 0.625 0.312 0.083 0.572 0.152 0.806 0.215 0.05 0.171 0.103 0.356 0.162 0.559-0.185 0.072-0.414 0.149-0.629 0.253-0.065 0.032-0.091 0.137-0.135 0.208 0.079 0.028 0.161 0.087 0.237 0.079 0.141-0.014 0.278-0.067 0.417-0.103 0.011 0.029 0.022 0.058 0.033 0.086-0.184 0.077-0.363 0.174-0.555 0.223-0.267 0.068-0.545 0.095-0.816 0.15-0.865 0.175-1.732 0.272-2.615 0.136-0.093-0.015-0.197 0.037-0.297 0.053-0.569 0.093-1.134 0.219-1.706 0.264-0.442 0.035-0.894-0.026-1.339-0.056-0.139-9e-3 -0.29-0.107-0.411-0.076-0.593 0.153-1.16 0.424-1.848 0.267 0.149 0.338-0.051 0.343-0.271 0.326-0.114-9e-3 -0.232-0.043-0.342-0.027-0.544 0.08-1.02-0.387-1.583-0.175-0.051 0.019-0.141-0.059-0.212-0.091-0.07-0.031-0.138-0.077-0.211-0.087-0.531-0.07-1.065-0.122-1.594-0.206-0.172-0.027-0.332-0.133-0.509-0.207-0.011 0.067-0.01 0.111-0.025 0.15-0.02 0.048-0.053 0.093-0.066 0.114-0.712-0.361-1.503-0.158-2.205-0.429-0.011 0.035-0.022 0.069-0.033 0.105l0.051 0.027c-3.593-1.154-6.903-2.931-9.811-5.198 0.077 0.017 0.149 0.04 0.23 0.052-0.306-0.231-0.536-0.414-0.781-0.577-0.013-9e-3 -0.045 7e-3 -0.077 0.02-0.093-0.076-0.19-0.149-0.282-0.227 8e-3 -0.032 0.018-0.065 5e-3 -0.082-0.321-0.456-0.638-0.917-1-1.343-0.112-0.132-0.357-0.163-0.631-0.277 0.03 0.123 0.052 0.215 0.073 0.301-0.679-0.651-1.332-1.329-1.951-2.038 7e-3 -9e-3 0.015-0.018 0.022-0.028-0.453-0.537-0.902-1.069-1.345-1.594-0.619-0.808-1.2-1.647-1.74-2.514z" fill="#fff"/>
   </g>
   <g transform="translate(41.636 43.632)">
    <path d="m0 0c-0.07 0.147-0.109 0.236-0.154 0.323-0.321 0.614-0.685 1.211-0.95 1.846-0.202 0.485-0.288 1.016-0.406 1.53-0.081 0.354-0.102 0.722-0.199 1.072-0.312 1.133-0.661 2.255-0.967 3.389-0.406 1.506-0.576 3.03-0.153 4.557 0.179 0.648 0.475 1.265 0.693 1.904 0.402 1.175 0.793 2.354 1.171 3.537 0.149 0.466 0.248 0.946 0.365 1.4-0.474-0.154-0.915-0.297-1.478-0.48 0.06 0.439 0.105 0.776 0.151 1.113 0.012 0.087 0.049 0.175 0.039 0.26-0.185 1.715 0.157 3.358 0.739 4.968 0.106 0.292 0.21 0.585 0.326 0.873 0.259 0.639 0.522 1.276 0.784 1.913-2.419-4.268-3.888-9.144-4.103-14.339 0.033-1.129 0.12-2.26 0.275-3.396 0.408-2.994 2.611-9.206 3.867-10.47" fill="#fff"/>
   </g>
   <g transform="translate(81.622 39.409)">
    <path d="m0 0c0.102 0.479 0.119 0.871-0.118 1.294-0.109 0.196-0.16 0.422-0.237 0.635 0.035 0.021 0.069 0.043 0.103 0.064-0.13 0.048-0.261 0.095-0.384 0.141-0.01 0.16-0.011 0.326-0.031 0.489-0.02 0.166-4e-3 0.369-0.1 0.485-0.143 0.175-0.379 0.277-0.555 0.432-0.087 0.076-0.17 0.197-0.18 0.305-0.029 0.282-3e-3 0.568-0.026 0.85-0.021 0.272-0.099 0.54-0.111 0.811-0.02 0.454-0.135 0.597-0.56 0.649-0.093 0.659-0.186 1.31-0.278 1.961-0.043 2e-3 -0.085 4e-3 -0.127 6e-3 -0.054-0.064-0.129-0.121-0.159-0.195-0.265-0.656-0.473-1.322-0.584-2.024-0.082-0.514-0.285-1.018-0.489-1.506-0.115-0.273-0.36-0.269-0.6-0.085-0.345 0.266-0.712 0.504-1.053 0.773-0.202 0.159-0.518 0.349-0.525 0.534-9e-3 0.273 0.189 0.564 0.341 0.825 0.125 0.216 0.311 0.399 0.47 0.596-0.02 0.041-0.041 0.082-0.062 0.123-0.232 0.013-0.463 0.031-0.695 0.037-0.087 2e-3 -0.185-0.057-0.26-0.035-0.366 0.106-0.763 0.142-1.048 0.447-0.059 0.063-0.255 0.01-0.373 0.01 0.096-0.207 0.158-0.342 0.22-0.476-0.167-0.03-0.34-0.046-0.502-0.092-0.139-0.039-0.311-0.079-0.391-0.176-0.196-0.235-0.364-0.496-0.509-0.763-0.097-0.179-0.137-0.386-0.217-0.621-0.227 0.06-0.557-0.044-0.741 0.325-0.071 0.141-0.241 0.374-0.524 0.153-0.154-0.12-0.403-0.133-0.549-0.258-0.229-0.195-0.534-0.425-0.576-0.676-0.05-0.296-0.142-0.387-0.437-0.375v-0.438c-0.022-3e-3 -0.043-7e-3 -0.065-0.01-0.064 0.108-0.128 0.216-0.226 0.383-0.16-0.204-0.399-0.372-0.405-0.548-0.011-0.292-0.147-0.494-0.262-0.737-0.171-0.363-0.46-0.515-0.814-0.605-0.519-0.134-1.043-0.247-1.565-0.371-0.054-0.013-0.11-0.039-0.155-0.072-0.306-0.225-0.609-0.454-0.911-0.681-0.039 0.041-0.077 0.082-0.167 0.176-0.174-0.759-0.278-1.434 0.238-2.078l-0.102-0.01c-0.067 0.066-0.134 0.133-0.276 0.274 0-0.21-0.04-0.351 8e-3 -0.455 0.16-0.349 0.358-0.683 0.529-1.028 0.079-0.158 0.132-0.328 0.191-0.495 0.07-0.193 0.123-0.391 0.203-0.58 0.145-0.346 0.248-0.678-0.069-0.998-0.04-0.04-0.019-0.199 0.032-0.246 0.36-0.339 0.841-0.414 1.311-0.182 0.542 0.267 1.094 0.389 1.705 0.293 0.127-0.02 0.305 0.07 0.414 0.16 0.358 0.296 0.739 0.519 1.231 0.539 0.182 7e-3 0.381 0.031 0.537 0.11 0.711 0.36 1.408 0.159 2.11-9e-3 0.041-0.01 0.091-0.046 0.104-0.082 0.097-0.249 0.184-0.501 0.276-0.752 0.022-0.057 0.043-0.139 0.088-0.157 0.045-0.017 0.128 0.02 0.178 0.055 0.271 0.193 0.536 0.394 0.803 0.591 0.019-0.016 0.038-0.031 0.057-0.047-0.172-0.23-0.345-0.46-0.517-0.69 8e-3 -0.016 0.015-0.032 0.023-0.048 0.158 0.097 0.317 0.195 0.54 0.332-0.073-0.179-0.125-0.303-0.179-0.434 0.35 0.018 0.371-0.184 0.318-0.435-0.057-0.276 0.057-0.453 0.344-0.485 0.398-0.044 0.819-0.236 1.177 0.204 0.179-0.341 0.353-0.308 0.6-0.171 0.274 0.153 0.597 0.226 0.884 0.361 0.179 0.084 0.352 0.201 0.489 0.338 0.221 0.224 0.395 0.49 0.615 0.715 0.467 0.477 1.012 0.895 1.412 1.416 0.517 0.67 0.979 1.373 1.163 2.234" fill="#fff"/>
   </g>
   <g transform="translate(75.401 52.584)">
    <path d="m0 0c0.053 0.47-5e-3 0.771-0.535 0.873-0.053 0.01-0.095 0.072-0.149 0.082-0.095 0.018-0.208 0.046-0.289 0.015-0.301-0.12-0.593-0.262-0.913-0.407 0.062-0.172 0.166-0.334 0.429-0.364 0.078-0.01 0.198-0.08 0.21-0.139 0.077-0.364 0.355-0.323 0.625-0.307 0.092 5e-3 0.183 0.014 0.273 0.021 2e-3 -0.013 4e-3 -0.026 6e-3 -0.04-0.276-0.086-0.552-0.171-0.841-0.26 0.117-0.265 0.467-0.372 0.334-0.692-0.011-0.027 0.099-0.131 0.165-0.145 0.051-0.011 0.129 0.057 0.183 0.103 0.048 0.041 0.08 0.099 0.092 0.115 0.404-0.166 0.767-0.352 1.154-0.465 0.654-0.193 1.092-0.553 1.219-1.212 0.032-0.167 0.038-0.314-0.166-0.414-0.235-0.116-0.348-0.311-0.267-0.646 0.217 0.05 0.422 0.094 0.624 0.146 0.187 0.048 0.392 0.16 0.518-0.074 0.215-0.399 0.569-0.455 0.993-0.438 0.337 0.013 0.542 0.188 0.613 0.447 0.075 0.27 0.169 0.491 0.467 0.546 0.265 0.048 0.666-0.237 0.798-0.505 0.223-0.45 0.448-0.899 1.102-0.871 0.127 5e-3 0.255-0.093 0.389-0.115 0.074-0.011 0.176 0.018 0.233 0.066 0.026 0.023-1e-3 0.143-0.04 0.193-0.119 0.149-0.325 0.267-0.369 0.428-0.053 0.198-0.242 0.172-0.316 0.273-0.209 0.286-0.39 0.593-0.562 0.901-0.06 0.108-0.119 0.257 0.121 0.291 0.081 0.012 0.214 0.11 0.21 0.158-0.011 0.107-0.068 0.24-0.154 0.303-0.135 0.098-0.305 0.158-0.467 0.218-0.324 0.118-0.333 0.322-0.201 0.539-0.102 0.062-0.192 0.114-0.28 0.169-0.277 0.175-0.535 0.388-0.833 0.519-0.802 0.352-1.618 0.679-2.439 0.991-0.132 0.051-0.372 0.028-0.469-0.057-0.282-0.245-0.52-0.537-0.768-0.815-0.083-0.092-0.146-0.2-0.219-0.301-0.042 0.013-0.083 0.026-0.125 0.038-0.128 0.279-0.385 0.57-0.356 0.832" fill="#fff"/>
   </g>
   <g transform="translate(65.438 56.742)">
    <path d="m0 0c0.063-0.01 0.126-0.019 0.189-0.029 0.017-0.152 0.07-0.312 0.035-0.453-0.02-0.078-0.193-0.176-0.287-0.167-0.098 8e-3 -0.274 0.177-0.261 0.203 0.084 0.16 0.211 0.3 0.324 0.446m-2.453-3.818c0.024-1e-3 0.059-0.087 0.065-0.136 0.028-0.215 0.071-0.431 0.064-0.646-8e-3 -0.291 0.215-0.369 0.405-0.326 0.296 0.068 0.422-0.041 0.483-0.246 0.308-0.08 0.524 0.217 0.854 0.047 0.251-0.131 0.58-0.118 0.544-0.489 0.282 0.082 0.515 0.15 0.842 0.246 0.046 0.25 0.171 0.614 0.16 0.973-7e-3 0.273 0.067 0.445 0.269 0.598 0.203 0.154 0.304 0.32 0.252 0.597-0.072 0.379 0.087 0.53 0.484 0.596 0.091 0.016 0.172 0.083 0.275 0.137-0.23 0.319-0.684 0.486-0.549 0.949 5e-3 0.017-0.015 0.04-0.025 0.061-0.291 0.608-0.224 0.837 0.351 1.156-0.048 0.089-0.097 0.177-0.122 0.223 0.178 0.1 0.333 0.188 0.479 0.27-0.026 0.068-0.027 0.082-0.034 0.088-0.157 0.114-0.312 0.23-0.474 0.337-0.146 0.097-0.281 0.157-0.332 0.373-0.068 0.288-0.426 0.405-0.548 0.232-0.25-0.355-0.469-0.728-0.701-1.094-0.528 0.121-0.546 0.072-0.747-0.432-0.142-0.352-0.269-0.784-0.771-0.86-0.391-0.058-0.593-0.25-0.603-0.632-1e-3 -0.08-0.065-0.158-0.111-0.262-0.244 0.104-0.468 0.2-0.721 0.308-0.065-0.11-0.145-0.218-0.196-0.337-0.198-0.465-0.022-0.913 0.1-1.355 0.039-0.142 0.041-0.37 0.307-0.376" fill="#fff"/>
   </g>
   <g transform="translate(67.53 51.979)">
    <path d="m0 0c-0.052-0.142 4e-3 -0.457 0.083-0.482 0.266-0.083 0.258-0.265 0.259-0.442 1e-3 -0.185-0.07-0.373-0.058-0.556 7e-3 -0.118 0.096-0.32 0.167-0.327 0.193-0.02 0.389 0.04 0.384 0.302-7e-3 0.387-0.013 0.775 1e-3 1.162 5e-3 0.118 0.08 0.234 0.122 0.35 0.048-0.014 0.096-0.028 0.143-0.041-0.014-0.088-0.044-0.177-0.038-0.263 0.01-0.126 0.034-0.254 0.075-0.373 0.05-0.148 0.118-0.292 0.189-0.432 0.036-0.072 0.084-0.169 0.15-0.189 0.054-0.017 0.143 0.059 0.214 0.096 0.068 0.036 0.134 0.076 0.201 0.114-0.246-0.311-0.222-0.492 0.119-0.728 0.44 0.265 0.044 0.69 0.195 0.947-0.141 0.128-0.307 0.213-0.357 0.34-0.127 0.319-0.202 0.658-0.304 1.013 0.104 0.09 0.25 0.215 0.395 0.341 0.099 0.084 0.196 0.169 0.296 0.252 0.066 0.054 0.137 0.103 0.205 0.155-0.096 0.038-0.211 0.129-0.287 0.106-0.369-0.111-0.729-0.253-1.136-0.399-0.042 0.047-0.148 0.147-0.23 0.263-0.168 0.238-0.092 0.716 0.127 0.725 0.435 0.018 0.906 0.064 1.3-0.069 0.517-0.174 1.016 0.195 1.043 0.954-0.126-0.085-0.225-0.117-0.26-0.181-0.175-0.318-0.461-0.389-0.795-0.336-0.281 0.046-0.557 0.12-0.835 0.183-0.077 0.017-0.196 0.081-0.223 0.056-0.232-0.224-0.618-0.332-0.65-0.711-0.055-0.639-0.274-1.232-0.495-1.83" fill="#fff"/>
   </g>
   <g transform="translate(72.042 73.45)">
    <path d="m0 0c0.012-0.182 3e-3 -0.368 0.044-0.544 0.02-0.085 0.129-0.21 0.201-0.212 0.083-2e-3 0.207 0.095 0.248 0.178 0.174 0.353-3e-3 1.017-0.352 1.287 0.548 0.015 0.925 0.526 1.51 0.393-4e-3 -0.29 0.042-0.518 0.41-0.56 0.068 0.221 0.135 0.435 0.19 0.611 0.264 0.029 0.537 0.059 0.817 0.09 0.04 0.08 0.095 0.189 0.168 0.336 0.068-0.107 0.104-0.163 0.139-0.22l0.091 2e-3c0.023 0.151 0.082 0.307 0.06 0.452-0.052 0.351-0.146 0.695-0.216 1.043-0.01 0.05 8e-3 0.108 0.026 0.159 0.188 0.527-0.045 0.926-0.439 1.267-0.063 0.054-0.21 0.091-0.273 0.057-0.067-0.035-0.118-0.169-0.107-0.25 0.017-0.127 0.09-0.248 0.145-0.369 0.247-0.552-0.026-1.221-0.599-1.431-0.013 0.092-0.025 0.18-0.042 0.31-0.069-0.069-0.119-0.096-0.125-0.13-0.043-0.241-0.066-0.487-0.123-0.724-0.013-0.057-0.13-0.119-0.205-0.127-0.293-0.033-0.676 0.06-0.863-0.085-0.411-0.318-0.724-0.751-1.069-1.142-0.022-0.025 0-0.12 0.033-0.149 0.109-0.094 0.233-0.172 0.331-0.242" fill="#fff"/>
   </g>
   <g transform="translate(65.537 48.466)">
    <path d="m0 0c0.133-0.158 0.3-0.166 0.495 0.163-0.507 0.175-0.992 0.342-1.511 0.522 0.224 0.093 0.399 0.167 0.574 0.24-9e-3 0.038-0.017 0.075-0.026 0.114-0.269 0-0.543-0.035-0.803 9e-3 -0.267 0.044-0.52 0.164-0.818 0.265-0.063-0.326-0.325-0.215-0.551-0.232-0.457-0.037-0.67 0.369-1.046 0.498-0.529 0.181-0.787 0.129-1.016-0.391 0.159-0.068 0.363-0.092 0.417-0.19 0.222-0.4 0.664-0.403 1.003-0.449 0.359-0.048 0.696-0.096 1.03-0.234 0.219-0.09 0.467-0.123 0.704-0.168 0.407-0.079 0.844 8e-3 1.227-0.219 0.056-0.033 0.181 0.038 0.321 0.072" fill="#fff"/>
   </g>
   <g transform="translate(77.904 85.842)">
    <path d="m0 0c0.502-0.405 0.89-0.639 1.449-0.768 0.343-0.08 0.688-0.15 1.026-0.243 0.282-0.078 0.6-0.128 0.822-0.289 0.307-0.225 0.54-0.543 0.831-0.849-0.09 0.177-0.13 0.389-0.263 0.487-0.408 0.302-0.851 0.56-1.28 0.837-0.059 0.038-0.118 0.081-0.163 0.134-0.139 0.162-0.236 0.405-0.414 0.483-0.62 0.27-1.265 0.491-1.906 0.718-1.021 0.362-2.046 0.718-3.18 0.574 0.496-0.46 1.182-0.443 1.863-0.612-0.127-0.079-0.184-0.115-0.241-0.15 0.284-0.098 0.566-0.106 0.843-0.149 0.211-0.032 0.464-0.052 0.613-0.173" fill="#fff"/>
   </g>
   <g transform="translate(42.2 45.07)">
    <path d="m0 0c-0.231 0.67-0.405 1.358-0.607 2.037-0.197 0.661-0.397 1.321-0.596 1.982-0.031-9e-3 -0.063-0.017-0.094-0.026 0.03-0.349 0.079-0.7 0.082-1.05 2e-3 -0.19-0.08-0.38-0.116-0.571-0.022-0.113-0.068-0.242-0.034-0.341 0.152-0.44 0.338-0.868 0.496-1.306 0.325-0.899 0.642-1.801 1.19-2.606 0.152-0.224 0.317-0.439 0.476-0.659 0.045 0.023 0.091 0.046 0.136 0.069-0.028 0.088-0.049 0.179-0.082 0.264-0.285 0.736-0.594 1.463-0.851 2.207" fill="#fff"/>
   </g>
   <g transform="translate(68.439 62.805)">
    <path d="m0 0c-6e-3 -0.132-0.07-0.307-6e-3 -0.407 0.102-0.16 0.288-0.206 0.474-0.044 0.03 0.025 0.148-0.043 0.232-0.07-0.063-0.099-0.105-0.164-0.146-0.229h0.43c-0.01 0.065-0.022 0.135-0.038 0.233 0.056-0.036 0.084-0.054 0.111-0.072 0.162-0.107 0.168-0.246 0.092-0.402 0.13-0.038 0.26-0.075 0.39-0.113 0.011-0.026 0.023-0.053 0.034-0.08-0.296-3e-3 -0.386-0.127-0.299-0.349 0.134-0.053 0.262-0.103 0.467-0.184-0.077 0.17-0.123 0.272-0.17 0.375l0.081-3e-3c8e-3 0.155 0.04 0.313 0.018 0.464-0.024 0.16-0.056 0.35-0.16 0.462-0.121 0.13-0.316 0.219-0.496 0.27-0.125 0.035-0.279-0.023-0.423-0.04-0.312 0.539-0.279 0.778 0.077 1.242 0.114 0.148 0.177 0.372 0.165 0.556-0.017 0.265-0.123 0.524-0.192 0.792-0.078 8e-3 -0.197-5e-3 -0.296 0.032-0.396 0.148-0.512 0.106-0.548-0.291-0.032-0.35-6e-3 -0.705-6e-3 -1.074-0.103 0.01-0.177 0.016-0.25 0.023-0.081-0.634 0.16-1.137 0.459-1.091" fill="#fff"/>
   </g>
   <g transform="translate(70.828 59.501)">
    <path d="m0 0c-0.237-0.209-0.45-0.396-0.663-0.583-0.251 0.288-0.27 0.286-0.564 3e-3 -0.071-0.068-0.169-0.11-0.255-0.165-0.204-0.13-0.287-0.543-0.122-0.767 0.084 0.142 0.159 0.269 0.234 0.397 0.011-0.031 0.022-0.061 0.033-0.091 0.18 0.048 0.36 0.096 0.616 0.164 0.01-0.097 0.055-0.234 0.031-0.36-0.056-0.3 0.038-0.529 0.301-0.686 0.151-0.09 0.324-0.147 0.549-0.246 0.031 0.175 0.083 0.32 0.076 0.463-6e-3 0.138-0.215 0.283 0.043 0.423 0.054-0.124 0.101-0.229 0.149-0.34 0.569 0.763-0.075 1.465-0.07 2.169-0.116-0.027-0.232-0.054-0.358-0.084z" fill="#fff"/>
   </g>
   <g transform="translate(49.629 60.591)">
    <path d="m0 0c-0.275-0.769-0.392-1.488-0.297-1.954 0.028-0.139 0.128-0.265 0.195-0.397 0.155 0.084 0.379 0.135 0.448 0.261 0.103 0.191 0.152 0.441 0.125 0.655-0.041 0.336-0.157 0.664-0.258 0.991-0.044 0.142-0.129 0.272-0.213 0.444" fill="#fff"/>
   </g>
   <g transform="translate(74.351 77.931)">
    <path d="M 0,0 C 0.154,0.109 0.229,0.163 0.304,0.215 0.186,0.3 0.1,0.362 0.014,0.424 0.027,0.46 0.041,0.495 0.054,0.531 0.362,0.475 0.669,0.42 0.882,0.382 1.063,0.567 1.219,0.728 1.375,0.889 1.419,0.914 1.463,0.939 1.508,0.964 1.377,1.043 1.249,1.184 1.114,1.19 0.736,1.207 0.464,1.387 0.201,1.609 0.132,1.668 0.049,1.711 -0.091,1.804 0.151,1.237 0.124,1.246 -0.074,0.69 -0.141,0.502 -0.033,0.258 0,0" fill="#fff"/>
   </g>
   <g transform="translate(70.61 47.743)">
    <path d="m0 0c0.098 0.158 0.196 0.251 0.415 0.124 0.219-0.129 0.473-0.015 0.562 0.209 0.064 0.161 0.124 0.324 0.194 0.509-0.499 0.211-0.771 0.16-1.105-0.192-0.085-0.088-0.176-0.2-0.287-0.233-0.398-0.115-0.455-0.447-0.621-0.781 0.372 0.016 0.661 0.072 0.842 0.364" fill="#fff"/>
   </g>
   <g transform="translate(69.079 61.174)">
    <path d="m0 0v-0.838c0.173-0.071 0.3-0.123 0.445-0.182-0.307-0.37-0.259-0.529 0.203-0.802 0.098 0.192 0.193 0.382 0.289 0.571 0.056 0.186 0.131 0.369 0.156 0.558 0.011 0.082-0.089 0.176-0.139 0.265l-0.082-0.045c7e-3 -0.084 0.014-0.167 0.021-0.25-0.159 0.127-0.212 0.313-0.337 0.424-0.148 0.131-0.359 0.198-0.556 0.299" fill="#fff"/>
   </g>
   <g transform="translate(70.022 59.935)">
    <path d="m0 0-6e-3 -0.012-3e-3 -9e-3z" fill="#fff"/>
   </g>
   <g transform="translate(71.747 53.476)">
    <path d="m0 0c0.112-0.416 0.381-0.331 0.655-0.233-0.047 0.208-0.093 0.416-0.143 0.641h0.296c0.032 0.228 0.081 0.403 0.071 0.573-5e-3 0.085-0.111 0.17-0.184 0.244-0.064 0.066-0.146 0.117-0.251 0.198 0.407 0.139 0.407 0.139 0.324 0.42-0.561-0.3-0.721-0.693-0.533-1.336 0.069-0.236 0.121-0.45-0.235-0.507" fill="#fff"/>
   </g>
   <g transform="translate(68.829 69.023)">
    <path d="m0 0c0.017 0.079-0.035 0.195-0.097 0.252-0.031 0.028-0.194-0.012-0.236-0.065-0.427-0.545-0.754-1.172-0.052-1.852 0.14 0.592 0.272 1.127 0.385 1.665" fill="#fff"/>
   </g>
   <g transform="translate(80.441 32.743)">
    <path d="M 0,0 C 0.439,-0.153 2.723,1.139 3.271,1.792 3.257,1.818 3.243,1.845 3.228,1.871 2.164,1.254 1.101,0.638 0,0" fill="#fff"/>
   </g>
   <g transform="translate(83.432 51.689)">
    <path d="m0 0c-0.084-0.611-0.405-0.869-0.637-0.725-0.334-0.084-0.579-0.145-0.845-0.212 0.136-0.308 0.628-0.5 0.909-0.349 0.388 0.209 0.731 0.467 0.87 0.896 0.032 0.096 0.07 0.239 0.021 0.297-0.055 0.067-0.204 0.064-0.318 0.093" fill="#fff"/>
   </g>
   <g transform="translate(63.37 65.339)">
    <path d="m0 0c0.184 0.251 0.308 0.542 0.486 0.868-0.536 0.085-0.919 0.034-1.119-0.334-0.087-0.16-0.091-0.46 0.012-0.593 0.167-0.213 0.463-0.157 0.621 0.059" fill="#fff"/>
   </g>
   <g transform="translate(85.48 35.89)">
    <path d="m0 0c0.145 0.38 0.256 0.673 0.368 0.966-0.047 0.013-0.093 0.026-0.139 0.038-0.059-0.116-0.145-0.227-0.173-0.349-0.101-0.434-0.35-0.808-0.723-1.019-0.416-0.235-0.402-0.746-0.859-0.911 0.03-0.03 0.06-0.059 0.09-0.089 0.619 0.472 1.237 0.945 1.855 1.416-0.015 0.019-0.031 0.037-0.046 0.055-0.088-0.025-0.177-0.051-0.373-0.107" fill="#fff"/>
   </g>
   <g transform="translate(69.494 48.369)">
    <path d="m0 0c0.09 0.035 0.194 0.041 0.292 0.055 0.314 0.046 0.628 0.09 0.942 0.133-4e-3 0.038-9e-3 0.076-0.013 0.113-0.025 0.022-0.057 0.066-0.075 0.061-0.418-0.11-0.887 0.099-1.282-0.184-0.048-0.035-0.146-6e-3 -0.221-7e-3 -0.433-1e-3 -0.893 0.285-1.296-0.143 0.073-0.038 0.146-0.104 0.227-0.115 0.481-0.068 0.96-0.093 1.426 0.087" fill="#fff"/>
   </g>
   <g transform="translate(70.308 61.026)">
    <path d="m0 0c-0.035-0.018-0.07-0.035-0.105-0.052 0.122-0.332 0.243-0.663 0.365-0.994 0.046 0.013 0.093 0.025 0.139 0.038 0 0.134-1e-3 0.269 0 0.404 1e-3 0.062-4e-3 0.178 0.013 0.181 0.418 0.081 0.173 0.362 0.165 0.545-0.018 0.414-0.232 0.525-0.678 0.359 0.11-0.19 0.217-0.377 0.325-0.563-0.025-0.011-0.051-0.022-0.076-0.034z" fill="#fff"/>
   </g>
   <g transform="translate(66.632 48.567)">
    <path d="m0 0c-0.014-0.012-0.068 6e-3 -0.096 0.023-0.344 0.212-0.416 2e-3 -0.468-0.294 0.4-0.102 0.767-0.255 1.155-0.047 0.055 0.03 0.136 0.019 0.205 0.019 0.32 0 0.354 0.14 0.216 0.359-0.348 0.033-0.697 0.213-1.012-0.06" fill="#fff"/>
   </g>
   <g transform="translate(76.019,33.573)">
    <path d="m0 0c-0.342-0.028-0.192-0.354-0.297-0.529-0.035-0.057 0.044-0.187 0.093-0.273 0.017-0.03 0.114-0.049 0.154-0.031 0.416 0.189 0.801 0.412 1.011 0.838-0.354 0-0.66 0.02-0.961-5e-3" fill="#fff"/>
   </g>
   <g transform="translate(72.495 51.473)">
    <path d="m0 0c0.272 0.188 0.53 0.158 0.806 3e-3 0.095-0.054 0.224-0.053 0.337-0.077-0.032 0.129-0.024 0.288-0.103 0.38-0.253 0.293-0.624 0.254-0.967 0.226-0.45-0.036-0.536-0.193-0.346-0.633 0.107 0.038 0.203 0.052 0.273 0.101" fill="#fff"/>
   </g>
   <g transform="translate(68.016 60.31)">
    <path d="m0 0c-0.052 0.13-0.112 0.278-0.14 0.348-0.376-0.524-0.779-1.088-1.182-1.651 0.042-0.028 0.083-0.056 0.124-0.085 0.402 0.466 0.803 0.93 1.198 1.388" fill="#fff"/>
   </g>
   <g transform="translate(72.794 74.08)">
    <path d="m 0,0 c -0.033,-0.157 0.045,-0.335 0.074,-0.504 0.043,0.008 0.086,0.017 0.129,0.025 0.082,0.113 0.17,0.326 0.244,0.321 0.434,-0.024 0.259,0.28 0.345,0.454 C 0.49,0.353 0.043,0.2 0,0" fill="#fff"/>
   </g>
   <g transform="translate(86.75 43.198)">
    <path d="m0 0c-0.147-0.455 0.017-0.921 0.465-0.885 0.032 0.209 0.143 0.448 0.068 0.603-0.069 0.14-0.343 0.189-0.533 0.282" fill="#fff"/>
   </g>
   <g transform="translate(61.4 51.842)">
    <path d="m0 0c0.024 0.025 0.049 0.05 0.073 0.076-0.099 0.202-0.192 0.408-0.301 0.606-0.06 0.108-0.148 0.284-0.222 0.283-0.112-1e-3 -0.223-0.129-0.334-0.204l0.132-0.042 0.225-0.441c0.018-0.032 0.036-0.065 0.054-0.097 0.124-0.06 0.248-0.12 0.373-0.181" fill="#fff"/>
   </g>
   <g transform="translate(68.255 47.433)">
    <path d="m0 0c0.074 9e-3 0.18 2e-3 0.213 0.045 0.042 0.056 0.059 0.166 0.029 0.227-0.152 0.306-0.529 0.381-0.924 0.163 0.23-0.146 0.429-0.272 0.626-0.399 0.019-0.012 0.039-0.038 0.056-0.036" fill="#fff"/>
   </g>
   <g transform="translate(68.797 61.992)">
    <path d="m0 0c-0.095 0.125-0.318 0.163-0.484 0.239-0.021-0.032-0.043-0.065-0.064-0.098 0.138-0.254 0.277-0.509 0.445-0.817 0.245 0.268 0.232 0.505 0.103 0.676" fill="#fff"/>
   </g>
   <g transform="translate(75.197 49.588)">
    <path d="M 0,0 C 0.393,0.111 0.492,0.417 0.294,0.84 0.006,0.715 -0.104,0.416 0,0" fill="#fff"/>
   </g>
   <g transform="translate(71.551 51.324)">
    <path d="M 0,0 C 0.06,-0.023 0.206,0.153 0.312,0.238 0.205,0.347 0.097,0.456 -0.044,0.6 -0.198,0.474 -0.292,0.397 -0.386,0.32 -0.26,0.207 -0.15,0.059 0,0" fill="#fff"/>
   </g>
   <g transform="translate(73.76 46.763)">
    <path d="m0 0c0.025 0.058 7e-3 0.186-0.036 0.209-0.193 0.109-0.587-0.081-0.659-0.301 0.362-0.169 0.589-0.144 0.695 0.092" fill="#fff"/>
   </g>
   <g transform="translate(85.123 50.299)">
    <path d="m0 0c2e-3 0.097 0.043 0.213 0 0.285-0.127 0.218-0.288 0.419-0.435 0.626-0.021-0.01-0.042-0.02-0.064-0.031 0.082-0.246 0.148-0.498 0.251-0.735 0.03-0.069 0.163-0.098 0.248-0.145" fill="#fff"/>
   </g>
   <g transform="translate(70.579 52.43)">
    <path d="m0 0c0.273 0.102 0.473 0.026 0.645-0.237 0.042 0.152 0.069 0.253 0.106 0.389-0.3 0.037-0.538 0.077-0.777 0.088-0.065 3e-3 -0.134-0.081-0.202-0.125 0.078-0.041 0.176-0.135 0.228-0.115" fill="#fff"/>
   </g>
   <g transform="translate(62.035 51.788)">
    <path d="m0 0c0.032-0.017 0.136 0.093 0.255 0.18-0.12 0.094-0.193 0.19-0.282 0.205-0.055 0.01-0.134-0.103-0.202-0.161 0.075-0.078 0.137-0.177 0.229-0.224" fill="#fff"/>
   </g>
   <g transform="translate(73.626 53.428)">
    <path d="m0 0c0.113 0.023 0.208 0.125 0.311 0.193-0.086 0.053-0.172 0.106-0.279 0.172-0.099-0.067-0.172-0.116-0.245-0.166 0.072-0.071 0.159-0.21 0.213-0.199" fill="#fff"/>
   </g>
   <g transform="translate(70.024 59.921)">
    <path d="m0 0c-1e-3 4e-3 -2e-3 0.01-3e-3 0.015l-9e-3 -0.021 0.012 6e-3" fill="#fff"/>
   </g>
   <g transform="translate(70.278 59.728)">
    <path d="m0 0c0.061 0.054 0.122 0.124 0.14 0.197 0.01 0.041-0.086 0.15-0.098 0.145-0.103-0.039-0.198-0.097-0.295-0.149 0.015-0.082 0.031-0.163 0.048-0.255 0.101 0.028 0.169 0.029 0.205 0.062" fill="#fff"/>
   </g>
   <g transform="translate(74.137 49.39)">
    <path d="m0 0c-0.37-0.028-0.471-0.17-0.417-0.495l0.098-0.046c0.1 0.17 0.2 0.34 0.319 0.541" fill="#fff"/>
   </g>
   <g transform="translate(91.201 45.122)">
    <path d="M 0,0 C 0.047,-0.021 0.104,-0.072 0.138,-0.06 0.344,0.011 0.402,0.154 0.3,0.466 0.168,0.262 0.084,0.131 0,0" fill="#fff"/>
   </g>
   <g transform="translate(85.369 49.797)">
    <path d="m0 0c0.167-0.173 0.333-0.346 0.5-0.519 0.035 0.031 0.068 0.062 0.103 0.094-0.174 0.166-0.348 0.333-0.521 0.5-0.028-0.025-0.055-0.05-0.082-0.075" fill="#fff"/>
   </g>
   <g transform="translate(86.881 48.842)">
    <path d="m0 0-0.333 0.198c-0.036-0.05-0.073-0.099-0.11-0.149 0.097-0.063 0.189-0.137 0.295-0.181 0.025-0.01 0.097 0.086 0.148 0.132" fill="#fff"/>
   </g>
   <g transform="translate(83.824 52.008)">
    <path d="m0 0c0.039-0.217 0.071-0.4 0.109-0.617 0.249 0.269 0.226 0.389-0.109 0.617" fill="#fff"/>
   </g>
   <g transform="translate(107.28 36.033)">
    <path d="m0 0-7.496-1.653 7.464-6.023z" fill="#a8133e"/>
   </g>
   <g transform="translate(103.5 31.936)">
    <path d="m0 0c-7.507-10.799-20-17.867-34.148-17.867-11.478 0-21.864 4.651-29.386 12.172-7.522 7.523-12.172 17.909-12.173 29.386 1e-3 11.478 4.651 21.864 12.173 29.387 7.522 7.521 17.908 12.172 29.386 12.172 11.477 0 21.864-4.651 29.386-12.172 7.521-7.523 12.172-17.909 12.172-29.387h1c0 23.505-19.054 42.559-42.558 42.559-23.505 0-42.558-19.054-42.559-42.559 1e-3 -23.504 19.054-42.557 42.559-42.558 14.486 0 27.285 7.24 34.969 18.296z" fill="#a8133e"/>
   </g>
   <g transform="translate(104.41 55.129)">
    <path d="m0 0h7.46v1h-7.46" fill="#a8133e"/>
   </g>
   <g transform="translate(27.092 55.129)">
    <path d="m0 0h7.658v1h-7.658" fill="#a8133e"/>
   </g>
   <g transform="translate(93.124 34.112)">
    <path d="m0 0v36.925h-9.794v-44.271c3.729 1.803 7.05 4.308 9.794 7.346" fill="#e8b3b7"/>
   </g>
   <g transform="translate(71.562 48.763)">
    <path d="m0 0v-25.093c3.446 0.222 6.736 0.997 9.794 2.226v22.867z" fill="#e8b3b7"/>
   </g>
   <g transform="translate(59.792 40.676)">
    <path d="m0 0v-15.565c3.09-0.987 6.38-1.517 9.794-1.505v17.07z" fill="#e8b3b7"/>
   </g>
   <g transform="translate(48.024 36.03)">
    <path d="m0 0v-4.106c2.843-2.594 6.155-4.678 9.794-6.111v10.217z" fill="#e8b3b7"/>
   </g>
  </g>
 </g>
</svg>
