<svg id="Layer_1" data-name="Layer 1" xmlns="http://www.w3.org/2000/svg" xmlns:xlink="http://www.w3.org/1999/xlink" viewBox="0 0 818.79 291.21"><defs><style>.cls-1{fill:none;}.cls-2,.cls-3{fill:#047367;}.cls-2,.cls-7{opacity:0.2;}.cls-4{fill:#f29122;}.cls-5{clip-path:url(#clip-path);}.cls-6{fill:#f1eb9d;}.cls-8{clip-path:url(#clip-path-2);}.cls-9{fill:#f0a022;}.cls-10{clip-path:url(#clip-path-3);}.cls-11{fill:#fff;}.cls-12{clip-path:url(#clip-path-4);}.cls-13{fill:#f29121;}</style><clipPath id="clip-path" transform="translate(-11.55 -152.03)"><ellipse id="SVGID" class="cls-1" cx="157.16" cy="291.55" rx="84.59" ry="84.37"/></clipPath><clipPath id="clip-path-2" transform="translate(-11.55 -152.03)"><path id="SVGID-2" data-name="SVGID" class="cls-1" d="M218.71,225.5s.52,14.84-4.61,14.84-10.26-1.54-13.34,1.53-13.34-1.53-13.34-6.14-3.59-8.69-5.13-8.69-7.18-1-4.62,2,9.24,10.24,4.62,8.7a52.64,52.64,0,0,0-9.75-2.05l1.54,5.12s-1,6.14,1.54,4.6-1-6.13,2-6.13,5.65-1,6.67,1.53-2.05,8.19,1.54,8.7-.51,8.18-10.26,7.67S148,272.08,148,272.08s-12.38.49-12.89,1.51L132,279.82s6.15.45,6.18-.59-.37-4.11,2.65-4.11,14.82,8.19,17.89,5.63,29-1.56,35-.52,3.48,13.31,14.76,17.41,25.14-1,25.14-1,1,17.91-4.11,22-7.69,3.58-7.69,7.17,3.08,5.62,1.54,7.67-3.08,6.14-3.08,8.19,1.54,9.2,1.54,9.2l24.11-41.95,3.59-30.18-19-50.65Z"/></clipPath><clipPath id="clip-path-3" transform="translate(-11.55 -152.03)"><path id="SVGID-3" data-name="SVGID" class="cls-1" d="M185.37,209.13s-19,1-21.55,2.56-3.07,8.18-5.64,8.7-10.26-2.56-12.31-1-7.69,5.12-10.77,3.58-7.7-.51-7.7-3.07a15.27,15.27,0,0,1,1.54-5.62s-9.75,4.09-7.69,7.16-6.16,10.23-8.21,10.23-4.62-5.63-5.64-4.09-8.72,1-12.83,4.6,31.29-26.6,31.29-26.6l39.5-6.65Z"/></clipPath><clipPath id="clip-path-4" transform="translate(-11.55 -152.03)"><path id="SVGID-4" data-name="SVGID" class="cls-1" d="M78.16,256.2s-3.59,13.81,0,15.35,15.39-6.14,20-7.17,13.34-.51,13.34-.51l6.16,8.19s-8.72,14.32-7.7,17.9,19,17.4,19,17.4l3.59-2.05,2.57,5.12,18.46,1v5.63s10.78,1.53,13.85,2.05a18.26,18.26,0,0,1,5.65,2s-7.7,7.68-6.67,9.72,19,10.75,19,15.35-7.18,15.35-5.13,16.88,10.8,6.06,10.8,6.06L172.54,380l-71-9.95-48-62.19Z"/></clipPath></defs><circle class="cls-2" cx="145.61" cy="145.61" r="145.61"/><path class="cls-3" d="M269.32,250.16a118.94,118.94,0,0,0-12.1-23.9l0,0-19.36,9.81h0A98,98,0,1,1,95.24,215.78L77.09,203a118.76,118.76,0,0,0-39.5,88.55c0,65.86,53.53,119.24,119.57,119.24s119.56-53.38,119.56-119.24A118.79,118.79,0,0,0,269.32,250.16Z" transform="translate(-11.55 -152.03)"/><path class="cls-4" d="M213.13,396.94A119.33,119.33,0,1,1,104.48,184.48l9.8,19.16a97.82,97.82,0,1,0,89.06,174.15Z" transform="translate(-11.55 -152.03)"/><g class="cls-5"><rect class="cls-6" x="36.34" y="44.82" width="220.58" height="189.29"/><g class="cls-7"><g class="cls-8"><rect class="cls-9" x="112.78" y="57.61" width="148.76" height="149.39"/><path class="cls-6" d="M170.68,305.26A174.13,174.13,0,0,1,117,297C88,287.6,71.62,273.33,71.46,273.18L72.54,272c.16.14,16.3,14.22,45.06,23.52,26.55,8.57,69.59,14.71,123.92-4.75l.55,1.54C215.38,301.83,191.38,305.26,170.68,305.26Z" transform="translate(-11.55 -152.03)"/><path class="cls-6" d="M170.68,300.66A174.13,174.13,0,0,1,117,292.41C88,283,71.62,268.72,71.46,268.58l1.08-1.23c.16.14,16.3,14.23,45.06,23.52,26.55,8.58,69.59,14.72,123.92-4.75l.55,1.55C215.38,297.23,191.38,300.66,170.68,300.66Z" transform="translate(-11.55 -152.03)"/><path class="cls-6" d="M170.68,296.05A174.13,174.13,0,0,1,117,287.8C88,278.39,71.62,264.12,71.46,264l1.08-1.22c.16.14,16.3,14.22,45.06,23.52,26.55,8.57,69.59,14.71,123.92-4.75l.55,1.54C215.38,292.62,191.38,296.05,170.68,296.05Z" transform="translate(-11.55 -152.03)"/><path class="cls-6" d="M170.68,291.45A174.13,174.13,0,0,1,117,283.2c-29.07-9.41-45.4-23.69-45.56-23.83l1.08-1.23c.16.14,16.3,14.23,45.06,23.52,26.55,8.58,69.59,14.72,123.92-4.75l.55,1.55C215.38,288,191.38,291.45,170.68,291.45Z" transform="translate(-11.55 -152.03)"/><path class="cls-6" d="M170.68,286.85A174.1,174.1,0,0,1,117,278.59c-29.07-9.41-45.4-23.68-45.56-23.83l1.08-1.22c.16.14,16.3,14.22,45.06,23.52,26.55,8.58,69.59,14.71,123.92-4.75l.55,1.54C215.38,283.42,191.38,286.85,170.68,286.85Z" transform="translate(-11.55 -152.03)"/><path class="cls-6" d="M170.68,282.24A174.13,174.13,0,0,1,117,274C88,264.58,71.62,250.3,71.46,250.16l1.08-1.23c.16.14,16.3,14.23,45.06,23.53,26.55,8.57,69.59,14.71,123.92-4.75l.55,1.54C215.38,278.81,191.38,282.24,170.68,282.24Z" transform="translate(-11.55 -152.03)"/><path class="cls-6" d="M170.68,277.64A174.1,174.1,0,0,1,117,269.38C88,260,71.62,245.7,71.46,245.56l1.08-1.23c.16.14,16.3,14.22,45.06,23.52,26.55,8.58,69.59,14.71,123.92-4.75l.55,1.54C215.38,274.21,191.38,277.64,170.68,277.64Z" transform="translate(-11.55 -152.03)"/><path class="cls-6" d="M170.68,273A174.13,174.13,0,0,1,117,264.78C88,255.37,71.62,241.09,71.46,241l1.08-1.23c.16.15,16.3,14.23,45.06,23.53,26.55,8.57,69.59,14.71,123.92-4.75l.55,1.54C215.38,269.6,191.38,273,170.68,273Z" transform="translate(-11.55 -152.03)"/><path class="cls-6" d="M170.68,268.43A174.43,174.43,0,0,1,117,260.18c-29.07-9.41-45.4-23.69-45.56-23.83l1.08-1.23c.16.14,16.3,14.23,45.06,23.52,26.55,8.58,69.59,14.72,123.92-4.75l.55,1.54C215.38,265,191.38,268.43,170.68,268.43Z" transform="translate(-11.55 -152.03)"/><path class="cls-6" d="M170.68,263.82A174.13,174.13,0,0,1,117,255.57c-29.07-9.41-45.4-23.68-45.56-23.83l1.08-1.22c.16.14,16.3,14.22,45.06,23.52,26.55,8.57,69.59,14.71,123.92-4.75l.55,1.54C215.38,260.39,191.38,263.82,170.68,263.82Z" transform="translate(-11.55 -152.03)"/><path class="cls-6" d="M170.68,259.22A174.13,174.13,0,0,1,117,251c-29.07-9.41-45.4-23.69-45.56-23.83l1.08-1.23c.16.14,16.3,14.23,45.06,23.52,26.55,8.58,69.59,14.72,123.92-4.75l.55,1.55C215.38,255.79,191.38,259.22,170.68,259.22Z" transform="translate(-11.55 -152.03)"/><path class="cls-6" d="M170.68,254.61A174.13,174.13,0,0,1,117,246.36C88,237,71.62,222.68,71.46,222.53l1.08-1.22c.16.14,16.3,14.22,45.06,23.52,26.55,8.58,69.59,14.71,123.92-4.75l.55,1.54C215.38,251.18,191.38,254.61,170.68,254.61Z" transform="translate(-11.55 -152.03)"/><path class="cls-6" d="M170.68,250A174.13,174.13,0,0,1,117,241.76c-29.07-9.41-45.4-23.69-45.56-23.83l1.08-1.23c.16.14,16.3,14.23,45.06,23.52,26.55,8.58,69.59,14.72,123.92-4.75l.55,1.55C215.38,246.58,191.38,250,170.68,250Z" transform="translate(-11.55 -152.03)"/><path class="cls-6" d="M170.68,245.41A174.1,174.1,0,0,1,117,237.15c-29.07-9.41-45.4-23.68-45.56-23.82l1.08-1.23c.16.14,16.3,14.22,45.06,23.52,26.55,8.58,69.59,14.71,123.92-4.75l.55,1.54C215.38,242,191.38,245.41,170.68,245.41Z" transform="translate(-11.55 -152.03)"/><path class="cls-6" d="M170.68,240.8A174.13,174.13,0,0,1,117,232.55c-29.07-9.41-45.4-23.69-45.56-23.83l1.08-1.23c.16.14,16.3,14.23,45.06,23.53,26.55,8.57,69.59,14.71,123.92-4.75l.55,1.54C215.38,237.37,191.38,240.8,170.68,240.8Z" transform="translate(-11.55 -152.03)"/><path class="cls-6" d="M170.68,236.2A174.1,174.1,0,0,1,117,227.94c-29.07-9.4-45.4-23.68-45.56-23.82l1.08-1.23c.16.14,16.3,14.23,45.06,23.52,26.55,8.58,69.59,14.72,123.92-4.75l.55,1.54C215.38,232.77,191.38,236.2,170.68,236.2Z" transform="translate(-11.55 -152.03)"/><path class="cls-6" d="M170.68,231.59A174.13,174.13,0,0,1,117,223.34c-29.07-9.41-45.4-23.68-45.56-23.83l1.08-1.23c.16.15,16.3,14.23,45.06,23.53,26.55,8.57,69.59,14.71,123.92-4.75l.55,1.54C215.38,228.16,191.38,231.59,170.68,231.59Z" transform="translate(-11.55 -152.03)"/><path class="cls-6" d="M170.68,227A174.43,174.43,0,0,1,117,218.74c-29.07-9.41-45.4-23.69-45.56-23.83l1.08-1.23c.16.14,16.3,14.23,45.06,23.52,26.55,8.58,69.59,14.72,123.92-4.75l.55,1.54C215.38,223.56,191.38,227,170.68,227Z" transform="translate(-11.55 -152.03)"/><path class="cls-6" d="M170.68,222.38A174.13,174.13,0,0,1,117,214.13C88,204.72,71.62,190.45,71.46,190.3l1.08-1.22c.16.14,16.3,14.22,45.06,23.52,26.55,8.57,69.59,14.71,123.92-4.75l.55,1.54C215.38,219,191.38,222.38,170.68,222.38Z" transform="translate(-11.55 -152.03)"/><path class="cls-6" d="M170.68,217.78A174.13,174.13,0,0,1,117,209.53C88,200.12,71.62,185.84,71.46,185.7l1.08-1.23c.16.14,16.3,14.23,45.06,23.52,26.55,8.58,69.59,14.72,123.92-4.75l.55,1.55C215.38,214.35,191.38,217.78,170.68,217.78Z" transform="translate(-11.55 -152.03)"/><path class="cls-6" d="M170.68,213.17A174.13,174.13,0,0,1,117,204.92c-29.07-9.41-45.4-23.68-45.56-23.83l1.08-1.22c.16.14,16.3,14.22,45.06,23.52,26.55,8.58,69.59,14.71,123.92-4.75l.55,1.54C215.38,209.74,191.38,213.17,170.68,213.17Z" transform="translate(-11.55 -152.03)"/><path class="cls-6" d="M170.68,208.57A174.13,174.13,0,0,1,117,200.32c-29.07-9.41-45.4-23.69-45.56-23.83l1.08-1.23c.16.14,16.3,14.23,45.06,23.52,26.55,8.58,69.59,14.72,123.92-4.75l.55,1.55C215.38,205.14,191.38,208.57,170.68,208.57Z" transform="translate(-11.55 -152.03)"/><path class="cls-6" d="M170.68,309.36A174.1,174.1,0,0,1,117,301.1c-29.07-9.41-45.4-23.68-45.56-23.82l1.08-1.23c.16.14,16.3,14.22,45.06,23.52,26.55,8.58,69.59,14.71,123.92-4.75l.55,1.54C215.38,305.93,191.38,309.36,170.68,309.36Z" transform="translate(-11.55 -152.03)"/><path class="cls-6" d="M170.68,313.45A174.13,174.13,0,0,1,117,305.2c-29.07-9.41-45.4-23.69-45.56-23.83l1.08-1.23c.16.14,16.3,14.23,45.06,23.52,26.55,8.58,69.59,14.72,123.92-4.75l.55,1.55C215.38,310,191.38,313.45,170.68,313.45Z" transform="translate(-11.55 -152.03)"/><path class="cls-6" d="M170.68,317.54A174.13,174.13,0,0,1,117,309.29C88,299.88,71.62,285.6,71.46,285.46l1.08-1.23c.16.15,16.3,14.23,45.06,23.53,26.55,8.57,69.59,14.71,123.92-4.75l.55,1.54C215.38,314.11,191.38,317.54,170.68,317.54Z" transform="translate(-11.55 -152.03)"/><path class="cls-6" d="M170.68,321.63A174.13,174.13,0,0,1,117,313.38C88,304,71.62,289.7,71.46,289.55l1.08-1.22c.16.14,16.3,14.22,45.06,23.52,26.55,8.57,69.59,14.71,123.92-4.75l.55,1.54C215.38,318.2,191.38,321.63,170.68,321.63Z" transform="translate(-11.55 -152.03)"/><path class="cls-6" d="M170.68,325.73A174.1,174.1,0,0,1,117,317.47c-29.07-9.4-45.4-23.68-45.56-23.82l1.08-1.23c.16.14,16.3,14.23,45.06,23.52,26.55,8.58,69.59,14.72,123.92-4.75l.55,1.54C215.38,322.3,191.38,325.73,170.68,325.73Z" transform="translate(-11.55 -152.03)"/><path class="cls-6" d="M170.68,329.82A174.13,174.13,0,0,1,117,321.57c-29.07-9.41-45.4-23.69-45.56-23.83l1.08-1.23c.16.14,16.3,14.23,45.06,23.52,26.55,8.58,69.59,14.72,123.92-4.75l.55,1.55C215.38,326.39,191.38,329.82,170.68,329.82Z" transform="translate(-11.55 -152.03)"/><path class="cls-6" d="M170.68,333.91A174.13,174.13,0,0,1,117,325.66C88,316.25,71.62,302,71.46,301.83l1.08-1.22c.16.14,16.3,14.22,45.06,23.52,26.55,8.57,69.59,14.71,123.92-4.75l.55,1.54C215.38,330.48,191.38,333.91,170.68,333.91Z" transform="translate(-11.55 -152.03)"/><path class="cls-6" d="M170.68,338A174.1,174.1,0,0,1,117,329.75c-29.07-9.41-45.4-23.68-45.56-23.82l1.08-1.23c.16.14,16.3,14.22,45.06,23.52,26.55,8.58,69.59,14.71,123.92-4.75l.55,1.54C215.38,334.58,191.38,338,170.68,338Z" transform="translate(-11.55 -152.03)"/><path class="cls-6" d="M170.68,342.1A174.13,174.13,0,0,1,117,333.85C88,324.44,71.62,310.16,71.46,310l1.08-1.23c.16.14,16.3,14.23,45.06,23.52,26.55,8.58,69.59,14.72,123.92-4.75l.55,1.55C215.38,338.67,191.38,342.1,170.68,342.1Z" transform="translate(-11.55 -152.03)"/><path class="cls-6" d="M170.68,346.19A174.13,174.13,0,0,1,117,337.94c-29.07-9.41-45.4-23.69-45.56-23.83l1.08-1.23c.16.14,16.3,14.23,45.06,23.53,26.55,8.57,69.59,14.71,123.92-4.75l.55,1.54C215.38,342.76,191.38,346.19,170.68,346.19Z" transform="translate(-11.55 -152.03)"/><path class="cls-6" d="M170.68,350.28A174.13,174.13,0,0,1,117,342C88,332.62,71.62,318.35,71.46,318.2L72.54,317c.16.14,16.3,14.22,45.06,23.52,26.55,8.58,69.59,14.71,123.92-4.75l.55,1.54C215.38,346.85,191.38,350.28,170.68,350.28Z" transform="translate(-11.55 -152.03)"/><path class="cls-6" d="M170.68,354.38A174.1,174.1,0,0,1,117,346.12c-29.07-9.4-45.4-23.68-45.56-23.82l1.08-1.23c.16.14,16.3,14.23,45.06,23.52,26.55,8.58,69.59,14.72,123.92-4.75l.55,1.54C215.38,351,191.38,354.38,170.68,354.38Z" transform="translate(-11.55 -152.03)"/><path class="cls-6" d="M170.68,358.47A174.13,174.13,0,0,1,117,350.22c-29.07-9.41-45.4-23.69-45.56-23.83l1.08-1.23c.16.14,16.3,14.23,45.06,23.52,26.55,8.58,69.59,14.72,123.92-4.75l.55,1.55C215.38,355,191.38,358.47,170.68,358.47Z" transform="translate(-11.55 -152.03)"/><path class="cls-6" d="M170.68,362.56A174.13,174.13,0,0,1,117,354.31C88,344.9,71.62,330.63,71.46,330.48l1.08-1.23c.16.15,16.3,14.23,45.06,23.53,26.55,8.57,69.59,14.71,123.92-4.75l.55,1.54C215.38,359.13,191.38,362.56,170.68,362.56Z" transform="translate(-11.55 -152.03)"/><path class="cls-6" d="M170.68,366.66A174.1,174.1,0,0,1,117,358.4C88,349,71.62,334.72,71.46,334.58l1.08-1.23c.16.14,16.3,14.22,45.06,23.52,26.55,8.58,69.59,14.71,123.92-4.75l.55,1.54C215.38,363.23,191.38,366.66,170.68,366.66Z" transform="translate(-11.55 -152.03)"/><path class="cls-6" d="M170.68,370.75A174.13,174.13,0,0,1,117,362.5c-29.07-9.41-45.4-23.69-45.56-23.83l1.08-1.23c.16.14,16.3,14.23,45.06,23.52,26.55,8.58,69.59,14.72,123.92-4.75l.55,1.55C215.38,367.32,191.38,370.75,170.68,370.75Z" transform="translate(-11.55 -152.03)"/><path class="cls-6" d="M170.68,374.84A174.13,174.13,0,0,1,117,366.59C88,357.18,71.62,342.9,71.46,342.76l1.08-1.23c.16.14,16.3,14.23,45.06,23.53,26.55,8.57,69.59,14.71,123.92-4.75l.55,1.54C215.38,371.41,191.38,374.84,170.68,374.84Z" transform="translate(-11.55 -152.03)"/><path class="cls-6" d="M170.68,378.93A174.13,174.13,0,0,1,117,370.68C88,361.27,71.62,347,71.46,346.85l1.08-1.22c.16.14,16.3,14.22,45.06,23.52,26.55,8.57,69.59,14.71,123.92-4.75l.55,1.54C215.38,375.5,191.38,378.93,170.68,378.93Z" transform="translate(-11.55 -152.03)"/></g><g class="cls-10"><rect class="cls-9" x="69.69" y="43.8" width="128.24" height="47.58"/><path class="cls-11" d="M170.68,305.26A174.13,174.13,0,0,1,117,297C88,287.6,71.62,273.33,71.46,273.18L72.54,272c.16.14,16.3,14.22,45.06,23.52,26.55,8.57,69.59,14.71,123.92-4.75l.55,1.54C215.38,301.83,191.38,305.26,170.68,305.26Z" transform="translate(-11.55 -152.03)"/><path class="cls-11" d="M170.68,300.66A174.13,174.13,0,0,1,117,292.41C88,283,71.62,268.72,71.46,268.58l1.08-1.23c.16.14,16.3,14.23,45.06,23.52,26.55,8.58,69.59,14.72,123.92-4.75l.55,1.55C215.38,297.23,191.38,300.66,170.68,300.66Z" transform="translate(-11.55 -152.03)"/><path class="cls-11" d="M170.68,296.05A174.13,174.13,0,0,1,117,287.8C88,278.39,71.62,264.12,71.46,264l1.08-1.22c.16.14,16.3,14.22,45.06,23.52,26.55,8.57,69.59,14.71,123.92-4.75l.55,1.54C215.38,292.62,191.38,296.05,170.68,296.05Z" transform="translate(-11.55 -152.03)"/><path class="cls-11" d="M170.68,291.45A174.13,174.13,0,0,1,117,283.2c-29.07-9.41-45.4-23.69-45.56-23.83l1.08-1.23c.16.14,16.3,14.23,45.06,23.52,26.55,8.58,69.59,14.72,123.92-4.75l.55,1.55C215.38,288,191.38,291.45,170.68,291.45Z" transform="translate(-11.55 -152.03)"/><path class="cls-11" d="M170.68,286.85A174.1,174.1,0,0,1,117,278.59c-29.07-9.41-45.4-23.68-45.56-23.83l1.08-1.22c.16.14,16.3,14.22,45.06,23.52,26.55,8.58,69.59,14.71,123.92-4.75l.55,1.54C215.38,283.42,191.38,286.85,170.68,286.85Z" transform="translate(-11.55 -152.03)"/><path class="cls-11" d="M170.68,282.24A174.13,174.13,0,0,1,117,274C88,264.58,71.62,250.3,71.46,250.16l1.08-1.23c.16.14,16.3,14.23,45.06,23.53,26.55,8.57,69.59,14.71,123.92-4.75l.55,1.54C215.38,278.81,191.38,282.24,170.68,282.24Z" transform="translate(-11.55 -152.03)"/><path class="cls-11" d="M170.68,277.64A174.1,174.1,0,0,1,117,269.38C88,260,71.62,245.7,71.46,245.56l1.08-1.23c.16.14,16.3,14.22,45.06,23.52,26.55,8.58,69.59,14.71,123.92-4.75l.55,1.54C215.38,274.21,191.38,277.64,170.68,277.64Z" transform="translate(-11.55 -152.03)"/><path class="cls-11" d="M170.68,273A174.13,174.13,0,0,1,117,264.78C88,255.37,71.62,241.09,71.46,241l1.08-1.23c.16.15,16.3,14.23,45.06,23.53,26.55,8.57,69.59,14.71,123.92-4.75l.55,1.54C215.38,269.6,191.38,273,170.68,273Z" transform="translate(-11.55 -152.03)"/><path class="cls-11" d="M170.68,268.43A174.43,174.43,0,0,1,117,260.18c-29.07-9.41-45.4-23.69-45.56-23.83l1.08-1.23c.16.14,16.3,14.23,45.06,23.52,26.55,8.58,69.59,14.72,123.92-4.75l.55,1.54C215.38,265,191.38,268.43,170.68,268.43Z" transform="translate(-11.55 -152.03)"/><path class="cls-11" d="M170.68,263.82A174.13,174.13,0,0,1,117,255.57c-29.07-9.41-45.4-23.68-45.56-23.83l1.08-1.22c.16.14,16.3,14.22,45.06,23.52,26.55,8.57,69.59,14.71,123.92-4.75l.55,1.54C215.38,260.39,191.38,263.82,170.68,263.82Z" transform="translate(-11.55 -152.03)"/><path class="cls-11" d="M170.68,259.22A174.13,174.13,0,0,1,117,251c-29.07-9.41-45.4-23.69-45.56-23.83l1.08-1.23c.16.14,16.3,14.23,45.06,23.52,26.55,8.58,69.59,14.72,123.92-4.75l.55,1.55C215.38,255.79,191.38,259.22,170.68,259.22Z" transform="translate(-11.55 -152.03)"/><path class="cls-11" d="M170.68,254.61A174.13,174.13,0,0,1,117,246.36C88,237,71.62,222.68,71.46,222.53l1.08-1.22c.16.14,16.3,14.22,45.06,23.52,26.55,8.58,69.59,14.71,123.92-4.75l.55,1.54C215.38,251.18,191.38,254.61,170.68,254.61Z" transform="translate(-11.55 -152.03)"/><path class="cls-11" d="M170.68,250A174.13,174.13,0,0,1,117,241.76c-29.07-9.41-45.4-23.69-45.56-23.83l1.08-1.23c.16.14,16.3,14.23,45.06,23.52,26.55,8.58,69.59,14.72,123.92-4.75l.55,1.55C215.38,246.58,191.38,250,170.68,250Z" transform="translate(-11.55 -152.03)"/><path class="cls-6" d="M170.68,245.41A174.1,174.1,0,0,1,117,237.15c-29.07-9.41-45.4-23.68-45.56-23.82l1.08-1.23c.16.14,16.3,14.22,45.06,23.52,26.55,8.58,69.59,14.71,123.92-4.75l.55,1.54C215.38,242,191.38,245.41,170.68,245.41Z" transform="translate(-11.55 -152.03)"/><path class="cls-6" d="M170.68,240.8A174.13,174.13,0,0,1,117,232.55c-29.07-9.41-45.4-23.69-45.56-23.83l1.08-1.23c.16.14,16.3,14.23,45.06,23.53,26.55,8.57,69.59,14.71,123.92-4.75l.55,1.54C215.38,237.37,191.38,240.8,170.68,240.8Z" transform="translate(-11.55 -152.03)"/><path class="cls-6" d="M170.68,236.2A174.1,174.1,0,0,1,117,227.94c-29.07-9.4-45.4-23.68-45.56-23.82l1.08-1.23c.16.14,16.3,14.23,45.06,23.52,26.55,8.58,69.59,14.72,123.92-4.75l.55,1.54C215.38,232.77,191.38,236.2,170.68,236.2Z" transform="translate(-11.55 -152.03)"/><path class="cls-6" d="M170.68,231.59A174.13,174.13,0,0,1,117,223.34c-29.07-9.41-45.4-23.68-45.56-23.83l1.08-1.23c.16.15,16.3,14.23,45.06,23.53,26.55,8.57,69.59,14.71,123.92-4.75l.55,1.54C215.38,228.16,191.38,231.59,170.68,231.59Z" transform="translate(-11.55 -152.03)"/><path class="cls-6" d="M170.68,227A174.43,174.43,0,0,1,117,218.74c-29.07-9.41-45.4-23.69-45.56-23.83l1.08-1.23c.16.14,16.3,14.23,45.06,23.52,26.55,8.58,69.59,14.72,123.92-4.75l.55,1.54C215.38,223.56,191.38,227,170.68,227Z" transform="translate(-11.55 -152.03)"/><path class="cls-6" d="M170.68,222.38A174.13,174.13,0,0,1,117,214.13C88,204.72,71.62,190.45,71.46,190.3l1.08-1.22c.16.14,16.3,14.22,45.06,23.52,26.55,8.57,69.59,14.71,123.92-4.75l.55,1.54C215.38,219,191.38,222.38,170.68,222.38Z" transform="translate(-11.55 -152.03)"/><path class="cls-6" d="M170.68,217.78A174.13,174.13,0,0,1,117,209.53C88,200.12,71.62,185.84,71.46,185.7l1.08-1.23c.16.14,16.3,14.23,45.06,23.52,26.55,8.58,69.59,14.72,123.92-4.75l.55,1.55C215.38,214.35,191.38,217.78,170.68,217.78Z" transform="translate(-11.55 -152.03)"/><path class="cls-6" d="M170.68,213.17A174.13,174.13,0,0,1,117,204.92c-29.07-9.41-45.4-23.68-45.56-23.83l1.08-1.22c.16.14,16.3,14.22,45.06,23.52,26.55,8.58,69.59,14.71,123.92-4.75l.55,1.54C215.38,209.74,191.38,213.17,170.68,213.17Z" transform="translate(-11.55 -152.03)"/><path class="cls-6" d="M170.68,208.57A174.13,174.13,0,0,1,117,200.32c-29.07-9.41-45.4-23.69-45.56-23.83l1.08-1.23c.16.14,16.3,14.23,45.06,23.52,26.55,8.58,69.59,14.72,123.92-4.75l.55,1.55C215.38,205.14,191.38,208.57,170.68,208.57Z" transform="translate(-11.55 -152.03)"/><path class="cls-11" d="M170.68,309.36A174.1,174.1,0,0,1,117,301.1c-29.07-9.41-45.4-23.68-45.56-23.82l1.08-1.23c.16.14,16.3,14.22,45.06,23.52,26.55,8.58,69.59,14.71,123.92-4.75l.55,1.54C215.38,305.93,191.38,309.36,170.68,309.36Z" transform="translate(-11.55 -152.03)"/><path class="cls-11" d="M170.68,313.45A174.13,174.13,0,0,1,117,305.2c-29.07-9.41-45.4-23.69-45.56-23.83l1.08-1.23c.16.14,16.3,14.23,45.06,23.52,26.55,8.58,69.59,14.72,123.92-4.75l.55,1.55C215.38,310,191.38,313.45,170.68,313.45Z" transform="translate(-11.55 -152.03)"/><path class="cls-11" d="M170.68,317.54A174.13,174.13,0,0,1,117,309.29C88,299.88,71.62,285.6,71.46,285.46l1.08-1.23c.16.15,16.3,14.23,45.06,23.53,26.55,8.57,69.59,14.71,123.92-4.75l.55,1.54C215.38,314.11,191.38,317.54,170.68,317.54Z" transform="translate(-11.55 -152.03)"/><path class="cls-11" d="M170.68,321.63A174.13,174.13,0,0,1,117,313.38C88,304,71.62,289.7,71.46,289.55l1.08-1.22c.16.14,16.3,14.22,45.06,23.52,26.55,8.57,69.59,14.71,123.92-4.75l.55,1.54C215.38,318.2,191.38,321.63,170.68,321.63Z" transform="translate(-11.55 -152.03)"/><path class="cls-11" d="M170.68,325.73A174.1,174.1,0,0,1,117,317.47c-29.07-9.4-45.4-23.68-45.56-23.82l1.08-1.23c.16.14,16.3,14.23,45.06,23.52,26.55,8.58,69.59,14.72,123.92-4.75l.55,1.54C215.38,322.3,191.38,325.73,170.68,325.73Z" transform="translate(-11.55 -152.03)"/><path class="cls-11" d="M170.68,329.82A174.13,174.13,0,0,1,117,321.57c-29.07-9.41-45.4-23.69-45.56-23.83l1.08-1.23c.16.14,16.3,14.23,45.06,23.52,26.55,8.58,69.59,14.72,123.92-4.75l.55,1.55C215.38,326.39,191.38,329.82,170.68,329.82Z" transform="translate(-11.55 -152.03)"/><path class="cls-11" d="M170.68,333.91A174.13,174.13,0,0,1,117,325.66C88,316.25,71.62,302,71.46,301.83l1.08-1.22c.16.14,16.3,14.22,45.06,23.52,26.55,8.57,69.59,14.71,123.92-4.75l.55,1.54C215.38,330.48,191.38,333.91,170.68,333.91Z" transform="translate(-11.55 -152.03)"/><path class="cls-11" d="M170.68,338A174.1,174.1,0,0,1,117,329.75c-29.07-9.41-45.4-23.68-45.56-23.82l1.08-1.23c.16.14,16.3,14.22,45.06,23.52,26.55,8.58,69.59,14.71,123.92-4.75l.55,1.54C215.38,334.58,191.38,338,170.68,338Z" transform="translate(-11.55 -152.03)"/><path class="cls-11" d="M170.68,342.1A174.13,174.13,0,0,1,117,333.85C88,324.44,71.62,310.16,71.46,310l1.08-1.23c.16.14,16.3,14.23,45.06,23.52,26.55,8.58,69.59,14.72,123.92-4.75l.55,1.55C215.38,338.67,191.38,342.1,170.68,342.1Z" transform="translate(-11.55 -152.03)"/><path class="cls-11" d="M170.68,346.19A174.13,174.13,0,0,1,117,337.94c-29.07-9.41-45.4-23.69-45.56-23.83l1.08-1.23c.16.14,16.3,14.23,45.06,23.53,26.55,8.57,69.59,14.71,123.92-4.75l.55,1.54C215.38,342.76,191.38,346.19,170.68,346.19Z" transform="translate(-11.55 -152.03)"/><path class="cls-11" d="M170.68,350.28A174.13,174.13,0,0,1,117,342C88,332.62,71.62,318.35,71.46,318.2L72.54,317c.16.14,16.3,14.22,45.06,23.52,26.55,8.58,69.59,14.71,123.92-4.75l.55,1.54C215.38,346.85,191.38,350.28,170.68,350.28Z" transform="translate(-11.55 -152.03)"/><path class="cls-11" d="M170.68,354.38A174.1,174.1,0,0,1,117,346.12c-29.07-9.4-45.4-23.68-45.56-23.82l1.08-1.23c.16.14,16.3,14.23,45.06,23.52,26.55,8.58,69.59,14.72,123.92-4.75l.55,1.54C215.38,351,191.38,354.38,170.68,354.38Z" transform="translate(-11.55 -152.03)"/><path class="cls-11" d="M170.68,358.47A174.13,174.13,0,0,1,117,350.22c-29.07-9.41-45.4-23.69-45.56-23.83l1.08-1.23c.16.14,16.3,14.23,45.06,23.52,26.55,8.58,69.59,14.72,123.92-4.75l.55,1.55C215.38,355,191.38,358.47,170.68,358.47Z" transform="translate(-11.55 -152.03)"/><path class="cls-11" d="M170.68,362.56A174.13,174.13,0,0,1,117,354.31C88,344.9,71.62,330.63,71.46,330.48l1.08-1.23c.16.15,16.3,14.23,45.06,23.53,26.55,8.57,69.59,14.71,123.92-4.75l.55,1.54C215.38,359.13,191.38,362.56,170.68,362.56Z" transform="translate(-11.55 -152.03)"/><path class="cls-11" d="M170.68,366.66A174.1,174.1,0,0,1,117,358.4C88,349,71.62,334.72,71.46,334.58l1.08-1.23c.16.14,16.3,14.22,45.06,23.52,26.55,8.58,69.59,14.71,123.92-4.75l.55,1.54C215.38,363.23,191.38,366.66,170.68,366.66Z" transform="translate(-11.55 -152.03)"/><path class="cls-11" d="M170.68,370.75A174.13,174.13,0,0,1,117,362.5c-29.07-9.41-45.4-23.69-45.56-23.83l1.08-1.23c.16.14,16.3,14.23,45.06,23.52,26.55,8.58,69.59,14.72,123.92-4.75l.55,1.55C215.38,367.32,191.38,370.75,170.68,370.75Z" transform="translate(-11.55 -152.03)"/><path class="cls-11" d="M170.68,374.84A174.13,174.13,0,0,1,117,366.59C88,357.18,71.62,342.9,71.46,342.76l1.08-1.23c.16.14,16.3,14.23,45.06,23.53,26.55,8.57,69.59,14.71,123.92-4.75l.55,1.54C215.38,371.41,191.38,374.84,170.68,374.84Z" transform="translate(-11.55 -152.03)"/><path class="cls-11" d="M170.68,378.93A174.13,174.13,0,0,1,117,370.68C88,361.27,71.62,347,71.46,346.85l1.08-1.22c.16.14,16.3,14.22,45.06,23.52,26.55,8.57,69.59,14.71,123.92-4.75l.55,1.54C215.38,375.5,191.38,378.93,170.68,378.93Z" transform="translate(-11.55 -152.03)"/></g><g class="cls-12"><rect class="cls-4" x="33.78" y="97.52" width="160.56" height="138.64"/><path class="cls-6" d="M170.68,305.26A174.13,174.13,0,0,1,117,297C88,287.6,71.62,273.33,71.46,273.18L72.54,272c.16.14,16.3,14.22,45.06,23.52,26.55,8.57,69.59,14.71,123.92-4.75l.55,1.54C215.38,301.83,191.38,305.26,170.68,305.26Z" transform="translate(-11.55 -152.03)"/><path class="cls-6" d="M170.68,300.66A174.13,174.13,0,0,1,117,292.41C88,283,71.62,268.72,71.46,268.58l1.08-1.23c.16.14,16.3,14.23,45.06,23.52,26.55,8.58,69.59,14.72,123.92-4.75l.55,1.55C215.38,297.23,191.38,300.66,170.68,300.66Z" transform="translate(-11.55 -152.03)"/><path class="cls-6" d="M170.68,296.05A174.13,174.13,0,0,1,117,287.8C88,278.39,71.62,264.12,71.46,264l1.08-1.22c.16.14,16.3,14.22,45.06,23.52,26.55,8.57,69.59,14.71,123.92-4.75l.55,1.54C215.38,292.62,191.38,296.05,170.68,296.05Z" transform="translate(-11.55 -152.03)"/><path class="cls-6" d="M170.68,291.45A174.13,174.13,0,0,1,117,283.2c-29.07-9.41-45.4-23.69-45.56-23.83l1.08-1.23c.16.14,16.3,14.23,45.06,23.52,26.55,8.58,69.59,14.72,123.92-4.75l.55,1.55C215.38,288,191.38,291.45,170.68,291.45Z" transform="translate(-11.55 -152.03)"/><path class="cls-6" d="M170.68,286.85A174.1,174.1,0,0,1,117,278.59c-29.07-9.41-45.4-23.68-45.56-23.83l1.08-1.22c.16.14,16.3,14.22,45.06,23.52,26.55,8.58,69.59,14.71,123.92-4.75l.55,1.54C215.38,283.42,191.38,286.85,170.68,286.85Z" transform="translate(-11.55 -152.03)"/><path class="cls-6" d="M170.68,282.24A174.13,174.13,0,0,1,117,274C88,264.58,71.62,250.3,71.46,250.16l1.08-1.23c.16.14,16.3,14.23,45.06,23.53,26.55,8.57,69.59,14.71,123.92-4.75l.55,1.54C215.38,278.81,191.38,282.24,170.68,282.24Z" transform="translate(-11.55 -152.03)"/><path class="cls-6" d="M170.68,277.64A174.1,174.1,0,0,1,117,269.38C88,260,71.62,245.7,71.46,245.56l1.08-1.23c.16.14,16.3,14.22,45.06,23.52,26.55,8.58,69.59,14.71,123.92-4.75l.55,1.54C215.38,274.21,191.38,277.64,170.68,277.64Z" transform="translate(-11.55 -152.03)"/><path class="cls-6" d="M170.68,309.36A174.1,174.1,0,0,1,117,301.1c-29.07-9.41-45.4-23.68-45.56-23.82l1.08-1.23c.16.14,16.3,14.22,45.06,23.52,26.55,8.58,69.59,14.71,123.92-4.75l.55,1.54C215.38,305.93,191.38,309.36,170.68,309.36Z" transform="translate(-11.55 -152.03)"/><path class="cls-6" d="M170.68,313.45A174.13,174.13,0,0,1,117,305.2c-29.07-9.41-45.4-23.69-45.56-23.83l1.08-1.23c.16.14,16.3,14.23,45.06,23.52,26.55,8.58,69.59,14.72,123.92-4.75l.55,1.55C215.38,310,191.38,313.45,170.68,313.45Z" transform="translate(-11.55 -152.03)"/><path class="cls-6" d="M170.68,317.54A174.13,174.13,0,0,1,117,309.29C88,299.88,71.62,285.6,71.46,285.46l1.08-1.23c.16.15,16.3,14.23,45.06,23.53,26.55,8.57,69.59,14.71,123.92-4.75l.55,1.54C215.38,314.11,191.38,317.54,170.68,317.54Z" transform="translate(-11.55 -152.03)"/><path class="cls-6" d="M170.68,321.63A174.13,174.13,0,0,1,117,313.38C88,304,71.62,289.7,71.46,289.55l1.08-1.22c.16.14,16.3,14.22,45.06,23.52,26.55,8.57,69.59,14.71,123.92-4.75l.55,1.54C215.38,318.2,191.38,321.63,170.68,321.63Z" transform="translate(-11.55 -152.03)"/><path class="cls-6" d="M170.68,325.73A174.1,174.1,0,0,1,117,317.47c-29.07-9.4-45.4-23.68-45.56-23.82l1.08-1.23c.16.14,16.3,14.23,45.06,23.52,26.55,8.58,69.59,14.72,123.92-4.75l.55,1.54C215.38,322.3,191.38,325.73,170.68,325.73Z" transform="translate(-11.55 -152.03)"/><path class="cls-6" d="M170.68,329.82A174.13,174.13,0,0,1,117,321.57c-29.07-9.41-45.4-23.69-45.56-23.83l1.08-1.23c.16.14,16.3,14.23,45.06,23.52,26.55,8.58,69.59,14.72,123.92-4.75l.55,1.55C215.38,326.39,191.38,329.82,170.68,329.82Z" transform="translate(-11.55 -152.03)"/><path class="cls-6" d="M170.68,333.91A174.13,174.13,0,0,1,117,325.66C88,316.25,71.62,302,71.46,301.83l1.08-1.22c.16.14,16.3,14.22,45.06,23.52,26.55,8.57,69.59,14.71,123.92-4.75l.55,1.54C215.38,330.48,191.38,333.91,170.68,333.91Z" transform="translate(-11.55 -152.03)"/><path class="cls-6" d="M170.68,338A174.1,174.1,0,0,1,117,329.75c-29.07-9.41-45.4-23.68-45.56-23.82l1.08-1.23c.16.14,16.3,14.22,45.06,23.52,26.55,8.58,69.59,14.71,123.92-4.75l.55,1.54C215.38,334.58,191.38,338,170.68,338Z" transform="translate(-11.55 -152.03)"/><path class="cls-6" d="M170.68,342.1A174.13,174.13,0,0,1,117,333.85C88,324.44,71.62,310.16,71.46,310l1.08-1.23c.16.14,16.3,14.23,45.06,23.52,26.55,8.58,69.59,14.72,123.92-4.75l.55,1.55C215.38,338.67,191.38,342.1,170.68,342.1Z" transform="translate(-11.55 -152.03)"/><path class="cls-6" d="M170.68,346.19A174.13,174.13,0,0,1,117,337.94c-29.07-9.41-45.4-23.69-45.56-23.83l1.08-1.23c.16.14,16.3,14.23,45.06,23.53,26.55,8.57,69.59,14.71,123.92-4.75l.55,1.54C215.38,342.76,191.38,346.19,170.68,346.19Z" transform="translate(-11.55 -152.03)"/><path class="cls-6" d="M170.68,350.28A174.13,174.13,0,0,1,117,342C88,332.62,71.62,318.35,71.46,318.2L72.54,317c.16.14,16.3,14.22,45.06,23.52,26.55,8.58,69.59,14.71,123.92-4.75l.55,1.54C215.38,346.85,191.38,350.28,170.68,350.28Z" transform="translate(-11.55 -152.03)"/><path class="cls-6" d="M170.68,354.38A174.1,174.1,0,0,1,117,346.12c-29.07-9.4-45.4-23.68-45.56-23.82l1.08-1.23c.16.14,16.3,14.23,45.06,23.52,26.55,8.58,69.59,14.72,123.92-4.75l.55,1.54C215.38,351,191.38,354.38,170.68,354.38Z" transform="translate(-11.55 -152.03)"/><path class="cls-6" d="M170.68,358.47A174.13,174.13,0,0,1,117,350.22c-29.07-9.41-45.4-23.69-45.56-23.83l1.08-1.23c.16.14,16.3,14.23,45.06,23.52,26.55,8.58,69.59,14.72,123.92-4.75l.55,1.55C215.38,355,191.38,358.47,170.68,358.47Z" transform="translate(-11.55 -152.03)"/><path class="cls-6" d="M170.68,362.56A174.13,174.13,0,0,1,117,354.31C88,344.9,71.62,330.63,71.46,330.48l1.08-1.23c.16.15,16.3,14.23,45.06,23.53,26.55,8.57,69.59,14.71,123.92-4.75l.55,1.54C215.38,359.13,191.38,362.56,170.68,362.56Z" transform="translate(-11.55 -152.03)"/><path class="cls-6" d="M170.68,366.66A174.1,174.1,0,0,1,117,358.4C88,349,71.62,334.72,71.46,334.58l1.08-1.23c.16.14,16.3,14.22,45.06,23.52,26.55,8.58,69.59,14.71,123.92-4.75l.55,1.54C215.38,363.23,191.38,366.66,170.68,366.66Z" transform="translate(-11.55 -152.03)"/><path class="cls-6" d="M170.68,370.75A174.13,174.13,0,0,1,117,362.5c-29.07-9.41-45.4-23.69-45.56-23.83l1.08-1.23c.16.14,16.3,14.23,45.06,23.52,26.55,8.58,69.59,14.72,123.92-4.75l.55,1.55C215.38,367.32,191.38,370.75,170.68,370.75Z" transform="translate(-11.55 -152.03)"/><path class="cls-6" d="M170.68,374.84A174.13,174.13,0,0,1,117,366.59C88,357.18,71.62,342.9,71.46,342.76l1.08-1.23c.16.14,16.3,14.23,45.06,23.53,26.55,8.57,69.59,14.71,123.92-4.75l.55,1.54C215.38,371.41,191.38,374.84,170.68,374.84Z" transform="translate(-11.55 -152.03)"/><path class="cls-6" d="M170.68,378.93A174.13,174.13,0,0,1,117,370.68C88,361.27,71.62,347,71.46,346.85l1.08-1.22c.16.14,16.3,14.22,45.06,23.52,26.55,8.57,69.59,14.71,123.92-4.75l.55,1.54C215.38,375.5,191.38,378.93,170.68,378.93Z" transform="translate(-11.55 -152.03)"/></g><path class="cls-9" d="M93.55,243.41s-2.57,1-2.06,2,2.57,1,2.57,1.54-1,2.56,0,2.56a10.35,10.35,0,0,1,3.08,1l1-2.56s-1.54,1-2,0,0-1-.51-1.53S93.55,247,93.55,243.41Z" transform="translate(-11.55 -152.03)"/><path class="cls-9" d="M106.37,243.41c-1.31,1.3.51,2.56.51,2.56l1-1a21.9,21.9,0,0,1-.51-2.56v-2.55s-3.08.51-2.57,1.53a6.36,6.36,0,0,0,1,1.54s-1.54-1-1.54-.52-.51,1,0,1a.5.5,0,0,0,.51-.51S106.88,242.9,106.37,243.41Z" transform="translate(-11.55 -152.03)"/><path class="cls-9" d="M101.75,246.48s-1,1.53-.51,1.53h1v-1Z" transform="translate(-11.55 -152.03)"/><path class="cls-9" d="M97.65,237.27a1.78,1.78,0,0,0-.51,1c0,.51,2,1,1.54,1.54s.51.51.51.51l.51-1s-1-.52-1-1S97.65,237.27,97.65,237.27Z" transform="translate(-11.55 -152.03)"/></g></g><path class="cls-3" d="M269.32,250.16,249.94,260l-54.33,27.53L183.4,263.64l54.44-27.59,19.36-9.81,0,0A118.94,118.94,0,0,1,269.32,250.16Z" transform="translate(-11.55 -152.03)"/><path class="cls-4" d="M164.81,303.12,76.9,347.67l-19.38,9.82a118.54,118.54,0,0,1-12.26-23.84l19.35-9.81,88-44.59Z" transform="translate(-11.55 -152.03)"/><path class="cls-13" d="M257.22,226.26l-19.36,9.8L183.4,263.64l54.44-27.59,19.36-9.81Z" transform="translate(-11.55 -152.03)"/><path class="cls-3" d="M310.38,306V207.37h64.39v17.4H329v21.09h37.53v17.4H329v25.35h45.75V306Z" transform="translate(-11.55 -152.03)"/><path class="cls-3" d="M389.84,263.81V249.42h41.1v14.39Z" transform="translate(-11.55 -152.03)"/><path class="cls-3" d="M489.85,308.06a48,48,0,0,1-17.74-3.32,43.11,43.11,0,0,1-14.9-9.83A46.2,46.2,0,0,1,447,278.81a60.68,60.68,0,0,1-3.73-22.12q0-16.38,6.27-27.85a43.68,43.68,0,0,1,16.85-17.5,46.52,46.52,0,0,1,23.46-6q19,0,29.93,8.84t14.59,25l-19,2.74a28.87,28.87,0,0,0-8.73-13.8q-6.06-5.18-15.52-5.24t-15.62,4a25.36,25.36,0,0,0-9.35,11.85A47.44,47.44,0,0,0,463,256.69a46.41,46.41,0,0,0,3.11,17.81,25.43,25.43,0,0,0,9.35,11.71q6.24,4.17,15.62,4.31a26.29,26.29,0,0,0,11.54-2.19,21.44,21.44,0,0,0,8.74-7.33,32.41,32.41,0,0,0,5.06-12.81H500.81V253.81h35.48a29.26,29.26,0,0,1,.2,3.15c0,1.51.07,2.37.07,2.6q0,14.19-5.75,25.14a42.47,42.47,0,0,1-16.23,17.16Q504.09,308.06,489.85,308.06Z" transform="translate(-11.55 -152.03)"/><path class="cls-3" d="M551.63,306V205.31h18.63V306Z" transform="translate(-11.55 -152.03)"/><path class="cls-3" d="M624.1,308.06a37.71,37.71,0,0,1-19.59-5,34.8,34.8,0,0,1-13.12-13.8A42.48,42.48,0,0,1,586.7,269a41.9,41.9,0,0,1,4.8-20.38,34.9,34.9,0,0,1,13.22-13.74,40.8,40.8,0,0,1,39,.07,34.9,34.9,0,0,1,13.18,13.81,45.67,45.67,0,0,1,0,40.54,34.9,34.9,0,0,1-13.22,13.77A37.93,37.93,0,0,1,624.1,308.06Zm0-17.4q9,0,13.39-6.06T641.91,269q0-9.87-4.48-15.76t-13.33-5.89a17,17,0,0,0-10,2.74,16.2,16.2,0,0,0-5.79,7.6A31.35,31.35,0,0,0,606.43,269q0,9.93,4.49,15.78T624.1,290.66Z" transform="translate(-11.55 -152.03)"/><path class="cls-3" d="M676.57,306V207.37h18.77v47.95H693V306ZM713,308.06q-11,0-18.42-5.14a31.35,31.35,0,0,1-11.13-14A50.58,50.58,0,0,1,679.72,269a51.32,51.32,0,0,1,3.7-19.94,31.85,31.85,0,0,1,10.89-14q7.2-5.15,17.74-5.14a33.45,33.45,0,0,1,18.5,5.07,34,34,0,0,1,12.22,13.87,48.6,48.6,0,0,1,.07,40,34.52,34.52,0,0,1-12,14A31.34,31.34,0,0,1,713,308.06Zm-3-16.58a15.47,15.47,0,0,0,9.86-3,17.78,17.78,0,0,0,5.69-8.12A33.12,33.12,0,0,0,727.4,269a31.77,31.77,0,0,0-1.92-11.27,17.9,17.9,0,0,0-5.93-8.15,16.44,16.44,0,0,0-10.24-3,14.83,14.83,0,0,0-9.42,2.81,16,16,0,0,0-5.24,7.87,43.16,43.16,0,0,0,0,23.57,15.58,15.58,0,0,0,5.38,7.88Q703.77,291.49,710,291.48Z" transform="translate(-11.55 -152.03)"/><path class="cls-3" d="M796.58,308.06a40,40,0,0,1-20-4.9A35.22,35.22,0,0,1,763,289.67a39,39,0,0,1-4.9-19.7q0-12.12,4.8-21.09a34.84,34.84,0,0,1,13.22-13.94,37.44,37.44,0,0,1,19.38-5q11.64,0,19.8,5.48a32.22,32.22,0,0,1,12.05,15.41q3.92,9.94,2.74,23.36H811.65v-6.85q0-11.3-3.6-16.27t-11.75-5q-9.51,0-14,5.78T777.81,269q0,10.34,4.49,16t13.18,5.65a17.62,17.62,0,0,0,9.39-2.4,15.17,15.17,0,0,0,6-6.92l18.64,5.35a32.8,32.8,0,0,1-13.19,15.75A36.45,36.45,0,0,1,796.58,308.06Zm-24.52-33.84V260.39h49v13.83Z" transform="translate(-11.55 -152.03)"/><path class="cls-3" d="M341.17,382.26a20.26,20.26,0,0,1-10.64-2.68,17.93,17.93,0,0,1-6.88-7.51,27.3,27.3,0,0,1,0-22.43,17.93,17.93,0,0,1,6.88-7.51,20.26,20.26,0,0,1,10.64-2.68A19.6,19.6,0,0,1,353.05,343a18.59,18.59,0,0,1,6.78,9.5L352,354.63a10.44,10.44,0,0,0-10.84-7.87,11.53,11.53,0,0,0-6.53,1.74,10.52,10.52,0,0,0-3.92,4.91,21.81,21.81,0,0,0,0,14.89,10.52,10.52,0,0,0,3.92,4.91,11.53,11.53,0,0,0,6.53,1.75,11.15,11.15,0,0,0,7-2.09,11.27,11.27,0,0,0,3.85-5.79l7.82,2.17a18.59,18.59,0,0,1-6.78,9.5A19.6,19.6,0,0,1,341.17,382.26Z" transform="translate(-11.55 -152.03)"/><path class="cls-3" d="M380,382.26a15.67,15.67,0,0,1-8.16-2.08,14.49,14.49,0,0,1-5.47-5.75,17.73,17.73,0,0,1-2-8.44,17.51,17.51,0,0,1,2-8.49,14.65,14.65,0,0,1,5.51-5.72,17,17,0,0,1,16.26,0,14.54,14.54,0,0,1,5.49,5.75,17.58,17.58,0,0,1,2,8.43,17.39,17.39,0,0,1-2,8.46,14.47,14.47,0,0,1-5.5,5.74A15.8,15.8,0,0,1,380,382.26Zm0-7.25a6.46,6.46,0,0,0,5.58-2.52,10.76,10.76,0,0,0,1.84-6.5,10.54,10.54,0,0,0-1.87-6.56A6.54,6.54,0,0,0,380,357a7.11,7.11,0,0,0-4.17,1.14,6.78,6.78,0,0,0-2.41,3.17,13.06,13.06,0,0,0-.78,4.71,10.6,10.6,0,0,0,1.86,6.58A6.5,6.5,0,0,0,380,375Z" transform="translate(-11.55 -152.03)"/><path class="cls-3" d="M401.84,381.4V350.58h6.91V360.8h1v20.6Zm21.06,0V366.85c0-.71,0-1.6-.11-2.7a12.36,12.36,0,0,0-.71-3.3,6.32,6.32,0,0,0-2-2.76,5.84,5.84,0,0,0-3.84-1.12,8.11,8.11,0,0,0-2.14.32A5.32,5.32,0,0,0,412,358.5a6.5,6.5,0,0,0-1.64,2.64,13.61,13.61,0,0,0-.64,4.62l-4.45-2.11a16.07,16.07,0,0,1,1.48-6.85,12.26,12.26,0,0,1,4.47-5.16,13.29,13.29,0,0,1,7.52-2,12.59,12.59,0,0,1,5.91,1.22A9.77,9.77,0,0,1,428.2,354a13,13,0,0,1,1.81,3.92,20.33,20.33,0,0,1,.66,3.72c.07,1.13.11,1.94.11,2.46V381.4Z" transform="translate(-11.55 -152.03)"/><path class="cls-3" d="M450.25,382.26a15.48,15.48,0,0,1-9.41-2.64,11,11,0,0,1-4.35-7.46l7.93-1.2a5.55,5.55,0,0,0,2.16,3.39,6.94,6.94,0,0,0,4.24,1.23,5.57,5.57,0,0,0,3.25-.81,2.63,2.63,0,0,0,1.14-2.27,2.21,2.21,0,0,0-.46-1.47,4.7,4.7,0,0,0-2-1.1q-1.57-.54-4.92-1.43a28,28,0,0,1-6-2.16,8.09,8.09,0,0,1-3.26-2.87,7.8,7.8,0,0,1-1-4,8.79,8.79,0,0,1,1.51-5.15,9.67,9.67,0,0,1,4.27-3.37,16.31,16.31,0,0,1,6.49-1.19,17.11,17.11,0,0,1,6.42,1.12,11.17,11.17,0,0,1,4.52,3.17,9.48,9.48,0,0,1,2.13,4.85l-7.94,1.42a3.83,3.83,0,0,0-1.48-2.71A6.45,6.45,0,0,0,450,356.4a6.35,6.35,0,0,0-3.44.57,2.24,2.24,0,0,0-1.3,2.06,1.8,1.8,0,0,0,.56,1.34,6.43,6.43,0,0,0,2.31,1.11q1.76.57,5.35,1.49a24,24,0,0,1,5.64,2.12,7.89,7.89,0,0,1,3.09,2.92,8.07,8.07,0,0,1,1,4.09,9,9,0,0,1-3.43,7.45Q456.3,382.27,450.25,382.26Z" transform="translate(-11.55 -152.03)"/><path class="cls-3" d="M480.9,382.32a12.41,12.41,0,0,1-5.91-1.23,9.67,9.67,0,0,1-3.55-3.11,13.06,13.06,0,0,1-1.82-3.93,19.44,19.44,0,0,1-.65-3.72c-.08-1.12-.12-1.94-.12-2.45v-17.3h7.88v14.56c0,.7,0,1.6.11,2.69a12.22,12.22,0,0,0,.72,3.3,6.32,6.32,0,0,0,1.95,2.77,5.93,5.93,0,0,0,3.84,1.11,8,8,0,0,0,2.14-.31,5.28,5.28,0,0,0,2.14-1.22,6.3,6.3,0,0,0,1.64-2.65,13.64,13.64,0,0,0,.65-4.61l4.45,2.11a16,16,0,0,1-1.49,6.85,12.19,12.19,0,0,1-4.46,5.17A13.42,13.42,0,0,1,480.9,382.32Zm10-.92V371.19h-1V350.58h7.82V381.4Z" transform="translate(-11.55 -152.03)"/><path class="cls-3" d="M506.3,381.4V339.45h7.76V381.4Z" transform="translate(-11.55 -152.03)"/><path class="cls-3" d="M519.2,356.57v-6h21.92v6Zm21.92,24.83a30,30,0,0,1-6.27.53,14.94,14.94,0,0,1-5.48-1.08,7.35,7.35,0,0,1-3.66-3.27,9.28,9.28,0,0,1-1.2-4.3q-.06-2.17-.06-4.95V342h7.76v25.86c0,1.2,0,2.28,0,3.24a4.42,4.42,0,0,0,.58,2.29,3.89,3.89,0,0,0,3.28,1.77,25.64,25.64,0,0,0,5-.22Z" transform="translate(-11.55 -152.03)"/><path class="cls-3" d="M548.54,346.3v-6.85h7.76v6.85Zm0,35.1V350.58h7.76V381.4Z" transform="translate(-11.55 -152.03)"/><path class="cls-3" d="M564.8,381.4V350.58h6.91V360.8h1v20.6Zm21.07,0V366.85c0-.71,0-1.6-.12-2.7a12,12,0,0,0-.71-3.3,6.24,6.24,0,0,0-2-2.76,5.83,5.83,0,0,0-3.83-1.12,8.18,8.18,0,0,0-2.15.32A5.32,5.32,0,0,0,575,358.5a6.6,6.6,0,0,0-1.64,2.64,13.61,13.61,0,0,0-.64,4.62l-4.45-2.11a16.07,16.07,0,0,1,1.48-6.85,12.26,12.26,0,0,1,4.47-5.16,13.34,13.34,0,0,1,7.52-2,12.53,12.53,0,0,1,5.91,1.22,9.77,9.77,0,0,1,3.55,3.12,12.74,12.74,0,0,1,1.81,3.92,20.33,20.33,0,0,1,.66,3.72c.08,1.13.11,1.94.11,2.46V381.4Z" transform="translate(-11.55 -152.03)"/><path class="cls-3" d="M613.66,382.26a13,13,0,0,1-7.44-2.14,14.48,14.48,0,0,1-5-5.82,19,19,0,0,1-1.78-8.31,18.73,18.73,0,0,1,1.81-8.37,14.12,14.12,0,0,1,5.1-5.78,13.92,13.92,0,0,1,7.7-2.12,12.45,12.45,0,0,1,7.4,2.14,13.25,13.25,0,0,1,4.53,5.83,23,23,0,0,1,0,16.61,12.52,12.52,0,0,1-12.32,8Zm.69,13.7a14.77,14.77,0,0,1-5-.84,14.33,14.33,0,0,1-4.24-2.34,12.65,12.65,0,0,1-3-3.5l7.19-3.48a4.86,4.86,0,0,0,2.13,2.08,6.4,6.4,0,0,0,3,.72,9.17,9.17,0,0,0,3.28-.59,5.66,5.66,0,0,0,2.47-1.74,4.19,4.19,0,0,0,.87-2.87v-9h1V350.58h6.79v32.94a20.83,20.83,0,0,1-.1,2.15,12.45,12.45,0,0,1-.36,2,9.3,9.3,0,0,1-2.75,4.66,12.93,12.93,0,0,1-4.92,2.72A21.29,21.29,0,0,1,614.35,396Zm.57-20.61a6.72,6.72,0,0,0,4.15-1.17,6.39,6.39,0,0,0,2.24-3.28,17.81,17.81,0,0,0,0-9.82,6.59,6.59,0,0,0-2.18-3.28,6.2,6.2,0,0,0-3.92-1.17,6.82,6.82,0,0,0-4.27,1.27,7.47,7.47,0,0,0-2.47,3.4,13.3,13.3,0,0,0-.8,4.69,13.93,13.93,0,0,0,.77,4.73,7.52,7.52,0,0,0,2.37,3.38A6.45,6.45,0,0,0,614.92,375.35Z" transform="translate(-11.55 -152.03)"/><path class="cls-3" d="M665.32,382.26a20,20,0,0,1-7.39-1.38,18.08,18.08,0,0,1-6.21-4.1,19.41,19.41,0,0,1-4.25-6.71,25.2,25.2,0,0,1-1.55-9.22,23.93,23.93,0,0,1,2.61-11.6,18.27,18.27,0,0,1,7-7.29,19.45,19.45,0,0,1,9.77-2.51q7.93,0,12.48,3.68a18.11,18.11,0,0,1,6.07,10.42l-7.93,1.14a12,12,0,0,0-3.64-5.75,9.7,9.7,0,0,0-6.46-2.18,11.12,11.12,0,0,0-6.51,1.68,10.58,10.58,0,0,0-3.9,4.94,19.87,19.87,0,0,0-1.29,7.47,19.51,19.51,0,0,0,1.29,7.43,10.62,10.62,0,0,0,3.9,4.88,11.78,11.78,0,0,0,6.51,1.8,11.08,11.08,0,0,0,4.81-.92,9,9,0,0,0,3.64-3.05,13.7,13.7,0,0,0,2.11-5.34h-6.51v-6h14.78a11.72,11.72,0,0,1,.09,1.31q0,.94,0,1.08a22.22,22.22,0,0,1-2.4,10.48,17.71,17.71,0,0,1-6.76,7.15A19.9,19.9,0,0,1,665.32,382.26Z" transform="translate(-11.55 -152.03)"/><path class="cls-3" d="M690.5,381.4V350.58h6.85v7.53l-.75-1a11.74,11.74,0,0,1,1.6-2.91,8.52,8.52,0,0,1,2.46-2.16,9.58,9.58,0,0,1,2.42-1.07,12.94,12.94,0,0,1,2.71-.49,14.55,14.55,0,0,1,2.8.07v7.25a7.84,7.84,0,0,0-3-.27,8.57,8.57,0,0,0-3.07.78,7.14,7.14,0,0,0-2.31,1.67,7,7,0,0,0-1.43,2.46,9.83,9.83,0,0,0-.48,3.18V381.4Z" transform="translate(-11.55 -152.03)"/><path class="cls-3" d="M727.31,382.26a15.67,15.67,0,0,1-8.16-2.08,14.56,14.56,0,0,1-5.47-5.75,17.73,17.73,0,0,1-1.95-8.44,17.52,17.52,0,0,1,2-8.49,14.58,14.58,0,0,1,5.51-5.72,16.94,16.94,0,0,1,16.25,0,14.47,14.47,0,0,1,5.49,5.75,19,19,0,0,1,0,16.89,14.5,14.5,0,0,1-5.51,5.74A15.78,15.78,0,0,1,727.31,382.26Zm0-7.25a6.44,6.44,0,0,0,5.58-2.52,10.76,10.76,0,0,0,1.84-6.5,10.54,10.54,0,0,0-1.87-6.56,6.52,6.52,0,0,0-5.55-2.46,7.07,7.07,0,0,0-4.16,1.14,6.72,6.72,0,0,0-2.41,3.17A12.84,12.84,0,0,0,720,366a10.54,10.54,0,0,0,1.87,6.58A6.49,6.49,0,0,0,727.31,375Z" transform="translate(-11.55 -152.03)"/><path class="cls-3" d="M760.71,382.32a12.41,12.41,0,0,1-5.91-1.23,9.78,9.78,0,0,1-3.56-3.11,13,13,0,0,1-1.81-3.93,19.44,19.44,0,0,1-.65-3.72c-.08-1.12-.12-1.94-.12-2.45v-17.3h7.88v14.56c0,.7,0,1.6.11,2.69a12.22,12.22,0,0,0,.72,3.3,6.32,6.32,0,0,0,2,2.77,5.93,5.93,0,0,0,3.84,1.11,8,8,0,0,0,2.14-.31,5.28,5.28,0,0,0,2.14-1.22,6.3,6.3,0,0,0,1.64-2.65,13.64,13.64,0,0,0,.65-4.61l4.45,2.11a16,16,0,0,1-1.49,6.85,12.33,12.33,0,0,1-4.46,5.17A13.42,13.42,0,0,1,760.71,382.32Zm10-.92V371.19h-1V350.58h7.81V381.4Z" transform="translate(-11.55 -152.03)"/><path class="cls-3" d="M785.48,395.1V350.58h6.85V371.7h1v23.4Zm15.18-12.84a12.49,12.49,0,0,1-12.31-8,21.12,21.12,0,0,1-1.56-8.31,21.43,21.43,0,0,1,1.54-8.3,13.27,13.27,0,0,1,4.54-5.83,12.44,12.44,0,0,1,7.39-2.14,13.93,13.93,0,0,1,7.71,2.12,14.1,14.1,0,0,1,5.09,5.78,18.6,18.6,0,0,1,1.82,8.37,18.81,18.81,0,0,1-1.79,8.31,14.45,14.45,0,0,1-5,5.82A13,13,0,0,1,800.66,382.26Zm-1.25-6.91a6.45,6.45,0,0,0,4.11-1.25,7.43,7.43,0,0,0,2.36-3.38,13.68,13.68,0,0,0,.78-4.73,13.3,13.3,0,0,0-.8-4.69,7.54,7.54,0,0,0-2.47-3.4,6.84,6.84,0,0,0-4.27-1.27,6.18,6.18,0,0,0-3.92,1.17,6.67,6.67,0,0,0-2.19,3.28,18.07,18.07,0,0,0,0,9.82,6.51,6.51,0,0,0,2.24,3.28A6.78,6.78,0,0,0,799.41,375.35Z" transform="translate(-11.55 -152.03)"/></svg>