<svg id="Layer_1" data-name="Layer 1" xmlns="http://www.w3.org/2000/svg" viewBox="0 0 143.08 203.99"><defs><style>.cls-1{fill:#fff0cc;}</style></defs><path class="cls-1" d="M519.88,263.6a85.89,85.89,0,0,1-44.11,14.49L439.3,390.51A13.2,13.2,0,0,1,422.68,399h0A13.19,13.19,0,0,1,414,382.88c4.74-16.94,18-55.36,15.07-56.31-3.52-1.14-14.81,38.09-21.11,54.52a13.19,13.19,0,0,1-16.39,7.82l-.47-.16a13.19,13.19,0,0,1-8.48-16.62l36.47-112.42a85.64,85.64,0,0,1-27.21-37.62,11.61,11.61,0,0,1-.18-7.64,11.92,11.92,0,0,1,22.52-.51,61.7,61.7,0,0,0,92.32,29.95,11.89,11.89,0,0,1,13.3,19.71Z" transform="translate(-382.01 -195.64)"/><circle class="cls-1" cx="463.39" cy="220.56" r="24.91" transform="translate(-294.79 374.03) rotate(-68.32)"/></svg>