<svg width="480" height="480" viewBox="0 0 480 480" fill="none" xmlns="http://www.w3.org/2000/svg">
<mask id="mask0_333_56290" style="mask-type:alpha" maskUnits="userSpaceOnUse" x="0" y="0" width="480" height="480">
<circle cx="240" cy="240" r="240" fill="#D9D9D9"/>
</mask>
<g mask="url(#mask0_333_56290)">
<path d="M641 -33H-22V485.658H641V-33Z" fill="#F1EB9D"/>
<path d="M151.741 152.317C151.741 152.317 176.704 139.011 217.512 152.317C229.204 156.141 358.855 281.836 358.855 281.836C358.855 281.836 371.523 296.437 359.582 313.514C353.009 322.918 339.179 319.458 339.179 319.458C339.179 319.458 352.761 334.796 341.636 347.047C330.512 359.298 314.615 347.047 314.615 347.047C314.615 347.047 323.903 355.031 314.615 364.612C300.359 379.338 285.145 367.122 285.145 367.122C285.145 367.122 292.721 378.832 282.688 384.678C268.787 392.778 194.269 357.089 162.333 332.002C130.397 306.914 83.7441 241.703 83.7441 241.703L115.68 171.461L151.741 152.317Z" fill="#A67C52"/>
<path d="M353.939 161.445C353.939 161.445 243.414 146.365 233.594 153.923C228.227 158.03 213.35 170.352 200.948 180.705C185.793 193.32 175.41 210.74 171.523 230.072C170.015 237.639 168.764 245.89 172.188 246.732C192.521 251.727 238.5 226.666 250.786 219.143C263.073 211.62 358.269 282.634 358.269 282.634C358.269 282.634 385.875 284.355 407.947 266.799C430.018 249.243 353.939 161.445 353.939 161.445Z" fill="#F9C198"/>
<path d="M476.822 244.817L408.169 285.695L334.973 157.543L403.627 116.656L476.822 244.817Z" fill="#F29122"/>
<path d="M422.07 258.443C428.243 258.443 433.247 253.331 433.247 247.026C433.247 240.72 428.243 235.608 422.07 235.608C415.896 235.608 410.892 240.72 410.892 247.026C410.892 253.331 415.896 258.443 422.07 258.443Z" fill="#087468"/>
<path d="M1.77441 227.545L72.0513 270.64L145.238 142.488L76.5845 101.61L1.77441 227.545Z" fill="#087468"/>
<path d="M47.159 245.012C53.3323 245.012 58.3366 239.9 58.3366 233.595C58.3366 227.289 53.3323 222.178 47.159 222.178C40.9858 222.178 35.9814 227.289 35.9814 233.595C35.9814 239.9 40.9858 245.012 47.159 245.012Z" fill="#F29122"/>
<path d="M164.231 293.927L130.051 323.814C127.728 325.852 124.694 326.891 121.61 326.705C118.525 326.519 115.638 325.123 113.577 322.82L106.374 314.836C105.289 313.627 104.454 312.215 103.917 310.681C103.38 309.148 103.152 307.523 103.246 305.901C103.34 304.279 103.754 302.692 104.465 301.23C105.175 299.769 106.168 298.463 107.385 297.387L141.583 267.5C143.905 265.46 146.939 264.419 150.025 264.605C153.11 264.791 155.997 266.189 158.057 268.494L165.269 276.478C166.351 277.689 167.183 279.103 167.717 280.637C168.251 282.172 168.476 283.797 168.38 285.418C168.283 287.04 167.867 288.627 167.155 290.087C166.443 291.547 165.449 292.852 164.231 293.927V293.927Z" fill="#F9C198"/>
<path d="M208.436 339.08L174.247 368.958C171.927 371 168.894 372.042 165.81 371.856C162.725 371.67 159.839 370.271 157.782 367.964L150.57 359.98C149.483 358.77 148.647 357.357 148.109 355.822C147.572 354.286 147.343 352.66 147.437 351.036C147.531 349.412 147.946 347.823 148.657 346.36C149.368 344.898 150.362 343.59 151.581 342.513L185.77 312.626C188.093 310.588 191.127 309.549 194.212 309.735C197.296 309.921 200.183 311.317 202.244 313.62L209.447 321.604C210.536 322.814 211.375 324.228 211.914 325.764C212.453 327.3 212.682 328.928 212.588 330.553C212.494 332.178 212.079 333.769 211.366 335.232C210.653 336.696 209.657 338.004 208.436 339.08V339.08Z" fill="#F9C198"/>
<path d="M224.085 364.585L208.303 375.337C203.947 379.418 190.445 387.535 186.125 382.718L178.931 374.734C174.371 369.66 181.361 359.511 185.948 355.218L204.364 341.787C208.72 337.706 217.52 333.723 221.468 335.071L229.363 343.126C230.667 349.806 228.68 360.256 224.085 364.585Z" fill="#F9C198"/>
<path d="M193.701 311.465L152.149 348.875C149.827 350.915 146.793 351.956 143.707 351.77C140.622 351.584 137.735 350.186 135.675 347.881L128.472 339.897C127.387 338.688 126.552 337.276 126.015 335.742C125.478 334.208 125.25 332.584 125.344 330.962C125.438 329.34 125.852 327.752 126.563 326.291C127.273 324.83 128.266 323.524 129.483 322.448L171.035 285.038C173.355 282.996 176.388 281.954 179.473 282.14C182.557 282.327 185.443 283.725 187.5 286.032L194.712 294.016C195.797 295.225 196.632 296.637 197.169 298.171C197.706 299.704 197.934 301.329 197.84 302.951C197.746 304.573 197.332 306.161 196.621 307.622C195.911 309.083 194.919 310.389 193.701 311.465Z" fill="#F9C198"/>
</g>
</svg>
