<svg width="74" height="70" viewBox="0 0 74 70" fill="none" xmlns="http://www.w3.org/2000/svg">
<circle cx="35" cy="35" r="32.5" stroke="#F3C700" stroke-width="5"/>
<path d="M36.5857 40.5964L31.9554 36.0209L32.0101 35.9662C35.182 32.4297 37.4424 28.3646 38.7731 24.0625H44.1143V20.4167H31.3539V16.7709H27.708V20.4167H14.9476V24.0443H35.3096C34.0883 27.5625 32.156 30.8985 29.531 33.8151C27.8357 31.9375 26.432 29.8776 25.32 27.7084H21.6742C23.0049 30.6797 24.8278 33.487 27.1065 36.0209L17.8278 45.1719L20.4164 47.7605L29.531 38.6459L35.2002 44.3151L36.5857 40.5964ZM46.8487 31.3542H43.2028L34.9997 53.2292H38.6455L40.6872 47.7605H49.3461L51.406 53.2292H55.0518L46.8487 31.3542ZM42.0726 44.1146L45.0258 36.2214L47.9789 44.1146H42.0726Z" fill="#F3C700"/>
<circle cx="66.9375" cy="24.0625" r="5.0625" fill="#A4123F" stroke="#F3C700" stroke-width="3"/>
<circle cx="54.6875" cy="62.5625" r="5.0625" fill="#A4123F" stroke="#F3C700" stroke-width="3"/>
<circle cx="17.9375" cy="6.5625" r="5.0625" fill="#A4123F" stroke="#F3C700" stroke-width="3"/>
</svg>
