<svg id="Layer_1" data-name="Layer 1" xmlns="http://www.w3.org/2000/svg" xmlns:xlink="http://www.w3.org/1999/xlink" viewBox="0 0 780.28 277.51"><defs><style>.cls-1{fill:none;}.cls-2{fill:#f1ebb3;}.cls-2,.cls-7{opacity:0.2;}.cls-3{fill:#167367;}.cls-4{fill:#ef9123;}.cls-5{clip-path:url(#clip-path);}.cls-6{fill:#efeb9d;}.cls-8{clip-path:url(#clip-path-2);}.cls-9{fill:#efa023;}.cls-10{clip-path:url(#clip-path-3);}.cls-11{fill:#fff;}.cls-12{clip-path:url(#clip-path-4);}.cls-13{fill:#ef9122;}</style><clipPath id="clip-path" transform="translate(-30.81 -158.88)"><ellipse id="SVGID" class="cls-1" cx="169.56" cy="291.84" rx="80.61" ry="80.4"/></clipPath><clipPath id="clip-path-2" transform="translate(-30.81 -158.88)"><path id="SVGID-2" data-name="SVGID" class="cls-1" d="M228.23,228.9s.48,14.13-4.4,14.13-9.78-1.46-12.71,1.47-12.71-1.47-12.71-5.85-3.43-8.29-4.89-8.29-6.85-1-4.4,1.95,8.8,9.75,4.4,8.29a48.85,48.85,0,0,0-9.29-1.95l1.47,4.87s-1,5.85,1.46,4.39-1-5.85,2-5.85,5.37-1,6.35,1.46-1.95,7.8,1.47,8.29-.49,7.8-9.78,7.31-26.33,14.17-26.33,14.17-11.8.46-12.29,1.43l-3,5.94s5.87.42,5.89-.56-.35-3.92,2.53-3.92S168.1,284,171,281.55s27.59-1.49,33.35-.5,3.31,12.69,14.07,16.59,24-1,24-1,1,17.07-3.91,21-7.33,3.41-7.33,6.82,2.93,5.37,1.46,7.32a17.15,17.15,0,0,0-2.93,7.8,79.68,79.68,0,0,0,1.47,8.77l23-40,3.43-28.76-18.09-48.27Z"/></clipPath><clipPath id="clip-path-3" transform="translate(-30.81 -158.88)"><path id="SVGID-3" data-name="SVGID" class="cls-1" d="M196.45,213.29s-18.09,1-20.53,2.44-2.93,7.8-5.38,8.29-9.78-2.44-11.73-1-7.33,4.88-10.27,3.42-7.33-.49-7.33-2.93a14.49,14.49,0,0,1,1.47-5.36s-9.29,3.9-7.34,6.82-5.86,9.76-7.82,9.76-4.4-5.37-5.37-3.9-8.31,1-12.23,4.38,29.82-25.35,29.82-25.35l37.65-6.34Z"/></clipPath><clipPath id="clip-path-4" transform="translate(-30.81 -158.88)"><path id="SVGID-4" data-name="SVGID" class="cls-1" d="M94.28,258.15s-3.42,13.16,0,14.62S109,266.92,113.35,266s12.71-.49,12.71-.49l5.86,7.8s-8.31,13.65-7.33,17.06,18.09,16.58,18.09,16.58L146.1,305l2.44,4.88,17.6,1v5.36s10.27,1.47,13.2,1.95a17.46,17.46,0,0,1,5.38,1.95s-7.33,7.32-6.36,9.27,18.09,10.24,18.09,14.62-6.84,14.63-4.89,16.09,10.3,5.78,10.3,5.78l-17.63,10.31-67.65-9.47L70.82,307.39Z"/></clipPath></defs><circle class="cls-2" cx="138.76" cy="138.76" r="138.76"/><path class="cls-3" d="M276.45,252.39a113.24,113.24,0,0,0-11.53-22.77s0,0,0,0L246.46,239h0a93.43,93.43,0,1,1-135.91-19.33l-17.3-12.18a113.2,113.2,0,0,0-37.64,84.39c0,62.76,51,113.63,113.94,113.63S283.5,354.6,283.5,291.84A113.18,113.18,0,0,0,276.45,252.39Z" transform="translate(-30.81 -158.88)"/><path class="cls-4" d="M222.91,392.27A113.72,113.72,0,1,1,119.37,189.8l9.33,18.26a93.21,93.21,0,1,0,84.87,166Z" transform="translate(-30.81 -158.88)"/><g class="cls-5"><rect class="cls-6" x="34.63" y="42.71" width="210.2" height="180.39"/><g class="cls-7"><g class="cls-8"><rect class="cls-9" x="107.47" y="54.9" width="141.77" height="142.36"/><path class="cls-6" d="M182.46,304.9A166,166,0,0,1,131.32,297c-27.7-9-43.27-22.57-43.42-22.71l1-1.17c.15.14,15.53,13.56,42.94,22.42,25.3,8.17,66.32,14,118.09-4.53l.53,1.47C225.05,301.64,202.18,304.9,182.46,304.9Z" transform="translate(-30.81 -158.88)"/><path class="cls-6" d="M182.46,300.52a165.92,165.92,0,0,1-51.14-7.87c-27.7-9-43.27-22.57-43.42-22.7l1-1.17c.15.13,15.53,13.55,42.94,22.41,25.3,8.17,66.32,14,118.09-4.53l.53,1.47C225.05,297.25,202.18,300.52,182.46,300.52Z" transform="translate(-30.81 -158.88)"/><path class="cls-6" d="M182.46,296.13a165.92,165.92,0,0,1-51.14-7.87c-27.7-9-43.27-22.57-43.42-22.7l1-1.17c.15.13,15.53,13.55,42.94,22.41,25.3,8.18,66.32,14,118.09-4.52l.53,1.47C225.05,292.86,202.18,296.13,182.46,296.13Z" transform="translate(-30.81 -158.88)"/><path class="cls-6" d="M182.46,291.74a166,166,0,0,1-51.14-7.86c-27.7-9-43.27-22.57-43.42-22.71l1-1.17c.15.13,15.53,13.56,42.94,22.42,25.3,8.17,66.32,14,118.09-4.53l.53,1.47C225.05,288.47,202.18,291.74,182.46,291.74Z" transform="translate(-30.81 -158.88)"/><path class="cls-6" d="M182.46,287.35a166,166,0,0,1-51.14-7.86c-27.7-9-43.27-22.57-43.42-22.71l1-1.17c.15.14,15.53,13.56,42.94,22.42,25.3,8.17,66.32,14,118.09-4.53l.53,1.47C225.05,284.08,202.18,287.35,182.46,287.35Z" transform="translate(-30.81 -158.88)"/><path class="cls-6" d="M182.46,283a165.92,165.92,0,0,1-51.14-7.87c-27.7-9-43.27-22.57-43.42-22.71l1-1.17c.15.14,15.53,13.56,42.94,22.42,25.3,8.17,66.32,14,118.09-4.53l.53,1.47C225.05,279.7,202.18,283,182.46,283Z" transform="translate(-30.81 -158.88)"/><path class="cls-6" d="M182.46,278.58a165.92,165.92,0,0,1-51.14-7.87c-27.7-9-43.27-22.57-43.42-22.7l1-1.17c.15.13,15.53,13.55,42.94,22.41,25.3,8.17,66.32,14,118.09-4.52l.53,1.47C225.05,275.31,202.18,278.58,182.46,278.58Z" transform="translate(-30.81 -158.88)"/><path class="cls-6" d="M182.46,274.19a166,166,0,0,1-51.14-7.86c-27.7-9-43.27-22.58-43.42-22.71l1-1.17c.15.13,15.53,13.56,42.94,22.41,25.3,8.18,66.32,14,118.09-4.52l.53,1.47C225.05,270.92,202.18,274.19,182.46,274.19Z" transform="translate(-30.81 -158.88)"/><path class="cls-6" d="M182.46,269.8a166,166,0,0,1-51.14-7.86c-27.7-9-43.27-22.57-43.42-22.71l1-1.17c.15.14,15.53,13.56,42.94,22.42,25.3,8.17,66.32,14,118.09-4.53l.53,1.47C225.05,266.53,202.18,269.8,182.46,269.8Z" transform="translate(-30.81 -158.88)"/><path class="cls-6" d="M182.46,265.41a166,166,0,0,1-51.14-7.86c-27.7-9-43.27-22.57-43.42-22.71l1-1.17c.15.14,15.53,13.56,42.94,22.42,25.3,8.17,66.32,14,118.09-4.53l.53,1.47C225.05,262.15,202.18,265.41,182.46,265.41Z" transform="translate(-30.81 -158.88)"/><path class="cls-6" d="M182.46,261a165.92,165.92,0,0,1-51.14-7.87c-27.7-9-43.27-22.57-43.42-22.71l1-1.16c.15.13,15.53,13.55,42.94,22.41,25.3,8.17,66.32,14,118.09-4.53l.53,1.47C225.05,257.76,202.18,261,182.46,261Z" transform="translate(-30.81 -158.88)"/><path class="cls-6" d="M182.46,256.64a165.92,165.92,0,0,1-51.14-7.87c-27.7-9-43.27-22.57-43.42-22.7l1-1.17c.15.13,15.53,13.55,42.94,22.41,25.3,8.18,66.32,14,118.09-4.52l.53,1.47C225.05,253.37,202.18,256.64,182.46,256.64Z" transform="translate(-30.81 -158.88)"/><path class="cls-6" d="M182.46,252.25a166,166,0,0,1-51.14-7.86c-27.7-9-43.27-22.57-43.42-22.71l1-1.17c.15.13,15.53,13.56,42.94,22.41,25.3,8.18,66.32,14,118.09-4.52l.53,1.47C225.05,249,202.18,252.25,182.46,252.25Z" transform="translate(-30.81 -158.88)"/><path class="cls-6" d="M182.46,247.86A166,166,0,0,1,131.32,240c-27.7-9-43.27-22.57-43.42-22.71l1-1.17c.15.14,15.53,13.56,42.94,22.42,25.3,8.17,66.32,14,118.09-4.53l.53,1.47C225.05,244.59,202.18,247.86,182.46,247.86Z" transform="translate(-30.81 -158.88)"/><path class="cls-6" d="M182.46,243.48a165.92,165.92,0,0,1-51.14-7.87c-27.7-9-43.27-22.57-43.42-22.71l1-1.17c.15.14,15.53,13.56,42.94,22.42,25.3,8.17,66.32,14,118.09-4.53l.53,1.47C225.05,240.21,202.18,243.48,182.46,243.48Z" transform="translate(-30.81 -158.88)"/><path class="cls-6" d="M182.46,239.09a165.92,165.92,0,0,1-51.14-7.87c-27.7-9-43.27-22.57-43.42-22.7l1-1.17c.15.13,15.53,13.55,42.94,22.41,25.3,8.17,66.32,14,118.09-4.53l.53,1.48C225.05,235.82,202.18,239.09,182.46,239.09Z" transform="translate(-30.81 -158.88)"/><path class="cls-6" d="M182.46,234.7a165.92,165.92,0,0,1-51.14-7.87c-27.7-9-43.27-22.57-43.42-22.7l1-1.17c.15.13,15.53,13.56,42.94,22.41,25.3,8.18,66.32,14,118.09-4.52l.53,1.47C225.05,231.43,202.18,234.7,182.46,234.7Z" transform="translate(-30.81 -158.88)"/><path class="cls-6" d="M182.46,230.31a166,166,0,0,1-51.14-7.86c-27.7-9-43.27-22.57-43.42-22.71l1-1.17c.15.14,15.53,13.56,42.94,22.42,25.3,8.17,66.32,14,118.09-4.53l.53,1.47C225.05,227,202.18,230.31,182.46,230.31Z" transform="translate(-30.81 -158.88)"/><path class="cls-6" d="M182.46,225.92a166,166,0,0,1-51.14-7.86c-27.7-9-43.27-22.57-43.42-22.71l1-1.17c.15.14,15.53,13.56,42.94,22.42,25.3,8.17,66.32,14,118.09-4.53l.53,1.47C225.05,222.65,202.18,225.92,182.46,225.92Z" transform="translate(-30.81 -158.88)"/><path class="cls-6" d="M182.46,221.54a165.92,165.92,0,0,1-51.14-7.87c-27.7-9-43.27-22.57-43.42-22.71l1-1.17c.15.14,15.53,13.56,42.94,22.42,25.3,8.17,66.32,14,118.09-4.53l.53,1.47C225.05,218.27,202.18,221.54,182.46,221.54Z" transform="translate(-30.81 -158.88)"/><path class="cls-6" d="M182.46,217.15a165.92,165.92,0,0,1-51.14-7.87c-27.7-9-43.27-22.57-43.42-22.7l1-1.17c.15.13,15.53,13.55,42.94,22.41,25.3,8.18,66.32,14,118.09-4.52l.53,1.47C225.05,213.88,202.18,217.15,182.46,217.15Z" transform="translate(-30.81 -158.88)"/><path class="cls-6" d="M182.46,212.76a166,166,0,0,1-51.14-7.86c-27.7-9-43.27-22.57-43.42-22.71l1-1.17c.15.13,15.53,13.56,42.94,22.41,25.3,8.18,66.32,14,118.09-4.52l.53,1.47C225.05,209.49,202.18,212.76,182.46,212.76Z" transform="translate(-30.81 -158.88)"/><path class="cls-6" d="M182.46,308.8a166,166,0,0,1-51.14-7.86c-27.7-9-43.27-22.57-43.42-22.71l1-1.17c.15.14,15.53,13.56,42.94,22.42,25.3,8.17,66.32,14,118.09-4.53l.53,1.47C225.05,305.54,202.18,308.8,182.46,308.8Z" transform="translate(-30.81 -158.88)"/><path class="cls-6" d="M182.46,312.71a165.92,165.92,0,0,1-51.14-7.87c-27.7-9-43.27-22.57-43.42-22.71l1-1.17c.15.14,15.53,13.56,42.94,22.42,25.3,8.17,66.32,14,118.09-4.53l.53,1.47C225.05,309.44,202.18,312.71,182.46,312.71Z" transform="translate(-30.81 -158.88)"/><path class="cls-6" d="M182.46,316.61a165.92,165.92,0,0,1-51.14-7.87c-27.7-9-43.27-22.57-43.42-22.71l1-1.17c.15.14,15.53,13.56,42.94,22.42,25.3,8.17,66.32,14,118.09-4.53l.53,1.47C225.05,313.34,202.18,316.61,182.46,316.61Z" transform="translate(-30.81 -158.88)"/><path class="cls-6" d="M182.46,320.51a165.92,165.92,0,0,1-51.14-7.87c-27.7-9-43.27-22.57-43.42-22.71l1-1.17c.15.14,15.53,13.56,42.94,22.42,25.3,8.17,66.32,14,118.09-4.53l.53,1.47C225.05,317.24,202.18,320.51,182.46,320.51Z" transform="translate(-30.81 -158.88)"/><path class="cls-6" d="M182.46,324.41a165.92,165.92,0,0,1-51.14-7.87c-27.7-9-43.27-22.57-43.42-22.71l1-1.17c.15.14,15.53,13.56,42.94,22.42,25.3,8.17,66.32,14,118.09-4.53l.53,1.47C225.05,321.14,202.18,324.41,182.46,324.41Z" transform="translate(-30.81 -158.88)"/><path class="cls-6" d="M182.46,328.31a165.92,165.92,0,0,1-51.14-7.87c-27.7-9-43.27-22.57-43.42-22.71l1-1.16c.15.13,15.53,13.55,42.94,22.41,25.3,8.17,66.32,14,118.09-4.53l.53,1.47C225.05,325,202.18,328.31,182.46,328.31Z" transform="translate(-30.81 -158.88)"/><path class="cls-6" d="M182.46,332.21a165.92,165.92,0,0,1-51.14-7.87c-27.7-9-43.27-22.57-43.42-22.7l1-1.17c.15.13,15.53,13.55,42.94,22.41,25.3,8.17,66.32,14,118.09-4.53l.53,1.47C225.05,328.94,202.18,332.21,182.46,332.21Z" transform="translate(-30.81 -158.88)"/><path class="cls-6" d="M182.46,336.11a165.92,165.92,0,0,1-51.14-7.87c-27.7-9-43.27-22.57-43.42-22.7l1-1.17c.15.13,15.53,13.55,42.94,22.41,25.3,8.17,66.32,14,118.09-4.53l.53,1.47C225.05,332.84,202.18,336.11,182.46,336.11Z" transform="translate(-30.81 -158.88)"/><path class="cls-6" d="M182.46,340a165.92,165.92,0,0,1-51.14-7.87c-27.7-9-43.27-22.57-43.42-22.7l1-1.17c.15.13,15.53,13.55,42.94,22.41,25.3,8.17,66.32,14,118.09-4.53l.53,1.48C225.05,336.74,202.18,340,182.46,340Z" transform="translate(-30.81 -158.88)"/><path class="cls-6" d="M182.46,343.91A165.92,165.92,0,0,1,131.32,336c-27.7-9-43.27-22.57-43.42-22.7l1-1.17c.15.13,15.53,13.55,42.94,22.41,25.3,8.17,66.32,14,118.09-4.52l.53,1.47C225.05,340.64,202.18,343.91,182.46,343.91Z" transform="translate(-30.81 -158.88)"/><path class="cls-6" d="M182.46,347.81a165.92,165.92,0,0,1-51.14-7.87c-27.7-9-43.27-22.57-43.42-22.7l1-1.17c.15.13,15.53,13.55,42.94,22.41,25.3,8.18,66.32,14,118.09-4.52l.53,1.47C225.05,344.54,202.18,347.81,182.46,347.81Z" transform="translate(-30.81 -158.88)"/><path class="cls-6" d="M182.46,351.71a165.92,165.92,0,0,1-51.14-7.87c-27.7-9-43.27-22.57-43.42-22.7l1-1.17c.15.13,15.53,13.55,42.94,22.41,25.3,8.18,66.32,14,118.09-4.52l.53,1.47C225.05,348.44,202.18,351.71,182.46,351.71Z" transform="translate(-30.81 -158.88)"/><path class="cls-6" d="M182.46,355.61a165.92,165.92,0,0,1-51.14-7.87c-27.7-9-43.27-22.57-43.42-22.7l1-1.17c.15.13,15.53,13.55,42.94,22.41,25.3,8.18,66.32,14,118.09-4.52l.53,1.47C225.05,352.34,202.18,355.61,182.46,355.61Z" transform="translate(-30.81 -158.88)"/><path class="cls-6" d="M182.46,359.51a165.92,165.92,0,0,1-51.14-7.87c-27.7-9-43.27-22.57-43.42-22.7l1-1.17c.15.13,15.53,13.55,42.94,22.41,25.3,8.18,66.32,14,118.09-4.52l.53,1.47C225.05,356.24,202.18,359.51,182.46,359.51Z" transform="translate(-30.81 -158.88)"/><path class="cls-6" d="M182.46,363.41a165.92,165.92,0,0,1-51.14-7.87c-27.7-9-43.27-22.57-43.42-22.7l1-1.17c.15.13,15.53,13.55,42.94,22.41,25.3,8.18,66.32,14,118.09-4.52l.53,1.47C225.05,360.14,202.18,363.41,182.46,363.41Z" transform="translate(-30.81 -158.88)"/><path class="cls-6" d="M182.46,367.31a165.92,165.92,0,0,1-51.14-7.87c-27.7-9-43.27-22.57-43.42-22.7l1-1.17c.15.13,15.53,13.55,42.94,22.41,25.3,8.18,66.32,14,118.09-4.52l.53,1.47C225.05,364,202.18,367.31,182.46,367.31Z" transform="translate(-30.81 -158.88)"/><path class="cls-6" d="M182.46,371.21a166,166,0,0,1-51.14-7.86c-27.7-9-43.27-22.58-43.42-22.71l1-1.17c.15.13,15.53,13.56,42.94,22.41,25.3,8.18,66.32,14,118.09-4.52l.53,1.47C225.05,367.94,202.18,371.21,182.46,371.21Z" transform="translate(-30.81 -158.88)"/><path class="cls-6" d="M182.46,375.11a166,166,0,0,1-51.14-7.86c-27.7-9-43.27-22.58-43.42-22.71l1-1.17c.15.13,15.53,13.56,42.94,22.41,25.3,8.18,66.32,14,118.09-4.52l.53,1.47C225.05,371.84,202.18,375.11,182.46,375.11Z" transform="translate(-30.81 -158.88)"/></g><g class="cls-10"><rect class="cls-9" x="66.41" y="41.74" width="122.21" height="45.34"/><path class="cls-11" d="M182.46,304.9A166,166,0,0,1,131.32,297c-27.7-9-43.27-22.57-43.42-22.71l1-1.17c.15.14,15.53,13.56,42.94,22.42,25.3,8.17,66.32,14,118.09-4.53l.53,1.47C225.05,301.64,202.18,304.9,182.46,304.9Z" transform="translate(-30.81 -158.88)"/><path class="cls-11" d="M182.46,300.52a165.92,165.92,0,0,1-51.14-7.87c-27.7-9-43.27-22.57-43.42-22.7l1-1.17c.15.13,15.53,13.55,42.94,22.41,25.3,8.17,66.32,14,118.09-4.53l.53,1.47C225.05,297.25,202.18,300.52,182.46,300.52Z" transform="translate(-30.81 -158.88)"/><path class="cls-11" d="M182.46,296.13a165.92,165.92,0,0,1-51.14-7.87c-27.7-9-43.27-22.57-43.42-22.7l1-1.17c.15.13,15.53,13.55,42.94,22.41,25.3,8.18,66.32,14,118.09-4.52l.53,1.47C225.05,292.86,202.18,296.13,182.46,296.13Z" transform="translate(-30.81 -158.88)"/><path class="cls-11" d="M182.46,291.74a166,166,0,0,1-51.14-7.86c-27.7-9-43.27-22.57-43.42-22.71l1-1.17c.15.13,15.53,13.56,42.94,22.42,25.3,8.17,66.32,14,118.09-4.53l.53,1.47C225.05,288.47,202.18,291.74,182.46,291.74Z" transform="translate(-30.81 -158.88)"/><path class="cls-11" d="M182.46,287.35a166,166,0,0,1-51.14-7.86c-27.7-9-43.27-22.57-43.42-22.71l1-1.17c.15.14,15.53,13.56,42.94,22.42,25.3,8.17,66.32,14,118.09-4.53l.53,1.47C225.05,284.08,202.18,287.35,182.46,287.35Z" transform="translate(-30.81 -158.88)"/><path class="cls-11" d="M182.46,283a165.92,165.92,0,0,1-51.14-7.87c-27.7-9-43.27-22.57-43.42-22.71l1-1.17c.15.14,15.53,13.56,42.94,22.42,25.3,8.17,66.32,14,118.09-4.53l.53,1.47C225.05,279.7,202.18,283,182.46,283Z" transform="translate(-30.81 -158.88)"/><path class="cls-11" d="M182.46,278.58a165.92,165.92,0,0,1-51.14-7.87c-27.7-9-43.27-22.57-43.42-22.7l1-1.17c.15.13,15.53,13.55,42.94,22.41,25.3,8.17,66.32,14,118.09-4.52l.53,1.47C225.05,275.31,202.18,278.58,182.46,278.58Z" transform="translate(-30.81 -158.88)"/><path class="cls-11" d="M182.46,274.19a166,166,0,0,1-51.14-7.86c-27.7-9-43.27-22.58-43.42-22.71l1-1.17c.15.13,15.53,13.56,42.94,22.41,25.3,8.18,66.32,14,118.09-4.52l.53,1.47C225.05,270.92,202.18,274.19,182.46,274.19Z" transform="translate(-30.81 -158.88)"/><path class="cls-11" d="M182.46,269.8a166,166,0,0,1-51.14-7.86c-27.7-9-43.27-22.57-43.42-22.71l1-1.17c.15.14,15.53,13.56,42.94,22.42,25.3,8.17,66.32,14,118.09-4.53l.53,1.47C225.05,266.53,202.18,269.8,182.46,269.8Z" transform="translate(-30.81 -158.88)"/><path class="cls-11" d="M182.46,265.41a166,166,0,0,1-51.14-7.86c-27.7-9-43.27-22.57-43.42-22.71l1-1.17c.15.14,15.53,13.56,42.94,22.42,25.3,8.17,66.32,14,118.09-4.53l.53,1.47C225.05,262.15,202.18,265.41,182.46,265.41Z" transform="translate(-30.81 -158.88)"/><path class="cls-11" d="M182.46,261a165.92,165.92,0,0,1-51.14-7.87c-27.7-9-43.27-22.57-43.42-22.71l1-1.16c.15.13,15.53,13.55,42.94,22.41,25.3,8.17,66.32,14,118.09-4.53l.53,1.47C225.05,257.76,202.18,261,182.46,261Z" transform="translate(-30.81 -158.88)"/><path class="cls-11" d="M182.46,256.64a165.92,165.92,0,0,1-51.14-7.87c-27.7-9-43.27-22.57-43.42-22.7l1-1.17c.15.13,15.53,13.55,42.94,22.41,25.3,8.18,66.32,14,118.09-4.52l.53,1.47C225.05,253.37,202.18,256.64,182.46,256.64Z" transform="translate(-30.81 -158.88)"/><path class="cls-11" d="M182.46,252.25a166,166,0,0,1-51.14-7.86c-27.7-9-43.27-22.57-43.42-22.71l1-1.17c.15.13,15.53,13.56,42.94,22.41,25.3,8.18,66.32,14,118.09-4.52l.53,1.47C225.05,249,202.18,252.25,182.46,252.25Z" transform="translate(-30.81 -158.88)"/><path class="cls-6" d="M182.46,247.86A166,166,0,0,1,131.32,240c-27.7-9-43.27-22.57-43.42-22.71l1-1.17c.15.14,15.53,13.56,42.94,22.42,25.3,8.17,66.32,14,118.09-4.53l.53,1.47C225.05,244.59,202.18,247.86,182.46,247.86Z" transform="translate(-30.81 -158.88)"/><path class="cls-6" d="M182.46,243.48a165.92,165.92,0,0,1-51.14-7.87c-27.7-9-43.27-22.57-43.42-22.71l1-1.17c.15.14,15.53,13.56,42.94,22.42,25.3,8.17,66.32,14,118.09-4.53l.53,1.47C225.05,240.21,202.18,243.48,182.46,243.48Z" transform="translate(-30.81 -158.88)"/><path class="cls-6" d="M182.46,239.09a165.92,165.92,0,0,1-51.14-7.87c-27.7-9-43.27-22.57-43.42-22.7l1-1.17c.15.13,15.53,13.55,42.94,22.41,25.3,8.17,66.32,14,118.09-4.53l.53,1.48C225.05,235.82,202.18,239.09,182.46,239.09Z" transform="translate(-30.81 -158.88)"/><path class="cls-6" d="M182.46,234.7a165.92,165.92,0,0,1-51.14-7.87c-27.7-9-43.27-22.57-43.42-22.7l1-1.17c.15.13,15.53,13.56,42.94,22.41,25.3,8.18,66.32,14,118.09-4.52l.53,1.47C225.05,231.43,202.18,234.7,182.46,234.7Z" transform="translate(-30.81 -158.88)"/><path class="cls-6" d="M182.46,230.31a166,166,0,0,1-51.14-7.86c-27.7-9-43.27-22.57-43.42-22.71l1-1.17c.15.14,15.53,13.56,42.94,22.42,25.3,8.17,66.32,14,118.09-4.53l.53,1.47C225.05,227,202.18,230.31,182.46,230.31Z" transform="translate(-30.81 -158.88)"/><path class="cls-6" d="M182.46,225.92a166,166,0,0,1-51.14-7.86c-27.7-9-43.27-22.57-43.42-22.71l1-1.17c.15.14,15.53,13.56,42.94,22.42,25.3,8.17,66.32,14,118.09-4.53l.53,1.47C225.05,222.65,202.18,225.92,182.46,225.92Z" transform="translate(-30.81 -158.88)"/><path class="cls-6" d="M182.46,221.54a165.92,165.92,0,0,1-51.14-7.87c-27.7-9-43.27-22.57-43.42-22.71l1-1.17c.15.14,15.53,13.56,42.94,22.42,25.3,8.17,66.32,14,118.09-4.53l.53,1.47C225.05,218.27,202.18,221.54,182.46,221.54Z" transform="translate(-30.81 -158.88)"/><path class="cls-6" d="M182.46,217.15a165.92,165.92,0,0,1-51.14-7.87c-27.7-9-43.27-22.57-43.42-22.7l1-1.17c.15.13,15.53,13.55,42.94,22.41,25.3,8.18,66.32,14,118.09-4.52l.53,1.47C225.05,213.88,202.18,217.15,182.46,217.15Z" transform="translate(-30.81 -158.88)"/><path class="cls-6" d="M182.46,212.76a166,166,0,0,1-51.14-7.86c-27.7-9-43.27-22.57-43.42-22.71l1-1.17c.15.13,15.53,13.56,42.94,22.41,25.3,8.18,66.32,14,118.09-4.52l.53,1.47C225.05,209.49,202.18,212.76,182.46,212.76Z" transform="translate(-30.81 -158.88)"/><path class="cls-11" d="M182.46,308.8a166,166,0,0,1-51.14-7.86c-27.7-9-43.27-22.57-43.42-22.71l1-1.17c.15.14,15.53,13.56,42.94,22.42,25.3,8.17,66.32,14,118.09-4.53l.53,1.47C225.05,305.54,202.18,308.8,182.46,308.8Z" transform="translate(-30.81 -158.88)"/><path class="cls-11" d="M182.46,312.71a165.92,165.92,0,0,1-51.14-7.87c-27.7-9-43.27-22.57-43.42-22.71l1-1.17c.15.14,15.53,13.56,42.94,22.42,25.3,8.17,66.32,14,118.09-4.53l.53,1.47C225.05,309.44,202.18,312.71,182.46,312.71Z" transform="translate(-30.81 -158.88)"/><path class="cls-11" d="M182.46,316.61a165.92,165.92,0,0,1-51.14-7.87c-27.7-9-43.27-22.57-43.42-22.71l1-1.17c.15.14,15.53,13.56,42.94,22.42,25.3,8.17,66.32,14,118.09-4.53l.53,1.47C225.05,313.34,202.18,316.61,182.46,316.61Z" transform="translate(-30.81 -158.88)"/><path class="cls-11" d="M182.46,320.51a165.92,165.92,0,0,1-51.14-7.87c-27.7-9-43.27-22.57-43.42-22.71l1-1.17c.15.14,15.53,13.56,42.94,22.42,25.3,8.17,66.32,14,118.09-4.53l.53,1.47C225.05,317.24,202.18,320.51,182.46,320.51Z" transform="translate(-30.81 -158.88)"/><path class="cls-11" d="M182.46,324.41a165.92,165.92,0,0,1-51.14-7.87c-27.7-9-43.27-22.57-43.42-22.71l1-1.17c.15.14,15.53,13.56,42.94,22.42,25.3,8.17,66.32,14,118.09-4.53l.53,1.47C225.05,321.14,202.18,324.41,182.46,324.41Z" transform="translate(-30.81 -158.88)"/><path class="cls-11" d="M182.46,328.31a165.92,165.92,0,0,1-51.14-7.87c-27.7-9-43.27-22.57-43.42-22.71l1-1.16c.15.13,15.53,13.55,42.94,22.41,25.3,8.17,66.32,14,118.09-4.53l.53,1.47C225.05,325,202.18,328.31,182.46,328.31Z" transform="translate(-30.81 -158.88)"/><path class="cls-11" d="M182.46,332.21a165.92,165.92,0,0,1-51.14-7.87c-27.7-9-43.27-22.57-43.42-22.7l1-1.17c.15.13,15.53,13.55,42.94,22.41,25.3,8.17,66.32,14,118.09-4.53l.53,1.47C225.05,328.94,202.18,332.21,182.46,332.21Z" transform="translate(-30.81 -158.88)"/><path class="cls-11" d="M182.46,336.11a165.92,165.92,0,0,1-51.14-7.87c-27.7-9-43.27-22.57-43.42-22.7l1-1.17c.15.13,15.53,13.55,42.94,22.41,25.3,8.17,66.32,14,118.09-4.53l.53,1.47C225.05,332.84,202.18,336.11,182.46,336.11Z" transform="translate(-30.81 -158.88)"/><path class="cls-11" d="M182.46,340a165.92,165.92,0,0,1-51.14-7.87c-27.7-9-43.27-22.57-43.42-22.7l1-1.17c.15.13,15.53,13.55,42.94,22.41,25.3,8.17,66.32,14,118.09-4.53l.53,1.48C225.05,336.74,202.18,340,182.46,340Z" transform="translate(-30.81 -158.88)"/><path class="cls-11" d="M182.46,343.91A165.92,165.92,0,0,1,131.32,336c-27.7-9-43.27-22.57-43.42-22.7l1-1.17c.15.13,15.53,13.55,42.94,22.41,25.3,8.17,66.32,14,118.09-4.52l.53,1.47C225.05,340.64,202.18,343.91,182.46,343.91Z" transform="translate(-30.81 -158.88)"/><path class="cls-11" d="M182.46,347.81a165.92,165.92,0,0,1-51.14-7.87c-27.7-9-43.27-22.57-43.42-22.7l1-1.17c.15.13,15.53,13.55,42.94,22.41,25.3,8.18,66.32,14,118.09-4.52l.53,1.47C225.05,344.54,202.18,347.81,182.46,347.81Z" transform="translate(-30.81 -158.88)"/><path class="cls-11" d="M182.46,351.71a165.92,165.92,0,0,1-51.14-7.87c-27.7-9-43.27-22.57-43.42-22.7l1-1.17c.15.13,15.53,13.55,42.94,22.41,25.3,8.18,66.32,14,118.09-4.52l.53,1.47C225.05,348.44,202.18,351.71,182.46,351.71Z" transform="translate(-30.81 -158.88)"/><path class="cls-11" d="M182.46,355.61a165.92,165.92,0,0,1-51.14-7.87c-27.7-9-43.27-22.57-43.42-22.7l1-1.17c.15.13,15.53,13.55,42.94,22.41,25.3,8.18,66.32,14,118.09-4.52l.53,1.47C225.05,352.34,202.18,355.61,182.46,355.61Z" transform="translate(-30.81 -158.88)"/><path class="cls-11" d="M182.46,359.51a165.92,165.92,0,0,1-51.14-7.87c-27.7-9-43.27-22.57-43.42-22.7l1-1.17c.15.13,15.53,13.55,42.94,22.41,25.3,8.18,66.32,14,118.09-4.52l.53,1.47C225.05,356.24,202.18,359.51,182.46,359.51Z" transform="translate(-30.81 -158.88)"/><path class="cls-11" d="M182.46,363.41a165.92,165.92,0,0,1-51.14-7.87c-27.7-9-43.27-22.57-43.42-22.7l1-1.17c.15.13,15.53,13.55,42.94,22.41,25.3,8.18,66.32,14,118.09-4.52l.53,1.47C225.05,360.14,202.18,363.41,182.46,363.41Z" transform="translate(-30.81 -158.88)"/><path class="cls-11" d="M182.46,367.31a165.92,165.92,0,0,1-51.14-7.87c-27.7-9-43.27-22.57-43.42-22.7l1-1.17c.15.13,15.53,13.55,42.94,22.41,25.3,8.18,66.32,14,118.09-4.52l.53,1.47C225.05,364,202.18,367.31,182.46,367.31Z" transform="translate(-30.81 -158.88)"/><path class="cls-11" d="M182.46,371.21a166,166,0,0,1-51.14-7.86c-27.7-9-43.27-22.58-43.42-22.71l1-1.17c.15.13,15.53,13.56,42.94,22.41,25.3,8.18,66.32,14,118.09-4.52l.53,1.47C225.05,367.94,202.18,371.21,182.46,371.21Z" transform="translate(-30.81 -158.88)"/><path class="cls-11" d="M182.46,375.11a166,166,0,0,1-51.14-7.86c-27.7-9-43.27-22.58-43.42-22.71l1-1.17c.15.13,15.53,13.56,42.94,22.41,25.3,8.18,66.32,14,118.09-4.52l.53,1.47C225.05,371.84,202.18,375.11,182.46,375.11Z" transform="translate(-30.81 -158.88)"/></g><g class="cls-12"><rect class="cls-4" x="32.19" y="92.93" width="153.01" height="132.12"/><path class="cls-6" d="M182.46,304.9A166,166,0,0,1,131.32,297c-27.7-9-43.27-22.57-43.42-22.71l1-1.17c.15.14,15.53,13.56,42.94,22.42,25.3,8.17,66.32,14,118.09-4.53l.53,1.47C225.05,301.64,202.18,304.9,182.46,304.9Z" transform="translate(-30.81 -158.88)"/><path class="cls-6" d="M182.46,300.52a165.92,165.92,0,0,1-51.14-7.87c-27.7-9-43.27-22.57-43.42-22.7l1-1.17c.15.13,15.53,13.55,42.94,22.41,25.3,8.17,66.32,14,118.09-4.53l.53,1.47C225.05,297.25,202.18,300.52,182.46,300.52Z" transform="translate(-30.81 -158.88)"/><path class="cls-6" d="M182.46,296.13a165.92,165.92,0,0,1-51.14-7.87c-27.7-9-43.27-22.57-43.42-22.7l1-1.17c.15.13,15.53,13.55,42.94,22.41,25.3,8.18,66.32,14,118.09-4.52l.53,1.47C225.05,292.86,202.18,296.13,182.46,296.13Z" transform="translate(-30.81 -158.88)"/><path class="cls-6" d="M182.46,291.74a166,166,0,0,1-51.14-7.86c-27.7-9-43.27-22.57-43.42-22.71l1-1.17c.15.13,15.53,13.56,42.94,22.42,25.3,8.17,66.32,14,118.09-4.53l.53,1.47C225.05,288.47,202.18,291.74,182.46,291.74Z" transform="translate(-30.81 -158.88)"/><path class="cls-6" d="M182.46,287.35a166,166,0,0,1-51.14-7.86c-27.7-9-43.27-22.57-43.42-22.71l1-1.17c.15.14,15.53,13.56,42.94,22.42,25.3,8.17,66.32,14,118.09-4.53l.53,1.47C225.05,284.08,202.18,287.35,182.46,287.35Z" transform="translate(-30.81 -158.88)"/><path class="cls-6" d="M182.46,283a165.92,165.92,0,0,1-51.14-7.87c-27.7-9-43.27-22.57-43.42-22.71l1-1.17c.15.14,15.53,13.56,42.94,22.42,25.3,8.17,66.32,14,118.09-4.53l.53,1.47C225.05,279.7,202.18,283,182.46,283Z" transform="translate(-30.81 -158.88)"/><path class="cls-6" d="M182.46,278.58a165.92,165.92,0,0,1-51.14-7.87c-27.7-9-43.27-22.57-43.42-22.7l1-1.17c.15.13,15.53,13.55,42.94,22.41,25.3,8.17,66.32,14,118.09-4.52l.53,1.47C225.05,275.31,202.18,278.58,182.46,278.58Z" transform="translate(-30.81 -158.88)"/><path class="cls-6" d="M182.46,308.8a166,166,0,0,1-51.14-7.86c-27.7-9-43.27-22.57-43.42-22.71l1-1.17c.15.14,15.53,13.56,42.94,22.42,25.3,8.17,66.32,14,118.09-4.53l.53,1.47C225.05,305.54,202.18,308.8,182.46,308.8Z" transform="translate(-30.81 -158.88)"/><path class="cls-6" d="M182.46,312.71a165.92,165.92,0,0,1-51.14-7.87c-27.7-9-43.27-22.57-43.42-22.71l1-1.17c.15.14,15.53,13.56,42.94,22.42,25.3,8.17,66.32,14,118.09-4.53l.53,1.47C225.05,309.44,202.18,312.71,182.46,312.71Z" transform="translate(-30.81 -158.88)"/><path class="cls-6" d="M182.46,316.61a165.92,165.92,0,0,1-51.14-7.87c-27.7-9-43.27-22.57-43.42-22.71l1-1.17c.15.14,15.53,13.56,42.94,22.42,25.3,8.17,66.32,14,118.09-4.53l.53,1.47C225.05,313.34,202.18,316.61,182.46,316.61Z" transform="translate(-30.81 -158.88)"/><path class="cls-6" d="M182.46,320.51a165.92,165.92,0,0,1-51.14-7.87c-27.7-9-43.27-22.57-43.42-22.71l1-1.17c.15.14,15.53,13.56,42.94,22.42,25.3,8.17,66.32,14,118.09-4.53l.53,1.47C225.05,317.24,202.18,320.51,182.46,320.51Z" transform="translate(-30.81 -158.88)"/><path class="cls-6" d="M182.46,324.41a165.92,165.92,0,0,1-51.14-7.87c-27.7-9-43.27-22.57-43.42-22.71l1-1.17c.15.14,15.53,13.56,42.94,22.42,25.3,8.17,66.32,14,118.09-4.53l.53,1.47C225.05,321.14,202.18,324.41,182.46,324.41Z" transform="translate(-30.81 -158.88)"/><path class="cls-6" d="M182.46,328.31a165.92,165.92,0,0,1-51.14-7.87c-27.7-9-43.27-22.57-43.42-22.71l1-1.16c.15.13,15.53,13.55,42.94,22.41,25.3,8.17,66.32,14,118.09-4.53l.53,1.47C225.05,325,202.18,328.31,182.46,328.31Z" transform="translate(-30.81 -158.88)"/><path class="cls-6" d="M182.46,332.21a165.92,165.92,0,0,1-51.14-7.87c-27.7-9-43.27-22.57-43.42-22.7l1-1.17c.15.13,15.53,13.55,42.94,22.41,25.3,8.17,66.32,14,118.09-4.53l.53,1.47C225.05,328.94,202.18,332.21,182.46,332.21Z" transform="translate(-30.81 -158.88)"/><path class="cls-6" d="M182.46,336.11a165.92,165.92,0,0,1-51.14-7.87c-27.7-9-43.27-22.57-43.42-22.7l1-1.17c.15.13,15.53,13.55,42.94,22.41,25.3,8.17,66.32,14,118.09-4.53l.53,1.47C225.05,332.84,202.18,336.11,182.46,336.11Z" transform="translate(-30.81 -158.88)"/><path class="cls-6" d="M182.46,340a165.92,165.92,0,0,1-51.14-7.87c-27.7-9-43.27-22.57-43.42-22.7l1-1.17c.15.13,15.53,13.55,42.94,22.41,25.3,8.17,66.32,14,118.09-4.53l.53,1.48C225.05,336.74,202.18,340,182.46,340Z" transform="translate(-30.81 -158.88)"/><path class="cls-6" d="M182.46,343.91A165.92,165.92,0,0,1,131.32,336c-27.7-9-43.27-22.57-43.42-22.7l1-1.17c.15.13,15.53,13.55,42.94,22.41,25.3,8.17,66.32,14,118.09-4.52l.53,1.47C225.05,340.64,202.18,343.91,182.46,343.91Z" transform="translate(-30.81 -158.88)"/><path class="cls-6" d="M182.46,347.81a165.92,165.92,0,0,1-51.14-7.87c-27.7-9-43.27-22.57-43.42-22.7l1-1.17c.15.13,15.53,13.55,42.94,22.41,25.3,8.18,66.32,14,118.09-4.52l.53,1.47C225.05,344.54,202.18,347.81,182.46,347.81Z" transform="translate(-30.81 -158.88)"/><path class="cls-6" d="M182.46,351.71a165.92,165.92,0,0,1-51.14-7.87c-27.7-9-43.27-22.57-43.42-22.7l1-1.17c.15.13,15.53,13.55,42.94,22.41,25.3,8.18,66.32,14,118.09-4.52l.53,1.47C225.05,348.44,202.18,351.71,182.46,351.71Z" transform="translate(-30.81 -158.88)"/><path class="cls-6" d="M182.46,355.61a165.92,165.92,0,0,1-51.14-7.87c-27.7-9-43.27-22.57-43.42-22.7l1-1.17c.15.13,15.53,13.55,42.94,22.41,25.3,8.18,66.32,14,118.09-4.52l.53,1.47C225.05,352.34,202.18,355.61,182.46,355.61Z" transform="translate(-30.81 -158.88)"/><path class="cls-6" d="M182.46,359.51a165.92,165.92,0,0,1-51.14-7.87c-27.7-9-43.27-22.57-43.42-22.7l1-1.17c.15.13,15.53,13.55,42.94,22.41,25.3,8.18,66.32,14,118.09-4.52l.53,1.47C225.05,356.24,202.18,359.51,182.46,359.51Z" transform="translate(-30.81 -158.88)"/><path class="cls-6" d="M182.46,363.41a165.92,165.92,0,0,1-51.14-7.87c-27.7-9-43.27-22.57-43.42-22.7l1-1.17c.15.13,15.53,13.55,42.94,22.41,25.3,8.18,66.32,14,118.09-4.52l.53,1.47C225.05,360.14,202.18,363.41,182.46,363.41Z" transform="translate(-30.81 -158.88)"/><path class="cls-6" d="M182.46,367.31a165.92,165.92,0,0,1-51.14-7.87c-27.7-9-43.27-22.57-43.42-22.7l1-1.17c.15.13,15.53,13.55,42.94,22.41,25.3,8.18,66.32,14,118.09-4.52l.53,1.47C225.05,364,202.18,367.31,182.46,367.31Z" transform="translate(-30.81 -158.88)"/><path class="cls-6" d="M182.46,371.21a166,166,0,0,1-51.14-7.86c-27.7-9-43.27-22.58-43.42-22.71l1-1.17c.15.13,15.53,13.56,42.94,22.41,25.3,8.18,66.32,14,118.09-4.52l.53,1.47C225.05,367.94,202.18,371.21,182.46,371.21Z" transform="translate(-30.81 -158.88)"/><path class="cls-6" d="M182.46,375.11a166,166,0,0,1-51.14-7.86c-27.7-9-43.27-22.58-43.42-22.71l1-1.17c.15.13,15.53,13.56,42.94,22.41,25.3,8.18,66.32,14,118.09-4.52l.53,1.47C225.05,371.84,202.18,375.11,182.46,375.11Z" transform="translate(-30.81 -158.88)"/></g><path class="cls-9" d="M109,246s-2.45,1-2,1.95,2.45,1,2.45,1.46-1,2.44,0,2.44a10,10,0,0,1,2.93,1l1-2.43s-1.47,1-2,0,0-1-.49-1.47S109,249.37,109,246Z" transform="translate(-30.81 -158.88)"/><path class="cls-9" d="M121.17,246c-1.25,1.24.49,2.44.49,2.44l1-1a21.35,21.35,0,0,1-.48-2.44v-2.43s-2.94.48-2.45,1.46a6.11,6.11,0,0,0,1,1.46s-1.47-1-1.47-.49-.49,1,0,1a.48.48,0,0,0,.49-.49S121.66,245.47,121.17,246Z" transform="translate(-30.81 -158.88)"/><path class="cls-9" d="M116.77,248.88s-1,1.47-.49,1.47h1v-1Z" transform="translate(-30.81 -158.88)"/><path class="cls-9" d="M112.86,240.11a1.71,1.71,0,0,0-.49,1c0,.49,1.95,1,1.47,1.47s.48.48.48.48l.49-1s-1-.49-1-1S112.86,240.11,112.86,240.11Z" transform="translate(-30.81 -158.88)"/></g></g><path class="cls-3" d="M276.45,252.39,258,261.75,206.21,288l-11.63-22.75L246.46,239l18.44-9.35s0,0,0,0A113.24,113.24,0,0,1,276.45,252.39Z" transform="translate(-30.81 -158.88)"/><path class="cls-4" d="M176.86,302.86,93.08,345.31l-18.47,9.36A113.66,113.66,0,0,1,62.93,332l18.44-9.34,83.86-42.5Z" transform="translate(-30.81 -158.88)"/><path class="cls-13" d="M264.92,229.62,246.47,239l-51.89,26.28L246.46,239l18.44-9.35S264.91,229.61,264.92,229.62Z" transform="translate(-30.81 -158.88)"/><path class="cls-6" d="M315.59,305.61v-94h61.35v16.58h-43.6V248.3h35.77v16.58H333.34V289h43.6v16.58Z" transform="translate(-30.81 -158.88)"/><path class="cls-6" d="M391.3,265.4V251.69h39.17V265.4Z" transform="translate(-30.81 -158.88)"/><path class="cls-6" d="M486.61,307.57a45.69,45.69,0,0,1-16.91-3.17A41.14,41.14,0,0,1,455.5,295a44.17,44.17,0,0,1-9.72-15.34,57.72,57.72,0,0,1-3.56-21.09q0-15.6,6-26.53a41.67,41.67,0,0,1,16.06-16.68,44.37,44.37,0,0,1,22.36-5.74q18.15,0,28.52,8.42T529,241.9l-18.15,2.61a27.55,27.55,0,0,0-8.32-13.15q-5.77-4.92-14.79-5t-14.88,3.85A24.07,24.07,0,0,0,464,241.51a45.21,45.21,0,0,0-3,17.1,44.2,44.2,0,0,0,3,17,24.19,24.19,0,0,0,8.91,11.17q5.94,4,14.88,4.11a25.11,25.11,0,0,0,11-2.09,20.45,20.45,0,0,0,8.32-7,30.75,30.75,0,0,0,4.83-12.21H497.05V255.87h33.82c.08.57.15,1.57.19,3s.07,2.27.07,2.48a50.73,50.73,0,0,1-5.49,24,40.42,40.42,0,0,1-15.47,16.35Q500.18,307.57,486.61,307.57Z" transform="translate(-30.81 -158.88)"/><path class="cls-6" d="M545.48,305.61v-96h17.76v96Z" transform="translate(-30.81 -158.88)"/><path class="cls-6" d="M614.55,307.57a35.84,35.84,0,0,1-18.67-4.77,33,33,0,0,1-12.5-13.15,40.38,40.38,0,0,1-4.47-19.29,39.92,39.92,0,0,1,4.57-19.42,33.32,33.32,0,0,1,12.59-13.09,38.86,38.86,0,0,1,37.18.07,33.26,33.26,0,0,1,12.56,13.15,43.53,43.53,0,0,1,0,38.65,33.28,33.28,0,0,1-12.6,13.12A36.14,36.14,0,0,1,614.55,307.57Zm0-16.58q8.55,0,12.76-5.78t4.21-14.85q0-9.39-4.28-15t-12.69-5.61a16.21,16.21,0,0,0-9.53,2.61,15.38,15.38,0,0,0-5.52,7.24,29.65,29.65,0,0,0-1.79,10.77q0,9.47,4.27,15.05T614.55,291Z" transform="translate(-30.81 -158.88)"/><path class="cls-6" d="M664.55,305.61v-94h17.88v45.7h-2.22v48.3Zm34.72,2q-10.5,0-17.56-4.9a30,30,0,0,1-10.6-13.31,52.73,52.73,0,0,1,0-38,30.28,30.28,0,0,1,10.38-13.32q6.85-4.89,16.91-4.9A31.85,31.85,0,0,1,716,238a32.37,32.37,0,0,1,11.65,13.21,46.29,46.29,0,0,1,.07,38.16,32.94,32.94,0,0,1-11.39,13.31A29.84,29.84,0,0,1,699.27,307.57Zm-2.87-15.8a14.73,14.73,0,0,0,9.4-2.87,16.87,16.87,0,0,0,5.42-7.73A31.71,31.71,0,0,0,713,270.36a30.34,30.34,0,0,0-1.83-10.74,17,17,0,0,0-5.64-7.76,15.66,15.66,0,0,0-9.76-2.91,14.16,14.16,0,0,0-9,2.68,15.08,15.08,0,0,0-5,7.51,40.91,40.91,0,0,0,0,22.45,14.8,14.8,0,0,0,5.12,7.51Q690.46,291.77,696.4,291.77Z" transform="translate(-30.81 -158.88)"/><path class="cls-6" d="M778.91,307.57a38.11,38.11,0,0,1-19.09-4.67A33.64,33.64,0,0,1,746.89,290a37.22,37.22,0,0,1-4.67-18.76,42.13,42.13,0,0,1,4.57-20.11,33.27,33.27,0,0,1,12.6-13.28,35.64,35.64,0,0,1,18.47-4.74q11.1,0,18.87,5.23a30.69,30.69,0,0,1,11.49,14.68q3.72,9.46,2.61,22.26H793.27V268.8q0-10.77-3.43-15.51c-2.28-3.15-6-4.73-11.19-4.73q-9.07,0-13.35,5.52T761,270.36q0,9.86,4.28,15.24T777.86,291a16.82,16.82,0,0,0,8.95-2.28,14.68,14.68,0,0,0,5.68-6.6l17.75,5.09a31.26,31.26,0,0,1-12.57,15A34.83,34.83,0,0,1,778.91,307.57Zm-23.37-32.25V262.14h46.74v13.18Z" transform="translate(-30.81 -158.88)"/><path class="cls-6" d="M344.92,378.28a19.23,19.23,0,0,1-10.13-2.56,17,17,0,0,1-6.56-7.15,26,26,0,0,1,0-21.38,17,17,0,0,1,6.56-7.15,19.32,19.32,0,0,1,10.13-2.56,18.73,18.73,0,0,1,11.33,3.35,17.84,17.84,0,0,1,6.46,9.05L355.25,352a9.94,9.94,0,0,0-10.33-7.5,10.94,10.94,0,0,0-6.22,1.66,10.09,10.09,0,0,0-3.74,4.67,20.79,20.79,0,0,0,0,14.2,10.17,10.17,0,0,0,3.74,4.68,11,11,0,0,0,6.22,1.66,10,10,0,0,0,10.33-7.51l7.46,2.07a17.79,17.79,0,0,1-6.46,9.05A18.66,18.66,0,0,1,344.92,378.28Z" transform="translate(-30.81 -158.88)"/><path class="cls-6" d="M381.9,378.28a14.88,14.88,0,0,1-7.77-2,13.75,13.75,0,0,1-5.21-5.48,16.81,16.81,0,0,1-1.86-8,16.62,16.62,0,0,1,1.9-8.09,13.93,13.93,0,0,1,5.25-5.46,16.17,16.17,0,0,1,15.49,0,13.8,13.8,0,0,1,5.23,5.48,18.13,18.13,0,0,1,0,16.1,13.89,13.89,0,0,1-5.25,5.47A15.11,15.11,0,0,1,381.9,378.28Zm0-6.91a6.14,6.14,0,0,0,5.32-2.41,11.81,11.81,0,0,0,0-12.44,6.25,6.25,0,0,0-5.3-2.34,6.74,6.74,0,0,0-4,1.09,6.37,6.37,0,0,0-2.29,3,12.35,12.35,0,0,0-.75,4.49,10,10,0,0,0,1.78,6.27A6.18,6.18,0,0,0,381.9,371.37Z" transform="translate(-30.81 -158.88)"/><path class="cls-6" d="M402.74,377.46V348.09h6.58v9.74h.93v19.63Zm20.07,0V363.59c0-.67,0-1.52-.11-2.57a11.49,11.49,0,0,0-.68-3.14,6,6,0,0,0-1.86-2.64,5.66,5.66,0,0,0-3.66-1.06,7.75,7.75,0,0,0-2,.3,5.14,5.14,0,0,0-2,1.16,6.28,6.28,0,0,0-1.56,2.51,13,13,0,0,0-.61,4.41l-4.25-2a15.22,15.22,0,0,1,1.42-6.53,11.7,11.7,0,0,1,4.25-4.92,12.79,12.79,0,0,1,7.17-1.88,11.86,11.86,0,0,1,5.63,1.17,9.38,9.38,0,0,1,3.39,3,12.48,12.48,0,0,1,1.72,3.74,18.38,18.38,0,0,1,.63,3.55c.07,1.07.11,1.85.11,2.34v16.48Z" transform="translate(-30.81 -158.88)"/><path class="cls-6" d="M448.87,378.28a14.71,14.71,0,0,1-9-2.52,10.45,10.45,0,0,1-4.15-7.11l7.56-1.14a5.31,5.31,0,0,0,2.05,3.24,6.64,6.64,0,0,0,4,1.17,5.26,5.26,0,0,0,3.1-.78A2.5,2.5,0,0,0,453.6,369a2.13,2.13,0,0,0-.44-1.4,4.48,4.48,0,0,0-1.94-1.05c-1-.34-2.57-.8-4.69-1.36a26.19,26.19,0,0,1-5.74-2.07,7.65,7.65,0,0,1-3.1-2.73,7.31,7.31,0,0,1-.95-3.85,8.43,8.43,0,0,1,1.44-4.91,9.25,9.25,0,0,1,4.06-3.21,15.65,15.65,0,0,1,6.19-1.13,16.42,16.42,0,0,1,6.12,1.07,10.61,10.61,0,0,1,4.31,3,9.07,9.07,0,0,1,2,4.63l-7.56,1.36a3.69,3.69,0,0,0-1.42-2.59,6.09,6.09,0,0,0-3.32-1.11,6,6,0,0,0-3.27.54,2.14,2.14,0,0,0-1.24,2,1.74,1.74,0,0,0,.53,1.28,6.15,6.15,0,0,0,2.2,1.06q1.68.54,5.1,1.41a22.35,22.35,0,0,1,5.37,2,7.58,7.58,0,0,1,3,2.78,7.66,7.66,0,0,1,.93,3.9,8.58,8.58,0,0,1-3.26,7.1Q454.63,378.28,448.87,378.28Z" transform="translate(-30.81 -158.88)"/><path class="cls-6" d="M478.08,378.33a12,12,0,0,1-5.63-1.16,9.31,9.31,0,0,1-3.39-3,12.4,12.4,0,0,1-1.73-3.74,19.1,19.1,0,0,1-.62-3.55c-.07-1.07-.11-1.85-.11-2.34V348.09h7.51V362c0,.67,0,1.53.11,2.57a11.13,11.13,0,0,0,.68,3.14,6,6,0,0,0,1.86,2.64,5.6,5.6,0,0,0,3.66,1.06,7.75,7.75,0,0,0,2-.3,5.12,5.12,0,0,0,2-1.15,6.3,6.3,0,0,0,1.56-2.53,13,13,0,0,0,.61-4.39l4.25,2a15.32,15.32,0,0,1-1.42,6.52,11.62,11.62,0,0,1-4.26,4.93A12.73,12.73,0,0,1,478.08,378.33Zm9.52-.87v-9.73h-.93V348.09h7.45v29.37Z" transform="translate(-30.81 -158.88)"/><path class="cls-6" d="M502.28,377.46v-40h7.4v40Z" transform="translate(-30.81 -158.88)"/><path class="cls-6" d="M514.58,353.8v-5.71h20.88v5.71Zm20.88,23.66a28.46,28.46,0,0,1-6,.51,14.23,14.23,0,0,1-5.22-1,7,7,0,0,1-3.49-3.11,8.89,8.89,0,0,1-1.14-4.09c0-1.39-.06-3-.06-4.72V339.93H527v24.64c0,1.15,0,2.17,0,3.09a4.28,4.28,0,0,0,.56,2.19,3.71,3.71,0,0,0,3.12,1.68,23.91,23.91,0,0,0,4.76-.21Z" transform="translate(-30.81 -158.88)"/><path class="cls-6" d="M542.53,344v-6.53h7.4V344Zm0,33.45V348.09h7.4v29.37Z" transform="translate(-30.81 -158.88)"/><path class="cls-6" d="M558,377.46V348.09h6.58v9.74h.92v19.63Zm20.07,0V363.59c0-.67,0-1.52-.11-2.57a11.49,11.49,0,0,0-.68-3.14,6,6,0,0,0-1.86-2.64,5.66,5.66,0,0,0-3.66-1.06,7.63,7.63,0,0,0-2,.3,5,5,0,0,0-2,1.16,6.07,6.07,0,0,0-1.56,2.51,13,13,0,0,0-.62,4.41l-4.24-2a15.22,15.22,0,0,1,1.42-6.53A11.7,11.7,0,0,1,567,349.1a12.79,12.79,0,0,1,7.17-1.88,11.86,11.86,0,0,1,5.63,1.17,9.38,9.38,0,0,1,3.39,3,12.48,12.48,0,0,1,1.72,3.74,19.18,19.18,0,0,1,.63,3.55c.07,1.07.11,1.85.11,2.34v16.48Z" transform="translate(-30.81 -158.88)"/><path class="cls-6" d="M604.6,378.28a12.46,12.46,0,0,1-7.1-2,13.79,13.79,0,0,1-4.75-5.55,19.28,19.28,0,0,1,0-15.9,13.52,13.52,0,0,1,4.86-5.5,13.19,13.19,0,0,1,7.34-2,11.79,11.79,0,0,1,7,2,12.61,12.61,0,0,1,4.33,5.55,22,22,0,0,1,0,15.83,11.92,11.92,0,0,1-11.74,7.59Zm.65,13.06a14,14,0,0,1-4.76-.81,13.81,13.81,0,0,1-4-2.23,12.06,12.06,0,0,1-2.89-3.33l6.85-3.32a4.7,4.7,0,0,0,2,2,6.2,6.2,0,0,0,2.87.68,8.72,8.72,0,0,0,3.12-.56,5.36,5.36,0,0,0,2.36-1.66,4,4,0,0,0,.83-2.73v-8.54h.92V348.09H619v31.39c0,.72,0,1.41-.09,2a12.89,12.89,0,0,1-.34,1.92,8.88,8.88,0,0,1-2.63,4.43,12.16,12.16,0,0,1-4.69,2.6A20.3,20.3,0,0,1,605.25,391.34Zm.55-19.64a6.36,6.36,0,0,0,4-1.12,6.14,6.14,0,0,0,2.14-3.13,17.14,17.14,0,0,0,0-9.35,6.35,6.35,0,0,0-2.08-3.13,5.92,5.92,0,0,0-3.74-1.11,6.52,6.52,0,0,0-4.07,1.21,7.06,7.06,0,0,0-2.35,3.23,12.61,12.61,0,0,0-.76,4.48,13.11,13.11,0,0,0,.73,4.5,7,7,0,0,0,2.26,3.22A6.13,6.13,0,0,0,605.8,371.7Z" transform="translate(-30.81 -158.88)"/><path class="cls-6" d="M653.83,378.28a19,19,0,0,1-7.05-1.32,17.11,17.11,0,0,1-5.91-3.9,18.11,18.11,0,0,1-4-6.39,24.09,24.09,0,0,1-1.49-8.79,22.73,22.73,0,0,1,2.49-11.05,17.32,17.32,0,0,1,6.69-6.95,18.46,18.46,0,0,1,9.32-2.4q7.56,0,11.88,3.51a17.23,17.23,0,0,1,5.8,9.93L664,352a11.49,11.49,0,0,0-3.47-5.48,9.23,9.23,0,0,0-6.16-2.08,10.54,10.54,0,0,0-6.2,1.6,10.11,10.11,0,0,0-3.72,4.71,18.92,18.92,0,0,0-1.23,7.12A18.51,18.51,0,0,0,644.4,365a10,10,0,0,0,3.72,4.65,11.19,11.19,0,0,0,6.2,1.72,10.67,10.67,0,0,0,4.58-.87,8.56,8.56,0,0,0,3.47-2.91,13,13,0,0,0,2-5.09h-6.2v-5.71h14.09c0,.24.06.65.08,1.25s0,.94,0,1a21.12,21.12,0,0,1-2.29,10,16.84,16.84,0,0,1-6.44,6.81A19,19,0,0,1,653.83,378.28Z" transform="translate(-30.81 -158.88)"/><path class="cls-6" d="M677.82,377.46V348.09h6.52v7.18l-.7-.92a11,11,0,0,1,1.52-2.78,7.87,7.87,0,0,1,2.34-2.06,9.23,9.23,0,0,1,2.31-1,12.36,12.36,0,0,1,2.58-.47,14,14,0,0,1,2.67.07V355a7.52,7.52,0,0,0-2.84-.26,8.06,8.06,0,0,0-2.93.75,6.73,6.73,0,0,0-2.2,1.59,6.64,6.64,0,0,0-1.36,2.34,9.27,9.27,0,0,0-.46,3v15Z" transform="translate(-30.81 -158.88)"/><path class="cls-6" d="M712.9,378.28a14.91,14.91,0,0,1-7.78-2,13.82,13.82,0,0,1-5.21-5.48,16.81,16.81,0,0,1-1.86-8,16.62,16.62,0,0,1,1.91-8.09,13.86,13.86,0,0,1,5.25-5.46,16.15,16.15,0,0,1,15.48,0,13.82,13.82,0,0,1,5.24,5.48,18.13,18.13,0,0,1,0,16.1,13.89,13.89,0,0,1-5.25,5.47A15.11,15.11,0,0,1,712.9,378.28Zm0-6.91a6.14,6.14,0,0,0,5.32-2.41,10.21,10.21,0,0,0,1.75-6.18,10.07,10.07,0,0,0-1.78-6.26,6.23,6.23,0,0,0-5.29-2.34,6.74,6.74,0,0,0-4,1.09,6.45,6.45,0,0,0-2.3,3,12.36,12.36,0,0,0-.74,4.49,10,10,0,0,0,1.78,6.27A6.17,6.17,0,0,0,712.9,371.37Z" transform="translate(-30.81 -158.88)"/><path class="cls-6" d="M744.72,378.33a12,12,0,0,1-5.63-1.16,9.19,9.19,0,0,1-3.38-3,12.4,12.4,0,0,1-1.73-3.74,19.1,19.1,0,0,1-.62-3.55c-.08-1.07-.11-1.85-.11-2.34V348.09h7.5V362c0,.67,0,1.53.11,2.57a11.49,11.49,0,0,0,.68,3.14,6,6,0,0,0,1.86,2.64,5.64,5.64,0,0,0,3.66,1.06,7.63,7.63,0,0,0,2-.3,5,5,0,0,0,2-1.15,6.2,6.2,0,0,0,1.57-2.53,13.28,13.28,0,0,0,.61-4.39l4.24,2a15.32,15.32,0,0,1-1.41,6.52,11.76,11.76,0,0,1-4.26,4.93A12.74,12.74,0,0,1,744.72,378.33Zm9.52-.87v-9.73h-.92V348.09h7.45v29.37Z" transform="translate(-30.81 -158.88)"/><path class="cls-6" d="M768.33,390.52V348.09h6.53v20.13h.92v22.3Zm14.47-12.24a11.92,11.92,0,0,1-11.74-7.59,22,22,0,0,1,0-15.83,12.61,12.61,0,0,1,4.33-5.55,11.79,11.79,0,0,1,7-2,13.19,13.19,0,0,1,7.34,2,13.52,13.52,0,0,1,4.86,5.5,19.28,19.28,0,0,1,0,15.9,13.79,13.79,0,0,1-4.75,5.55A12.46,12.46,0,0,1,782.8,378.28Zm-1.2-6.58a6.15,6.15,0,0,0,3.92-1.2,7,7,0,0,0,2.26-3.22,13.11,13.11,0,0,0,.73-4.5,12.61,12.61,0,0,0-.76-4.48,7.06,7.06,0,0,0-2.35-3.23,6.52,6.52,0,0,0-4.07-1.21,5.92,5.92,0,0,0-3.74,1.11,6.35,6.35,0,0,0-2.08,3.13,17.14,17.14,0,0,0,0,9.35,6.14,6.14,0,0,0,2.14,3.13A6.35,6.35,0,0,0,781.6,371.7Z" transform="translate(-30.81 -158.88)"/></svg>