<svg width="17" height="19" viewBox="0 0 17 19" fill="none" xmlns="http://www.w3.org/2000/svg">
<path d="M15.7273 8.36364C15.7273 11.8014 13.0742 14.9444 10.9531 16.9078C9.47177 18.279 7.25551 18.279 5.77421 16.9078C3.65306 14.9444 1 11.8014 1 8.36364C1 6.41068 1.77581 4.53771 3.15676 3.15676C4.53771 1.77581 6.41068 1 8.36364 1C10.3166 1 12.1896 1.77581 13.5705 3.15676C14.9515 4.53771 15.7273 6.41068 15.7273 8.36364Z" stroke="#FFDF4D" stroke-linecap="round" stroke-linejoin="round"/>
<path d="M8.36373 10.8183C9.71933 10.8183 10.8183 9.71933 10.8183 8.36373C10.8183 7.00812 9.71933 5.90918 8.36373 5.90918C7.00812 5.90918 5.90918 7.00812 5.90918 8.36373C5.90918 9.71933 7.00812 10.8183 8.36373 10.8183Z" stroke="#FFDF4D" stroke-linecap="round" stroke-linejoin="round"/>
</svg>
