<svg width="127" height="139" viewBox="0 0 127 139" fill="none" xmlns="http://www.w3.org/2000/svg">
<path d="M61.4166 27.0507C65.617 27.0507 69.0221 23.6456 69.0221 19.4452C69.0221 15.2447 65.617 11.8396 61.4166 11.8396C57.2162 11.8396 53.811 15.2447 53.811 19.4452C53.811 23.6456 57.2162 27.0507 61.4166 27.0507Z" fill="#FD6584"/>
<path d="M78.4386 15.8439C78.2241 15.1406 77.8086 14.5153 77.2433 14.0452C76.6779 13.575 75.9874 13.2804 75.2568 13.1977C75.2398 13.1962 75.2226 13.1962 75.2056 13.1977C75.1851 13.1913 75.1641 13.1865 75.1429 13.1834C72.5964 12.853 69.765 13.6563 67.8594 15.4052C67.152 16.0442 66.5863 16.8244 66.1988 17.6953C65.8455 17.2128 65.38 16.8237 64.8425 16.5616C64.3049 16.2996 63.7116 16.1725 63.1139 16.1914C62.3431 16.2423 61.6067 16.5298 61.0052 17.0146C60.4037 17.4993 59.9663 18.1578 59.7528 18.9002C59.7293 18.9909 59.7357 19.0868 59.7712 19.1735C59.8066 19.2603 59.8691 19.3333 59.9493 19.3816C60.1784 19.5776 60.4508 19.7162 60.744 19.7861C61.3735 19.92 62.0087 20.0425 62.6439 20.1536C63.8859 20.37 65.1344 20.5457 66.3896 20.6805C67.2185 20.7688 68.0493 20.8391 68.882 20.8913C70.6025 20.9995 72.3315 21.0252 74.0548 20.9711C74.9093 20.9426 75.7297 20.9141 76.5102 20.5381C77.0789 20.2584 77.5649 19.8353 77.9201 19.3104C78.2546 18.8056 78.4743 18.2336 78.5639 17.6346C78.6535 17.0357 78.6107 16.4245 78.4386 15.8439Z" fill="#E6E6E6"/>
<path d="M62.7921 26.9245C62.7777 26.6058 62.7241 26.2901 62.6326 25.9845C62.417 25.2813 62.0009 24.6562 61.4352 24.1862C60.8695 23.7161 60.1788 23.4214 59.448 23.3383C59.4319 23.3369 59.4157 23.3369 59.3996 23.3383C59.3781 23.3322 59.3562 23.3274 59.3341 23.3241C57.9247 23.1514 56.4945 23.2984 55.1497 23.7542C53.0817 24.4463 51.2673 25.8421 50.3928 27.836C50.0392 27.3532 49.5731 26.9638 49.0351 26.7018C48.4971 26.4397 47.9032 26.3128 47.3051 26.332C46.5342 26.383 45.7979 26.6704 45.1963 27.1552C44.5948 27.64 44.1575 28.2984 43.9439 29.0409C43.9218 29.1316 43.9288 29.227 43.9641 29.3134C43.9994 29.3999 44.0612 29.473 44.1405 29.5223C44.3699 29.7177 44.6422 29.8562 44.9352 29.9267C45.5675 30.0606 46.1999 30.1831 46.8379 30.2942C48.0799 30.5107 49.3275 30.6863 50.5808 30.8211C53.1271 31.0945 55.6892 31.1916 58.2488 31.1117C59.1005 31.0832 59.9237 31.0547 60.7042 30.6787C61.2721 30.3989 61.7571 29.9758 62.1113 29.451C62.6106 28.707 62.85 27.8187 62.7921 26.9245Z" fill="#E6E6E6"/>
<path d="M119.102 122.905H112.169V14.6723C111.702 14.3277 111.232 13.9859 110.756 13.6526C110.662 13.5871 110.568 13.5216 110.474 13.456C104.991 9.62053 99.0588 6.46958 92.8108 4.07327L91.4663 22.6166L91.4662 22.6178H82.8156V0.965622C82.2516 0.826048 81.6876 0.695018 81.118 0.572535V22.6178H48.452V0C47.8852 0.105392 47.3183 0.213634 46.7543 0.33042V22.6178H37.8188L37.8188 22.6166L36.4088 3.17032C30.3284 5.27798 24.5174 8.09456 19.0959 11.5618C18.9079 11.6815 18.72 11.8011 18.532 11.9264C18.1531 12.1714 17.7743 12.4221 17.4011 12.6756V122.905H7.63951C6.3906 122.904 5.16057 123.209 4.05726 123.795C2.95395 124.38 2.01105 125.227 1.31123 126.261C0.611406 127.296 0.176022 128.486 0.043261 129.728C-0.0895001 130.97 0.0844107 132.225 0.549745 133.384C0.689362 133.734 0.856024 134.073 1.04822 134.398C1.29646 134.821 1.58451 135.22 1.90846 135.589C2.62404 136.404 3.50546 137.057 4.49379 137.505C5.48212 137.952 6.5546 138.184 7.63952 138.184H119.102C121.128 138.184 123.071 137.379 124.504 135.946C125.937 134.513 126.741 132.57 126.741 130.544C126.741 128.518 125.937 126.575 124.504 125.142C123.071 123.709 121.128 122.905 119.102 122.905L119.102 122.905ZM89.6034 48.3615L84.2113 122.905H45.0737L39.6817 48.3615H89.6034ZM91.3438 24.3151L90.0136 42.7035H82.8156V24.3151H91.3438ZM81.118 24.3151V42.7035H68.1198C67.8596 42.1928 67.4631 41.764 66.9744 41.4644C66.4857 41.1649 65.9236 41.0063 65.3504 41.0061H63.653C63.0798 41.0063 62.5178 41.1649 62.029 41.4644C61.5403 41.764 61.1439 42.1928 60.8836 42.7035H48.452V24.3151H81.118ZM46.7543 42.7035H39.2715L37.9413 24.3151H46.7543V42.7035Z" fill="white"/>
</svg>
