<svg width="207" height="150" viewBox="0 0 207 150" fill="none" xmlns="http://www.w3.org/2000/svg">
<g clip-path="url(#clip0_834_1629)">
<path d="M120.135 26.4431C124 26.4431 127.134 23.3097 127.134 19.4443C127.134 15.579 124 12.4456 120.135 12.4456C116.27 12.4456 113.136 15.579 113.136 19.4443C113.136 23.3097 116.27 26.4431 120.135 26.4431Z" fill="#F2F2F2"/>
<path d="M174.427 130.313C184.83 122.39 189.798 109.075 186.688 96.3734C186.611 96.0578 186.529 95.7429 186.443 95.4287C184.381 87.8893 179.279 80.7237 171.843 78.3146C165.599 76.2918 158.784 77.8473 152.271 77.0429C139.484 75.4639 129.571 65.1181 122.596 54.2859C115.621 43.4537 110.26 31.3286 100.992 22.3796C85.714 7.62874 60.7924 4.45287 41.8504 14.0546C22.9084 23.6563 10.8426 44.9586 11.3571 66.1889C11.8717 87.4193 24.4753 107.717 42.7787 118.486C49.5027 122.442 57.2795 125.245 65.0191 124.264C71.7346 123.413 77.8365 119.805 84.5204 118.734C95.0291 117.049 105.471 121.801 114.56 127.337C123.649 132.874 132.429 139.437 142.757 142.004C152.786 144.496 165.212 137.332 174.427 130.313Z" fill="#F2F2F2"/>
<path d="M159.48 14.5005C159.252 14.3484 159.022 14.2043 158.794 14.0575C152.202 9.84149 145.136 6.41646 137.743 3.85316L136.028 27.5016H125.161V0.401043C124.477 0.259498 123.787 0.125817 123.098 0V27.5016H110.183C103.074 27.5016 96.2554 24.6773 91.2281 19.65C86.2008 14.6227 83.3765 7.80429 83.3765 0.694647V0.694623C82.6845 0.844032 81.9978 1.00393 81.311 1.1743V27.5016H70.7921L69.1591 4.95144C61.5615 7.86524 54.3486 11.697 47.681 16.3615C47.5657 16.4402 47.4504 16.5214 47.3377 16.6C46.7584 17.0063 46.187 17.4205 45.6182 17.8399V108.059H76.6191L76.0712 100.47L73.0568 58.8065H133.761L130.747 100.47L130.199 108.059H160.856V15.4126C160.4 15.1033 159.942 14.7993 159.48 14.5005ZM81.311 51.9259H72.5588L70.9416 29.5671H81.311V51.9259ZM123.098 51.9259H108.398V51.4829C108.398 51.27 108.356 51.0591 108.275 50.8624C108.193 50.6657 108.074 50.487 107.923 50.3365C107.772 50.1861 107.593 50.0668 107.397 49.9856C107.2 49.9043 106.989 49.8627 106.776 49.863H100.385C100.173 49.8629 99.962 49.9048 99.7654 49.9862C99.5689 50.0675 99.3903 50.1869 99.2398 50.3373C99.0894 50.4877 98.9701 50.6663 98.8887 50.8629C98.8073 51.0595 98.7655 51.2702 98.7656 51.4829V51.9259H83.3765V29.5671H123.098V51.9259ZM125.161 51.9259V29.5671H135.879L134.262 51.9259H125.161Z" fill="#868686"/>
<path d="M0 113.836C2.2771 116.534 4.74004 119.07 7.37081 121.425L198.87 121.687C201.501 119.332 203.964 116.796 206.241 114.098L0 113.836Z" fill="#3F3D56"/>
<path d="M129.862 89.5377V112.002C129.862 112.289 129.976 112.563 130.178 112.766C130.381 112.968 130.655 113.082 130.941 113.082H164.232C164.518 113.082 164.793 112.968 164.995 112.766C165.198 112.563 165.311 112.289 165.312 112.002V89.5377C165.311 89.2517 165.197 88.9776 164.994 88.7754C164.792 88.5733 164.518 88.4596 164.232 88.4592H130.941C130.655 88.4596 130.381 88.5733 130.179 88.7754C129.976 88.9776 129.862 89.2517 129.862 89.5377Z" fill="#3F3D56"/>
<path d="M130.643 89.8172V111.725C130.643 111.878 130.704 112.025 130.812 112.133C130.92 112.241 131.067 112.302 131.22 112.302H163.955C164.108 112.302 164.254 112.241 164.363 112.133C164.471 112.025 164.532 111.878 164.532 111.725V89.8172C164.532 89.6641 164.471 89.5172 164.363 89.4088C164.255 89.3004 164.108 89.2393 163.955 89.239H131.22C131.067 89.2393 130.92 89.3004 130.812 89.4088C130.704 89.5172 130.643 89.6641 130.643 89.8172Z" fill="#A4123F"/>
<path d="M129.166 116.384C129.227 116.46 129.304 116.522 129.392 116.564C129.481 116.606 129.577 116.628 129.675 116.627H165.321C165.419 116.627 165.515 116.605 165.603 116.563C165.691 116.521 165.768 116.46 165.83 116.385C165.891 116.309 165.935 116.221 165.958 116.126C165.981 116.031 165.982 115.932 165.962 115.837L165.409 113.209C165.386 113.101 165.337 113.002 165.265 112.918C165.194 112.835 165.103 112.771 165.001 112.732C164.926 112.703 164.847 112.688 164.768 112.688H130.226C130.146 112.688 130.068 112.703 129.993 112.732C129.891 112.771 129.8 112.835 129.729 112.918C129.657 113.002 129.608 113.101 129.585 113.209L129.032 115.837C129.012 115.932 129.014 116.031 129.037 116.125C129.06 116.22 129.104 116.308 129.166 116.384Z" fill="#2F2E41"/>
<path d="M163.545 113.82H164.387C164.457 113.82 164.515 113.763 164.515 113.692V113.29C164.515 113.219 164.457 113.162 164.387 113.162H163.545C163.474 113.162 163.417 113.219 163.417 113.29V113.692C163.417 113.763 163.474 113.82 163.545 113.82Z" fill="#3F3D56"/>
<path d="M161.349 113.82H162.191C162.262 113.82 162.319 113.763 162.319 113.692V113.29C162.319 113.219 162.262 113.162 162.191 113.162H161.349C161.278 113.162 161.221 113.219 161.221 113.29V113.692C161.221 113.763 161.278 113.82 161.349 113.82Z" fill="#3F3D56"/>
<path d="M159.153 113.82H159.995C160.066 113.82 160.123 113.763 160.123 113.692V113.29C160.123 113.219 160.066 113.162 159.995 113.162H159.153C159.083 113.162 159.025 113.219 159.025 113.29V113.692C159.025 113.763 159.083 113.82 159.153 113.82Z" fill="#3F3D56"/>
<path d="M156.958 113.82H157.8C157.87 113.82 157.927 113.763 157.927 113.692V113.29C157.927 113.219 157.87 113.162 157.8 113.162H156.958C156.887 113.162 156.83 113.219 156.83 113.29V113.692C156.83 113.763 156.887 113.82 156.958 113.82Z" fill="#3F3D56"/>
<path d="M154.762 113.82H155.604C155.674 113.82 155.732 113.763 155.732 113.692V113.29C155.732 113.219 155.674 113.162 155.604 113.162H154.762C154.691 113.162 154.634 113.219 154.634 113.29V113.692C154.634 113.763 154.691 113.82 154.762 113.82Z" fill="#3F3D56"/>
<path d="M152.566 113.82H153.408C153.479 113.82 153.536 113.763 153.536 113.692V113.29C153.536 113.219 153.479 113.162 153.408 113.162H152.566C152.495 113.162 152.438 113.219 152.438 113.29V113.692C152.438 113.763 152.495 113.82 152.566 113.82Z" fill="#3F3D56"/>
<path d="M150.37 113.82H151.212C151.283 113.82 151.34 113.763 151.34 113.692V113.29C151.34 113.219 151.283 113.162 151.212 113.162H150.37C150.3 113.162 150.242 113.219 150.242 113.29V113.692C150.242 113.763 150.3 113.82 150.37 113.82Z" fill="#3F3D56"/>
<path d="M148.174 113.82H149.016C149.087 113.82 149.144 113.763 149.144 113.692V113.29C149.144 113.219 149.087 113.162 149.016 113.162H148.174C148.104 113.162 148.046 113.219 148.046 113.29V113.692C148.046 113.763 148.104 113.82 148.174 113.82Z" fill="#3F3D56"/>
<path d="M145.979 113.82H146.821C146.891 113.82 146.948 113.763 146.948 113.692V113.29C146.948 113.219 146.891 113.162 146.821 113.162H145.979C145.908 113.162 145.851 113.219 145.851 113.29V113.692C145.851 113.763 145.908 113.82 145.979 113.82Z" fill="#3F3D56"/>
<path d="M143.783 113.82H144.625C144.696 113.82 144.753 113.763 144.753 113.692V113.29C144.753 113.219 144.696 113.162 144.625 113.162H143.783C143.712 113.162 143.655 113.219 143.655 113.29V113.692C143.655 113.763 143.712 113.82 143.783 113.82Z" fill="#3F3D56"/>
<path d="M141.587 113.82H142.429C142.5 113.82 142.557 113.763 142.557 113.692V113.29C142.557 113.219 142.5 113.162 142.429 113.162H141.587C141.517 113.162 141.459 113.219 141.459 113.29V113.692C141.459 113.763 141.517 113.82 141.587 113.82Z" fill="#3F3D56"/>
<path d="M139.391 113.82H140.233C140.304 113.82 140.361 113.763 140.361 113.692V113.29C140.361 113.219 140.304 113.162 140.233 113.162H139.391C139.321 113.162 139.263 113.219 139.263 113.29V113.692C139.263 113.763 139.321 113.82 139.391 113.82Z" fill="#3F3D56"/>
<path d="M137.196 113.82H138.038C138.108 113.82 138.166 113.763 138.166 113.692V113.29C138.166 113.219 138.108 113.162 138.038 113.162H137.196C137.125 113.162 137.068 113.219 137.068 113.29V113.692C137.068 113.763 137.125 113.82 137.196 113.82Z" fill="#3F3D56"/>
<path d="M135 113.82H135.842C135.912 113.82 135.97 113.763 135.97 113.692V113.29C135.97 113.219 135.912 113.162 135.842 113.162H135C134.929 113.162 134.872 113.219 134.872 113.29V113.692C134.872 113.763 134.929 113.82 135 113.82Z" fill="#3F3D56"/>
<path d="M132.804 113.82H133.646C133.717 113.82 133.774 113.763 133.774 113.692V113.29C133.774 113.219 133.717 113.162 133.646 113.162H132.804C132.733 113.162 132.676 113.219 132.676 113.29V113.692C132.676 113.763 132.733 113.82 132.804 113.82Z" fill="#3F3D56"/>
<path d="M130.608 113.82H131.45C131.521 113.82 131.578 113.763 131.578 113.692V113.29C131.578 113.219 131.521 113.162 131.45 113.162H130.608C130.538 113.162 130.48 113.219 130.48 113.29V113.692C130.48 113.763 130.538 113.82 130.608 113.82Z" fill="#3F3D56"/>
<path d="M163.571 114.918H164.413C164.483 114.918 164.541 114.861 164.541 114.79V114.387C164.541 114.317 164.483 114.259 164.413 114.259H163.571C163.5 114.259 163.443 114.317 163.443 114.387V114.79C163.443 114.861 163.5 114.918 163.571 114.918Z" fill="#3F3D56"/>
<path d="M161.375 114.918H162.217C162.288 114.918 162.345 114.861 162.345 114.79V114.387C162.345 114.317 162.288 114.259 162.217 114.259H161.375C161.304 114.259 161.247 114.317 161.247 114.387V114.79C161.247 114.861 161.304 114.918 161.375 114.918Z" fill="#3F3D56"/>
<path d="M159.179 114.918H160.021C160.092 114.918 160.149 114.861 160.149 114.79V114.387C160.149 114.317 160.092 114.259 160.021 114.259H159.179C159.109 114.259 159.051 114.317 159.051 114.387V114.79C159.051 114.861 159.109 114.918 159.179 114.918Z" fill="#3F3D56"/>
<path d="M156.983 114.918H157.825C157.896 114.918 157.953 114.861 157.953 114.79V114.387C157.953 114.317 157.896 114.259 157.825 114.259H156.983C156.913 114.259 156.855 114.317 156.855 114.387V114.79C156.855 114.861 156.913 114.918 156.983 114.918Z" fill="#3F3D56"/>
<path d="M154.788 114.918H155.63C155.7 114.918 155.758 114.861 155.758 114.79V114.387C155.758 114.317 155.7 114.259 155.63 114.259H154.788C154.717 114.259 154.66 114.317 154.66 114.387V114.79C154.66 114.861 154.717 114.918 154.788 114.918Z" fill="#3F3D56"/>
<path d="M152.592 114.918H153.434C153.504 114.918 153.562 114.861 153.562 114.79V114.387C153.562 114.317 153.504 114.259 153.434 114.259H152.592C152.521 114.259 152.464 114.317 152.464 114.387V114.79C152.464 114.861 152.521 114.918 152.592 114.918Z" fill="#3F3D56"/>
<path d="M150.396 114.918H151.238C151.309 114.918 151.366 114.861 151.366 114.79V114.387C151.366 114.317 151.309 114.259 151.238 114.259H150.396C150.325 114.259 150.268 114.317 150.268 114.387V114.79C150.268 114.861 150.325 114.918 150.396 114.918Z" fill="#3F3D56"/>
<path d="M148.2 114.918H149.042C149.113 114.918 149.17 114.861 149.17 114.79V114.387C149.17 114.317 149.113 114.259 149.042 114.259H148.2C148.13 114.259 148.073 114.317 148.073 114.387V114.79C148.073 114.861 148.13 114.918 148.2 114.918Z" fill="#3F3D56"/>
<path d="M146.005 114.918H146.847C146.917 114.918 146.975 114.861 146.975 114.79V114.387C146.975 114.317 146.917 114.259 146.847 114.259H146.005C145.934 114.259 145.877 114.317 145.877 114.387V114.79C145.877 114.861 145.934 114.918 146.005 114.918Z" fill="#3F3D56"/>
<path d="M143.809 114.918H144.651C144.722 114.918 144.779 114.861 144.779 114.79V114.387C144.779 114.317 144.722 114.259 144.651 114.259H143.809C143.738 114.259 143.681 114.317 143.681 114.387V114.79C143.681 114.861 143.738 114.918 143.809 114.918Z" fill="#3F3D56"/>
<path d="M141.613 114.918H142.455C142.526 114.918 142.583 114.861 142.583 114.79V114.387C142.583 114.317 142.526 114.259 142.455 114.259H141.613C141.542 114.259 141.485 114.317 141.485 114.387V114.79C141.485 114.861 141.542 114.918 141.613 114.918Z" fill="#3F3D56"/>
<path d="M139.417 114.918H140.259C140.33 114.918 140.387 114.861 140.387 114.79V114.387C140.387 114.317 140.33 114.259 140.259 114.259H139.417C139.347 114.259 139.289 114.317 139.289 114.387V114.79C139.289 114.861 139.347 114.918 139.417 114.918Z" fill="#3F3D56"/>
<path d="M137.221 114.918H138.063C138.134 114.918 138.191 114.861 138.191 114.79V114.387C138.191 114.317 138.134 114.259 138.063 114.259H137.221C137.151 114.259 137.094 114.317 137.094 114.387V114.79C137.094 114.861 137.151 114.918 137.221 114.918Z" fill="#3F3D56"/>
<path d="M135.026 114.918H135.868C135.938 114.918 135.996 114.861 135.996 114.79V114.387C135.996 114.317 135.938 114.259 135.868 114.259H135.026C134.955 114.259 134.898 114.317 134.898 114.387V114.79C134.898 114.861 134.955 114.918 135.026 114.918Z" fill="#3F3D56"/>
<path d="M132.83 114.918H133.672C133.743 114.918 133.8 114.861 133.8 114.79V114.387C133.8 114.317 133.743 114.259 133.672 114.259H132.83C132.759 114.259 132.702 114.317 132.702 114.387V114.79C132.702 114.861 132.759 114.918 132.83 114.918Z" fill="#3F3D56"/>
<path d="M130.634 114.918H131.476C131.547 114.918 131.604 114.861 131.604 114.79V114.387C131.604 114.317 131.547 114.259 131.476 114.259H130.634C130.563 114.259 130.506 114.317 130.506 114.387V114.79C130.506 114.861 130.563 114.918 130.634 114.918Z" fill="#3F3D56"/>
<path d="M145.346 116.236H153.873C153.944 116.236 154.001 116.178 154.001 116.108V115.705C154.001 115.634 153.944 115.577 153.873 115.577H145.346C145.275 115.577 145.218 115.634 145.218 115.705V116.108C145.218 116.178 145.275 116.236 145.346 116.236Z" fill="#3F3D56"/>
<path d="M136.312 94.032H135.566C135.34 94.032 135.157 94.2152 135.157 94.4412C135.157 94.6672 135.34 94.8504 135.566 94.8504H136.312C136.538 94.8504 136.721 94.6672 136.721 94.4412C136.721 94.2152 136.538 94.032 136.312 94.032Z" fill="white"/>
<path d="M144.836 94.032H144.091C143.865 94.032 143.682 94.2152 143.682 94.4412C143.682 94.6672 143.865 94.8504 144.091 94.8504H144.836C145.062 94.8504 145.246 94.6672 145.246 94.4412C145.246 94.2152 145.062 94.032 144.836 94.032Z" fill="white"/>
<path d="M147.252 94.032H146.507C146.281 94.032 146.097 94.2152 146.097 94.4412C146.097 94.6672 146.281 94.8504 146.507 94.8504H147.252C147.478 94.8504 147.661 94.6672 147.661 94.4412C147.661 94.2152 147.478 94.032 147.252 94.032Z" fill="white"/>
<path d="M142.518 93.9639H137.885C137.659 93.9639 137.476 94.1471 137.476 94.3731C137.476 94.599 137.659 94.7822 137.885 94.7822H142.518C142.744 94.7822 142.927 94.599 142.927 94.3731C142.927 94.1471 142.744 93.9639 142.518 93.9639Z" fill="white"/>
<path d="M153.884 93.9639H149.251C149.025 93.9639 148.842 94.1471 148.842 94.3731C148.842 94.599 149.025 94.7822 149.251 94.7822H153.884C154.11 94.7822 154.293 94.599 154.293 94.3731C154.293 94.1471 154.11 93.9639 153.884 93.9639Z" fill="white"/>
<path d="M138.585 95.8792H137.84C137.614 95.8792 137.43 96.0624 137.43 96.2883C137.43 96.5143 137.614 96.6975 137.84 96.6975H138.585C138.811 96.6975 138.994 96.5143 138.994 96.2883C138.994 96.0624 138.811 95.8792 138.585 95.8792Z" fill="white"/>
<path d="M147.11 95.8792H146.365C146.139 95.8792 145.955 96.0624 145.955 96.2883C145.955 96.5143 146.139 96.6975 146.365 96.6975H147.11C147.336 96.6975 147.519 96.5143 147.519 96.2883C147.519 96.0624 147.336 95.8792 147.11 95.8792Z" fill="white"/>
<path d="M149.525 95.8792H148.78C148.554 95.8792 148.371 96.0624 148.371 96.2883C148.371 96.5143 148.554 96.6975 148.78 96.6975H149.525C149.751 96.6975 149.934 96.5143 149.934 96.2883C149.934 96.0624 149.751 95.8792 149.525 95.8792Z" fill="white"/>
<path d="M144.791 95.8108H140.158C139.932 95.8108 139.749 95.994 139.749 96.22C139.749 96.446 139.932 96.6292 140.158 96.6292H144.791C145.017 96.6292 145.2 96.446 145.2 96.22C145.2 95.994 145.017 95.8108 144.791 95.8108Z" fill="white"/>
<path d="M156.158 95.8108H151.525C151.299 95.8108 151.116 95.994 151.116 96.22C151.116 96.446 151.299 96.6292 151.525 96.6292H156.158C156.384 96.6292 156.567 96.446 156.567 96.22C156.567 95.994 156.384 95.8108 156.158 95.8108Z" fill="white"/>
<path d="M140.858 97.7261H140.113C139.887 97.7261 139.704 97.9093 139.704 98.1353C139.704 98.3613 139.887 98.5445 140.113 98.5445H140.858C141.084 98.5445 141.267 98.3613 141.267 98.1353C141.267 97.9093 141.084 97.7261 140.858 97.7261Z" fill="white"/>
<path d="M149.383 97.7261H148.638C148.412 97.7261 148.229 97.9093 148.229 98.1353C148.229 98.3613 148.412 98.5445 148.638 98.5445H149.383C149.609 98.5445 149.792 98.3613 149.792 98.1353C149.792 97.9093 149.609 97.7261 149.383 97.7261Z" fill="white"/>
<path d="M151.799 97.7261H151.053C150.827 97.7261 150.644 97.9093 150.644 98.1353C150.644 98.3613 150.827 98.5445 151.053 98.5445H151.799C152.025 98.5445 152.208 98.3613 152.208 98.1353C152.208 97.9093 152.025 97.7261 151.799 97.7261Z" fill="white"/>
<path d="M147.064 97.658H142.432C142.206 97.658 142.022 97.8412 142.022 98.0672C142.022 98.2931 142.206 98.4763 142.432 98.4763H147.064C147.29 98.4763 147.474 98.2931 147.474 98.0672C147.474 97.8412 147.29 97.658 147.064 97.658Z" fill="white"/>
<path d="M158.431 97.658H153.798C153.572 97.658 153.389 97.8412 153.389 98.0672C153.389 98.2931 153.572 98.4763 153.798 98.4763H158.431C158.657 98.4763 158.84 98.2931 158.84 98.0672C158.84 97.8412 158.657 97.658 158.431 97.658Z" fill="white"/>
<path d="M143.132 99.5732H142.386C142.16 99.5732 141.977 99.7564 141.977 99.9824C141.977 100.208 142.16 100.392 142.386 100.392H143.132C143.358 100.392 143.541 100.208 143.541 99.9824C143.541 99.7564 143.358 99.5732 143.132 99.5732Z" fill="white"/>
<path d="M151.657 99.5732H150.911C150.685 99.5732 150.502 99.7564 150.502 99.9824C150.502 100.208 150.685 100.392 150.911 100.392H151.657C151.883 100.392 152.066 100.208 152.066 99.9824C152.066 99.7564 151.883 99.5732 151.657 99.5732Z" fill="white"/>
<path d="M154.072 99.5732H153.326C153.1 99.5732 152.917 99.7564 152.917 99.9824C152.917 100.208 153.1 100.392 153.326 100.392H154.072C154.298 100.392 154.481 100.208 154.481 99.9824C154.481 99.7564 154.298 99.5732 154.072 99.5732Z" fill="white"/>
<path d="M149.338 99.5051H144.705C144.479 99.5051 144.296 99.6883 144.296 99.9143C144.296 100.14 144.479 100.324 144.705 100.324H149.338C149.564 100.324 149.747 100.14 149.747 99.9143C149.747 99.6883 149.564 99.5051 149.338 99.5051Z" fill="white"/>
<path d="M144.836 106.918H144.091C143.865 106.918 143.682 107.101 143.682 107.327C143.682 107.553 143.865 107.736 144.091 107.736H144.836C145.062 107.736 145.246 107.553 145.246 107.327C145.246 107.101 145.062 106.918 144.836 106.918Z" fill="white"/>
<path d="M147.252 106.918H146.507C146.281 106.918 146.097 107.101 146.097 107.327C146.097 107.553 146.281 107.736 146.507 107.736H147.252C147.478 107.736 147.661 107.553 147.661 107.327C147.661 107.101 147.478 106.918 147.252 106.918Z" fill="white"/>
<path d="M153.884 106.986H149.251C149.025 106.986 148.842 107.169 148.842 107.395C148.842 107.621 149.025 107.804 149.251 107.804H153.884C154.11 107.804 154.293 107.621 154.293 107.395C154.293 107.169 154.11 106.986 153.884 106.986Z" fill="white"/>
<path d="M136.312 106.918H135.566C135.34 106.918 135.157 107.101 135.157 107.327C135.157 107.553 135.34 107.736 135.566 107.736H136.312C136.538 107.736 136.721 107.553 136.721 107.327C136.721 107.101 136.538 106.918 136.312 106.918Z" fill="white"/>
<path d="M142.518 106.986H137.885C137.659 106.986 137.476 107.169 137.476 107.395C137.476 107.621 137.659 107.804 137.885 107.804H142.518C142.744 107.804 142.927 107.621 142.927 107.395C142.927 107.169 142.744 106.986 142.518 106.986Z" fill="white"/>
<path d="M138.585 105.071H137.84C137.614 105.071 137.43 105.254 137.43 105.48C137.43 105.706 137.614 105.889 137.84 105.889H138.585C138.811 105.889 138.994 105.706 138.994 105.48C138.994 105.254 138.811 105.071 138.585 105.071Z" fill="white"/>
<path d="M147.11 105.071H146.365C146.139 105.071 145.955 105.254 145.955 105.48C145.955 105.706 146.139 105.889 146.365 105.889H147.11C147.336 105.889 147.519 105.706 147.519 105.48C147.519 105.254 147.336 105.071 147.11 105.071Z" fill="white"/>
<path d="M149.525 105.071H148.78C148.554 105.071 148.371 105.254 148.371 105.48C148.371 105.706 148.554 105.889 148.78 105.889H149.525C149.751 105.889 149.934 105.706 149.934 105.48C149.934 105.254 149.751 105.071 149.525 105.071Z" fill="white"/>
<path d="M144.791 105.139H140.158C139.932 105.139 139.749 105.322 139.749 105.548C139.749 105.774 139.932 105.958 140.158 105.958H144.791C145.017 105.958 145.2 105.774 145.2 105.548C145.2 105.322 145.017 105.139 144.791 105.139Z" fill="white"/>
<path d="M140.858 103.224H140.113C139.887 103.224 139.704 103.407 139.704 103.633C139.704 103.859 139.887 104.042 140.113 104.042H140.858C141.084 104.042 141.267 103.859 141.267 103.633C141.267 103.407 141.084 103.224 140.858 103.224Z" fill="white"/>
<path d="M149.383 103.224H148.638C148.412 103.224 148.229 103.407 148.229 103.633C148.229 103.859 148.412 104.042 148.638 104.042H149.383C149.609 104.042 149.792 103.859 149.792 103.633C149.792 103.407 149.609 103.224 149.383 103.224Z" fill="white"/>
<path d="M151.799 103.224H151.053C150.827 103.224 150.644 103.407 150.644 103.633C150.644 103.859 150.827 104.042 151.053 104.042H151.799C152.025 104.042 152.208 103.859 152.208 103.633C152.208 103.407 152.025 103.224 151.799 103.224Z" fill="white"/>
<path d="M147.064 103.292H142.432C142.206 103.292 142.022 103.475 142.022 103.701C142.022 103.927 142.206 104.11 142.432 104.11H147.064C147.29 104.11 147.474 103.927 147.474 103.701C147.474 103.475 147.29 103.292 147.064 103.292Z" fill="white"/>
<path d="M143.132 101.377H142.386C142.16 101.377 141.977 101.56 141.977 101.786C141.977 102.012 142.16 102.195 142.386 102.195H143.132C143.358 102.195 143.541 102.012 143.541 101.786C143.541 101.56 143.358 101.377 143.132 101.377Z" fill="white"/>
<path d="M151.657 101.377H150.911C150.685 101.377 150.502 101.56 150.502 101.786C150.502 102.012 150.685 102.195 150.911 102.195H151.657C151.883 102.195 152.066 102.012 152.066 101.786C152.066 101.56 151.883 101.377 151.657 101.377Z" fill="white"/>
<path d="M154.072 101.377H153.326C153.1 101.377 152.917 101.56 152.917 101.786C152.917 102.012 153.1 102.195 153.326 102.195H154.072C154.298 102.195 154.481 102.012 154.481 101.786C154.481 101.56 154.298 101.377 154.072 101.377Z" fill="white"/>
<path d="M149.338 101.445H144.705C144.479 101.445 144.296 101.628 144.296 101.854C144.296 102.08 144.479 102.263 144.705 102.263H149.338C149.564 102.263 149.747 102.08 149.747 101.854C149.747 101.628 149.564 101.445 149.338 101.445Z" fill="white"/>
<path d="M132.349 128.565L128.85 123.034L139.833 114.278L144.366 109.256C144.955 108.603 145.705 108.117 146.541 107.845C147.377 107.573 148.27 107.525 149.13 107.706C149.99 107.887 150.788 108.291 151.443 108.877C152.098 109.463 152.588 110.211 152.864 111.045C153.272 112.282 153.185 113.629 152.619 114.803C152.053 115.976 151.053 116.884 149.831 117.334L142.662 119.975L132.349 128.565Z" fill="#FFB6B6"/>
<path d="M50.2456 88.4604V115.343H69.0789V88.4604C69.0792 88.2671 69.0175 88.0787 68.9029 87.923C68.7882 87.7674 68.6267 87.6525 68.4419 87.5955C68.3549 87.5667 68.2636 87.5525 68.172 87.5535H51.1552C51.0359 87.5533 50.9177 87.5766 50.8074 87.622C50.6971 87.6675 50.5969 87.7342 50.5124 87.8185C50.4279 87.9027 50.3609 88.0027 50.3151 88.1129C50.2693 88.2231 50.2457 88.3412 50.2456 88.4604ZM57.5954 97.6975C57.6004 97.1676 57.8143 96.661 58.1908 96.2879C58.5673 95.9149 59.0759 95.7056 59.6059 95.7056C60.1359 95.7056 60.6444 95.9149 61.0209 96.2879C61.3974 96.661 61.6114 97.1676 61.6163 97.6975V100.817C61.6136 101.348 61.4006 101.857 61.0239 102.232C60.6471 102.607 60.1373 102.817 59.6059 102.817C59.0745 102.817 58.5646 102.607 58.1879 102.232C57.8112 101.857 57.5982 101.348 57.5954 100.817V97.6975Z" fill="#2F2E41"/>
<path d="M50.188 114.484V117.076C50.1884 117.21 50.2418 117.339 50.3365 117.434C50.4312 117.529 50.5596 117.583 50.6939 117.585H68.6307C68.7651 117.584 68.8938 117.53 68.9886 117.435C69.0834 117.339 69.1366 117.21 69.1366 117.076V114.484H50.188Z" fill="#3F3D56"/>
<path d="M20.6184 47.9575V97.042C20.6189 97.6675 20.8676 98.2673 21.3099 98.7096C21.7522 99.1519 22.352 99.4006 22.9775 99.4011H95.7157C96.3412 99.4006 96.941 99.1519 97.3833 98.7096C97.8256 98.2673 98.0743 97.6675 98.0748 97.042V47.9575C98.0733 47.3326 97.8242 46.7337 97.382 46.292C96.9398 45.8503 96.3407 45.6019 95.7157 45.6011H22.9775C22.3525 45.6019 21.7533 45.8503 21.3112 46.292C20.869 46.7337 20.6199 47.3326 20.6184 47.9575Z" fill="#3F3D56"/>
<path d="M22.3247 48.5684V96.4366C22.3253 96.7708 22.4583 97.0912 22.6946 97.3275C22.9309 97.5638 23.2513 97.6969 23.5855 97.6974H95.1101C95.4443 97.6969 95.7646 97.5638 96.001 97.3275C96.2373 97.0912 96.3703 96.7708 96.3709 96.4366V48.5684C96.3708 48.2337 96.2381 47.9128 96.0017 47.6759C95.7654 47.4391 95.4447 47.3057 95.1101 47.3049H23.5855C23.2509 47.3057 22.9302 47.4391 22.6939 47.6759C22.4575 47.9128 22.3247 48.2337 22.3247 48.5684Z" fill="white"/>
<path d="M35.5984 117.409C35.6712 117.5 35.7638 117.574 35.8691 117.624C35.9744 117.674 36.0898 117.7 36.2065 117.7H78.759C78.8754 117.7 78.9903 117.674 79.0953 117.623C79.2003 117.573 79.2929 117.5 79.3662 117.41C79.4395 117.32 79.4917 117.214 79.5191 117.101C79.5465 116.988 79.5483 116.87 79.5244 116.756L78.8639 113.619C78.8365 113.491 78.7776 113.372 78.6924 113.272C78.6073 113.173 78.4986 113.096 78.3763 113.05C78.2878 113.015 78.1936 112.997 78.0985 112.997H36.8645C36.7694 112.997 36.6751 113.015 36.5866 113.05C36.4643 113.096 36.3557 113.173 36.2705 113.272C36.1854 113.371 36.1264 113.491 36.0991 113.619L35.4385 116.756C35.415 116.87 35.4172 116.988 35.4448 117.1C35.4725 117.213 35.525 117.319 35.5984 117.409Z" fill="#2F2E41"/>
<path d="M92.7889 53.899H25.8636C25.794 53.8974 25.7278 53.8687 25.6792 53.819C25.6305 53.7692 25.6033 53.7024 25.6033 53.6328C25.6033 53.5633 25.6305 53.4965 25.6792 53.4467C25.7278 53.397 25.794 53.3682 25.8636 53.3667H92.7889C92.8584 53.3682 92.9246 53.397 92.9733 53.4467C93.0219 53.4965 93.0492 53.5633 93.0492 53.6328C93.0492 53.7024 93.0219 53.7692 92.9733 53.819C92.9246 53.8687 92.8584 53.8974 92.7889 53.899Z" fill="#3F3D56"/>
<path d="M30.4193 52.0078C31.2808 52.0078 31.9791 51.2939 31.9791 50.4133C31.9791 49.5327 31.2808 48.8188 30.4193 48.8188C29.5579 48.8188 28.8596 49.5327 28.8596 50.4133C28.8596 51.2939 29.5579 52.0078 30.4193 52.0078Z" fill="#3F3D56"/>
<path d="M35.8075 52.0078C36.6689 52.0078 37.3672 51.2939 37.3672 50.4133C37.3672 49.5327 36.6689 48.8188 35.8075 48.8188C34.9461 48.8188 34.2478 49.5327 34.2478 50.4133C34.2478 51.2939 34.9461 52.0078 35.8075 52.0078Z" fill="#3F3D56"/>
<path d="M41.1957 52.0078C42.0571 52.0078 42.7554 51.2939 42.7554 50.4133C42.7554 49.5327 42.0571 48.8188 41.1957 48.8188C40.3343 48.8188 39.636 49.5327 39.636 50.4133C39.636 51.2939 40.3343 52.0078 41.1957 52.0078Z" fill="#3F3D56"/>
<path d="M89.5442 49.2131H85.7173C85.6417 49.2149 85.5697 49.2462 85.5168 49.3003C85.4639 49.3544 85.4343 49.4271 85.4343 49.5028C85.4343 49.5785 85.4639 49.6511 85.5168 49.7053C85.5697 49.7594 85.6417 49.7907 85.7173 49.7924H89.5442C89.6204 49.7914 89.693 49.7604 89.7464 49.7062C89.7999 49.652 89.8298 49.5789 89.8298 49.5028C89.8298 49.4267 89.7999 49.3536 89.7464 49.2994C89.693 49.2452 89.6204 49.2142 89.5442 49.2131Z" fill="#3F3D56"/>
<path d="M89.5443 50.301H85.7174C85.6417 50.3027 85.5696 50.334 85.5167 50.3881C85.4637 50.4422 85.4341 50.5149 85.4341 50.5907C85.4341 50.6664 85.4637 50.7391 85.5167 50.7933C85.5696 50.8474 85.6417 50.8786 85.7174 50.8803H89.5443C89.6206 50.8794 89.6933 50.8485 89.7469 50.7943C89.8005 50.74 89.8305 50.6669 89.8305 50.5907C89.8305 50.5145 89.8005 50.4413 89.7469 50.3871C89.6933 50.3329 89.6206 50.3019 89.5443 50.301Z" fill="#3F3D56"/>
<path d="M89.5442 51.3887H85.7173C85.6417 51.3904 85.5697 51.4217 85.5168 51.4759C85.4639 51.53 85.4343 51.6026 85.4343 51.6783C85.4343 51.754 85.4639 51.8267 85.5168 51.8808C85.5697 51.9349 85.6417 51.9662 85.7173 51.968H89.5442C89.6204 51.9669 89.693 51.9359 89.7464 51.8817C89.7999 51.8275 89.8298 51.7544 89.8298 51.6783C89.8298 51.6022 89.7999 51.5291 89.7464 51.4749C89.693 51.4207 89.6204 51.3897 89.5442 51.3887Z" fill="#3F3D56"/>
<path d="M181.805 115.621C181.921 115.958 182.14 116.249 182.431 116.453C182.722 116.656 183.07 116.763 183.426 116.757L190.37 116.578C190.728 116.571 191.074 116.448 191.357 116.228C191.639 116.008 191.843 115.703 191.938 115.357L192.92 104.849C193.269 105.007 193.648 105.085 194.031 105.078C194.364 105.069 194.691 104.996 194.995 104.861C195.299 104.726 195.573 104.532 195.803 104.291C196.032 104.05 196.211 103.767 196.331 103.456C196.45 103.146 196.508 102.815 196.499 102.483C196.491 102.15 196.417 101.823 196.282 101.519C196.147 101.215 195.954 100.94 195.713 100.711C195.472 100.482 195.188 100.302 194.878 100.183C194.567 100.063 194.236 100.006 193.904 100.014C193.751 100.014 193.598 100.03 193.449 100.062C193.286 99.8858 193.089 99.7459 192.868 99.6509C192.648 99.556 192.411 99.5082 192.171 99.5106L181.49 99.7864C181.401 99.7897 181.313 99.8006 181.226 99.8191C180.992 99.8628 180.77 99.9561 180.575 100.093C180.38 100.23 180.216 100.407 180.095 100.612C179.974 100.817 179.898 101.046 179.873 101.283C179.848 101.52 179.874 101.759 179.949 101.985L181.805 115.621ZM193.122 104.136L193.821 101.632C193.901 101.343 193.902 101.038 193.826 100.748C193.86 100.747 193.89 100.731 193.924 100.731C194.404 100.721 194.867 100.902 195.214 101.234C195.56 101.565 195.761 102.02 195.772 102.5C195.784 102.979 195.604 103.444 195.274 103.791C194.943 104.138 194.488 104.34 194.009 104.353C193.699 104.363 193.392 104.288 193.122 104.136Z" fill="#2F2E41"/>
<path d="M181.226 99.8192C181.454 101.12 184.012 102.035 187.089 101.876C189.918 101.746 192.231 100.752 192.655 99.5751C192.498 99.5287 192.335 99.507 192.171 99.5107L181.49 99.7865C181.401 99.7897 181.313 99.8007 181.226 99.8192Z" fill="#3F3D56"/>
<path d="M187.653 109.847C187.667 109.844 187.68 109.838 187.692 109.83L189.2 108.843C189.219 108.831 189.233 108.815 189.244 108.796C189.254 108.776 189.26 108.755 189.26 108.733C189.26 108.711 189.254 108.69 189.244 108.671C189.234 108.652 189.219 108.635 189.2 108.624L187.633 107.597C187.619 107.587 187.602 107.581 187.586 107.578C187.569 107.574 187.551 107.574 187.534 107.578C187.517 107.581 187.501 107.588 187.487 107.598C187.473 107.608 187.461 107.62 187.451 107.634C187.442 107.649 187.435 107.665 187.432 107.682C187.429 107.699 187.429 107.716 187.432 107.733C187.436 107.75 187.443 107.766 187.453 107.78C187.462 107.794 187.475 107.807 187.489 107.816L188.889 108.733L187.549 109.611C187.523 109.628 187.504 109.653 187.495 109.683C187.486 109.713 187.488 109.744 187.501 109.773C187.513 109.801 187.535 109.824 187.563 109.838C187.591 109.852 187.623 109.855 187.653 109.847H187.653Z" fill="#A4123F"/>
<path d="M185.271 109.957C185.296 109.951 185.319 109.937 185.336 109.917C185.354 109.898 185.365 109.874 185.369 109.848C185.372 109.822 185.368 109.796 185.356 109.772C185.345 109.749 185.327 109.729 185.304 109.716L183.914 108.919L185.257 107.921C185.271 107.911 185.283 107.898 185.292 107.883C185.3 107.869 185.306 107.852 185.309 107.835C185.311 107.818 185.31 107.801 185.306 107.784C185.302 107.768 185.295 107.752 185.284 107.738C185.274 107.724 185.261 107.713 185.246 107.704C185.232 107.695 185.215 107.689 185.198 107.687C185.181 107.684 185.164 107.685 185.147 107.689C185.131 107.693 185.115 107.701 185.101 107.711L183.597 108.828C183.579 108.841 183.565 108.859 183.556 108.878C183.547 108.898 183.543 108.92 183.544 108.941C183.545 108.963 183.552 108.984 183.564 109.003C183.575 109.021 183.591 109.036 183.61 109.047L185.173 109.944C185.203 109.961 185.238 109.965 185.271 109.957Z" fill="#A4123F"/>
<path d="M187.503 110.712C187.515 110.709 187.527 110.704 187.538 110.697C187.553 110.688 187.566 110.676 187.576 110.663C187.586 110.649 187.594 110.633 187.598 110.616C187.602 110.599 187.603 110.582 187.6 110.565C187.597 110.548 187.591 110.532 187.582 110.517L185.445 107.002C185.427 106.973 185.397 106.952 185.364 106.943C185.33 106.935 185.294 106.941 185.265 106.959C185.235 106.977 185.214 107.006 185.205 107.04C185.197 107.074 185.203 107.109 185.221 107.139L187.358 110.653C187.373 110.677 187.395 110.696 187.421 110.707C187.447 110.717 187.475 110.719 187.503 110.712Z" fill="#A4123F"/>
<path d="M67.3227 68.3679H55.7394C55.2669 68.3679 54.8838 68.751 54.8838 69.2235V70.3552C54.8838 70.8277 55.2669 71.2108 55.7394 71.2108H67.3227C67.7952 71.2108 68.1783 70.8277 68.1783 70.3552V69.2235C68.1783 68.751 67.7952 68.3679 67.3227 68.3679Z" fill="#A4123F"/>
<path d="M74.0746 74.0537H48.9877C48.5151 74.0537 48.1321 74.4368 48.1321 74.9093V76.041C48.1321 76.5135 48.5151 76.8966 48.9877 76.8966H74.0746C74.5471 76.8966 74.9302 76.5135 74.9302 76.041V74.9093C74.9302 74.4368 74.5471 74.0537 74.0746 74.0537Z" fill="#E6E6E6"/>
<path d="M74.0746 79.7395H48.9877C48.5151 79.7395 48.1321 80.1226 48.1321 80.5951V81.7268C48.1321 82.1993 48.5151 82.5824 48.9877 82.5824H74.0746C74.5471 82.5824 74.9302 82.1993 74.9302 81.7268V80.5951C74.9302 80.1226 74.5471 79.7395 74.0746 79.7395Z" fill="#E6E6E6"/>
<path d="M76.2012 98.7787L76.258 98.9581L76.261 98.9641L77.9713 104.164L79.9389 110.156L83.6407 121.417L83.6766 123.167V123.173L83.9517 137.244L83.1892 139.152L84.0474 142.28C84.0474 142.28 83.6527 137.552 81.5356 140.267C80.3366 141.81 78.9342 143.389 77.783 144.869C79.4605 145.548 81.1649 146.162 82.8962 146.711C83.27 146.83 83.6467 146.944 84.0235 147.058C84.1042 147.082 84.1849 147.106 84.2657 147.129C90.0047 148.827 95.9378 149.78 101.92 149.967C102.231 149.976 102.536 149.982 102.832 149.988C102.936 149.991 103.038 149.994 103.14 149.994C103.475 149.997 103.806 150 104.141 150C104.817 150 105.49 149.99 106.16 149.97C111.117 149.83 116.046 149.164 120.862 147.982C120.83 145.993 120.74 143.67 120.611 141.188C120.551 139.971 119.209 138.652 119.128 137.379C119.071 136.422 120.276 135.522 120.214 134.55C119.807 128.566 119.299 130.863 118.922 126.626C118.883 126.211 118.847 125.813 118.814 125.433C118.572 122.712 118.405 121.011 118.405 121.011L120.013 110.871L122.54 94.9513L122.346 94.6314L122.127 94.5237L108.8 87.9274L108.076 86.0735C107.866 85.5394 107.5 85.0806 107.026 84.756C106.552 84.4315 105.992 84.2561 105.418 84.2525L96.639 84.2166C96.1834 84.2145 95.7339 84.3211 95.3277 84.5276C94.9216 84.7341 94.5705 85.0344 94.3037 85.4037L91.9265 88.6959L76.2012 98.7787Z" fill="#FFD101"/>
<path d="M85.6649 118.911L83.6765 123.167L82.3189 126.073L79.9836 138.3L78.8144 139.541L77.8127 135.148L67.3285 137.476C66.9847 135.565 67.2365 137.54 67.0242 135.444C67.084 135.384 67.1468 135.325 67.2096 135.265C67.377 135.109 67.5176 134.963 67.5146 134.822C67.395 127.592 67.7538 115.287 70.7499 107.833C71.2192 106.616 71.8379 105.462 72.5919 104.397C72.6517 104.316 72.7085 104.236 72.7653 104.155C74.1468 102.22 75.0199 100.316 76.2578 98.961V98.958C76.2655 98.9518 76.2726 98.9448 76.2788 98.9371C76.2833 98.9349 76.2873 98.9318 76.2907 98.9281L84.7948 94.4189L85.1596 104.669L85.4197 112.037L85.6649 118.911Z" fill="#FFD101"/>
<path d="M116.329 120.12L118.813 125.434L119.68 127.285L122.015 139.511L123.18 140.749L124.184 136.357L124.656 136.26L133.164 134.498L135.643 142.374C136.202 141.443 136.423 140.347 136.267 139.272C136.111 138.197 135.589 137.209 134.789 136.475C134.619 136.321 134.478 136.172 134.482 136.031C134.623 127.527 134.103 111.999 129.406 105.608C127.914 103.58 127.019 101.56 125.716 100.148C125.712 100.144 125.712 100.14 125.708 100.14L122.539 94.9509L122.345 94.6323L122.127 94.5234L116.329 120.12Z" fill="#FFD101"/>
<path d="M101.282 84.7181C107.733 84.7181 112.962 79.4889 112.962 73.0385C112.962 66.588 107.733 61.3589 101.282 61.3589C94.8317 61.3589 89.6025 66.588 89.6025 73.0385C89.6025 79.4889 94.8317 84.7181 101.282 84.7181Z" fill="#FFB6B6"/>
<path d="M117.069 64.8803C116.978 64.7835 116.869 64.7061 116.748 64.6525C116.627 64.5989 116.496 64.5703 116.363 64.5683L116.539 64.0808C116.596 63.9272 116.612 63.7612 116.584 63.5997C116.556 63.4382 116.486 63.287 116.38 63.1616C116.274 63.0363 116.137 62.9412 115.983 62.8863C115.828 62.8313 115.662 62.8184 115.501 62.8488L114.862 62.972L114.922 62.5448C114.945 62.3856 114.926 62.2232 114.868 62.0735C114.809 61.9238 114.712 61.792 114.587 61.6909C114.462 61.5899 114.313 61.5232 114.154 61.4973C113.995 61.4715 113.833 61.4874 113.682 61.5435C113.545 61.5974 113.397 61.62 113.251 61.6096C113.104 61.5992 112.961 61.556 112.833 61.4832C112.704 61.4126 112.592 61.3149 112.506 61.1967C112.419 61.0785 112.359 60.9428 112.329 60.799L112.107 59.7244L112.083 59.6667C110.998 57.8581 108.911 56.5422 106.358 56.0599C104.086 55.6274 101.756 55.8476 99.5092 56.0547C98.618 56.1386 97.6114 56.2329 96.7727 56.7467C96.0597 57.187 95.4568 58.0678 95.58 58.9563C93.3651 58.2775 90.9903 59.6326 89.8134 61.3416C88.4189 63.3757 88.1909 65.9235 88.1542 67.9156C88.0546 72.6285 89.027 76.4843 91.0375 79.3781C91.1843 79.5878 91.221 80.0255 91.5119 80.1723L91.4516 80.0753C91.7767 80.2378 92.1069 80.5 91.9837 80.7804C91.6299 81.5878 93.9811 83.3728 95.6377 83.9626C98.6599 85.0399 102.678 84.9481 105.504 84.5602L105.603 83.8918C106.623 83.7529 107.341 83.4881 107.543 83.074C107.9 82.7699 108.204 82.4973 108.468 82.2457L108.471 82.2431C108.476 82.2378 108.487 82.23 108.492 82.2247C109.769 81.0006 110.065 80.3034 110.198 79.2418C110.327 78.2012 110.099 77.1448 109.866 76.1934C114.778 76.9535 107.931 70.9614 112.508 69.8029C112.56 69.7867 112.614 69.7736 112.668 69.7636C112.801 69.7321 112.935 69.7006 113.063 69.6639C113.683 69.4959 114.275 69.2427 114.825 68.9117C116.104 68.1332 116.526 67.1004 117.187 65.9366C117.282 65.7709 117.322 65.5791 117.301 65.3891C117.279 65.1991 117.198 65.0209 117.069 64.8803Z" fill="#2F2E41"/>
<path d="M142.591 120.952C142.589 121.41 142.583 122.053 142.562 122.847C142.56 122.957 142.557 123.07 142.554 123.185C142.52 124.645 142.486 125.869 142.431 127.229C142.429 127.324 142.426 127.416 142.421 127.51C142.347 129.408 142.232 131.617 142.033 135.117C141.663 141.58 141.018 136.005 140.371 138.273C140.34 138.385 140.305 138.519 140.274 138.676C140.176 139.247 140.011 139.804 139.781 140.335C139.438 140.54 139.084 140.736 138.735 140.933C137.742 141.486 136.733 142.018 135.716 142.524C135.144 142.807 134.57 143.085 133.994 143.352C133.902 143.394 133.813 143.436 133.724 143.476C130.771 144.841 127.727 146.003 124.615 146.951C124.007 147.135 123.401 147.313 122.788 147.478C122.148 147.656 121.509 147.824 120.861 147.981C116.045 149.164 111.117 149.831 106.159 149.971C105.491 149.992 104.817 150 104.141 150C103.805 150 103.475 149.997 103.14 149.995C103.037 149.995 102.935 149.992 102.833 149.989C102.537 149.981 102.23 149.976 101.921 149.968C95.9388 149.782 90.0057 148.828 84.2669 147.13L84.0231 147.059C83.6457 146.943 83.2708 146.831 82.896 146.71C81.166 146.162 79.4614 145.549 77.7821 144.87C76.5003 144.354 75.2334 143.8 73.9813 143.208C73.9699 143.205 73.9592 143.2 73.9499 143.192C73.6877 143.072 73.423 142.946 73.1609 142.818C73.1268 142.799 73.0901 142.781 73.0534 142.763C72.0757 142.286 71.1085 141.786 70.1518 141.263C69.347 139.415 68.2147 139.061 67.5122 137.436C67.3078 136.954 67.16 136.449 67.0718 135.932C67.0718 135.927 67.0692 135.921 67.0692 135.913C67.1426 136.889 66.7573 134.183 67.0666 135.903C67.064 135.871 67.0614 135.837 67.0587 135.798C67.0509 135.704 67.0404 135.588 67.0247 135.444C66.1256 126.666 66.1833 116.627 65.7927 108.354C65.7665 107.819 65.7394 107.307 65.7115 106.818C65.7036 106.656 65.6931 106.496 65.6826 106.338C65.701 106.291 65.7219 106.241 65.7455 106.194C65.7505 106.181 65.7567 106.168 65.7639 106.155C65.7716 106.139 65.7804 106.123 65.7901 106.108C65.7953 106.1 65.8032 106.089 65.8084 106.082C65.8123 106.073 65.8166 106.064 65.8215 106.055C65.8451 106.019 65.8713 105.979 65.9002 105.943C65.9133 105.927 65.9238 105.914 65.9369 105.901C65.9459 105.887 65.9565 105.875 65.9683 105.864C65.9764 105.851 65.9861 105.84 65.9972 105.83C66.0076 105.819 66.0181 105.806 66.0312 105.793C66.0368 105.785 66.044 105.778 66.0522 105.772C66.0729 105.748 66.0957 105.727 66.1204 105.707C66.2139 105.621 66.3138 105.542 66.4192 105.471C66.4559 105.447 66.4952 105.424 66.5319 105.397C66.796 105.239 67.0742 105.106 67.3628 104.999C67.4624 104.962 67.562 104.928 67.6695 104.892C67.7088 104.881 67.7455 104.868 67.7848 104.855C67.8425 104.837 67.9002 104.818 67.9604 104.805C68.2593 104.716 68.5817 104.64 68.9303 104.569C68.9722 104.561 69.0168 104.553 69.0613 104.543C69.1242 104.53 69.1898 104.519 69.2553 104.509C69.3444 104.493 69.4362 104.477 69.5279 104.462C70.3064 104.338 71.1898 104.247 72.1648 104.186C72.2566 104.181 72.3483 104.176 72.4401 104.171C72.5475 104.166 72.655 104.16 72.7651 104.155C72.8568 104.15 72.9512 104.147 73.0456 104.145C73.1373 104.139 73.2317 104.137 73.3286 104.134C73.5934 104.126 73.866 104.118 74.1438 104.113C74.9354 104.097 75.769 104.103 76.6445 104.121C77.0507 104.131 77.4649 104.142 77.8895 104.16C77.9184 104.16 77.9446 104.163 77.9708 104.163C78.3404 104.176 78.7126 104.192 79.0953 104.213C79.3626 104.226 79.6326 104.239 79.9026 104.255C80.1568 104.27 80.4137 104.286 80.6732 104.304C80.8751 104.315 81.0769 104.331 81.2813 104.344C81.4543 104.357 81.6273 104.37 81.8003 104.38L82.0362 104.396C82.1647 104.407 82.2931 104.415 82.4242 104.428C82.7125 104.451 83.0009 104.475 83.2944 104.498C83.5854 104.525 83.8816 104.551 84.1778 104.577C84.474 104.603 84.7728 104.632 85.0716 104.661C85.103 104.664 85.1319 104.666 85.1607 104.669C85.4333 104.698 85.7059 104.724 85.9812 104.753C86.0441 104.758 86.1096 104.763 86.1725 104.771C86.4349 104.797 86.7024 104.828 86.9672 104.856C87.0485 104.865 87.1294 104.874 87.2109 104.883C87.4183 104.905 87.6228 104.925 87.8317 104.949C88.1069 104.981 88.3874 105.01 88.66 105.046C88.8723 105.07 89.0846 105.093 89.2969 105.12C89.6298 105.159 89.968 105.201 90.3061 105.245C90.4345 105.261 90.563 105.277 90.6914 105.295C91.656 105.416 92.6311 105.549 93.6219 105.688C95.1239 105.901 96.6494 106.131 98.1854 106.38C99.7241 106.629 101.271 106.892 102.828 107.169C103.221 107.24 103.614 107.311 104.01 107.384C104.188 107.418 104.366 107.452 104.544 107.487C104.848 107.542 105.153 107.599 105.457 107.657C105.761 107.715 106.065 107.772 106.369 107.833C106.731 107.903 107.095 107.974 107.457 108.045C109.839 108.517 112.209 109.02 114.521 109.547C114.901 109.633 115.281 109.722 115.658 109.809C116.413 109.985 117.161 110.163 117.902 110.344C118.107 110.391 118.308 110.441 118.51 110.49C119.013 110.616 119.517 110.742 120.012 110.871L120.099 110.894C120.463 110.983 120.819 111.075 121.176 111.169C122.017 111.39 122.845 111.612 123.658 111.838C124.198 111.987 124.732 112.138 125.26 112.291C126.049 112.519 126.822 112.75 127.574 112.983C127.76 113.041 127.946 113.099 128.13 113.154C128.68 113.324 129.223 113.497 129.75 113.67C130.169 113.806 130.578 113.945 130.982 114.084C131.385 114.223 131.781 114.362 132.169 114.501C132.418 114.59 132.665 114.684 132.911 114.773C133.265 114.905 133.614 115.036 133.954 115.167C134.059 115.206 134.161 115.248 134.264 115.287C134.329 115.316 134.392 115.34 134.455 115.366C134.578 115.416 134.704 115.463 134.825 115.513C134.948 115.56 135.068 115.61 135.189 115.662C135.307 115.709 135.427 115.759 135.543 115.809C135.661 115.856 135.776 115.906 135.891 115.958C135.988 115.998 136.083 116.04 136.174 116.081C136.361 116.163 136.547 116.244 136.728 116.328C136.817 116.37 136.906 116.409 136.995 116.451L137.199 116.545C137.228 116.561 137.257 116.574 137.286 116.587C137.351 116.619 137.419 116.653 137.485 116.684C137.637 116.755 137.786 116.831 137.933 116.902C138.13 117.001 138.321 117.101 138.505 117.198C138.691 117.298 138.872 117.397 139.045 117.494C139.073 117.51 139.1 117.526 139.129 117.541C139.168 117.562 139.207 117.586 139.246 117.607C139.38 117.683 139.509 117.762 139.637 117.838C139.889 117.992 140.127 118.144 140.35 118.296C140.4 118.33 140.447 118.364 140.497 118.396C140.662 118.514 140.819 118.629 140.966 118.747C140.966 118.75 140.966 118.75 140.969 118.75C141.018 118.787 141.066 118.826 141.113 118.863C141.152 118.899 141.194 118.931 141.233 118.967C141.37 119.085 141.495 119.198 141.611 119.313C141.649 119.349 141.686 119.387 141.721 119.426C141.736 119.439 141.75 119.453 141.763 119.468C141.815 119.52 141.862 119.573 141.907 119.625C141.914 119.632 141.92 119.64 141.925 119.649C141.988 119.722 142.046 119.796 142.101 119.869C142.127 119.906 142.156 119.942 142.18 119.979C142.211 120.024 142.242 120.071 142.269 120.115C142.292 120.152 142.313 120.191 142.334 120.228C142.39 120.323 142.437 120.422 142.476 120.524C142.505 120.594 142.529 120.666 142.547 120.739C142.566 120.809 142.581 120.88 142.591 120.952Z" fill="#2F2E41"/>
<path opacity="0.2" d="M142.591 120.952C142.588 121.41 142.583 122.052 142.562 122.847C142.56 122.957 142.554 123.069 142.552 123.185C142.526 124.299 142.486 125.675 142.431 127.229C142.429 127.324 142.426 127.415 142.421 127.51C142.347 129.408 142.232 131.617 142.033 135.117C141.663 141.58 141.018 136.005 140.371 138.272C138.573 137.166 136.602 136.008 134.494 134.818C134.114 134.603 133.731 134.387 133.343 134.17C129.129 131.819 124.421 129.355 119.506 126.915C119.312 126.818 119.116 126.721 118.922 126.626C107.664 121.062 95.3755 115.649 85.4202 112.037C83.4988 111.34 81.664 110.711 79.9392 110.157C76.3063 108.996 73.1661 108.184 70.7493 107.832C68.233 107.466 66.4951 107.597 65.7926 108.354C65.7664 107.819 65.7393 107.307 65.7114 106.818C65.7009 106.656 65.6904 106.496 65.6799 106.338C65.6961 106.295 65.7171 106.254 65.7375 106.213C65.7404 106.206 65.7425 106.2 65.7455 106.194C65.7505 106.181 65.7566 106.167 65.7638 106.155C65.7715 106.139 65.7803 106.123 65.79 106.108C65.7985 106.089 65.8091 106.072 65.8215 106.055C65.8451 106.019 65.8713 105.979 65.9001 105.943C65.9213 105.915 65.9441 105.889 65.9683 105.864C65.9763 105.851 65.986 105.84 65.9971 105.83C66.0076 105.819 66.0181 105.806 66.0312 105.793C66.0368 105.785 66.0439 105.778 66.0521 105.772C66.0729 105.748 66.0957 105.726 66.1203 105.707C66.2138 105.621 66.3137 105.542 66.4191 105.471C66.4558 105.447 66.4951 105.424 66.5318 105.397C66.796 105.239 67.0741 105.106 67.3627 104.999C67.4623 104.962 67.5619 104.928 67.6694 104.891C67.7087 104.881 67.7454 104.868 67.7848 104.855C67.8424 104.836 67.9001 104.818 67.9604 104.805C68.2592 104.716 68.5816 104.64 68.9302 104.569C69.0351 104.548 69.1452 104.527 69.2552 104.509C69.3444 104.493 69.4361 104.477 69.5279 104.462C70.3063 104.338 71.1897 104.247 72.1648 104.186C72.2565 104.181 72.3483 104.176 72.44 104.171C72.5475 104.165 72.6549 104.16 72.765 104.155C72.8568 104.15 72.9511 104.147 73.0455 104.144C73.1372 104.139 73.2316 104.137 73.3286 104.134C73.5933 104.126 73.8659 104.118 74.1438 104.113C74.9354 104.1 75.7689 104.105 76.6444 104.123C77.0507 104.131 77.4648 104.144 77.8895 104.163C77.9157 104.163 77.9445 104.165 77.9707 104.165C78.3403 104.176 78.7151 104.194 79.0952 104.213C79.3626 104.226 79.6326 104.239 79.9025 104.255C80.1568 104.27 80.4137 104.286 80.6732 104.304C80.875 104.315 81.0768 104.331 81.2813 104.344C81.4543 104.357 81.6273 104.37 81.8003 104.38C82.0074 104.396 82.2144 104.412 82.4241 104.428C82.7125 104.451 83.0008 104.475 83.2944 104.498C83.5853 104.525 83.8815 104.551 84.1777 104.577C84.4739 104.603 84.7727 104.632 85.0715 104.661C85.103 104.663 85.1318 104.666 85.1607 104.669C85.4333 104.698 85.7059 104.724 85.9811 104.753C87.5066 104.907 89.0767 105.088 90.6914 105.295C91.656 105.418 92.6328 105.55 93.6219 105.691C95.1238 105.903 96.6494 106.134 98.1854 106.38C99.724 106.629 101.271 106.892 102.828 107.169C103.221 107.24 103.614 107.311 104.01 107.384C104.492 107.473 104.974 107.564 105.457 107.657C105.761 107.715 106.065 107.772 106.369 107.832C106.73 107.903 107.095 107.974 107.457 108.045C109.839 108.517 112.209 109.02 114.521 109.547C114.901 109.633 115.281 109.722 115.658 109.809C116.413 109.984 117.161 110.163 117.902 110.344C118.106 110.393 118.308 110.443 118.51 110.493C119.016 110.619 119.517 110.745 120.012 110.87V110.873C120.041 110.878 120.07 110.886 120.099 110.894C120.46 110.986 120.819 111.078 121.176 111.172C122.017 111.392 122.845 111.614 123.658 111.838C124.198 111.99 124.733 112.139 125.26 112.291C126.049 112.522 126.822 112.752 127.574 112.983C127.76 113.041 127.946 113.098 128.13 113.153C128.68 113.326 129.22 113.499 129.75 113.67C130.169 113.806 130.578 113.945 130.982 114.084C131.385 114.223 131.781 114.362 132.169 114.501C132.421 114.59 132.667 114.682 132.911 114.771C133.267 114.902 133.613 115.033 133.954 115.167C134.059 115.206 134.161 115.248 134.264 115.287C134.455 115.361 134.641 115.437 134.824 115.513C134.948 115.56 135.068 115.61 135.189 115.662C135.307 115.709 135.427 115.759 135.543 115.809C135.661 115.856 135.776 115.906 135.891 115.958C135.988 115.998 136.083 116.039 136.174 116.081C136.36 116.163 136.547 116.244 136.727 116.328C136.817 116.37 136.906 116.409 136.995 116.451L137.199 116.545C137.228 116.561 137.257 116.574 137.286 116.587C137.509 116.692 137.723 116.797 137.933 116.902C138.13 117.001 138.321 117.101 138.505 117.198C138.722 117.313 138.929 117.426 139.128 117.541C139.168 117.562 139.207 117.586 139.246 117.607C139.38 117.683 139.509 117.762 139.637 117.838C139.889 117.992 140.127 118.144 140.35 118.296C140.57 118.448 140.775 118.598 140.966 118.747C140.966 118.75 140.966 118.75 140.969 118.75C141.06 118.823 141.149 118.897 141.233 118.967C141.37 119.085 141.495 119.198 141.611 119.313C141.649 119.349 141.686 119.387 141.721 119.426C141.736 119.439 141.75 119.453 141.763 119.468C141.818 119.528 141.873 119.589 141.925 119.649C141.988 119.722 142.046 119.796 142.101 119.869C142.127 119.906 142.156 119.942 142.18 119.979C142.211 120.024 142.242 120.071 142.269 120.115C142.292 120.152 142.313 120.191 142.334 120.228C142.39 120.323 142.437 120.422 142.476 120.524C142.504 120.594 142.528 120.666 142.547 120.739C142.566 120.809 142.581 120.88 142.591 120.952Z" fill="black"/>
</g>
<defs>
<clipPath id="clip0_834_1629">
<rect width="206.241" height="150" fill="white"/>
</clipPath>
</defs>
</svg>
