<svg width="198" height="150" viewBox="0 0 198 150" fill="none" xmlns="http://www.w3.org/2000/svg">
<g clip-path="url(#clip0_834_1547)">
<path d="M182.652 136.342C176.184 141.267 168.304 146.257 160.556 148.61C158.323 149.308 156.018 149.754 153.685 149.939C151.504 150.114 149.309 149.944 147.182 149.434C141.59 148.043 136.404 145.608 131.386 142.762C129.746 141.831 128.126 140.858 126.515 139.862C123.885 138.237 121.281 136.555 118.67 134.913C118.279 134.664 117.891 134.42 117.5 134.179H117.497C116.867 133.783 116.235 133.393 115.602 133.008C115.49 132.939 115.379 132.873 115.265 132.804C114.069 132.079 112.852 131.371 111.614 130.679C111.463 130.596 111.311 130.511 111.159 130.428C108.765 129.1 106.304 127.896 103.786 126.82C102.133 126.123 100.458 125.495 98.7659 124.96H98.7635C98.1167 124.756 97.4676 124.564 96.816 124.389C94.8623 123.853 92.8714 123.463 90.8597 123.223C88.0877 122.888 85.284 122.91 82.5176 123.29C82.3304 123.316 82.1456 123.342 81.9584 123.372C74.4716 124.571 67.6386 128.613 60.1186 129.566C59.8746 129.596 59.6329 129.625 59.3889 129.646C59.2846 129.656 59.1804 129.668 59.0761 129.675C56.8908 129.862 54.6916 129.808 52.518 129.514C46.4456 128.713 40.532 126.227 35.2083 123.095C22.7626 115.772 12.6695 104.516 6.53316 91.4799C5.47941 89.2458 4.54384 86.9579 3.73034 84.6256C1.45583 78.1581 0.203253 71.3757 0.0177015 64.5225C-0.558028 40.7446 12.9538 16.8886 34.1682 6.13452C55.3848 -4.61953 83.2947 -1.06327 100.405 15.4575C110.785 25.4795 116.791 39.0601 124.603 51.193C132.414 63.3236 143.516 74.9117 157.836 76.6791C165.131 77.5794 172.765 75.838 179.757 78.103C183.628 79.3587 186.931 81.7612 189.591 84.8223C191.38 86.8995 192.877 89.2111 194.041 91.6931C194.894 93.4874 195.586 95.3538 196.109 97.2703C196.206 97.6234 196.296 97.9764 196.384 98.3294C199.867 112.554 194.301 127.466 182.652 136.342Z" fill="#F2F2F2"/>
<path d="M66.1412 110.59H43.8702C40.5335 110.59 37.8286 113.295 37.8286 116.632V116.632C37.8286 119.969 40.5335 122.674 43.8702 122.674H66.1412C69.4779 122.674 72.1828 119.969 72.1828 116.632C72.1828 113.295 69.4779 110.59 66.1412 110.59Z" fill="#3F3D56"/>
<path d="M59.3889 119.594V129.646C57.1012 129.868 54.7955 129.823 52.5181 129.514V119.594H59.3889Z" fill="#3F3D56"/>
<path d="M82.5175 123.29C82.3303 123.316 82.1455 123.342 81.9583 123.373C74.4715 124.571 67.6385 128.613 60.1185 129.566C59.8745 129.597 59.6328 129.625 59.3888 129.646C59.2845 129.656 59.1803 129.668 59.076 129.675C57.2399 127.876 55.4037 125.962 53.6789 123.979C52.743 122.906 51.838 121.811 50.9874 120.702C48.7792 117.84 46.9075 114.898 45.6708 112.007C45.7963 110.621 44.9339 107.416 44.5217 104.961L44.5193 104.959C44.344 103.928 44.2492 103.032 44.3369 102.457C44.8392 99.1351 47.552 99.5165 48.3859 96.2611C49.1383 95.6368 49.9392 95.0735 50.7813 94.5766C50.921 94.4937 51.0632 94.4108 51.2101 94.3278L60.2607 88.073L63.7198 91.4658L68.9843 96.6308L74.6894 102.225L69.8467 107.117C69.8467 107.117 73.8934 111.782 78.6248 118.001C79.8947 119.672 81.2144 121.456 82.5175 123.29Z" fill="#2F2E41"/>
<path d="M160.556 119.594V148.61C158.323 149.308 156.018 149.754 153.685 149.939V119.594H160.556Z" fill="#3F3D56"/>
<path d="M169.441 117.224H147.17C143.833 117.224 141.128 119.929 141.128 123.266V123.266C141.128 126.602 143.833 129.307 147.17 129.307H169.441C172.777 129.307 175.482 126.602 175.482 123.266C175.482 119.929 172.777 117.224 169.441 117.224Z" fill="#3F3D56"/>
<path d="M115.265 132.804C114.069 132.079 112.852 131.371 111.614 130.679C111.463 130.596 111.311 130.511 111.159 130.428L111.974 130.08L114.173 129.134L114.194 129.125L114.218 129.206L115.265 132.804Z" fill="#FFB6B6"/>
<path d="M118.67 134.913C118.279 134.664 117.89 134.42 117.5 134.179H117.497C116.867 133.783 116.235 133.393 115.602 133.008C115.49 132.94 115.379 132.873 115.265 132.805C114.069 132.08 112.852 131.371 111.614 130.679C111.463 130.596 111.311 130.511 111.159 130.428C108.765 129.1 106.304 127.896 103.786 126.82C102.133 126.123 100.458 125.495 98.7659 124.96H98.7635L97.4343 122.735L91.452 112.716L90.137 110.515C90.137 110.515 85.652 111.841 79.3048 113.114C76.9948 113.578 74.4407 114.033 71.7611 114.417C68.8966 114.824 65.8924 115.149 62.9072 115.305C61.4832 115.381 60.064 115.419 58.6662 115.407C55.0531 115.383 51.5821 115.045 48.5424 114.239C47.5283 113.287 44.472 111.991 42.2828 110.804H42.2804C41.3611 110.306 40.5982 109.83 40.1978 109.406C37.8902 106.965 39.8614 105.063 37.8096 102.4C37.782 101.423 37.8319 100.445 37.9589 99.4762C37.9802 99.3151 38.0015 99.1516 38.0276 98.9857L38.6744 88.0019L43.4793 87.3669L50.7908 86.4002L58.7112 85.353L59.5831 92.1812C59.5831 92.1812 65.7503 91.8685 73.5641 91.9727C86.114 92.1433 102.907 93.3943 105.182 98.763C105.395 99.2677 105.608 99.7771 105.821 100.286C106.329 101.504 106.831 102.728 107.328 103.959C109.131 108.413 110.851 112.91 112.422 117.16C113.398 119.804 114.318 122.354 115.163 124.74C115.843 126.659 116.474 128.473 117.049 130.144C117.575 131.67 118.052 133.075 118.476 134.335C118.542 134.532 118.606 134.726 118.67 134.913Z" fill="#2F2E41"/>
<path d="M74.4703 68.3636L59.2939 55.4745L69.1678 45.4817L76.0564 56.7648L101.591 61.8272C102.359 61.2494 103.278 60.9074 104.237 60.843C105.196 60.7787 106.152 60.9946 106.99 61.4646C107.829 61.9346 108.512 62.6383 108.957 63.49C109.402 64.3416 109.59 65.3043 109.497 66.2608C109.405 67.2172 109.036 68.1261 108.436 68.8765C107.835 69.627 107.03 70.1866 106.117 70.4871C105.204 70.7876 104.224 70.8161 103.295 70.569C102.367 70.3219 101.53 69.81 100.887 69.0956L74.4703 68.3636Z" fill="#A0616A"/>
<path d="M45.8815 38.5351C44.1276 44.2409 60.8314 57.8493 60.8314 57.8493C61.017 56.4794 70.4875 68.2914 71.1318 67.2217C72.963 64.1814 74.978 56.6662 77.0921 55.7057C78.3011 55.1564 71.3654 47.5214 71.3654 47.5214C71.3654 47.5214 67.8275 42.8407 63.1563 36.9085C61.8668 35.2069 60.1677 33.8592 58.2172 32.9909C56.2667 32.1225 54.1283 31.7618 52.0009 31.9423C52.0009 31.9423 47.6354 32.8293 45.8815 38.5351Z" fill="#3F3D56"/>
<path d="M53.2668 25.9039C58.9357 25.9039 63.5313 21.3083 63.5313 15.6393C63.5313 9.97036 58.9357 5.37476 53.2668 5.37476C47.5978 5.37476 43.0022 9.97036 43.0022 15.6393C43.0022 21.3083 47.5978 25.9039 53.2668 25.9039Z" fill="#A0616A"/>
<path d="M58.3991 32.6881C60.6104 34.0028 61.9333 36.4183 62.6926 38.8763C64.0985 43.427 64.9447 48.132 65.2126 52.8874L66.0147 67.1241L75.9482 97.4381C67.3392 104.723 34.9792 99.0936 34.9792 99.0936C34.9792 99.0936 33.9859 98.7626 34.9792 97.7692C35.9726 96.7758 36.9396 97.6559 35.9463 96.6625C34.9529 95.6692 35.6377 96.7758 35.9688 95.7825C36.2999 94.7891 35.9688 95.4514 35.6377 95.1202C35.3066 94.7891 38.201 91.8091 38.201 91.8091L35.5521 74.4086L32.241 39.3104C36.2144 34.3437 44.2054 31.4158 44.2054 31.4158L46.2701 27.6992L56.594 28.5251L58.3991 32.6881Z" fill="#3F3D56"/>
<path d="M61.7285 10.1859C62.5262 10.7809 63.1173 11.6111 63.4184 12.5597C63.5341 11.0095 63.5414 9.45314 63.4404 7.90191C63.3194 6.81186 62.552 6.56666 61.6633 6.28255C60.8608 6.02587 59.9532 5.73592 59.7091 4.67772C56.4825 1.53883 50.8656 1.69711 47.0216 2.792C44.9064 3.39451 43.6893 4.1686 43.5805 4.62207L43.5579 4.71542L43.472 4.75836C41.8415 5.57359 41.5242 8.1479 41.5451 10.1639C41.5849 13.9621 42.8963 18.276 43.6351 18.6264C43.6742 18.645 43.6841 18.6377 43.701 18.6236C44.8135 17.7346 46.1707 18.6911 46.7671 19.2112C47.1189 16.8505 48.2516 14.6758 49.9844 13.0344C51.7171 11.393 53.9499 10.3796 56.3262 10.156C57.1022 10.081 57.872 9.95193 58.6301 9.7697C59.0146 9.67022 59.4099 9.61835 59.807 9.61525C60.4907 9.60487 61.1612 9.80399 61.7285 10.1859Z" fill="#2F2E41"/>
<path d="M48.7946 83.8284L45.6546 82.2204C45.4864 82.1005 45.3669 81.9241 45.318 81.7234C45.269 81.5227 45.2939 81.3111 45.3881 81.1272C45.4822 80.9434 45.6394 80.7995 45.8309 80.7219C46.0223 80.6443 46.2353 80.6382 46.4309 80.7047L49.5708 82.3128C49.739 82.4327 49.8585 82.6091 49.9075 82.8097C49.9564 83.0104 49.9315 83.222 49.8373 83.4059C49.7432 83.5898 49.586 83.7336 49.3946 83.8112C49.2031 83.8888 48.9901 83.8949 48.7945 83.8285L48.7946 83.8284Z" fill="#FFD101"/>
<path d="M38.227 79.52L33.0618 60.2906L46.8647 57.6777L46.1225 70.8766L64.2584 89.5507C65.2185 89.5115 66.1693 89.7524 66.9949 90.2442C67.8204 90.736 68.4851 91.4574 68.9077 92.3203C69.3304 93.1833 69.4928 94.1506 69.3752 95.1043C69.2576 96.0581 68.8651 96.9569 68.2455 97.6914C67.6258 98.4259 66.8059 98.9642 65.8856 99.2407C64.9653 99.5172 63.9845 99.52 63.0626 99.2487C62.1408 98.9774 61.3178 98.4437 60.694 97.7128C60.0702 96.9818 59.6726 96.0852 59.5496 95.1322L38.227 79.52Z" fill="#A0616A"/>
<path d="M31.6494 38.7306C26.9642 42.4294 32.9777 63.1186 32.9777 63.1186C33.9087 62.0968 34.9906 77.1979 36.1287 76.6837C39.363 75.2223 45.2912 70.1829 47.5766 70.5937C48.8836 70.8286 47.5143 60.6051 47.5143 60.6051C47.5143 60.6051 47.2624 54.7431 46.7891 47.2074C46.6948 45.0744 46.0623 43 44.9506 41.1772C43.839 39.3544 42.2842 37.8425 40.431 36.7823C40.431 36.7823 36.3346 35.0319 31.6494 38.7306Z" fill="#3F3D56"/>
<path d="M194.041 91.6932L6.53329 91.48C5.47954 89.2459 4.54398 86.958 3.73047 84.6257L189.592 84.8224C191.38 86.8996 192.877 89.2112 194.041 91.6932Z" fill="#3F3D56"/>
<path d="M134.319 141.405C133.35 141.874 132.372 142.326 131.386 142.762C129.746 141.831 128.126 140.858 126.515 139.862L132.49 137.237L134.319 141.405Z" fill="#FFB6B6"/>
<path d="M177.885 108.757C176.914 110.06 175.911 111.337 174.878 112.588C173.926 113.741 172.948 114.873 171.945 115.983C171.531 116.442 171.111 116.9 170.682 117.352C169.893 118.198 169.087 119.03 168.263 119.847C166.78 120.314 163.776 121.136 160.556 121.904C158.213 122.46 155.756 122.989 153.685 123.325C152.526 123.533 151.354 123.658 150.177 123.699C148.779 123.711 147.359 123.673 145.936 123.598C144.329 123.512 142.72 123.38 141.131 123.209C136.996 122.775 132.992 122.1 129.538 121.406C128.273 121.155 127.083 120.899 125.989 120.65C123.916 120.183 122.181 119.747 120.926 119.416C119.511 119.046 118.706 118.807 118.706 118.807L115.164 124.74L113.325 127.817L111.975 130.08L111.615 130.679C111.463 130.596 111.311 130.511 111.16 130.428C108.765 129.1 106.304 127.896 103.787 126.82C102.133 126.123 100.458 125.495 98.7661 124.96H98.7637C98.1169 124.756 97.4677 124.564 96.8162 124.389C97.0199 123.842 97.2261 123.29 97.4345 122.735C97.8231 121.7 98.2196 120.655 98.6239 119.601C99.4982 117.317 100.403 114.999 101.334 112.694C102.097 110.801 102.874 108.915 103.661 107.055C104.023 106.198 104.76 105.444 105.791 104.783C106.283 104.473 106.797 104.197 107.329 103.959C110.278 102.615 114.624 101.741 119.412 101.18C119.807 101.135 120.205 101.09 120.606 101.047C124.57 100.63 128.775 100.414 132.708 100.315C134.677 100.265 136.577 100.246 138.345 100.244C138.915 100.244 139.471 100.245 140.01 100.249H140.012C141.47 100.256 142.811 100.277 143.99 100.301C144.22 100.305 144.443 100.312 144.661 100.317H144.663C144.81 100.32 144.955 100.324 145.097 100.327C147.677 100.393 149.26 100.474 149.26 100.474L149.873 95.6593L149.999 94.6879L150.117 93.7639V93.7615L150.132 93.6454L150.229 93.643L151.935 93.6098L166.273 93.3303L174.106 93.1763L172.865 98.4976L170.815 107.278C171.024 108.666 177.956 107.579 177.885 108.757Z" fill="#2F2E41"/>
<path d="M136.086 140.528C135.501 140.827 134.911 141.12 134.319 141.405C133.35 141.874 132.372 142.326 131.386 142.762C129.746 141.831 128.126 140.857 126.515 139.862C123.885 138.237 121.281 136.555 118.67 134.913C118.279 134.664 117.89 134.42 117.5 134.179H117.497C116.422 132.582 115.325 130.918 114.218 129.205C114.202 129.182 114.187 129.158 114.173 129.134C113.889 128.698 113.606 128.259 113.325 127.817C111.555 125.045 109.776 122.155 108.049 119.202L112.422 117.16L120.553 113.365L121.956 112.711L125.989 120.65L129.585 127.732L130.386 129.307L136.086 140.528Z" fill="#2F2E41"/>
<path d="M137.312 102.411L158.043 82.4185L163.789 66.1488L155.313 62.4634C150.96 66.6336 146.254 79.6225 146.254 79.6225L131.988 97.7721C131.877 97.8102 131.766 97.8506 131.657 97.899C131.014 98.1823 130.456 98.6266 130.035 99.1889C129.614 99.7512 129.346 100.413 129.255 101.109C129.165 101.805 129.256 102.513 129.519 103.164C129.782 103.815 130.209 104.388 130.758 104.826C131.307 105.264 131.959 105.553 132.653 105.665C133.346 105.777 134.056 105.708 134.715 105.465C135.374 105.222 135.959 104.814 136.414 104.279C136.869 103.744 137.178 103.101 137.312 102.411Z" fill="#FFB8B8"/>
<path d="M152.929 64.2798L163.679 67.6928L163.72 67.686C167.721 67.0157 171.041 60.4805 173.122 55.1162C173.807 53.3468 173.794 51.3835 173.086 49.6231C172.379 47.8628 171.029 46.4368 169.311 45.6334C168.039 45.0493 166.629 44.8326 165.24 45.0077C163.852 45.1829 162.54 45.743 161.453 46.6248L155.932 51.1356L152.929 64.2798Z" fill="#FFD101"/>
<path d="M177.842 108.996L177.905 108.913C181.259 104.464 176.671 93.448 175.978 91.8503L179.096 90.9265L178.553 84.9882L178.291 82.3403L180.716 80.0375L180.724 79.9787L182.392 68.1105L184.574 60.2555C185.396 57.286 185.414 54.1511 184.624 51.1726C183.835 48.1942 182.267 45.4794 180.082 43.3071L175.621 38.8783L170.277 30.5133L161.316 30.282L158.094 36.0059C155.098 36.6174 152.411 38.2607 150.501 40.6496C148.592 43.0385 147.581 46.0215 147.645 49.0791L147.948 64.3171L144.733 83.197L144.643 86.6265L141.487 89.9565L142.071 93.3231L139.71 94.2634L138.555 99.0472C138.114 99.5992 135.201 103.281 135.175 104.308C135.171 104.462 135.281 104.614 135.52 104.785C137.406 106.134 147.944 109.057 152.687 107.3C157.739 105.43 177.539 108.942 177.739 108.978L177.842 108.996Z" fill="#FFD101"/>
<path d="M165.014 27.7177C171.57 27.7177 176.885 22.403 176.885 15.8469C176.885 9.29082 171.57 3.97607 165.014 3.97607C158.458 3.97607 153.143 9.29082 153.143 15.8469C153.143 22.403 158.458 27.7177 165.014 27.7177Z" fill="#FFB8B8"/>
<path d="M163.566 27.8765C165.404 27.9051 167.241 27.7767 169.058 27.4926C170.858 27.1265 174.886 24.1749 176.009 22.3988C176.843 21.0791 177.377 19.0184 177.677 17.5222C178.082 15.5421 178.067 13.4991 177.632 11.5255C177.197 9.55178 176.353 7.69143 175.153 6.06488C174.692 5.38453 174.056 4.84143 173.311 4.49303C173.245 4.46723 173.178 4.44437 173.109 4.42483C172.024 4.13946 171.05 3.53643 170.31 2.69317C170.167 2.52261 170.012 2.36259 169.845 2.21437C169.01 1.50914 168.019 1.01168 166.954 0.762662C165.235 0.302692 162.748 0.759273 159.562 2.12104C157.961 2.80521 156.21 2.55761 154.863 2.26543C154.787 2.25084 154.709 2.25628 154.636 2.28122C154.564 2.30616 154.499 2.34973 154.448 2.40759C153.875 2.94558 153.119 3.24672 152.333 3.25049C151.852 3.27163 151.347 3.93823 150.736 4.8075C150.598 5.00482 150.436 5.23512 150.319 5.37519L150.304 5.10608L150.031 5.40629C149.603 5.87813 149.302 6.45063 149.154 7.07046C149.007 7.69029 149.019 8.33731 149.189 8.95125C149.359 9.5652 149.682 10.1261 150.127 10.5817C150.573 11.0374 151.126 11.3729 151.736 11.5571C152.22 11.686 152.716 11.7651 153.217 11.7931C153.52 11.8204 153.833 11.8486 154.134 11.9007C155.098 12.0982 155.995 12.5423 156.736 13.1896C157.477 13.837 158.038 14.6656 158.364 15.5944C158.441 15.8091 158.566 16.0033 158.73 16.1618C158.894 16.3204 159.092 16.4392 159.309 16.5091C159.526 16.5789 159.756 16.5979 159.982 16.5646C160.208 16.5314 160.423 16.4467 160.61 16.3171C160.923 16.0734 161.291 15.909 161.681 15.838C162.071 15.7669 162.473 15.7913 162.851 15.909C163.179 16.091 163.434 16.3801 163.573 16.7276C163.743 17.1148 164.024 17.4427 164.38 17.6695C165.601 18.2986 165.685 21.0853 165.246 23.4084C164.824 25.6476 163.989 27.2675 163.216 27.3476C162.621 27.4092 162.553 27.4515 162.51 27.5567L162.471 27.6509L162.538 27.7391C162.867 27.8582 163.217 27.9051 163.566 27.8765Z" fill="#2F2E41"/>
<path d="M155.876 60.691L151.299 51.5657C144.656 52.0195 131.47 59.7011 131.47 59.7011L106.522 64.9906C105.783 64.7065 104.982 64.6221 104.2 64.7459C103.418 64.8697 102.682 65.1973 102.067 65.6958C101.452 66.1943 100.979 66.8461 100.696 67.5855C100.413 68.3249 100.329 69.1258 100.454 69.9077C100.579 70.6896 100.907 71.4248 101.406 72.0394C101.906 72.654 102.558 73.1262 103.298 73.4085C104.037 73.6908 104.839 73.7733 105.62 73.6476C106.402 73.5219 107.137 73.1925 107.751 72.6926L139.486 70.4178L155.876 60.691Z" fill="#FFB8B8"/>
<path d="M154.03 62.1892L165.984 53.3058L168.09 45.7178C168.498 44.2266 168.481 42.6511 168.04 41.1692C167.6 39.6873 166.753 38.3582 165.597 37.332C164.02 35.9514 161.978 35.2211 159.884 35.2887C157.789 35.3563 155.798 36.2167 154.314 37.696C149.815 42.1861 144.685 48.4501 145.787 52.7937L145.798 52.8377L154.03 62.1892Z" fill="#FFD101"/>
<path d="M139.233 85.95H107.248V90.2146H139.233V85.95Z" fill="white"/>
<path d="M57.4935 85.95H25.5085V90.2146H57.4935V85.95Z" fill="white"/>
<path d="M61.2283 65.4414V85.7469C61.2285 86.0056 61.3314 86.2537 61.5143 86.4367C61.6973 86.6197 61.9454 86.7226 62.2042 86.7228H92.2948C92.5536 86.7226 92.8017 86.6197 92.9846 86.4367C93.1676 86.2537 93.2705 86.0056 93.2707 85.7469V65.4414C93.2701 65.1828 93.1671 64.9351 92.9841 64.7524C92.8012 64.5697 92.5533 64.4669 92.2948 64.4666H62.2042C61.9456 64.4669 61.6978 64.5697 61.5149 64.7524C61.3319 64.9351 61.2289 65.1828 61.2283 65.4414Z" fill="#3F3D56"/>
<path d="M61.9343 65.694V85.4964C61.9346 85.6346 61.9896 85.7672 62.0874 85.8649C62.1851 85.9627 62.3176 86.0177 62.4559 86.0179H92.0445C92.1827 86.0177 92.3152 85.9627 92.413 85.8649C92.5108 85.7672 92.5658 85.6346 92.566 85.4964V65.694C92.566 65.5556 92.5111 65.4228 92.4133 65.3249C92.3155 65.2269 92.1829 65.1717 92.0445 65.1714H62.4559C62.3175 65.1717 62.1848 65.2269 62.087 65.3249C61.9893 65.4228 61.9343 65.5556 61.9343 65.694Z" fill="#FFD101"/>
<path d="M60.5991 89.707C60.6543 89.7761 60.7243 89.8318 60.8041 89.87C60.8838 89.9081 60.9712 89.9277 61.0596 89.9273H93.2796C93.3677 89.9272 93.4547 89.9074 93.5342 89.8695C93.6137 89.8315 93.6838 89.7763 93.7393 89.7079C93.7948 89.6394 93.8343 89.5595 93.8551 89.4739C93.8758 89.3882 93.8772 89.299 93.8591 89.2128L93.3589 86.8371C93.3382 86.7402 93.2936 86.65 93.2291 86.5748C93.1646 86.4996 93.0824 86.4417 92.9898 86.4064C92.9228 86.3801 92.8514 86.3666 92.7794 86.3667H61.5578C61.4858 86.3666 61.4144 86.3801 61.3474 86.4064C61.2548 86.4417 61.1725 86.4996 61.108 86.5748C61.0436 86.65 60.9989 86.7402 60.9782 86.8371L60.4781 89.2128C60.4603 89.299 60.4619 89.388 60.4828 89.4735C60.5038 89.559 60.5435 89.6388 60.5991 89.707Z" fill="#2F2E41"/>
<path d="M91.6738 87.3899H92.4349C92.4988 87.3899 92.5505 87.3381 92.5505 87.2742V86.9101C92.5505 86.8463 92.4988 86.7945 92.4349 86.7945H91.6738C91.61 86.7945 91.5582 86.8463 91.5582 86.9101V87.2742C91.5582 87.3381 91.61 87.3899 91.6738 87.3899Z" fill="#3F3D56"/>
<path d="M89.689 87.3899H90.45C90.5139 87.3899 90.5657 87.3381 90.5657 87.2742V86.9101C90.5657 86.8463 90.5139 86.7945 90.45 86.7945H89.689C89.6251 86.7945 89.5733 86.8463 89.5733 86.9101V87.2742C89.5733 87.3381 89.6251 87.3899 89.689 87.3899Z" fill="#3F3D56"/>
<path d="M87.7044 87.3899H88.4654C88.5293 87.3899 88.5811 87.3381 88.5811 87.2742V86.9101C88.5811 86.8463 88.5293 86.7945 88.4654 86.7945H87.7044C87.6405 86.7945 87.5887 86.8463 87.5887 86.9101V87.2742C87.5887 87.3381 87.6405 87.3899 87.7044 87.3899Z" fill="#3F3D56"/>
<path d="M85.7197 87.3899H86.4808C86.5446 87.3899 86.5964 87.3381 86.5964 87.2742V86.9101C86.5964 86.8463 86.5446 86.7945 86.4808 86.7945H85.7197C85.6559 86.7945 85.6041 86.8463 85.6041 86.9101V87.2742C85.6041 87.3381 85.6559 87.3899 85.7197 87.3899Z" fill="#3F3D56"/>
<path d="M83.7349 87.3899H84.4959C84.5598 87.3899 84.6116 87.3381 84.6116 87.2742V86.9101C84.6116 86.8463 84.5598 86.7945 84.4959 86.7945H83.7349C83.671 86.7945 83.6192 86.8463 83.6192 86.9101V87.2742C83.6192 87.3381 83.671 87.3899 83.7349 87.3899Z" fill="#3F3D56"/>
<path d="M81.7503 87.3899H82.5113C82.5752 87.3899 82.627 87.3381 82.627 87.2742V86.9101C82.627 86.8463 82.5752 86.7945 82.5113 86.7945H81.7503C81.6864 86.7945 81.6346 86.8463 81.6346 86.9101V87.2742C81.6346 87.3381 81.6864 87.3899 81.7503 87.3899Z" fill="#3F3D56"/>
<path d="M79.7654 87.3899H80.5264C80.5903 87.3899 80.6421 87.3381 80.6421 87.2742V86.9101C80.6421 86.8463 80.5903 86.7945 80.5264 86.7945H79.7654C79.7015 86.7945 79.6497 86.8463 79.6497 86.9101V87.2742C79.6497 87.3381 79.7015 87.3899 79.7654 87.3899Z" fill="#3F3D56"/>
<path d="M77.7808 87.3899H78.5418C78.6057 87.3899 78.6575 87.3381 78.6575 87.2742V86.9101C78.6575 86.8463 78.6057 86.7945 78.5418 86.7945H77.7808C77.7169 86.7945 77.6651 86.8463 77.6651 86.9101V87.2742C77.6651 87.3381 77.7169 87.3899 77.7808 87.3899Z" fill="#3F3D56"/>
<path d="M75.7962 87.3899H76.5572C76.6211 87.3899 76.6729 87.3381 76.6729 87.2742V86.9101C76.6729 86.8463 76.6211 86.7945 76.5572 86.7945H75.7962C75.7323 86.7945 75.6805 86.8463 75.6805 86.9101V87.2742C75.6805 87.3381 75.7323 87.3899 75.7962 87.3899Z" fill="#3F3D56"/>
<path d="M73.8113 87.3899H74.5723C74.6362 87.3899 74.688 87.3381 74.688 87.2742V86.9101C74.688 86.8463 74.6362 86.7945 74.5723 86.7945H73.8113C73.7474 86.7945 73.6956 86.8463 73.6956 86.9101V87.2742C73.6956 87.3381 73.7474 87.3899 73.8113 87.3899Z" fill="#3F3D56"/>
<path d="M71.8267 87.3899H72.5877C72.6516 87.3899 72.7034 87.3381 72.7034 87.2742V86.9101C72.7034 86.8463 72.6516 86.7945 72.5877 86.7945H71.8267C71.7628 86.7945 71.711 86.8463 71.711 86.9101V87.2742C71.711 87.3381 71.7628 87.3899 71.8267 87.3899Z" fill="#3F3D56"/>
<path d="M69.8418 87.3899H70.6028C70.6667 87.3899 70.7185 87.3381 70.7185 87.2742V86.9101C70.7185 86.8463 70.6667 86.7945 70.6028 86.7945H69.8418C69.7779 86.7945 69.7261 86.8463 69.7261 86.9101V87.2742C69.7261 87.3381 69.7779 87.3899 69.8418 87.3899Z" fill="#3F3D56"/>
<path d="M67.8572 87.3899H68.6182C68.6821 87.3899 68.7339 87.3381 68.7339 87.2742V86.9101C68.7339 86.8463 68.6821 86.7945 68.6182 86.7945H67.8572C67.7933 86.7945 67.7415 86.8463 67.7415 86.9101V87.2742C67.7415 87.3381 67.7933 87.3899 67.8572 87.3899Z" fill="#3F3D56"/>
<path d="M65.8723 87.3899H66.6334C66.6972 87.3899 66.749 87.3381 66.749 87.2742V86.9101C66.749 86.8463 66.6972 86.7945 66.6334 86.7945H65.8723C65.8085 86.7945 65.7567 86.8463 65.7567 86.9101V87.2742C65.7567 87.3381 65.8085 87.3899 65.8723 87.3899Z" fill="#3F3D56"/>
<path d="M63.8877 87.3899H64.6487C64.7126 87.3899 64.7644 87.3381 64.7644 87.2742V86.9101C64.7644 86.8463 64.7126 86.7945 64.6487 86.7945H63.8877C63.8238 86.7945 63.772 86.8463 63.772 86.9101V87.2742C63.772 87.3381 63.8238 87.3899 63.8877 87.3899Z" fill="#3F3D56"/>
<path d="M61.9031 87.3899H62.6641C62.728 87.3899 62.7798 87.3381 62.7798 87.2742V86.9101C62.7798 86.8463 62.728 86.7945 62.6641 86.7945H61.9031C61.8392 86.7945 61.7874 86.8463 61.7874 86.9101V87.2742C61.7874 87.3381 61.8392 87.3899 61.9031 87.3899Z" fill="#3F3D56"/>
<path d="M91.6973 88.3823H92.4583C92.5222 88.3823 92.574 88.3305 92.574 88.2667V87.9026C92.574 87.8387 92.5222 87.7869 92.4583 87.7869H91.6973C91.6334 87.7869 91.5816 87.8387 91.5816 87.9026V88.2667C91.5816 88.3305 91.6334 88.3823 91.6973 88.3823Z" fill="#3F3D56"/>
<path d="M89.7127 88.3823H90.4737C90.5376 88.3823 90.5894 88.3305 90.5894 88.2667V87.9026C90.5894 87.8387 90.5376 87.7869 90.4737 87.7869H89.7127C89.6488 87.7869 89.597 87.8387 89.597 87.9026V88.2667C89.597 88.3305 89.6488 88.3823 89.7127 88.3823Z" fill="#3F3D56"/>
<path d="M87.7278 88.3823H88.4888C88.5527 88.3823 88.6045 88.3305 88.6045 88.2667V87.9026C88.6045 87.8387 88.5527 87.7869 88.4888 87.7869H87.7278C87.6639 87.7869 87.6121 87.8387 87.6121 87.9026V88.2667C87.6121 88.3305 87.6639 88.3823 87.7278 88.3823Z" fill="#3F3D56"/>
<path d="M85.7432 88.3823H86.5042C86.5681 88.3823 86.6199 88.3305 86.6199 88.2667V87.9026C86.6199 87.8387 86.5681 87.7869 86.5042 87.7869H85.7432C85.6793 87.7869 85.6275 87.8387 85.6275 87.9026V88.2667C85.6275 88.3305 85.6793 88.3823 85.7432 88.3823Z" fill="#3F3D56"/>
<path d="M83.7583 88.3823H84.5193C84.5832 88.3823 84.635 88.3305 84.635 88.2667V87.9026C84.635 87.8387 84.5832 87.7869 84.5193 87.7869H83.7583C83.6944 87.7869 83.6426 87.8387 83.6426 87.9026V88.2667C83.6426 88.3305 83.6944 88.3823 83.7583 88.3823Z" fill="#3F3D56"/>
<path d="M81.7737 88.3823H82.5347C82.5986 88.3823 82.6504 88.3305 82.6504 88.2667V87.9026C82.6504 87.8387 82.5986 87.7869 82.5347 87.7869H81.7737C81.7098 87.7869 81.658 87.8387 81.658 87.9026V88.2667C81.658 88.3305 81.7098 88.3823 81.7737 88.3823Z" fill="#3F3D56"/>
<path d="M79.7888 88.3823H80.5499C80.6137 88.3823 80.6655 88.3305 80.6655 88.2667V87.9026C80.6655 87.8387 80.6137 87.7869 80.5499 87.7869H79.7888C79.725 87.7869 79.6732 87.8387 79.6732 87.9026V88.2667C79.6732 88.3305 79.725 88.3823 79.7888 88.3823Z" fill="#3F3D56"/>
<path d="M77.8042 88.3823H78.5652C78.6291 88.3823 78.6809 88.3305 78.6809 88.2667V87.9026C78.6809 87.8387 78.6291 87.7869 78.5652 87.7869H77.8042C77.7403 87.7869 77.6886 87.8387 77.6886 87.9026V88.2667C77.6886 88.3305 77.7403 88.3823 77.8042 88.3823Z" fill="#3F3D56"/>
<path d="M75.8196 88.3823H76.5806C76.6445 88.3823 76.6963 88.3305 76.6963 88.2667V87.9026C76.6963 87.8387 76.6445 87.7869 76.5806 87.7869H75.8196C75.7557 87.7869 75.7039 87.8387 75.7039 87.9026V88.2667C75.7039 88.3305 75.7557 88.3823 75.8196 88.3823Z" fill="#3F3D56"/>
<path d="M73.8347 88.3823H74.5958C74.6596 88.3823 74.7114 88.3305 74.7114 88.2667V87.9026C74.7114 87.8387 74.6596 87.7869 74.5958 87.7869H73.8347C73.7709 87.7869 73.7191 87.8387 73.7191 87.9026V88.2667C73.7191 88.3305 73.7709 88.3823 73.8347 88.3823Z" fill="#3F3D56"/>
<path d="M71.8501 88.3823H72.6111C72.675 88.3823 72.7268 88.3305 72.7268 88.2667V87.9026C72.7268 87.8387 72.675 87.7869 72.6111 87.7869H71.8501C71.7862 87.7869 71.7344 87.8387 71.7344 87.9026V88.2667C71.7344 88.3305 71.7862 88.3823 71.8501 88.3823Z" fill="#3F3D56"/>
<path d="M69.8652 88.3823H70.6263C70.6902 88.3823 70.7419 88.3305 70.7419 88.2667V87.9026C70.7419 87.8387 70.6902 87.7869 70.6263 87.7869H69.8652C69.8014 87.7869 69.7496 87.8387 69.7496 87.9026V88.2667C69.7496 88.3305 69.8014 88.3823 69.8652 88.3823Z" fill="#3F3D56"/>
<path d="M67.8806 88.3823H68.6417C68.7055 88.3823 68.7573 88.3305 68.7573 88.2667V87.9026C68.7573 87.8387 68.7055 87.7869 68.6417 87.7869H67.8806C67.8167 87.7869 67.765 87.8387 67.765 87.9026V88.2667C67.765 88.3305 67.8167 88.3823 67.8806 88.3823Z" fill="#3F3D56"/>
<path d="M65.8958 88.3823H66.6568C66.7207 88.3823 66.7725 88.3305 66.7725 88.2667V87.9026C66.7725 87.8387 66.7207 87.7869 66.6568 87.7869H65.8958C65.8319 87.7869 65.7801 87.8387 65.7801 87.9026V88.2667C65.7801 88.3305 65.8319 88.3823 65.8958 88.3823Z" fill="#3F3D56"/>
<path d="M63.9112 88.3823H64.6722C64.7361 88.3823 64.7878 88.3305 64.7878 88.2667V87.9026C64.7878 87.8387 64.7361 87.7869 64.6722 87.7869H63.9112C63.8473 87.7869 63.7955 87.8387 63.7955 87.9026V88.2667C63.7955 88.3305 63.8473 88.3823 63.9112 88.3823Z" fill="#3F3D56"/>
<path d="M61.9265 88.3823H62.6876C62.7514 88.3823 62.8032 88.3305 62.8032 88.2667V87.9026C62.8032 87.8387 62.7514 87.7869 62.6876 87.7869H61.9265C61.8626 87.7869 61.8109 87.8387 61.8109 87.9026V88.2667C61.8109 88.3305 61.8626 88.3823 61.9265 88.3823Z" fill="#3F3D56"/>
<path d="M75.2241 89.573H82.9317C82.9956 89.573 83.0474 89.5212 83.0474 89.4573V89.0932C83.0474 89.0294 82.9956 88.9776 82.9317 88.9776H75.2241C75.1603 88.9776 75.1085 89.0294 75.1085 89.0932V89.4573C75.1085 89.5212 75.1603 89.573 75.2241 89.573Z" fill="#3F3D56"/>
</g>
<defs>
<clipPath id="clip0_834_1547">
<rect width="197.412" height="150" fill="white"/>
</clipPath>
</defs>
</svg>
