<svg width="229" height="160" viewBox="0 0 229 160" fill="none" xmlns="http://www.w3.org/2000/svg">
<g clip-path="url(#clip0_834_1423)">
<path d="M201.89 155.978L198.065 155.977L196.246 141.225L201.891 141.225L201.89 155.978Z" fill="#FFB8B8"/>
<path d="M202.865 159.685L190.533 159.685V159.529C190.533 158.256 191.039 157.035 191.939 156.134C192.839 155.234 194.06 154.729 195.333 154.729H195.333L202.866 154.729L202.865 159.685Z" fill="#2F2E41"/>
<path d="M218.771 146.575L216.288 149.484L203.885 141.292L207.549 136.999L218.771 146.575Z" fill="#FFB8B8"/>
<path d="M222.224 148.239L214.219 157.62L214.1 157.519C213.132 156.693 212.531 155.515 212.431 154.246C212.33 152.977 212.738 151.72 213.564 150.752L213.565 150.752L218.454 145.022L222.224 148.239Z" fill="#2F2E41"/>
<path d="M174.733 83.4273L173.542 94.4073L221.67 93.7208L200.682 59.5216L183.545 58.906L174.733 83.4273Z" fill="#2F2E41"/>
<path opacity="0.28" d="M174.733 83.4273L173.542 94.4073L221.67 93.7208L200.682 59.5216L183.545 58.906L174.733 83.4273Z" fill="black"/>
<path d="M184.197 85.3125L182.498 95.3591V104.339L196.197 108.811C196.197 108.811 194.593 143.691 196.731 145.913L196.679 151.276L202.655 151.548L202.704 147.773L205.237 119.561L206.73 98.8482L204.31 83.144L184.197 85.3125Z" fill="#2F2E41"/>
<path d="M194.81 93.9604L182.498 104.339C182.498 104.339 181.777 123.064 183.607 125.26C185.179 127.146 205.621 143.415 205.621 143.415C205.621 143.415 209.254 146.747 211.29 146.8C213.326 146.854 215.694 142.583 215.694 142.583L210.979 139.001C210.979 139.001 198.763 127.598 195.136 123.064C193.672 121.234 193.672 121.051 193.672 121.051L194.172 113.441L199.204 99.3179L194.81 93.9604Z" fill="#2F2E41"/>
<path d="M181.738 44.2472L176.43 43.7566L171.615 44.559L161.419 44.5623L160.55 51.9522L169.855 54.0344L172.122 52.9231L181.574 56.5243L181.738 44.2472Z" fill="#2F2E41"/>
<path d="M188.079 44.2241C188.079 44.2241 199.345 43.1685 201.907 45.1815C204.469 47.1944 209.958 87.0874 209.958 87.0874L188.079 88.3223L184.156 85.6235L185.27 65.7073L188.079 44.2241Z" fill="#CCCCCC"/>
<path d="M191.518 43.9756L179.09 44.2483L167.503 96.6031L176.653 98.6163L191.518 43.9756Z" fill="#2F2E41"/>
<path d="M200.352 43.533L210.141 46.5969L209.585 68.1078L221.67 93.8257L207.463 95.3222L196.234 67.5517L200.352 43.533Z" fill="#2F2E41"/>
<path d="M216.495 96.438C216.838 96.1359 217.111 95.7622 217.294 95.3432C217.477 94.9243 217.566 94.4703 217.555 94.0132C217.543 93.5561 217.432 93.1071 217.228 92.6977C217.025 92.2883 216.734 91.9285 216.376 91.6437L218.345 84.7734L214.462 82.5583L211.817 92.2996C211.379 92.9322 211.188 93.7038 211.28 94.468C211.372 95.2323 211.741 95.9362 212.318 96.4463C212.894 96.9564 213.638 97.2373 214.408 97.2358C215.178 97.2342 215.92 96.9504 216.495 96.438Z" fill="#FFB8B8"/>
<path d="M204.469 47.1943L210.261 46.6919C210.261 46.6919 215.461 52.1307 216.644 56.3419C217.827 60.553 219.108 73.7287 219.108 73.7287L218.574 93.0034L211.803 88.4055L211.349 71.8267L204.469 47.1943Z" fill="#2F2E41"/>
<path d="M203.071 37.5064C205.247 33.5273 203.784 28.5384 199.805 26.3632C195.826 24.188 190.837 25.6504 188.662 29.6295C186.487 33.6085 187.949 38.5975 191.928 40.7727C195.907 42.9479 200.896 41.4855 203.071 37.5064Z" fill="#FFB8B8"/>
<path d="M194.951 30.14C193.874 29.8911 192.756 30.167 191.664 30.3458C190.573 30.5246 189.371 30.5836 188.448 29.9748C187.766 29.5251 187.347 28.7813 186.954 28.0659C186.789 27.8103 186.68 27.5235 186.632 27.2236C186.586 26.6944 186.922 26.2117 187.28 25.8188C188.94 23.9937 191.366 22.9948 193.813 22.6775C195.831 22.3768 197.893 22.6285 199.779 23.406C201.636 24.2207 203.233 25.7125 203.963 27.6047C204.3 28.5731 204.51 29.5808 204.588 30.603C204.698 31.355 204.713 32.1181 204.63 32.8737C204.532 33.4339 204.385 33.9843 204.19 34.5188L202.981 38.1714C202.894 38.5165 202.731 38.8381 202.505 39.1129C202.389 39.2475 202.232 39.3408 202.058 39.3789C201.884 39.4169 201.703 39.3977 201.541 39.324C201.638 38.9273 201.653 38.515 201.585 38.1123C201.547 37.9117 201.45 37.7269 201.306 37.5819C201.162 37.4369 200.978 37.3383 200.778 37.2988C200.332 37.2514 199.951 37.5971 199.528 37.7459C199.335 37.8033 199.132 37.822 198.931 37.8009C198.73 37.7799 198.535 37.7195 198.358 37.6232C198.18 37.5269 198.024 37.3966 197.897 37.2397C197.77 37.0828 197.675 36.9024 197.617 36.7089C197.606 36.6699 197.596 36.6304 197.587 36.5906C197.52 36.173 197.633 35.7259 197.474 35.3338C197.289 34.8743 196.797 34.6336 196.428 34.3035C196.091 33.9924 195.849 33.5915 195.732 33.148C195.615 32.7044 195.627 32.2367 195.767 31.7998C195.866 31.4958 196.145 31.3576 196.089 31.0084C196.016 30.5502 195.34 30.2299 194.951 30.14Z" fill="#2F2E41"/>
<path d="M103.664 64.8489H0V0H103.664V64.8489Z" fill="white"/>
<path d="M103.664 64.8489H0V0H103.664V64.8489ZM0.473351 64.3756H103.19V0.473351H0.473351V64.3756Z" fill="#3F3D56"/>
<path d="M91.0015 154.667H31.8328V89.8184H91.0015V154.667Z" fill="white"/>
<path d="M91.0015 154.667H31.8328V89.8184H91.0015V154.667ZM32.3061 154.194H90.5281V90.2917H32.3061V154.194Z" fill="#3F3D56"/>
<path d="M82.9546 148.542H70.6475V149.041H82.9546V148.542Z" fill="#3F3D56"/>
<path d="M82.9546 150.039H70.6475V150.538H82.9546V150.039Z" fill="#3F3D56"/>
<path d="M82.9546 151.536H70.6475V152.035H82.9546V151.536Z" fill="#3F3D56"/>
<path d="M61.4171 101.415V106.622C64.5066 106.622 67.5266 107.538 70.0954 109.255C72.6642 110.971 74.6663 113.411 75.8486 116.265C77.0309 119.119 77.3402 122.26 76.7375 125.29C76.1348 128.32 74.6471 131.104 72.4625 133.288L76.1443 136.97C79.0571 134.057 81.0407 130.346 81.8443 126.306C82.6479 122.266 82.2355 118.078 80.6591 114.272C79.0827 110.467 76.4132 107.214 72.9882 104.925C69.5631 102.637 65.5364 101.415 61.4171 101.415Z" fill="#E6E6E6"/>
<path d="M76.1443 136.97L72.4625 133.288C69.7919 135.959 66.2437 137.572 62.4752 137.827C58.7066 138.083 54.9732 136.964 51.9665 134.678L48.8149 138.824C52.8246 141.872 57.8027 143.363 62.8274 143.022C67.8522 142.681 72.5831 140.531 76.1443 136.97Z" fill="#575A89"/>
<path d="M45.7966 122.243C45.7966 120.191 46.2006 118.16 46.9856 116.265C47.7706 114.37 48.9212 112.648 50.3717 111.197C51.8222 109.747 53.5442 108.596 55.4394 107.811C57.3346 107.026 59.3658 106.622 61.4171 106.622V101.415C57.0571 101.415 52.8071 102.783 49.266 105.327C45.725 107.871 43.0715 111.462 41.6796 115.593C40.2877 119.725 40.2275 124.19 41.5077 128.358C42.7878 132.525 45.3437 136.186 48.815 138.824L51.9665 134.678C50.0476 133.222 48.4919 131.342 47.4215 129.185C46.351 127.027 45.7948 124.651 45.7966 122.243Z" fill="#FFD101"/>
<path d="M178.571 114.433H119.403V49.5835H178.571V114.433Z" fill="white"/>
<path d="M178.571 114.433H119.403V49.5835H178.571V114.433ZM119.876 113.959H178.098V50.0568H119.876V113.959Z" fill="#3F3D56"/>
<path d="M138.573 89.2266H127.923V106.267H138.573V89.2266Z" fill="#575A89"/>
<path d="M153.957 77.6294H143.307V106.267H153.957V77.6294Z" fill="#E6E6E6"/>
<path d="M169.341 64.1389H158.691V106.267H169.341V64.1389Z" fill="#FFD101"/>
<path d="M172.891 106.741H125.083V57.2754H125.556V106.267H172.891V106.741Z" fill="#3F3D56"/>
<path d="M161.365 51.3098C163.165 51.3098 164.624 49.8504 164.624 48.05C164.624 46.2497 163.165 44.7903 161.365 44.7903C159.564 44.7903 158.105 46.2497 158.105 48.05C158.105 49.8504 159.564 51.3098 161.365 51.3098Z" fill="#FFB8B8"/>
<path d="M228.344 160H177.546C177.474 160 177.405 159.971 177.354 159.921C177.303 159.87 177.274 159.8 177.274 159.728C177.274 159.656 177.303 159.587 177.354 159.536C177.405 159.485 177.474 159.457 177.546 159.457H228.344C228.416 159.457 228.485 159.485 228.536 159.536C228.587 159.587 228.615 159.656 228.615 159.728C228.615 159.8 228.587 159.87 228.536 159.921C228.485 159.971 228.416 160 228.344 160Z" fill="#CCCCCC"/>
<path d="M89.2672 51.2866H14.3964C14.3343 51.2866 14.2747 51.2619 14.2307 51.218C14.1868 51.174 14.1621 51.1144 14.1621 51.0523V15.1667C14.1621 15.1045 14.1868 15.0449 14.2307 15.001C14.2747 14.9571 14.3343 14.9324 14.3964 14.9324C14.4586 14.9324 14.5182 14.9571 14.5621 15.001C14.606 15.0449 14.6307 15.1045 14.6307 15.1667V50.818H89.2672C89.2981 50.8179 89.3286 50.8238 89.3572 50.8356C89.3857 50.8473 89.4116 50.8645 89.4334 50.8863C89.4553 50.9081 89.4726 50.9339 89.4844 50.9624C89.4963 50.9909 89.5023 51.0214 89.5023 51.0523C89.5023 51.0831 89.4963 51.1136 89.4844 51.1421C89.4726 51.1706 89.4553 51.1965 89.4334 51.2182C89.4116 51.24 89.3857 51.2573 89.3572 51.269C89.3286 51.2807 89.2981 51.2867 89.2672 51.2866Z" fill="#3F3D56"/>
<path d="M30.393 48.709H23.5833C23.3989 48.7088 23.2221 48.6355 23.0917 48.5051C22.9613 48.3747 22.8879 48.1979 22.8877 48.0135V38.6262C22.8879 38.4418 22.9613 38.265 23.0917 38.1346C23.2221 38.0042 23.3989 37.9309 23.5833 37.9307H30.393C30.5774 37.9309 30.7542 38.0042 30.8846 38.1346C31.015 38.265 31.0884 38.4418 31.0886 38.6262V48.0135C31.0884 48.1979 31.015 48.3747 30.8846 48.5051C30.7542 48.6355 30.5774 48.7088 30.393 48.709Z" fill="#FFD101"/>
<path d="M42.8115 48.709H36.0017C35.8173 48.7088 35.6405 48.6355 35.5101 48.5051C35.3797 48.3747 35.3064 48.1979 35.3062 48.0135V29.7224C35.3064 29.538 35.3797 29.3612 35.5101 29.2308C35.6405 29.1004 35.8173 29.0271 36.0017 29.0269H42.8115C42.9959 29.0271 43.1727 29.1004 43.3031 29.2308C43.4335 29.3612 43.5068 29.538 43.5071 29.7224V48.0135C43.5068 48.1979 43.4335 48.3747 43.3031 48.5051C43.1727 48.6355 42.9959 48.7088 42.8115 48.709Z" fill="#FFD101"/>
<path d="M55.2301 48.709H48.4203C48.2359 48.7088 48.0591 48.6355 47.9287 48.5051C47.7983 48.3747 47.725 48.1979 47.7247 48.0135V38.6262C47.725 38.4418 47.7983 38.265 47.9287 38.1346C48.0591 38.0042 48.2359 37.9309 48.4203 37.9307H55.2301C55.4145 37.9309 55.5913 38.0042 55.7217 38.1346C55.8521 38.265 55.9254 38.4418 55.9256 38.6262V48.0135C55.9254 48.1979 55.8521 48.3747 55.7217 48.5051C55.5913 48.6355 55.4145 48.7088 55.2301 48.709Z" fill="#FFD101"/>
<path d="M67.6485 48.7092H60.8387C60.6585 48.7131 60.4842 48.6454 60.3538 48.5209C60.2234 48.3965 60.1477 48.2254 60.1432 48.0452V26.1764C60.1477 25.9962 60.2234 25.8251 60.3538 25.7007C60.4842 25.5762 60.6585 25.5085 60.8387 25.5124H67.6485C67.8287 25.5085 68.0031 25.5762 68.1335 25.7007C68.2639 25.8251 68.3396 25.9962 68.3441 26.1764V48.0452C68.3396 48.2254 68.2639 48.3965 68.1335 48.5209C68.0031 48.6454 67.8287 48.7131 67.6485 48.7092Z" fill="#FFD101"/>
<path d="M80.0671 48.709H73.2573C73.0729 48.7088 72.8961 48.6355 72.7657 48.5051C72.6353 48.3747 72.562 48.1979 72.5618 48.0135V19.8813C72.562 19.6969 72.6353 19.5201 72.7657 19.3897C72.8961 19.2593 73.0729 19.186 73.2573 19.1858H80.0671C80.2515 19.186 80.4283 19.2593 80.5587 19.3897C80.6891 19.5201 80.7624 19.6969 80.7627 19.8813V48.0135C80.7624 48.1979 80.6891 48.3747 80.5587 48.5051C80.4283 48.6355 80.2515 48.7088 80.0671 48.709Z" fill="#FFD101"/>
<path d="M26.9881 35.1191C27.7646 35.1191 28.394 34.4897 28.394 33.7132C28.394 32.9368 27.7646 32.3074 26.9881 32.3074C26.2117 32.3074 25.5823 32.9368 25.5823 33.7132C25.5823 34.4897 26.2117 35.1191 26.9881 35.1191Z" fill="#3F3D56"/>
<path d="M39.4066 25.9809C40.183 25.9809 40.8125 25.3515 40.8125 24.5751C40.8125 23.7986 40.183 23.1692 39.4066 23.1692C38.6302 23.1692 38.0007 23.7986 38.0007 24.5751C38.0007 25.3515 38.6302 25.9809 39.4066 25.9809Z" fill="#3F3D56"/>
<path d="M51.8252 35.1191C52.6016 35.1191 53.2311 34.4897 53.2311 33.7132C53.2311 32.9368 52.6016 32.3074 51.8252 32.3074C51.0487 32.3074 50.4193 32.9368 50.4193 33.7132C50.4193 34.4897 51.0487 35.1191 51.8252 35.1191Z" fill="#3F3D56"/>
<path d="M64.2436 21.529C65.0201 21.529 65.6495 20.8996 65.6495 20.1232C65.6495 19.3467 65.0201 18.7173 64.2436 18.7173C63.4672 18.7173 62.8378 19.3467 62.8378 20.1232C62.8378 20.8996 63.4672 21.529 64.2436 21.529Z" fill="#3F3D56"/>
<path d="M76.6622 16.3742C77.4387 16.3742 78.0681 15.7448 78.0681 14.9684C78.0681 14.1919 77.4387 13.5625 76.6622 13.5625C75.8858 13.5625 75.2563 14.1919 75.2563 14.9684C75.2563 15.7448 75.8858 16.3742 76.6622 16.3742Z" fill="#3F3D56"/>
<path d="M51.8546 34.0282L39.4067 24.7045L27.1285 33.9008L26.8477 33.5257L39.4067 24.1188L51.7954 33.3983L64.1067 19.9259L64.1562 19.9058L76.5745 14.9021L76.7497 15.337L64.3806 20.3206L51.8546 34.0282Z" fill="#3F3D56"/>
</g>
<defs>
<clipPath id="clip0_834_1423">
<rect width="228.615" height="160" fill="white"/>
</clipPath>
</defs>
</svg>
