<svg id="SVG" xmlns="http://www.w3.org/2000/svg" viewBox="0 0 200 200"><g id="animation"><path d="M191.34,159H12.74A2.74,2.74,0,0,1,10,156.22V21.45a2.74,2.74,0,0,1,2.74-2.74h178.6a2.74,2.74,0,0,1,2.73,2.74V156.22A2.74,2.74,0,0,1,191.34,159ZM15.48,153.48H188.6V24.19H15.48Z" fill="#f29122" /><path d="M191.34,140.33H12.74a2.74,2.74,0,1,1,0-5.48h178.6a2.74,2.74,0,0,1,0,5.48Z" fill="#f29122"/><path d="M91.33,84.36a2.19,2.19,0,0,1-2.2-2.19V56.74a1.86,1.86,0,0,1,.05-1.25,2.25,2.25,0,0,1,2.15-1.63,2.18,2.18,0,0,1,1.72.84C94.91,56,104.93,62,113.88,67.22a2.19,2.19,0,0,1,0,3.76L92.47,84A2.23,2.23,0,0,1,91.33,84.36Zm2.19-24.09v18l15-9.12C101.05,64.81,96.4,62.09,93.52,60.27Z" fill="#f29122"/><path d="M87.08,177.35a2.19,2.19,0,0,1,0-4.38c3,0,5.21-.87,6.7-2.67,3.53-4.24,2.12-12.19,2.1-12.27a2.19,2.19,0,0,1,4.31-.8c.08.41,1.82,10-3,15.86C94.82,175.92,91.43,177.35,87.08,177.35Z" fill="#f29122"/><path d="M117,177.35c-4.34,0-7.73-1.43-10.08-4.26-4.84-5.83-3.1-15.45-3-15.86a2.19,2.19,0,0,1,4.31.8h0c0,.08-1.43,8,2.1,12.27,1.5,1.8,3.69,2.67,6.7,2.67a2.19,2.19,0,1,1,0,4.38Z" fill="#f29122"/><path d="M148.6,188.31H55.47a2.19,2.19,0,0,1-2.19-2.19A13.17,13.17,0,0,1,66.43,173h71.22a13.17,13.17,0,0,1,13.15,13.15A2.2,2.2,0,0,1,148.6,188.31Zm-90.66-4.38h88.2a8.79,8.79,0,0,0-8.49-6.58H66.43A8.79,8.79,0,0,0,57.94,183.93Z" fill="#f29122"/><circle cx="23.15" cy="76.55" r="2.19"/><path d="M133.26,125.31a2.2,2.2,0,0,1-2.14-1.73c-.07-.34-7.58-33.88-29.08-33.88-21.32,0-24.63,32.2-24.67,32.53a2.19,2.19,0,0,1-4.32.25C73,122.15,66,89.88,52.68,81.7A2.19,2.19,0,1,1,55,78C65,84.17,71.59,101.3,74.86,112.16,77.77,101.33,85,85.32,102,85.32c10.48,0,19.6,6.55,26.37,18.94a74.93,74.93,0,0,1,4.62,10.4,51.09,51.09,0,0,1,2.5-6.45c4.69-10,11.67-15.22,20.2-15.22a2.19,2.19,0,0,1,0,4.38c-16.49,0-20.26,25.79-20.29,26.05a2.2,2.2,0,0,1-2.09,1.89Z" fill="#f29122"/><path d="M165,109.42a11.51,11.51,0,1,1,11.5-11.5A11.52,11.52,0,0,1,165,109.42Zm0-18.62a7.12,7.12,0,1,0,7.12,7.12A7.12,7.12,0,0,0,165,90.8Z" fill="#f29122"/><path d="M159.9,107.88a2.19,2.19,0,0,1-1.23-4c.81-.55,1.56-1.09,2.28-1.65,3.84-3,5.72-7.29,5.6-12.79a2.19,2.19,0,0,1,2.14-2.24,2.15,2.15,0,0,1,2.24,2.14c.11,4.79-1.07,11.51-7.28,16.34-.8.63-1.63,1.23-2.52,1.83A2.17,2.17,0,0,1,159.9,107.88Z" fill="#f29122"/><path d="M48.35,78.74a2.3,2.3,0,0,1-1.07-.27c-9-5-13.86-4.08-17.75-2.32a2.19,2.19,0,1,1-1.81-4c4.7-2.13,11-3.49,21.69,2.48a2.19,2.19,0,0,1-1.06,4.1Z" fill="#f29122"/></g></svg>