<svg id="SVG" xmlns="http://www.w3.org/2000/svg" viewBox="0 0 200 200"><g id="Talent"><path d="M76.4,156.3a55.92,55.92,0,0,1,0-111.83c1.39,0,2.79.05,4.16.14a2.5,2.5,0,1,1-.36,5c-1.24-.09-2.52-.13-3.8-.13a50.89,50.89,0,1,0,49.26,38,2.5,2.5,0,0,1,4.84-1.27,55.95,55.95,0,0,1-54.1,70.1Z" fill="#f29122"/><path d="M69.65,106.4A18.35,18.35,0,1,1,88,88.05,18.37,18.37,0,0,1,69.65,106.4Zm0-31.69A13.35,13.35,0,1,0,83,88.05,13.36,13.36,0,0,0,69.65,74.71Z" fill="#f29122"/><path d="M97.83,151.81a2.5,2.5,0,0,1-2.5-2.5v-19A13.32,13.32,0,0,0,82,117H57.28A13.31,13.31,0,0,0,44,130.27v10.52a2.5,2.5,0,0,1-5,0V130.27A18.32,18.32,0,0,1,57.28,112H82a18.32,18.32,0,0,1,18.3,18.3v19A2.5,2.5,0,0,1,97.83,151.81Z" fill="#f29122"/><path d="M123.2,155.59a2.49,2.49,0,0,1-1.77-.73l-12-12a2.5,2.5,0,0,1,3.53-3.54l12,12a2.49,2.49,0,0,1,0,3.53A2.45,2.45,0,0,1,123.2,155.59Z" fill="#f29122"/><path d="M156.84,197.31h0a9,9,0,0,1-6.36-2.64l-29.81-29.85a9,9,0,0,1,0-12.73l1.6-1.6a9,9,0,0,1,12.73,0l29.81,29.85a9,9,0,0,1,0,12.73l-1.6,1.59A8.94,8.94,0,0,1,156.84,197.31Zm-28.21-44.45A4,4,0,0,0,125.8,154l-1.6,1.6a4,4,0,0,0,0,5.65L154,191.13a4,4,0,0,0,2.83,1.18h0a4,4,0,0,0,2.83-1.17l1.6-1.6h0a4,4,0,0,0,0-5.66L131.46,154A4,4,0,0,0,128.63,152.86Z" fill="#f29122"/><path d="M127.07,89.36a25.33,25.33,0,0,1-12-3L91.05,73.52A25.48,25.48,0,0,1,80.55,39l8-15a2.5,2.5,0,1,1,4.41,2.35l-8,15A20.51,20.51,0,0,0,93.4,69.11l24.06,12.83a20.5,20.5,0,0,0,27.73-8.44l8.71-16.32a2.5,2.5,0,1,1,4.41,2.35L149.6,75.85a25.33,25.33,0,0,1-15.07,12.4A25.79,25.79,0,0,1,127.07,89.36Z" fill="#f29122"/><path d="M177,61.25h0l-62.38-1.17a2.51,2.51,0,0,1-2-1L73.93,6.78a2.5,2.5,0,0,1,2-4l65.89-.1h0a2.51,2.51,0,0,1,2.09,1.13L179.1,57.37A2.51,2.51,0,0,1,177,61.25Zm-61.1-6.15,56.41,1.06L140.47,7.7l-59.58.08Z" fill="#f29122"/><path d="M145.67,101.71a2.5,2.5,0,0,1-2.5-2.5V60L125.89,30a2.5,2.5,0,1,1,4.33-2.5L147.83,58a2.5,2.5,0,0,1,.34,1.25V99.21A2.5,2.5,0,0,1,145.67,101.71Z" fill="#f29122"/><path d="M145.78,122.53c-4.77,0-8.66-3.61-8.66-8,0-3.84,6.15-14,7.39-16.06a1.5,1.5,0,0,1,2.55,0c1.23,2,7.39,12.22,7.39,16.06C154.45,118.92,150.56,122.53,145.78,122.53Zm0-20.4c-2.57,4.42-5.66,10.37-5.66,12.35,0,2.78,2.54,5,5.66,5s5.67-2.27,5.67-5C151.45,112.5,148.36,106.55,145.78,102.13Z" fill="#f29122"/></g></svg>