<svg id="SVG" xmlns="http://www.w3.org/2000/svg" viewBox="0 0 200 200"><g id="Writing_Translation" data-name="Writing &amp; Translation"><path d="M23.25,125.57l3.59-3.81c3-3.16,4-6,4.16-8.19H26.59A24.62,24.62,0,0,1,2,89V27.09A24.62,24.62,0,0,1,26.59,2.5H88.48a24.62,24.62,0,0,1,24.59,24.59V52.75a2.2,2.2,0,0,1-4.4,0V27.09A20.21,20.21,0,0,0,88.48,6.91H26.59A20.2,20.2,0,0,0,6.41,27.09V89a20.21,20.21,0,0,0,20.18,20.19h8.5l.24,1.92a14.83,14.83,0,0,1-2.17,9.61A52.19,52.19,0,0,0,40,119.47c4.8-1.23,10.59-3.65,10.89-8.25l.14-2H61.94a2.2,2.2,0,1,1,0,4.4H55c-3.16,11.35-25.47,11.89-26.48,11.9Z" fill="#f29122"/><path d="M158.16,181.1l-5.24-.09c-1,0-23.31-.55-26.47-11.9H92.93a24.62,24.62,0,0,1-24.59-24.59V82.63A24.62,24.62,0,0,1,92.93,58h61.89C168,58,176,64.41,177.45,76a2.21,2.21,0,0,1-4.38.55c-1.17-9.35-7.32-14.1-18.25-14.1H92.93A20.22,20.22,0,0,0,72.74,82.63v61.89A20.21,20.21,0,0,0,92.93,164.7h37.43l.14,2.06c.3,4.59,6.09,7,10.89,8.25a51.9,51.9,0,0,0,6.86,1.23,14.92,14.92,0,0,1-2.18-9.62l.25-1.92h8.5A20.2,20.2,0,0,0,175,144.52V125.66a2.21,2.21,0,0,1,4.41,0v18.86a24.62,24.62,0,0,1-24.59,24.59H150.4c.19,2.19,1.19,5,4.17,8.18Z" fill="#f29122"/><path d="M153.84,97.49H106.59a2.21,2.21,0,0,1,0-4.41h47.25a2.21,2.21,0,1,1,0,4.41Z" fill="#f29122"/><path d="M97.86,97.49h-4a2.21,2.21,0,0,1,0-4.41h4a2.21,2.21,0,0,1,0,4.41Z" fill="#f29122"/><path d="M128.94,115.56h-35a2.21,2.21,0,0,1,0-4.41h35a2.21,2.21,0,0,1,0,4.41Z" fill="#f29122"/><path d="M137.31,115.56H137a2.21,2.21,0,0,1,0-4.41h.27a2.21,2.21,0,1,1,0,4.41Z" fill="#f29122"/><path d="M153.84,115.56h-7.62a2.21,2.21,0,0,1,0-4.41h7.62a2.21,2.21,0,1,1,0,4.41Z" fill="#f29122"/><path d="M143.47,133.63H93.9a2.21,2.21,0,0,1,0-4.41h49.57a2.21,2.21,0,1,1,0,4.41Z" fill="#f29122"/><path d="M54.53,60.26l-1.9-5H36.44l-1.9,5.1a17.54,17.54,0,0,1-1.9,4,3,3,0,0,1-2.58,1,3.8,3.8,0,0,1-2.69-1.11,3.4,3.4,0,0,1-1.16-2.53,5.66,5.66,0,0,1,.27-1.68c.18-.58.48-1.39.89-2.42L37.56,31.85c.29-.74.63-1.63,1-2.67a13.07,13.07,0,0,1,1.31-2.6,5.23,5.23,0,0,1,1.82-1.67,5.6,5.6,0,0,1,2.78-.64,5.7,5.7,0,0,1,2.81.64,5.55,5.55,0,0,1,1.82,1.64,11.81,11.81,0,0,1,1.17,2.16c.31.77.72,1.8,1.2,3.09L61.92,57.49a13,13,0,0,1,1.22,4.26A3.54,3.54,0,0,1,62,64.29a3.77,3.77,0,0,1-2.78,1.15,3.57,3.57,0,0,1-1.63-.34,3.29,3.29,0,0,1-1.14-.92,8.4,8.4,0,0,1-1-1.79C55.09,61.58,54.78,60.87,54.53,60.26Zm-16-11.06h11.9l-6-16.43Z" fill="#f29122"/><path d="M195.84,66.52A6.74,6.74,0,0,0,186.65,69l-2.43,4.24L183,75.38,157.42,120h0a2.05,2.05,0,0,0-.07.34l-1.12,12.41a1.53,1.53,0,0,0,2.41,1.38l10.14-7.23a1.13,1.13,0,0,0,.26-.23l0,0,25.57-44.58L195.89,80l2.44-4.24A6.75,6.75,0,0,0,195.84,66.52ZM159.6,129.67l.61-6.71,4.88,2.8Zm2-10.85,23.75-41.39,6.37,3.65L168,122.47Zm27.71-48.29a3.67,3.67,0,1,1,6.36,3.65l-2.13,3.72-6.36-3.66Z" fill="#f29122"/></g></svg>