<svg id="SVG" xmlns="http://www.w3.org/2000/svg" viewBox="0 0 200 200"><g id="Proffesional_dev" data-name="Proffesional dev"><path d="M158.52,110.73H19.17a2.5,2.5,0,0,1-2.5-2.5V71.57a2.5,2.5,0,0,1,2.5-2.5H158.52a2.5,2.5,0,0,1,2.5,2.5v36.66A2.5,2.5,0,0,1,158.52,110.73Zm-136.85-5H156V74.07H21.67Z" fill="#f29122"/><path d="M64.09,110.49H51.5A2.5,2.5,0,0,1,49,108V94.5a8.8,8.8,0,0,1,17.59,0V108A2.5,2.5,0,0,1,64.09,110.49Zm-10.09-5h7.59v-11a3.8,3.8,0,0,0-7.59,0Z" fill="#f29122"/><path d="M135.12,110.49H122.54A2.5,2.5,0,0,1,120,108V94.5a8.79,8.79,0,1,1,17.58,0V108A2.49,2.49,0,0,1,135.12,110.49Zm-10.08-5h7.58v-11a3.79,3.79,0,1,0-7.58,0Z" fill="#f29122"/><path d="M93.83,130.49A8.8,8.8,0,0,1,85,121.7V108.21a2.5,2.5,0,0,1,2.5-2.5h12.58a2.49,2.49,0,0,1,2.5,2.5V121.7A8.8,8.8,0,0,1,93.83,130.49ZM90,110.71v11a3.79,3.79,0,0,0,7.58,0v-11Z" fill="#f29122"/><path d="M106.22,72.72H71.15a2.5,2.5,0,0,1-2.5-2.5v-9a9.64,9.64,0,0,1,9.63-9.63H99.09a9.64,9.64,0,0,1,9.63,9.63v9A2.5,2.5,0,0,1,106.22,72.72Zm-32.57-5h30.07V61.17a4.64,4.64,0,0,0-4.63-4.63H78.28a4.64,4.64,0,0,0-4.63,4.63Z" fill="#f29122"/><path d="M115.1,72.72H62.6a2.5,2.5,0,0,1-2.5-2.5V61a18,18,0,0,1,18-18H99.6a18,18,0,0,1,18,18v9.27A2.5,2.5,0,0,1,115.1,72.72Zm-50-5h47.5V61a13,13,0,0,0-13-13H78.1a13,13,0,0,0-13,13Z" fill="#f29122"/><path d="M170.53,110.73H138a2.5,2.5,0,0,1,0-5h30V28.13a2.5,2.5,0,0,1,.89-1.92,2.53,2.53,0,0,1,2.05-.54l2.68.49L154.79,6.57,135.27,26.09l2.26-.42a2.52,2.52,0,0,1,3,2.46V71.57a2.5,2.5,0,0,1-5,0V31.13l-7.21,1.33a2.52,2.52,0,0,1-2.67-1.3,2.49,2.49,0,0,1,.45-2.93l27-27A2.64,2.64,0,0,1,154.85.5a2.51,2.51,0,0,1,1.78.77l26,27a2.5,2.5,0,0,1-2.25,4.19L173,31.12v77.11A2.5,2.5,0,0,1,170.53,110.73Z" fill="#f29122"/><path d="M121.83,73.5h-30a2.49,2.49,0,0,1-2.5-2.5V54a2.5,2.5,0,0,1,5,0V68.5h25v-35h-25V45.45a2.5,2.5,0,0,1-5,0V31a2.49,2.49,0,0,1,2.5-2.5h30a2.5,2.5,0,0,1,2.5,2.5V71A2.5,2.5,0,0,1,121.83,73.5Z" fill="#f29122"/><path d="M63.83,73.5h-30a2.49,2.49,0,0,1-2.5-2.5V46.34a2.49,2.49,0,0,1,2.5-2.5h30a2.5,2.5,0,0,1,2.5,2.5V54.9a2.5,2.5,0,0,1-5,0V48.84h-25V68.5H62a2.5,2.5,0,0,1,4.32,1.72V71A2.5,2.5,0,0,1,63.83,73.5Z" fill="#f29122"/><path d="M100.82,200.88H90.52a5.76,5.76,0,0,1-5.32-3.53l-3.46-8.21a69.42,69.42,0,0,1-25.93-10.27l-8.71,3.84a5.75,5.75,0,0,1-6.31-1.09l-7.48-7.07a5.77,5.77,0,0,1-1.41-6.31l3.78-9.55A66.74,66.74,0,0,1,25.57,131.4l-7-2.71a5.75,5.75,0,0,1-3.69-5.23l-.23-8h38.1l-.25,2.23a41.21,41.21,0,0,0-.28,4.84,42,42,0,0,0,83.91,0,41.21,41.21,0,0,0-.28-4.84l-.25-2.23h39.24l-.11,6.85a5.79,5.79,0,0,1-3.2,5.08l-8.79,4.4A65.77,65.77,0,0,1,154.38,156l5.24,13.22a5.74,5.74,0,0,1-1.4,6.33l-7.49,7.08a5.75,5.75,0,0,1-6.29,1.09l-11.52-5.08a69.4,69.4,0,0,1-23.25,9.88l-3.48,8.71A5.74,5.74,0,0,1,100.82,200.88ZM56.2,174.32l.92.62a65.34,65.34,0,0,0,26.36,10.44l1.09.17,4.31,10.24a1.78,1.78,0,0,0,1.64,1.09h10.3a1.77,1.77,0,0,0,1.65-1.11l4.28-10.7,1-.22a65.63,65.63,0,0,0,23.79-10.11l.92-.63,13.54,6a1.82,1.82,0,0,0,1.94-.33l7.49-7.08a1.79,1.79,0,0,0,.42-1.95l-6-15.06.51-.85a61.92,61.92,0,0,0,8.49-24.54l.14-1.06,10.69-5.36a1.78,1.78,0,0,0,1-1.57l.05-2.78H140.06c.07,1,.1,2,.1,3.07a46,46,0,0,1-91.91,0c0-1,0-2,.1-3.07H18.8l.11,3.85A1.75,1.75,0,0,0,20,125l9.22,3.58.14,1.2a62.68,62.68,0,0,0,10.18,27.61l.59.87L35.62,169.7a1.8,1.8,0,0,0,.44,2l7.48,7.07a1.78,1.78,0,0,0,1.94.33Z" fill="#f29122"/></g></svg>