<svg id="SVG" xmlns="http://www.w3.org/2000/svg" viewBox="0 0 200 200"><g id="Vranding_7_Design" data-name="Vranding 7 Design"><path d="M98.93,185.05a5.63,5.63,0,1,1,5.63-5.63A5.63,5.63,0,0,1,98.93,185.05Zm0-8a2.33,2.33,0,1,0,2.33,2.33A2.33,2.33,0,0,0,98.93,177.09Z" fill="#f29122"/><path d="M98.93,177.09a1.65,1.65,0,0,1-1.65-1.65v-20.3a1.65,1.65,0,0,1,3.3,0v20.3A1.65,1.65,0,0,1,98.93,177.09Z" fill="#f29122"/><path d="M106.88,195H91.58a1.65,1.65,0,0,1-1.53-1l-5.3-13a1.66,1.66,0,0,1,0-1.22l10-25.89a1.65,1.65,0,0,1,1.54-1.06h5.33a1.65,1.65,0,0,1,1.54,1l10,25.9a1.71,1.71,0,0,1,0,1.16l-4.71,13A1.65,1.65,0,0,1,106.88,195Zm-14.2-3.3h13l4.11-11.28-9.38-24.26H97.38l-9.33,24.23Z" fill="#f29122"/><path d="M109.19,199.16H89.77a1.65,1.65,0,0,1-1.51-2.3L90,192.74a1.67,1.67,0,0,1,1.52-1h15.3a1.64,1.64,0,0,1,1.43.84l2.36,4.12a1.65,1.65,0,0,1-1.44,2.46Zm-16.92-3.3h14.08l-.47-.82H92.63Z" fill="#f29122"/><path d="M158.4,75.35a61.6,61.6,0,0,0-119.54,0l-3.2-.79a64.89,64.89,0,0,1,125.94,0Z" fill="#f29122"/><path d="M158.59,115l-3.05-1.26c.18-.44.35-.86.52-1.31l3.08,1.18C159,114.12,158.78,114.58,158.59,115Z" fill="#f29122"/><path d="M38.67,115c-.19-.46-.37-.92-.56-1.39l3.09-1.18c.17.45.34.87.52,1.31Z" fill="#f29122"/><path d="M98.63,155.1a64.47,64.47,0,0,1-55.35-31l2.82-1.72a61.6,61.6,0,0,0,105.06,0l2.81,1.72A64.47,64.47,0,0,1,98.63,155.1Z"/><path d="M132.38,155.83H65a1.65,1.65,0,1,1,0-3.3h67.35a1.65,1.65,0,0,1,0,3.3Z" fill="#f29122"/><path d="M135.77,157.3a3.3,3.3,0,1,1,3.3-3.3A3.3,3.3,0,0,1,135.77,157.3Zm0-4.4a1.1,1.1,0,1,0,1.1,1.1A1.1,1.1,0,0,0,135.77,152.9Z" fill="#f29122"/><path d="M62.1,157.3a3.3,3.3,0,1,1,3.29-3.3A3.3,3.3,0,0,1,62.1,157.3Zm0-4.4a1.1,1.1,0,1,0,1.1,1.1A1.1,1.1,0,0,0,62.1,152.9Z" fill="#f29122"/><path d="M187.39,114.71H12.61a1.64,1.64,0,0,1-1.41-2.49L22.5,93.38,11.22,75.85a1.68,1.68,0,0,1-.06-1.68,1.66,1.66,0,0,1,1.45-.86H187.39a1.66,1.66,0,0,1,1.45.86,1.68,1.68,0,0,1-.06,1.68L177.5,93.38l11.3,18.84a1.64,1.64,0,0,1-1.41,2.49ZM15.53,111.42H184.47L174.15,94.2a1.63,1.63,0,0,1,0-1.74l10.2-15.85H15.63l10.2,15.85a1.63,1.63,0,0,1,0,1.74Z" fill="#f29122"/><path d="M59.74,103.89h-6a2.48,2.48,0,0,1-1.86-.59,2.6,2.6,0,0,1-.56-1.87V86.59a2.58,2.58,0,0,1,.57-1.88,2.5,2.5,0,0,1,1.85-.58h6.4a14.44,14.44,0,0,1,2.45.18,5.29,5.29,0,0,1,1.86.67,5,5,0,0,1,2.07,2.47,5,5,0,0,1,.28,1.64,4.54,4.54,0,0,1-3,4.34q3.9,1.25,3.9,4.82a5.38,5.38,0,0,1-.85,3,5.13,5.13,0,0,1-2.29,2,8,8,0,0,1-2.08.53A19.87,19.87,0,0,1,59.74,103.89ZM55.28,87.14v5.11h3.66A7.25,7.25,0,0,0,61.25,92a2.21,2.21,0,0,0,1.25-1.08,2.45,2.45,0,0,0,.34-1.26,2,2,0,0,0-1.07-2,8.08,8.08,0,0,0-3.24-.49Zm4.16,8H55.28v5.76h4.3q4.05,0,4.05-2.92a2.38,2.38,0,0,0-1.05-2.17A5.89,5.89,0,0,0,59.44,95.12Z" fill="#f29122"/><path d="M76.53,95.44h-1.4v6.35a2.61,2.61,0,0,1-.56,1.84,1.84,1.84,0,0,1-1.44.59,1.81,1.81,0,0,1-1.48-.62,2.73,2.73,0,0,1-.53-1.81V86.59a2.11,2.11,0,0,1,2.46-2.46h6.51a18.93,18.93,0,0,1,2.3.12,5.64,5.64,0,0,1,1.72.46,5.13,5.13,0,0,1,1.65,1.12,4.93,4.93,0,0,1,1.08,1.69,5.59,5.59,0,0,1,.37,2A4.92,4.92,0,0,1,86,93.09,7.17,7.17,0,0,1,82.19,95a7,7,0,0,1,2,1.67A15.8,15.8,0,0,1,86,99a16.74,16.74,0,0,1,1.19,2.25,4.49,4.49,0,0,1,.42,1.38,1.41,1.41,0,0,1-.25.78,1.73,1.73,0,0,1-.68.6,2.09,2.09,0,0,1-1,.22,1.93,1.93,0,0,1-1.13-.31,3,3,0,0,1-.79-.8c-.22-.33-.52-.8-.9-1.43L81.22,99a14.46,14.46,0,0,0-1.55-2.24,3.79,3.79,0,0,0-1.38-1A4.67,4.67,0,0,0,76.53,95.44Zm2.29-8.3H75.13v5.43h3.58a9.92,9.92,0,0,0,2.43-.25,2.9,2.9,0,0,0,1.5-.85,2.47,2.47,0,0,0,.52-1.65,2.55,2.55,0,0,0-.42-1.45,2.52,2.52,0,0,0-1.16-.94A8.62,8.62,0,0,0,78.82,87.14Z" fill="#f29122"/><path d="M103.64,101.65l-.94-2.48h-8l-.94,2.53a9.18,9.18,0,0,1-.94,2,1.51,1.51,0,0,1-1.28.51,1.88,1.88,0,0,1-1.34-.55,1.7,1.7,0,0,1-.57-1.25,2.82,2.82,0,0,1,.13-.84c.09-.28.24-.68.44-1.2l5.06-12.82c.14-.37.31-.81.52-1.33a6.45,6.45,0,0,1,.64-1.29,2.66,2.66,0,0,1,.9-.83,3.27,3.27,0,0,1,2.78,0,2.73,2.73,0,0,1,.9.82,5.26,5.26,0,0,1,.58,1.07q.24.57.6,1.53l5.16,12.75a6.27,6.27,0,0,1,.61,2.11,1.75,1.75,0,0,1-.57,1.26,1.88,1.88,0,0,1-1.38.57,1.8,1.8,0,0,1-.81-.16,1.73,1.73,0,0,1-.57-.46,4.29,4.29,0,0,1-.49-.89C103.91,102.31,103.76,102,103.64,101.65Zm-7.92-5.48h5.9l-3-8.16Z" fill="#f29122"/><path d="M116.06,86.2l7.7,11.64V86.09a2.56,2.56,0,0,1,.49-1.72,1.66,1.66,0,0,1,1.32-.57,1.74,1.74,0,0,1,1.37.57,2.56,2.56,0,0,1,.49,1.72v15.53c0,1.74-.72,2.6-2.15,2.6a2.91,2.91,0,0,1-1-.15,2.44,2.44,0,0,1-.81-.49,5.4,5.4,0,0,1-.7-.79c-.22-.3-.43-.61-.65-.92l-7.5-11.51v11.57a2.45,2.45,0,0,1-.53,1.71,1.87,1.87,0,0,1-2.71,0,2.53,2.53,0,0,1-.51-1.71V86.69a4.18,4.18,0,0,1,.22-1.52,2.18,2.18,0,0,1,.85-1,2.26,2.26,0,0,1,1.28-.38,2.19,2.19,0,0,1,.92.17,2.45,2.45,0,0,1,.67.47,4.68,4.68,0,0,1,.59.77C115.64,85.53,115.85,85.85,116.06,86.2Z" fill="#f29122"/><path d="M134.29,84.13h5.22a14.16,14.16,0,0,1,3.49.38,6.31,6.31,0,0,1,2.64,1.42c2.06,1.76,3.08,4.43,3.08,8a15.5,15.5,0,0,1-.31,3.24,9.35,9.35,0,0,1-.95,2.65A8.23,8.23,0,0,1,145.8,102a6.83,6.83,0,0,1-1.74,1.15,7.84,7.84,0,0,1-2,.6,14.91,14.91,0,0,1-2.44.18h-5.22a3.27,3.27,0,0,1-1.64-.33,1.52,1.52,0,0,1-.72-.93,6,6,0,0,1-.17-1.56V86.59a2.57,2.57,0,0,1,.58-1.88A2.6,2.6,0,0,1,134.29,84.13Zm1.55,3.17v13.41h3c.67,0,1.19,0,1.57-.06a4.47,4.47,0,0,0,1.17-.27,3.2,3.2,0,0,0,1-.6q2-1.69,2-5.85a8.71,8.71,0,0,0-.88-4.38,3.92,3.92,0,0,0-2.18-1.85,10.59,10.59,0,0,0-3.13-.4Z" fill="#f29122"/><path d="M20.19,75.93a1.66,1.66,0,0,1-1.61-1.28c-1.41-6.05,2.28-14.4,8.06-18.24l5.63-3.73a14.84,14.84,0,0,0,6.49-10.41l1.63-12.33A18.21,18.21,0,0,1,58.21,14.2l13.43-.12a14.81,14.81,0,0,0,9-3.14l8-6.27a18.19,18.19,0,0,1,24.59,2.08l9.13,10.05a14.77,14.77,0,0,0,12.07,4.82l7.54-.55a18.06,18.06,0,0,1,19.34,16.09l1.23,11.14a14.69,14.69,0,0,0,6.95,11l3.41,2.11c3.85,2.38,8.25,8.85,7.89,13a1.65,1.65,0,1,1-3.29-.29c.23-2.61-3.21-8-6.34-9.92l-3.41-2.11a18,18,0,0,1-8.49-13.44l-1.23-11.14a14.76,14.76,0,0,0-15.82-13.16l-7.55.55A18.11,18.11,0,0,1,119.94,19L110.81,9a14.88,14.88,0,0,0-20.12-1.7l-8,6.26a18.1,18.1,0,0,1-11,3.85l-13.42.12A14.89,14.89,0,0,0,43.67,30.38L42,42.7a18.15,18.15,0,0,1-7.94,12.73l-5.63,3.73c-4.58,3-7.76,10.07-6.66,14.74a1.66,1.66,0,0,1-1.23,2A1.73,1.73,0,0,1,20.19,75.93Z" fill="#f29122"/><path d="M158,124.33h-8.82a1.1,1.1,0,0,1-1.1-1.1v-8.82a1.1,1.1,0,0,1,1.1-1.1H158a1.1,1.1,0,0,1,1.1,1.1v8.82A1.1,1.1,0,0,1,158,124.33Zm-7.72-2.2h6.62v-6.62h-6.62Z" fill="#f29122"/><path d="M48.06,124.33H39.25a1.1,1.1,0,0,1-1.1-1.1v-8.82a1.1,1.1,0,0,1,1.1-1.1h8.81a1.1,1.1,0,0,1,1.1,1.1v8.82A1.1,1.1,0,0,1,48.06,124.33Zm-7.71-2.2H47v-6.62H40.35Z" fill="#f29122"/></g></svg>