<svg id="SVG" xmlns="http://www.w3.org/2000/svg" viewBox="0 0 200 200"><g id="Client_service" data-name="Client service"><path d="M99.23,132.41H92.65a19.9,19.9,0,0,1-19.88-19.89V99.45a2.76,2.76,0,1,1,5.52,0v13.07a14.37,14.37,0,0,0,14.36,14.36h6.58a14.37,14.37,0,0,0,14.36-14.36V93a2.76,2.76,0,0,1,5.52,0v19.5A19.91,19.91,0,0,1,99.23,132.41Z" fill="#f29122"/><path d="M79.39,102.58a22.82,22.82,0,0,1-4.41-.42,2.76,2.76,0,0,1,1.09-5.42,17.15,17.15,0,0,0,3.32.32A18.84,18.84,0,0,0,96.3,85.84,20.41,20.41,0,0,0,98,79.64a2.76,2.76,0,1,1,5.49.61,26,26,0,0,1-2.19,7.88A24.38,24.38,0,0,1,79.39,102.58Z" fill="#f29122"/><path d="M113.63,96a23.51,23.51,0,0,1-16.8-7,2.76,2.76,0,1,1,4-3.84,17.73,17.73,0,0,0,12.84,5.37,15.74,15.74,0,0,0,2.34-.16,2.77,2.77,0,0,1,.75,5.48A23.37,23.37,0,0,1,113.63,96Z" fill="#f29122"/><path d="M123.84,140.11a2.76,2.76,0,0,1-2.77-2.76v-53a26,26,0,1,0-51.9,0v52.83a2.77,2.77,0,0,1-5.53,0V84.36a31.48,31.48,0,0,1,63,0v53A2.76,2.76,0,0,1,123.84,140.11Z" fill="#f29122"/><path d="M95.67,153.39a2.2,2.2,0,0,1-1.53-.62l-8.57-8.28a2.21,2.21,0,0,1-.65-2L87.19,129a2.21,2.21,0,1,1,4.35.73l-2.07,12.43,6.25,6,6.68-6.08-2.07-12.38a2.21,2.21,0,0,1,4.36-.73L107,142.53a2.2,2.2,0,0,1-.69,2l-9.1,8.29A2.23,2.23,0,0,1,95.67,153.39Z" fill="#f29122"/><path d="M49.47,163.77a2.28,2.28,0,0,1-.63-.09,2.21,2.21,0,0,1-1.48-2.75l2.23-7.46a21,21,0,0,1,20.5-16.65H87.74a2.21,2.21,0,1,1,0,4.42H70.09A16.59,16.59,0,0,0,53.9,154.45a1.05,1.05,0,0,1,0,.19l-2.26,7.56A2.22,2.22,0,0,1,49.47,163.77Z" fill="#f29122"/><path d="M144.27,175.48h-68a2.21,2.21,0,0,1,0-4.42h65l-5.61-16.8-.06-.21a16.46,16.46,0,0,0-16.11-12.81H104.13a2.21,2.21,0,1,1,0-4.42h15.29A20.85,20.85,0,0,1,139.81,153l6.55,19.62a2.21,2.21,0,0,1-2.09,2.91Z" fill="#f29122"/><path d="M110,160a2.16,2.16,0,0,1-1-.24l-13.25-6.62a2.21,2.21,0,1,1,2-3.95l11,5.49,5.11-14.84A2.21,2.21,0,1,1,118,141.3l-5.92,17.23A2.23,2.23,0,0,1,110,160Z" fill="#f29122"/><path d="M81.72,160a2.18,2.18,0,0,1-.72-.12,2.22,2.22,0,0,1-1.29-1.17l-8.13-17.67a2.21,2.21,0,1,1,4-1.85l7.17,15.58,10.79-5.57a2.21,2.21,0,1,1,2,3.92l-12.85,6.63A2.28,2.28,0,0,1,81.72,160Z" fill="#f29122"/><path d="M116.66,112a1.65,1.65,0,0,1-1.66-1.65V96a1.66,1.66,0,1,1,3.31,0v14.36A1.65,1.65,0,0,1,116.66,112Z" fill="#f29122"/><path d="M79.19,179.25a2.2,2.2,0,0,1-1.73-.84L67,165.06a2.21,2.21,0,0,1,3.47-2.73l10.49,13.35a2.2,2.2,0,0,1-1.74,3.57Z" fill="#f29122"/><path d="M44,134.4a2.22,2.22,0,0,1-1.74-.84L31.74,120.22a2.21,2.21,0,0,1,3.47-2.73l10.48,13.34a2.2,2.2,0,0,1-.37,3.1A2.16,2.16,0,0,1,44,134.4Z" fill="#f29122"/><path d="M59.58,192a11.86,11.86,0,0,1-9.43-4.57L16.49,144.61a12,12,0,0,1,2-16.81l13.6-10.68a2.21,2.21,0,0,1,2.73,3.47l-13.6,10.69A7.56,7.56,0,0,0,20,141.88l33.66,42.84A7.56,7.56,0,0,0,64.23,186l13.6-10.69a2.21,2.21,0,0,1,2.73,3.48L67,189.46A11.86,11.86,0,0,1,59.58,192Z" fill="#f29122"/><path d="M59.22,171.16a10.31,10.31,0,0,1-8.12-3.95L36.37,148.46a10.28,10.28,0,0,1,.86-13.7,9,9,0,0,1,.88-.78l4.48-3.52a2.21,2.21,0,0,1,2.73,3.47l-4.48,3.52c-.18.15-.36.3-.52.46a5.88,5.88,0,0,0-.47,7.82l14.73,18.75a5.88,5.88,0,0,0,7.72,1.39c.18-.12.38-.25.56-.39L67.34,162a2.21,2.21,0,1,1,2.73,3.47L65.59,169a9.07,9.07,0,0,1-1,.66A10.19,10.19,0,0,1,59.22,171.16Z" fill="#f29122"/><path d="M74,183.34a2.17,2.17,0,0,1-1.73-.84L61.72,169.11a2.21,2.21,0,0,1,3.48-2.73l10.52,13.39A2.2,2.2,0,0,1,74,183.34Z" fill="#f29122"/><path d="M38.78,138.54a2.21,2.21,0,0,1-1.74-.85L26.53,124.31A2.21,2.21,0,0,1,30,121.58L40.52,135a2.21,2.21,0,0,1-1.74,3.57Z" fill="#f29122"/><path d="M148,158a2.76,2.76,0,0,1-1.77-4.88A78.87,78.87,0,0,0,174.56,92.5c0-1.73-.06-3.52-.18-5.33a2.76,2.76,0,0,1,5.51-.36c.13,1.92.2,3.83.2,5.69a84.39,84.39,0,0,1-30.35,64.89A2.77,2.77,0,0,1,148,158Z" fill="#f29122"/><path d="M14.57,106.48a2.75,2.75,0,0,1-2.73-2.39A84.53,84.53,0,0,1,136.29,18.43a2.76,2.76,0,1,1-2.66,4.83A79,79,0,0,0,16.57,92.5a81,81,0,0,0,.74,10.85,2.78,2.78,0,0,1-2.37,3.11A2.3,2.3,0,0,1,14.57,106.48Z" fill="#f29122"/><path d="M169.67,96a2.35,2.35,0,0,1-1-.23,2.21,2.21,0,0,1-1-3l5.52-11a2.2,2.2,0,0,1,3.2-.85l9.94,6.62a2.21,2.21,0,0,1-2.45,3.68l-7.86-5.24-4.4,8.81A2.22,2.22,0,0,1,169.67,96Z" fill="#f29122"/><path d="M16.15,111.42a2.21,2.21,0,0,1-1.22-.37L5,104.42a2.21,2.21,0,1,1,2.45-3.67L15.29,106l4.41-8.81a2.21,2.21,0,0,1,3.95,2l-5.52,11a2.25,2.25,0,0,1-1.41,1.15A2.22,2.22,0,0,1,16.15,111.42Z" fill="#f29122"/><path d="M138.35,81.06,142.66,78a6.79,6.79,0,0,0,1.92-1.92h-2.1c-8.66,0-15.43-4.8-15.43-10.92V39.55c0-6.12,6.77-10.92,15.43-10.92h38.09c8.65,0,15.43,4.8,15.43,10.92v25.6c0,6.12-6.78,10.92-15.43,10.92H159.93c-1.16,2-4.83,4.79-16.29,4.92ZM142.48,32c-6.57,0-12.12,3.48-12.12,7.6v25.6c0,4.13,5.55,7.61,12.12,7.61h5.4l.26,1.34a5.07,5.07,0,0,1-.55,3.35c4.95-.49,9.42-1.72,9.56-3.2l.15-1.49h23.27c6.57,0,12.11-3.48,12.11-7.61V39.55c0-4.12-5.54-7.6-12.11-7.6Z" fill="#f29122"/><path d="M172.16,46.44H143.08a1.66,1.66,0,1,1,0-3.31h29.08a1.66,1.66,0,0,1,0,3.31Z" fill="#f29122"/><path d="M180,46.44h-2.44a1.66,1.66,0,1,1,0-3.31H180a1.66,1.66,0,0,1,0,3.31Z" fill="#f29122"/><path d="M180,53.92H158.4a1.66,1.66,0,0,1,0-3.32H180a1.66,1.66,0,0,1,0,3.32Z" fill="#f29122"/><path d="M153.42,53.92h-.17a1.66,1.66,0,1,1,0-3.32h.17a1.66,1.66,0,0,1,0,3.32Z" fill="#f29122"/><path d="M147.77,53.92h-4.69a1.66,1.66,0,0,1,0-3.32h4.69a1.66,1.66,0,0,1,0,3.32Z" fill="#f29122"/><path d="M180,61.39H149.46a1.66,1.66,0,1,1,0-3.31H180a1.66,1.66,0,0,1,0,3.31Z" fill="#f29122"/></g></svg>